# https://github.com/mikedh/trimesh
v -0.18689869 -0.23562422 -0.69764064
v -0.17839195 -0.22820374 -0.64434339
v -0.16799572 -0.25255461 -0.64685992
v -0.18147280 -0.24140116 -0.64640935
v -0.16189882 -0.23932382 -0.63639217
v -0.16197439 -0.23695858 -0.70189266
v -0.17655786 -0.22884514 -0.71581367
v -0.15526574 -0.23444426 -0.68896823
v -0.16518579 -0.23589729 -0.67756379
v -0.17205992 -0.24860151 -0.71511555
v -0.15673444 -0.23141941 -0.67542726
v -0.16211156 -0.21020146 -0.68453075
v -0.16007494 -0.20655493 -0.67134917
v -0.15923924 -0.19586365 -0.68363336
v -0.13604076 -0.25718609 -0.70841941
v -0.14311524 -0.21020924 -0.65436719
v -0.15466189 -0.20744736 -0.70150672
v -0.14894340 -0.15953960 -0.67555179
v -0.17475057 -0.23874376 -0.72056553
v -0.14649322 -0.24050676 -0.65622370
v -0.14682685 -0.23437676 -0.64081498
v -0.14008637 -0.23580943 -0.69981020
v -0.11526546 -0.24969529 -0.63891286
v -0.12820049 -0.24080929 -0.66846896
v -0.13773618 -0.23632399 -0.72005362
v -0.13354827 -0.23146410 -0.66087792
v -0.13075765 -0.21250151 -0.70964575
v -0.13283047 -0.16557044 -0.65036991
v -0.14042668 -0.17173250 -0.70305047
v -0.13518817 -0.15223151 -0.68028080
v -0.11873341 -0.25934479 -0.67334697
v -0.11486690 -0.24808154 -0.71992675
v -0.12286791 -0.23912153 -0.68422945
v -0.11770846 -0.23325880 -0.67743746
v -0.11786436 -0.20702242 -0.65677991
v -0.11893724 -0.16160456 -0.70834332
v -0.12478360 -0.15214615 -0.65153587
v -0.12850176 -0.15301617 -0.69783885
v -0.11951989 -0.12500026 -0.65658758
v -0.12962623 -0.24013903 -0.70207487
v -0.11096772 -0.23456741 -0.64205312
v -0.11948036 -0.15318915 -0.67045695
v -0.11160291 -0.13996396 -0.68174962
v -0.11023205 -0.11120594 -0.69680183
v -0.09351467 -0.06032763 -0.68644960
v -0.10237511 -0.25110605 -0.71134458
v -0.10146105 -0.23907982 -0.72068464
v -0.11576293 -0.18402206 -0.70823223
v -0.10443294 -0.16458783 -0.66705144
v -0.11063988 -0.16977770 -0.64925605
v -0.11373565 -0.14784928 -0.70290210
v -0.10540243 -0.15896130 -0.68793152
v -0.10825878 -0.12538222 -0.64880103
v -0.10334228 -0.23956317 -0.63747926
v -0.09760781 -0.22981501 -0.70975028
v -0.11385505 -0.23988984 -0.69761382
v -0.09942083 -0.23034336 -0.64952527
v -0.11971879 -0.22798763 -0.69571300
v -0.10038085 -0.17282463 -0.65602303
v -0.09992951 -0.16200760 -0.70029305
v -0.09293500 -0.13801051 -0.64938240
v -0.09038477 -0.14381075 -0.66156452
v -0.09203191 -0.14305450 -0.70010501
v -0.10657855 -0.13344369 -0.66474077
v -0.09452326 -0.10930101 -0.70111989
v -0.09041766 -0.07837041 -0.69867524
v -0.08717450 -0.07284878 -0.64536947
v -0.09246310 -0.23973697 -0.70762064
v -0.09414244 -0.24113402 -0.64848426
v -0.09225956 -0.17790840 -0.67797491
v -0.09234050 -0.14400918 -0.68673133
v -0.07884931 -0.10924810 -0.68242575
v -0.09488355 -0.11410689 -0.68518653
v -0.08419008 -0.09068481 -0.68423056
v -0.08360839 -0.12806290 -0.66048504
v -0.09088049 -0.09883791 -0.66181459
v -0.07870992 -0.06806179 -0.68187458
v -0.09768053 -0.10669410 -0.67763043
v -0.07639663 -0.11609531 -0.69316291
v -0.07317567 -0.10961032 -0.65832500
v -0.06806104 -0.07624228 -0.68149502
v -0.06274724 -0.08214495 -0.65970407
v -0.07581798 -0.06147901 -0.66074662
v -0.05775050 -0.02337503 -0.68009224
v -0.07215567 -0.02809909 -0.69520558
v -0.06340312 -0.00254812 -0.69151340
v -0.06113563 -0.08275549 -0.68623678
v -0.05138699 -0.05780573 -0.65982214
v -0.06108102 -0.07356116 -0.64669400
v -0.05167036 -0.04593520 -0.69493203
v -0.06205924 -0.02142583 -0.67135123
v -0.06647887 -0.01550908 -0.64522780
v -0.05888340 0.02288109 -0.67381687
v -0.08503826 -0.04287317 -0.65545315
v -0.05344840 0.01915618 -0.69232554
v -0.06415502 0.03633403 -0.66515815
v -0.05851326 -0.06130583 -0.67961681
v -0.05947343 -0.02287441 -0.65932908
v -0.04808063 -0.00448807 -0.67879379
v -0.05586222 -0.01116653 -0.66216213
v -0.05612329 0.02486783 -0.64768319
v -0.05811861 0.03437966 -0.68096283
v -0.05390144 0.03236043 -0.08129748
v -0.05379303 0.04464224 -0.14912401
v -0.05346535 0.04535068 0.00758094
v -0.05433362 0.07479910 -0.19501133
v -0.05082113 0.06531625 -0.14364143
v -0.05861152 0.06131563 -0.66556851
v -0.05359151 0.08221730 0.00752023
v -0.05247522 0.09058156 0.04293556
v -0.05444958 0.08491406 -0.14073856
v -0.05437387 0.09495450 -0.11390906
v -0.05438938 0.09513390 0.02815563
v -0.05241229 0.10066606 -0.18259861
v -0.04657947 -0.13324296 0.80119251
v -0.04221879 -0.13105219 0.81878283
v -0.04515687 -0.10556300 0.95645202
v -0.04528616 -0.10211418 0.51642871
v -0.05019102 -0.11076004 0.80597845
v -0.04436209 -0.07070139 0.48305707
v -0.04672773 -0.08339527 0.85885529
v -0.04678055 -0.06529687 0.78764047
v -0.04961213 -0.06146966 0.93865833
v -0.04885590 -0.04292355 0.76024981
v -0.03780610 -0.02499278 -0.66037039
v -0.04674460 -0.02961834 0.69428892
v -0.04927322 0.00309164 0.94894537
v -0.04385040 0.00887368 0.96722660
v -0.04933970 0.00058301 0.64511751
v -0.03999127 -0.00328798 -0.69461337
v -0.04987717 -0.00790644 0.71276666
v -0.04495079 -0.07345911 0.96595592
v -0.04179789 -0.00190523 0.51067642
v -0.03695397 0.02240999 -0.67081389
v -0.04258427 0.01115951 -0.64323815
v -0.04790308 0.03754010 0.85520803
v -0.04402314 0.01768188 -0.66991697
v -0.04861881 0.02003985 -0.00490886
v -0.04760353 0.01030855 0.50371693
v -0.04811871 0.01080776 0.57726960
v -0.04630444 0.03728954 -0.20054683
v -0.05327176 0.03857711 0.03507535
v -0.04642289 0.03877794 0.95439696
v -0.04271796 0.03469530 0.09225918
v -0.04449788 0.03472623 0.22916535
v -0.04098694 0.02651723 0.26238922
v -0.04455233 0.03399481 0.27273469
v -0.03954604 0.02987183 0.44556644
v -0.05161840 0.03065566 -0.70328462
v -0.04650362 0.04853352 -0.64016000
v -0.05260955 0.03658848 -0.18420851
v -0.04573089 0.04392781 0.17783251
v -0.04499769 0.06218307 -0.11076606
v -0.04602963 0.04424476 0.05593426
v -0.04634835 0.04431451 0.42233645
v -0.04895281 0.02935309 0.50363177
v -0.04879604 0.04935813 0.73246126
v -0.03638174 0.06276290 -0.21668409
v -0.04952658 0.05317899 0.61550466
v -0.04407487 0.07217472 -0.67644386
v -0.04707447 0.06783037 -0.01089519
v -0.04771186 0.09038641 -0.66126353
v -0.04532590 0.08568245 0.55652127
v -0.03639412 0.09448418 -0.64225205
v -0.05002787 0.10531802 -0.08261448
v -0.04513026 0.11047222 0.05363549
v -0.04371312 0.11302511 -0.20110284
v -0.03974065 0.11649507 -0.05816308
v -0.04542102 0.04183886 0.47651327
v -0.04184539 0.11942239 0.46430120
v -0.04443140 0.12248929 -0.46638046
v -0.04569591 0.12371263 -0.43274190
v -0.04444045 0.12110417 -0.34651667
v -0.04545168 0.11312279 -0.12197592
v -0.04578826 0.11106117 0.10947086
v -0.04545378 0.14363649 0.27933614
v -0.04559810 0.13687767 -0.84242664
v -0.04543833 0.13323335 -0.36220194
v -0.04517312 0.13681695 -0.33098570
v -0.04421413 0.12128941 -0.30954330
v -0.04802900 0.13299121 -0.19235125
v -0.04463931 0.13341203 -0.14299803
v -0.04858878 0.13563154 -0.12423037
v -0.04434150 0.13278094 0.02653382
v -0.04537098 0.15002304 0.33547131
v -0.04813421 0.14821645 -0.83002818
v -0.04845884 0.13273721 -0.76718908
v -0.04391635 0.12433047 -0.61735446
v -0.04586069 0.13164843 -0.48452582
v -0.04221561 0.13674468 -0.31234079
v -0.04579299 0.13638600 -0.29162912
v -0.04519363 0.12487340 -0.21492015
v -0.05132786 0.12817073 0.08958195
v -0.04951293 0.13808726 -0.85413363
v -0.04588930 0.13755170 -0.57082716
v -0.04370052 0.15146668 -0.44727320
v -0.04581138 0.14614425 -0.30972811
v -0.04388531 0.15188566 -0.24656234
v -0.04515946 0.13565457 -0.25415661
v -0.04537222 0.14879277 -0.20509263
v -0.04968023 0.14952152 0.08468504
v -0.04764689 0.15033994 0.13905520
v -0.04576877 0.13816563 0.15410149
v -0.04763950 0.15914642 0.23255756
v -0.04624276 0.14526048 0.44708261
v -0.04407055 0.15885054 -0.85280726
v -0.04376973 0.15428812 -0.61834081
v -0.04463842 0.14990163 -0.48425497
v -0.03981175 0.15491403 -0.14383762
v -0.04642149 0.16102132 0.12679972
v -0.04911152 0.17965015 0.39447294
v -0.04563505 0.15838499 0.42999084
v -0.04263569 0.17763458 0.44120554
v -0.04640470 0.17676870 0.29960082
v -0.04509065 0.19758236 0.42526253
v -0.03483535 -0.14599475 0.47488838
v -0.02774608 -0.12794961 0.79620992
v -0.03883740 -0.12648866 0.95385377
v -0.03968733 -0.11247132 0.89221625
v -0.03711611 -0.13241990 0.46075654
v -0.03806760 -0.09961415 0.81936491
v -0.04080609 -0.07279620 0.44185178
v -0.03781623 -0.09900071 0.79637087
v -0.03876076 -0.09312641 0.82089984
v -0.04022357 -0.07951300 0.51357399
v -0.03659819 -0.09047254 0.80165454
v -0.03808040 -0.04290674 0.48418614
v -0.04008342 -0.02351281 0.41518203
v -0.03985258 -0.03234075 0.25180953
v -0.04182804 -0.03060220 0.45982101
v -0.03973320 -0.02714994 -0.67861207
v -0.04898257 -0.03677948 -0.64381925
v -0.03020773 -0.02200724 0.23904599
v -0.03295298 -0.00594961 0.55253997
v -0.03128544 -0.00764183 0.48459815
v -0.04550306 0.01511247 -0.15869344
v -0.03045910 0.00210957 -0.15200818
v -0.04241593 0.01459211 0.44501513
v -0.03957919 0.02044111 0.47484661
v -0.03509413 0.01215176 -0.19002123
v -0.04461354 0.03404381 0.38160782
v -0.03207659 0.02293768 0.41894463
v -0.03662975 0.03631827 0.97392734
v -0.03892478 0.03138162 -0.63275314
v -0.03906985 0.05721989 0.95835804
v -0.02774127 0.06818899 0.96742937
v -0.03876570 0.06681576 0.86184706
v -0.03618355 0.07852865 0.78105641
v -0.03909991 0.08163919 -0.69589144
v -0.03037191 0.06814660 -0.28949614
v -0.03516066 0.09427086 -0.23921520
v -0.04332763 0.07472271 0.69258051
v -0.03685833 0.09613465 -0.67777490
v -0.03279397 0.08994978 0.70074642
v -0.03526182 0.09797592 -0.69405095
v -0.03240474 0.09811242 -0.29302695
v -0.04380883 0.08099762 0.52413293
v -0.03422155 0.11328090 0.48642604
v -0.03486431 0.10612342 -0.21660064
v -0.04360477 0.11525762 -0.85395256
v -0.04357962 0.11578486 -0.82859453
v -0.03847560 0.10917227 -0.76524782
v -0.04321648 0.12160494 -0.52509248
v -0.04430088 0.12084104 -0.24272410
v -0.04289060 0.11542595 0.04014228
v -0.03699527 0.11763344 -0.75681775
v -0.03080535 0.10786812 -0.65078857
v -0.04234191 0.12211631 -0.57058251
v -0.02990428 0.10704663 -0.55419862
v -0.04189062 0.13309113 -0.75574917
v -0.03962210 0.12588282 -0.63526362
v -0.04115213 0.14108914 -0.63238436
v -0.04282608 0.13678797 -0.55549787
v -0.04312405 0.13821225 -0.10586031
v -0.04128329 0.14198032 -0.03455016
v -0.03946201 0.14969562 -0.75284741
v -0.04213059 0.13483892 -0.97092115
v -0.04085972 0.15069419 -0.50748622
v -0.04501412 0.14933206 -0.38412728
v -0.03525890 0.16208087 -0.19870166
v -0.03112278 0.17607609 -0.79326413
v -0.04505899 0.14728514 -0.53296844
v -0.03375976 0.16124521 -0.38827208
v -0.04364734 0.15168799 -0.34109222
v -0.03196249 0.16031481 -0.29665236
v -0.02880273 0.15711527 -0.27828728
v -0.04096244 0.15262642 0.02698881
v -0.03938330 0.15778203 0.39266122
v -0.03882903 0.15851890 -0.92620462
v -0.04106336 0.17012023 0.11466158
v -0.03883383 0.17193330 0.13491926
v -0.03961191 0.17270459 0.23288905
v -0.03972813 0.18326921 0.38007299
v -0.03552511 0.16171368 0.35072981
v -0.02988705 -0.16159181 0.18934517
v -0.02706978 -0.16892315 0.22325495
v -0.03028723 -0.15508980 0.15889989
v -0.03286744 -0.15107641 0.17712387
v -0.02896024 -0.14668082 0.20699303
v -0.03338102 -0.15939553 0.22230353
v -0.02202747 -0.14637836 0.49483981
v -0.02795595 -0.14080977 0.08703019
v -0.03264260 -0.14300754 0.13911231
v -0.02868025 -0.13997465 0.19161223
v -0.03251046 -0.10874284 0.22378413
v -0.02604566 -0.13809749 0.96785819
v -0.02818390 -0.13722290 0.92901426
v -0.03211291 -0.13549831 0.09169443
v -0.02780407 -0.12594944 0.10975516
v -0.03512589 -0.12535517 0.53127248
v -0.02859758 -0.13447370 0.15253911
v -0.02051563 -0.11690717 0.79888752
v -0.02840917 -0.08127653 0.23489467
v -0.02839248 -0.07681456 0.21366562
v -0.02771890 -0.06573366 0.09010291
v -0.02599835 -0.10167065 0.54663370
v -0.03119725 -0.04060281 0.09927298
v -0.03028733 -0.03517716 0.23500113
v -0.01760478 -0.12507022 0.98212177
v -0.03922823 -0.01342314 0.61571338
v -0.03881972 -0.05609417 0.72047830
v -0.02504564 -0.05257157 0.51003653
v -0.03497513 -0.10992152 0.97611120
v -0.03254387 -0.02511725 0.22494616
v -0.02877345 -0.02582344 0.11531410
v -0.03108431 -0.02694145 0.29827208
v -0.03208946 -0.02699495 0.36649995
v -0.02906127 -0.00600969 0.37112788
v -0.02064304 -0.01618751 0.49099546
v -0.03871141 -0.03087974 -0.68889951
v -0.02853389 -0.00053392 0.21622528
v -0.02705647 0.00234006 -0.67729360
v -0.02927127 -0.01242602 0.32247456
v -0.03017363 0.00313501 -0.00152810
v -0.03061879 0.02202020 0.09882463
v -0.03114083 -0.02692803 0.27258752
v -0.03430359 0.01021900 -0.66152911
v -0.03442034 0.00974892 0.02922387
v -0.02886138 0.01956490 0.20951285
v -0.03014530 0.00637379 0.32179051
v -0.02705220 0.01248696 0.34356871
v -0.02853931 0.02028508 0.13433091
v -0.03438110 0.02423257 0.22574787
v -0.03847976 0.02694730 0.24460843
v -0.03000395 0.02115929 0.27851623
v -0.03156112 0.02144584 0.33187738
v -0.02869175 0.01635158 0.34790161
v -0.03093382 0.02017481 0.38076945
v -0.02813735 0.01232629 0.39486685
v -0.02043037 0.01953223 -0.64597100
v -0.02434623 0.02503233 -0.20909345
v -0.02376828 0.02799328 -0.22869656
v -0.02383721 0.05216947 0.97869695
v -0.03536046 0.02835142 -0.71159496
v -0.01972508 0.06686580 -0.24634891
v -0.03362574 0.05199233 -0.22908396
v -0.03528345 0.07932483 -0.60956022
v -0.02772461 0.07792850 -0.45215133
v -0.03327964 0.08103112 -0.33732474
v -0.02964724 0.07144673 -0.31105308
v -0.03438347 0.07538277 -0.23529078
v -0.02827542 0.08189548 -0.59323868
v -0.02745777 0.07951442 0.86171716
v -0.03262497 0.10260949 -0.58780388
v -0.03113284 0.08555792 -0.54732714
v -0.03257235 0.08369518 -0.45056896
v -0.03400534 0.08862839 -0.30904346
v -0.03108294 0.10531098 -0.52789384
v -0.03306457 0.09853331 -0.45441366
v -0.03226611 0.10304367 -0.85365459
v -0.02837292 0.10620922 -0.69364945
v -0.02773045 0.10716477 -0.44738907
v -0.02668144 0.10659589 -0.24399940
v -0.02824508 0.10333150 0.53863469
v -0.03168112 0.10189779 0.58021338
v -0.03091839 0.11280538 -0.97079275
v -0.03286974 0.11321328 -0.70791485
v -0.03083378 0.10641941 -0.61780196
v -0.02743623 0.10684574 -0.39783823
v -0.02728538 0.10726741 -0.34886303
v -0.03265663 0.13816081 -0.99660062
v -0.03093075 0.15392131 0.46406561
v -0.03402615 0.16040844 -0.75187350
v -0.03569931 0.15628967 -0.63165674
v -0.03638655 0.15985526 -0.55827404
v -0.03056115 0.16600391 -0.53193957
v -0.02167210 0.16983592 -0.46645502
v -0.04340265 0.15286632 -0.41623297
v -0.01799711 0.17130583 -0.22133608
v -0.03452479 0.16172705 -0.11388430
v -0.02548246 0.16356139 -0.04943162
v -0.02319711 0.16791573 -0.96996617
v -0.03273228 0.17237421 -0.85242518
v -0.03143125 0.16669297 -0.84323364
v -0.02073865 0.16975291 -0.38291902
v -0.03004533 0.17701551 -0.83163521
v -0.02046127 0.17683138 0.24897039
v -0.03298928 0.17995595 0.32484072
v -0.02702092 0.19023064 0.35743283
v -0.03105464 0.23170025 -0.83155471
v -0.03183452 0.22394720 -0.79344187
v -0.02655444 -0.15568715 0.15353289
v -0.00993357 -0.14010785 0.81998618
v -0.01673307 -0.14642274 0.94723985
v -0.02682671 -0.12844711 0.08306664
v -0.02338320 -0.12396161 0.81286129
v -0.01832814 -0.11513077 0.82219388
v -0.02726184 -0.10966186 0.82923652
v -0.02737167 -0.16151371 0.23068535
v -0.01431040 -0.10581842 0.79155823
v -0.00973321 -0.03914633 0.39868229
v -0.02674480 -0.05654848 0.41575958
v -0.02639848 -0.03601848 0.29807827
v -0.02903930 -0.02788154 0.39246532
v -0.01292015 -0.03254347 0.25185604
v -0.02523985 -0.00240094 0.97924727
v -0.00862918 -0.01693276 0.49412442
v -0.03148466 -0.01190921 0.59233933
v -0.02674073 -0.00552853 -0.65230786
v -0.02427841 0.00913625 -0.69030632
v -0.02775852 0.00463499 0.36525313
v -0.01693760 0.01537750 -0.69318236
v -0.02633906 0.06386681 -0.60721091
v -0.01960146 0.07490673 -0.38041236
v -0.01656025 0.07135233 -0.29764453
v -0.01789143 0.08034448 -0.56042111
v -0.01779085 0.07971352 -0.47268127
v -0.01937334 0.09172392 0.78290523
v -0.02579847 0.10510347 -0.75762814
v -0.02347172 0.10411460 -0.70596797
v -0.03040136 0.12335065 -0.99222801
v -0.01364676 0.12774726 0.48150782
v -0.01931537 0.11000532 0.57341206
v -0.02875892 0.15958148 -0.36760273
v -0.03086088 0.15844464 0.44204362
v -0.01322839 0.17212909 -0.75446201
v -0.02923760 0.15667953 -0.41357302
v -0.01466003 0.17192286 -0.34767801
v -0.01926224 0.17169906 -0.21064244
v -0.02406576 0.16962587 0.03296140
v -0.04284925 0.16330276 -0.76433048
v -0.01150984 0.17309743 -0.55716584
v -0.01720209 0.17063095 -0.30163377
v -0.02161511 0.17811321 0.08878666
v -0.02038972 0.17814817 0.12246507
v -0.01396219 0.18085328 -0.76637773
v -0.01871615 0.17586942 0.34818909
v -0.01770862 0.17659237 0.37070765
v -0.02749194 0.19321178 0.39494413
v -0.01776809 0.19971751 0.41821137
v -0.01727165 0.21417571 -0.79264591
v -0.00880489 -0.13907738 0.44644732
v -0.02221319 -0.14544949 0.79466991
v -0.02407767 -0.15242434 0.80566854
v -0.01623252 -0.13221056 0.88466633
v -0.00575118 -0.08860307 0.54650781
v -0.02433720 -0.07057290 0.72147018
v -0.00551641 -0.06074616 0.68559190
v -0.02382889 -0.01306861 0.36001877
v -0.01998205 0.00625252 0.32610831
v -0.01660596 0.01516676 -0.65701366
v -0.02578015 0.06244802 -0.23924490
v -0.00751964 0.06276634 -0.64511498
v -0.03142212 0.05967077 -0.63312015
v 0.00086617 0.07061543 0.97459400
v -0.01433071 0.08203529 -0.59537553
v -0.01261121 0.08273738 -0.24171797
v -0.01056420 0.08732895 -0.57119941
v -0.01460295 0.08604465 -0.29489103
v -0.02045928 0.09680758 -0.82940517
v -0.01568443 0.09609101 -0.76799708
v -0.01413416 0.09515577 -0.53915480
v -0.02664330 0.10143830 -0.83722976
v -0.01620264 0.10429587 0.65095816
v -0.00474553 0.12300137 -0.99437822
v -0.01714836 0.13787020 -0.99580349
v -0.00338924 0.13677741 -0.95440757
v -0.01868809 0.16057885 -0.98968962
v -0.01408850 0.17786617 -0.83618252
v -0.02224150 0.17285597 -0.57265956
v -0.00819873 0.17579333 -0.53460073
v -0.00775735 0.17300568 -0.47524609
v -0.01910189 0.17115938 -0.43267598
v -0.00692199 0.16835071 -0.39864237
v -0.00545572 0.17530396 -0.18480858
v -0.01721084 0.17965731 -0.85261855
v -0.01924280 0.18283809 -0.78668738
v -0.00686621 0.18340287 0.25856110
v -0.02977679 0.18640912 0.28817407
v -0.02317492 0.18185047 0.44013961
v -0.00484497 0.17600401 0.42943300
v -0.00403380 0.19917001 -0.79548890
v -0.01451834 0.21201601 -0.83213679
v -0.01956916 0.22680379 -0.83531340
v 0.01351553 0.23734567 -0.82975699
v -0.02503858 0.23615828 -0.79810320
v 0.00632624 -0.11719495 0.81270620
v 0.00193713 -0.12377100 0.54732100
v 0.01684009 -0.03664948 0.23581365
v -0.02893026 -0.03782198 0.37322386
v -0.02800872 -0.01753844 0.33461418
v 0.00466151 -0.01475572 0.56124880
v -0.00190466 -0.00213594 -0.16402776
v 0.01960290 0.01124867 0.33469516
v -0.01979107 0.01819861 0.09631653
v -0.02981176 0.02362836 0.05308579
v -0.02121785 0.02354738 0.09030868
v -0.00984304 0.04600448 0.98199297
v -0.00388409 0.05664031 -0.65823937
v -0.01484546 0.06752061 -0.70511641
v -0.00360814 0.09867744 -0.71155515
v -0.01508109 0.07694112 0.96072850
v -0.01233646 0.09015802 -0.33037107
v -0.00724137 0.09300923 0.81274405
v -0.00619797 0.09432919 -0.85254981
v 0.00439234 0.09817972 -0.83709956
v -0.01408061 0.10183372 -0.96695852
v -0.00533692 0.10811192 -0.99620870
v -0.00537636 0.15162089 -0.99572144
v -0.00373074 0.16121632 -0.36582295
v 0.01239466 0.15609764 0.46699462
v -0.00499143 0.17343778 -0.96730203
v -0.00845604 0.17032642 -0.42380451
v -0.00419513 0.16886890 -0.33645672
v -0.01600109 0.17131710 -0.25002835
v -0.00393029 0.16709364 -0.26252940
v -0.00186905 0.17140893 -0.23288419
v -0.00462399 0.17337866 -0.65360914
v -0.02101708 0.16930530 -0.63358779
v -0.00083976 0.16982503 -0.43874392
v -0.00442802 0.16961750 -0.30266650
v -0.01752449 0.17422166 -0.11947386
v -0.00140327 0.17193775 -0.10216753
v 0.00388794 0.16991691 -0.03138129
v -0.00813681 0.17324714 0.02713456
v -0.01391632 0.17703677 0.41363329
v -0.00369403 0.18128157 0.09848121
v -0.00929689 0.18302621 0.13241427
v -0.00401455 0.18298460 0.35984814
v -0.00921624 0.22998965 -0.78869053
v 0.00151127 -0.15346305 0.46889924
v -0.00032553 -0.13377751 0.88253832
v 0.01284919 -0.14668948 0.95060789
v -0.00630977 -0.14050424 0.97741283
v 0.01672082 -0.12470670 0.81485513
v 0.00719506 -0.10356032 0.78954779
v 0.02722973 -0.10703768 0.54275883
v 0.00668032 -0.03554806 0.38693654
v -0.00445586 -0.02069672 0.59447218
v -0.00046682 0.00410023 0.34901485
v -0.00206503 -0.00151973 -0.00518934
v -0.00001350 0.01074735 0.34048622
v -0.00060622 0.02200441 -0.22663446
v -0.00785158 0.03752286 -0.23799698
v -0.00368811 0.06293279 -0.69757248
v -0.00045846 0.06418271 -0.64408220
v 0.00254126 0.08502488 -0.24165481
v 0.00919590 0.07700498 0.95832648
v 0.00404623 0.08647142 -0.27959238
v -0.00040597 0.09483291 0.79354651
v 0.01106574 0.09778063 -0.90245780
v 0.00553906 0.08800949 -0.30439590
v 0.00407212 0.10429982 -0.97450721
v 0.00037908 0.10040860 -0.75824488
v -0.00193075 0.11203608 0.54783603
v 0.00114351 0.10945943 0.61409530
v 0.01110722 0.13585363 -0.99732791
v 0.01462400 0.16137212 -0.97906986
v 0.00201126 0.16969562 -0.36870304
v 0.00926423 0.17102216 -0.29421461
v 0.00463297 0.17164330 -0.75039654
v -0.00974254 0.17651833 -0.61496444
v 0.01072981 0.17056337 -0.33833547
v 0.00288755 0.17537760 -0.11818191
v 0.01680062 0.16932137 0.02491732
v 0.00895415 0.17541040 0.40078233
v 0.00764272 0.21079319 -0.79321317
v -0.00863405 0.19424273 0.42813105
v -0.00047482 0.21946797 -0.79919544
v 0.00034730 0.21976476 -0.83240415
v 0.02376593 -0.16783821 0.22441326
v -0.01775498 -0.14900334 0.81690882
v 0.01446511 -0.13835883 0.51902964
v 0.01859991 -0.13429664 0.90929978
v 0.02070783 -0.11798386 0.08479583
v 0.01016351 -0.12838981 0.79836950
v 0.01562375 -0.04224361 0.65714139
v 0.01795069 -0.03359004 0.27024945
v 0.02134024 -0.03857082 0.36545619
v 0.01900194 -0.01399519 0.32349000
v 0.00892156 0.01742402 -0.69300414
v 0.00862210 0.01208641 -0.67363343
v 0.01477508 0.02397746 0.08956695
v 0.01320230 0.06497152 -0.24163729
v 0.01548315 0.05432546 0.97943492
v 0.01097397 0.06859664 -0.70456650
v 0.01230956 0.06493555 -0.61114838
v 0.00280159 0.07698488 -0.61566112
v 0.00846776 0.08234946 -0.59433698
v 0.01010496 0.07221899 -0.30887694
v 0.00915229 0.06838319 -0.28689597
v 0.00495073 0.08427335 -0.57452502
v 0.01014726 0.08098050 -0.54285097
v 0.00487237 0.09504627 -0.54537312
v 0.00541783 0.09118772 -0.40869484
v 0.01092720 0.07743590 -0.41354700
v 0.01573547 0.10012705 0.66740454
v 0.02126588 0.12131406 -0.99196950
v 0.01430137 0.10941493 0.57003156
v 0.00186234 0.11778219 0.49955852
v 0.01626626 0.16666901 -0.96998731
v 0.00470884 0.17894378 -0.89345239
v 0.01341941 0.17420986 -0.84100085
v 0.00597443 0.17522256 -0.57241620
v 0.00418391 0.17604777 0.34015723
v 0.02126524 0.18200253 0.44245203
v 0.00987723 0.18021393 0.12628667
v 0.00888305 0.18943317 0.41307662
v -0.00042777 0.20051338 -0.83006950
v 0.01706553 0.23646092 -0.79567995
v 0.01948698 -0.14859998 0.12187911
v 0.02000120 -0.13871198 0.08382101
v 0.01932229 -0.16131372 0.23092276
v 0.02331358 -0.14528125 0.79661274
v 0.01724155 -0.13650256 0.45167782
v 0.01741350 -0.11844920 0.79909681
v 0.01332627 -0.12195181 0.98159984
v 0.01848261 -0.05181228 0.09095523
v 0.01032776 -0.03660314 0.50340111
v 0.00352541 -0.04032408 0.40051495
v 0.02447064 -0.03478891 0.65464792
v 0.02128711 -0.02846635 0.23994111
v 0.01070791 0.01257172 -0.65030510
v 0.01895167 0.00252785 -0.67729491
v 0.01048205 -0.00831375 0.97973272
v 0.02271725 0.00767694 0.02379997
v 0.02150182 0.00149532 0.37583033
v 0.02998278 0.01297134 -0.69622749
v 0.02221047 0.01325819 -0.64333865
v 0.02086866 0.03502350 -0.22797475
v 0.01700088 0.02630849 -0.20953599
v 0.02211929 0.06116551 -0.63308739
v 0.02480182 0.08333936 0.78398365
v 0.01178233 0.09697431 -0.82871713
v 0.01549614 0.09857076 -0.76907175
v 0.02547595 0.11464398 -0.96978939
v 0.01793159 0.10601840 -0.70431928
v 0.02377616 0.09844142 -0.30148597
v 0.02114076 0.10366071 0.52648702
v 0.01805361 0.10698240 -0.63205514
v 0.01927964 0.12333034 0.47782791
v 0.00556599 0.16275205 -0.99708999
v 0.01049494 0.17842239 -0.76524962
v 0.01175023 0.17008468 -0.63155394
v 0.01718464 0.17120193 -0.61757686
v 0.02607279 0.16205992 -0.55540751
v 0.01355766 0.17219418 -0.53577274
v 0.01042424 0.17174393 -0.45095166
v 0.00832446 0.17125362 -0.40262727
v 0.01437154 0.16991157 -0.38491368
v 0.01054659 0.17083512 -0.23567595
v 0.02344664 0.16290498 -0.10563617
v 0.01376671 0.17916439 -0.85211971
v 0.02247731 0.17513033 -0.78240933
v 0.02843315 0.17445933 0.25034174
v 0.02628494 0.17546360 0.17298674
v 0.02241216 0.17641684 -0.83412710
v 0.02615285 0.17585075 0.10903076
v 0.01268521 0.17937110 0.35671765
v 0.01867053 0.19240222 0.39512746
v 0.02414377 0.22943726 -0.83341104
v 0.02132294 -0.16227752 0.18749629
v 0.02476054 -0.15141737 0.17811706
v 0.02393142 -0.13525824 0.09201653
v 0.02438101 -0.14178002 0.13077847
v 0.02477682 -0.15161323 0.22069966
v 0.02053267 -0.13486113 0.15841777
v 0.02666223 -0.14286730 0.81777784
v 0.02958752 -0.12520584 0.97075191
v 0.01981941 -0.12577283 0.10933459
v 0.02349509 -0.10173859 0.09549258
v 0.02404130 -0.04354689 0.22711419
v 0.02090794 -0.10672015 0.23360403
v 0.02561182 -0.09335254 0.79535045
v 0.01994858 -0.08095641 0.11364548
v 0.02330800 -0.03684409 0.10021566
v 0.02579142 -0.03338117 0.40980304
v 0.02036147 -0.14505590 0.20596839
v 0.01583655 -0.06514731 0.70607773
v 0.02187625 -0.09493631 0.12287260
v 0.02037050 -0.01668297 0.11782429
v 0.02108482 -0.01130557 0.22080340
v 0.02081737 -0.01590780 0.21756477
v 0.02403717 -0.02759159 0.31901101
v 0.02539124 -0.01642795 0.37313244
v 0.02146305 -0.02925293 0.26065466
v 0.01510309 -0.01433505 0.35086604
v 0.02950017 -0.02978826 -0.65725947
v 0.02753329 -0.01841139 0.23676563
v 0.02222336 -0.00437224 0.31844413
v 0.02229596 -0.02827254 0.38777323
v 0.02204070 -0.01136452 -0.69090933
v 0.02185889 -0.01127947 0.50061571
v 0.02216854 -0.01402724 0.59662603
v 0.02016587 0.00073044 -0.11967408
v 0.02085145 0.01992370 0.20131636
v 0.01616965 -0.01722471 0.48953607
v 0.02172153 0.01425568 -0.66371216
v 0.02272864 0.02208560 0.25692803
v 0.03206603 0.00719077 0.22930347
v 0.02583189 -0.02014808 0.27444111
v 0.02386192 0.01865078 0.33075357
v 0.02462242 0.02284181 -0.70779938
v 0.03189893 0.01937321 -0.67537776
v 0.02351230 0.00574758 -0.18253325
v 0.02029471 0.01904784 0.09652938
v 0.02351884 0.02296942 0.10883797
v 0.02555298 0.02247284 0.27153209
v 0.02540012 0.02211101 0.37742024
v 0.02301691 0.01742261 0.40544136
v 0.02892161 0.04671054 -0.21481907
v 0.02364088 0.02522258 0.05248787
v 0.03269999 0.03185015 -0.63239548
v 0.02666642 0.07913134 -0.23871428
v 0.02688983 0.07027431 -0.60664078
v 0.01967342 0.07519563 -0.39577101
v 0.02285262 0.07230471 -0.31355721
v 0.02467406 0.07027582 -0.28929793
v 0.01809383 0.07769020 0.90567973
v 0.02331246 0.07033047 0.95584912
v 0.02292953 0.08424078 -0.59318851
v 0.02026655 0.08141458 -0.55268996
v 0.02492980 0.08243582 -0.40348474
v 0.02395434 0.09057726 -0.55137138
v 0.02551263 0.09044418 -0.40519762
v 0.02586864 0.09104967 -0.30519784
v 0.02570218 0.09687071 -0.24673910
v 0.02834460 0.09357173 -0.67971310
v 0.02585751 0.09642436 -0.63908133
v 0.02609815 0.09355750 -0.56718034
v 0.02475379 0.09889244 -0.47112012
v 0.02777559 0.10620289 -0.21578725
v 0.02601018 0.10421432 -0.85202952
v 0.02305545 0.10775311 -0.65619714
v 0.02204172 0.10618346 -0.56193969
v 0.02299622 0.10521388 -0.50606074
v 0.01952971 0.10783176 -0.45775368
v 0.02003368 0.10598859 -0.40455398
v 0.01970729 0.10749172 -0.24438731
v 0.02906724 0.11895068 -0.70786762
v 0.02352366 0.10599121 -0.61779285
v 0.03008750 0.11838020 -0.55507955
v 0.02564962 0.11379719 -0.39185752
v 0.02363805 0.11201301 -0.32968336
v 0.02365865 0.14636696 -0.98957797
v 0.03142329 0.15016383 -0.75318503
v 0.02666570 0.15956216 -0.75043775
v 0.02456753 0.16157299 -0.63168715
v 0.03461567 0.15458318 -0.61819613
v 0.02066445 0.16855870 -0.20007101
v 0.02425410 0.15887312 -0.03909939
v 0.01712050 0.15879880 0.44091874
v 0.03665225 0.14884261 -0.84330521
v 0.02546500 0.16627027 0.34048784
v 0.02844676 0.16519509 0.34986374
v 0.02524431 0.17216172 -0.85276665
v 0.01743797 0.18118395 -0.78672419
v 0.03410899 0.17654356 0.31880428
v 0.02567578 0.18604913 0.29529137
v 0.02619165 0.18927811 0.35794689
v 0.02395617 0.22412698 -0.79321534
v 0.02754600 -0.14377259 0.47723079
v 0.03858897 -0.13320842 0.81534134
v 0.03141405 -0.11570850 0.45711081
v 0.03445506 -0.11975415 0.95711715
v 0.02999951 -0.12103168 0.91054773
v 0.02226543 -0.10791016 0.82296273
v 0.04302326 -0.11473060 0.80031493
v 0.03097766 -0.09401177 0.81760892
v 0.03146843 -0.00426024 0.97338329
v 0.02674340 -0.07546490 0.52301760
v 0.03596923 -0.07141364 0.49122795
v 0.03693033 -0.06935632 0.78247217
v 0.03460335 -0.04207900 0.43761016
v 0.03114251 -0.05228630 0.71366515
v 0.02971353 -0.02695490 -0.64721871
v 0.03169119 -0.02954691 0.47355203
v 0.03254555 -0.02928217 -0.67760507
v 0.04032232 -0.04022563 -0.66166283
v 0.02917412 -0.00018684 -0.66074713
v 0.04037212 0.01066764 0.56942075
v 0.03405250 -0.00785866 0.61317775
v 0.03492023 -0.00194051 0.42160463
v 0.03856865 0.00713670 -0.66262254
v 0.03071286 0.01573132 0.47438642
v 0.04269078 0.01704408 -0.64485434
v 0.03591240 0.03442636 0.08811573
v 0.03414106 0.02580421 0.21766926
v 0.03666546 0.03417718 0.20858927
v 0.03019419 0.02799015 0.43902658
v 0.03390088 0.06084937 0.88075770
v 0.02796616 0.07892012 -0.69965732
v 0.04008520 0.09210767 -0.65430572
v 0.03678037 0.07312337 0.53110913
v 0.03136329 0.09226831 0.53305361
v 0.03598387 0.08895756 0.55841427
v 0.02993300 0.09143225 0.63101880
v 0.03071605 0.11004617 -0.20842776
v 0.03779613 0.11735434 -0.17357311
v 0.03556859 0.11430874 0.46160777
v 0.02315619 0.10796245 -0.83720253
v 0.02659730 0.11349515 -0.75589810
v 0.03693683 0.11948826 -0.24056984
v 0.03229492 0.11711286 -0.03720381
v 0.03225339 0.12688674 -0.97051849
v 0.03184905 0.12517611 -0.63250229
v 0.03677929 0.13357134 -0.56074582
v 0.03487371 0.13254765 -0.10304585
v 0.03638051 0.13331879 0.02370775
v 0.03357767 0.13321685 -0.75035229
v 0.03401476 0.13842625 -0.03599846
v 0.03063683 0.13758187 0.17458267
v 0.03352857 0.14151962 -0.63267892
v 0.04038443 0.13589092 0.13351382
v 0.02822792 0.14574120 0.14614587
v 0.02893332 0.14547153 0.25253321
v 0.03498180 0.15154271 0.45171210
v 0.03795438 0.14173223 -0.53482459
v 0.03262891 0.15614725 -0.15280097
v 0.03724235 0.15765166 0.25967134
v 0.02720924 0.15641164 -0.97088390
v 0.03549394 0.15926039 -0.82812817
v 0.03380607 0.16326886 -0.76557611
v 0.03385752 0.15612134 -0.57009443
v 0.03313227 0.15581548 -0.50287828
v 0.03779349 0.15066192 -0.36787679
v 0.02814967 0.15701602 -0.27918479
v 0.03581710 0.15836826 0.14234593
v 0.03227985 0.15820818 0.39219454
v 0.03475608 0.15540760 0.43366828
v 0.02310461 0.17797296 -0.79732539
v 0.03409675 0.16897675 0.14000538
v 0.03317993 0.18174239 0.37983252
v 0.03665509 0.17885467 0.28929573
v 0.02986215 0.20068621 0.41843948
v 0.03631932 -0.12374800 0.47749296
v 0.03704701 -0.11821260 0.50920823
v 0.03930255 -0.09930411 0.93684321
v 0.04068192 -0.05693403 0.79692947
v 0.04144796 -0.02843702 0.71758835
v 0.04255410 0.00683609 0.76245163
v 0.03778263 -0.01494380 0.65283835
v 0.04219332 -0.03200499 0.95283242
v 0.04804232 -0.01587178 -0.67830754
v 0.03907442 0.00701539 0.50816888
v 0.04181851 0.00389080 0.64821719
v 0.04511209 0.03306934 -0.18285194
v 0.03507945 0.01195946 -0.00368186
v 0.04222893 0.02169858 -0.14126134
v 0.04484393 0.02991763 0.02756980
v 0.04094956 0.02077598 0.95216322
v 0.04512842 0.03012789 -0.63995115
v 0.03741426 0.03388370 0.24052276
v 0.03709154 0.03364002 0.38149820
v 0.03814971 0.04357372 0.48688770
v 0.04368638 0.03080127 -0.70447948
v 0.03877477 0.04435015 0.05908866
v 0.03937431 0.04362362 0.22713478
v 0.03982813 0.04382657 0.84719589
v 0.03559231 0.04423587 0.96449134
v 0.03718653 0.06882964 -0.67964778
v 0.03906655 0.04350132 0.37719470
v 0.04138210 0.05830817 0.53993427
v 0.03573149 0.06832626 -0.64433068
v 0.03803760 0.06212377 -0.11501852
v 0.03932472 0.04029228 0.05149761
v 0.04004854 0.06151296 0.33397052
v 0.04262711 0.04716291 0.61251594
v 0.04078969 0.05913514 0.67824817
v 0.03551185 0.06805955 0.78198231
v 0.04681153 0.07663836 -0.15464410
v 0.03986602 0.06431642 -0.01067680
v 0.03998091 0.06037463 0.24906450
v 0.04348151 0.06642962 0.28551687
v 0.03964157 0.07214624 0.61254014
v 0.03927728 0.07455826 0.23764756
v 0.03888662 0.08783812 0.34187160
v 0.03948606 0.08871292 0.24518271
v 0.04103372 0.08667216 0.28943552
v 0.03546833 0.10016561 0.48302629
v 0.04371068 0.09594026 -0.19826291
v 0.03835382 0.09740029 0.05681367
v 0.03894744 0.10564869 0.33700561
v 0.03890782 0.09865922 0.43989042
v 0.04316125 0.10499961 -0.10401198
v 0.04559238 0.09999166 0.03447384
v 0.03571269 0.11591902 -0.14192609
v 0.03827889 0.11375249 -0.11964904
v 0.03621369 0.11335189 0.04899067
v 0.03859838 0.11554228 0.13235526
v 0.03883797 0.12957868 0.17057818
v 0.03545272 0.11608101 -0.82880023
v 0.03614378 0.12045740 -0.52176311
v 0.03593610 0.12022212 -0.48254082
v 0.03691522 0.11960055 -0.41052884
v 0.03677111 0.11913274 -0.34735788
v 0.04534020 0.13056092 0.11329406
v 0.03889549 0.12274435 -0.85290730
v 0.03998814 0.13726432 -0.84002775
v 0.04081849 0.12737228 -0.76776866
v 0.03945775 0.13496811 -0.48804362
v 0.03928841 0.13011572 -0.44726106
v 0.03885554 0.13361972 -0.39441270
v 0.03657467 0.13641257 -0.36675269
v 0.03941741 0.12738079 -0.31363495
v 0.03762798 0.13732619 -0.14122197
v 0.03790633 0.13110033 0.25952737
v 0.03940786 0.14407901 0.31837879
v 0.03907819 0.14416485 0.43727168
v 0.03775131 0.12814118 -0.61804025
v 0.03752227 0.15020082 -0.44587991
v 0.03725882 0.15036148 -0.42156194
v 0.04015365 0.13431317 -0.33795936
v 0.03771951 0.15142616 -0.30854198
v 0.04036867 0.14020184 -0.28668605
v 0.03927841 0.13052169 -0.24559206
v 0.03499340 0.15499440 -0.12114371
v 0.03532028 0.14701872 0.02991545
v 0.03366393 0.13740087 -0.96985057
v 0.04126828 0.14182003 -0.85423057
v 0.03645713 0.15171992 -0.33410413
v 0.03705696 0.15250387 -0.25158524
v 0.04099656 0.14470725 -0.20092144
v 0.03536112 0.16191660 -0.85496463
v 0.04444898 0.15498746 0.11478756
v 0.03607042 0.15399859 0.33525723
v 0.03631942 0.16842249 0.10780601
v 0.03969728 0.17009642 0.30489976
v 0.03892589 0.14137684 0.27317349
v 0.03594711 0.16909057 0.25328083
v 0.04190865 0.16865287 0.42684115
v 0.04043990 0.17672203 0.39234629
v 0.03812411 0.17538660 0.43913547
v 0.03952561 0.19668721 0.42727441
v 0.05294019 -0.06872039 -0.67985417
v 0.04776513 -0.05437200 -0.69586501
v 0.04709543 -0.02333974 -0.65921619
v 0.04931791 0.02163392 -0.68615576
v 0.04585300 0.03076875 -0.02792417
v 0.04636196 0.04402793 -0.00521334
v 0.05010879 0.06296426 -0.66362710
v 0.04671258 0.04245041 -0.14654512
v 0.04749005 0.08219473 0.03451629
v 0.05232809 0.06679479 0.29384018
v 0.05445230 0.07623071 0.28758708
v 0.05552410 0.06760011 0.31929889
v 0.05732606 0.07458000 0.24903432
v 0.04708409 0.08456106 -0.14184207
v 0.04709480 0.08539340 0.00731147
v 0.04040331 0.09655669 0.32512903
v 0.04631345 0.09713378 -0.18055772
v 0.05237962 -0.08120848 -0.65702929
v 0.04392058 -0.06339691 -0.68778896
v 0.05854880 -0.07877346 -0.66214880
v 0.04255322 -0.03846989 -0.64409453
v 0.05836749 -0.02293893 -0.69531019
v 0.05393182 -0.02661045 -0.67848880
v 0.05028289 0.02025021 -0.65709470
v 0.05619777 0.03731172 -0.66922715
v 0.06573968 0.08216310 0.31533266
v 0.06030170 -0.08900384 -0.64658054
v 0.05592413 -0.03059147 -0.66342516
v 0.06685385 -0.03913746 -0.64672932
v 0.07649474 -0.12121384 -0.69933421
v 0.07437592 -0.11589979 -0.66350489
v 0.07120011 -0.03103863 -0.65493578
v 0.07301532 0.08796633 0.29705441
v 0.08521365 -0.14305042 -0.66410752
v 0.08273529 -0.13331044 -0.64878378
v 0.06838600 -0.11513480 -0.68859093
v 0.09432877 -0.16134411 -0.68719427
v 0.07375600 -0.12894162 -0.65635632
v 0.07433193 -0.10749366 -0.68299041
v 0.07042718 -0.07079496 -0.68299589
v 0.07924597 -0.06993483 -0.69837985
v 0.08039959 -0.04707787 -0.68516616
v 0.08111060 0.06724195 0.30348696
v 0.08408161 -0.23989834 -0.65088508
v 0.08977306 -0.23111351 -0.65045210
v 0.08653636 -0.17816160 -0.69077735
v 0.09206943 -0.16317238 -0.69915239
v 0.09396387 -0.12407907 -0.66409258
v 0.08177591 -0.08803848 -0.67860079
v 0.07241780 -0.07398191 -0.66106506
v 0.10019482 -0.09768353 -0.69310201
v 0.08771464 -0.24024616 -0.71843577
v 0.09027597 -0.23076963 -0.71109332
v 0.08663720 -0.17934497 -0.66461940
v 0.09012495 -0.16350416 -0.65746264
v 0.10935700 -0.15598836 -0.66779117
v 0.09930549 -0.13701926 -0.68557392
v 0.09132952 -0.09911417 -0.64816629
v 0.10514354 -0.23943096 -0.69493532
v 0.10994762 -0.22743996 -0.69439863
v 0.10007619 -0.17528892 -0.70575150
v 0.10396120 -0.17287280 -0.64931463
v 0.11001461 -0.15423763 -0.68387965
v 0.11116294 -0.15163385 -0.70244302
v 0.09881853 -0.09591176 -0.65673612
v 0.10847907 -0.25333408 -0.71605493
v 0.09888780 -0.25294524 -0.64563818
v 0.12174234 -0.24143283 -0.65726299
v 0.11015690 -0.23000945 -0.67290930
v 0.11578811 -0.21208438 -0.65541898
v 0.11694842 -0.15753037 -0.65201077
v 0.10544206 -0.25717570 -0.68811006
v 0.12222349 -0.23549977 -0.72060015
v 0.10550221 -0.23460296 -0.63809070
v 0.12445454 -0.15194205 -0.66769707
v 0.12293605 -0.15258139 -0.69345768
v 0.14929606 -0.25534895 -0.65212448
v 0.12522844 -0.23780580 -0.69971834
v 0.13019669 -0.21412407 -0.65418167
v 0.12777535 -0.17083755 -0.65185979
v 0.11524717 -0.16320355 -0.70832439
v 0.12966294 -0.23384037 -0.66269008
v 0.16750288 -0.22923609 -0.64189095
v 0.13306932 -0.21215880 -0.70913504
v 0.13676608 -0.15983122 -0.69213617
v 0.13901226 -0.15937660 -0.67133297
v 0.14416311 -0.25607765 -0.70641160
v 0.15254377 -0.24416307 -0.63595842
v 0.14488730 -0.23016090 -0.69416587
v 0.14916684 -0.23812678 -0.70013062
v 0.13781902 -0.19197504 -0.70418155
v 0.15559504 -0.24277312 -0.72179068
v 0.14937151 -0.23156240 -0.67585813
v 0.15041749 -0.20769876 -0.66809417
v 0.15053401 -0.19305695 -0.68233643
v 0.16581383 -0.24954851 -0.69772963
v 0.15571160 -0.23715701 -0.67028378
v 0.15379487 -0.20563960 -0.68918741
v 0.16747537 -0.22846968 -0.71583878
v 0.17325974 -0.23703895 -0.64402438
v 0.17725798 -0.23553851 -0.70977702
v 0.17975725 -0.23408802 -0.66015124
f 1 4 2
f 10 3 1
f 19 10 1
f 4 1 3
f 1 7 19
f 2 7 1
f 3 5 4
f 2 4 5
f 9 6 7
f 2 9 7
f 7 6 25
f 9 8 6
f 2 20 9
f 12 14 17
f 15 31 3
f 15 3 10
f 7 25 19
f 8 9 11
f 11 9 20
f 2 21 20
f 21 2 5
f 11 12 8
f 13 12 11
f 12 17 8
f 16 13 11
f 12 13 14
f 13 18 14
f 14 18 29
f 3 23 5
f 6 22 25
f 25 22 40
f 8 22 6
f 11 20 26
f 26 16 11
f 22 8 17
f 17 14 29
f 18 13 16
f 28 18 16
f 10 32 15
f 10 19 32
f 22 17 27
f 17 29 27
f 29 18 38
f 18 30 38
f 31 23 3
f 15 32 46
f 32 19 25
f 24 20 41
f 23 54 5
f 40 22 58
f 24 26 20
f 21 41 20
f 54 21 5
f 41 21 54
f 22 27 58
f 27 29 48
f 38 36 29
f 18 37 30
f 28 37 18
f 32 25 47
f 58 33 40
f 34 24 33
f 34 26 24
f 26 35 16
f 35 50 16
f 16 50 28
f 48 29 36
f 30 37 39
f 39 45 30
f 31 15 46
f 33 56 40
f 24 56 33
f 41 56 24
f 58 34 33
f 34 35 26
f 27 48 58
f 28 50 37
f 51 60 36
f 42 49 52
f 51 36 38
f 43 42 52
f 37 53 39
f 44 51 38
f 38 30 44
f 44 30 45
f 40 55 25
f 25 55 47
f 56 55 40
f 41 57 56
f 35 59 50
f 48 36 60
f 49 42 64
f 37 50 53
f 43 64 42
f 51 44 65
f 31 69 23
f 32 47 46
f 23 69 54
f 54 69 57
f 54 57 41
f 57 55 56
f 34 59 35
f 34 70 59
f 59 61 50
f 60 51 63
f 64 62 49
f 50 61 53
f 51 65 63
f 52 71 43
f 78 43 73
f 73 43 71
f 78 64 43
f 76 64 78
f 66 65 44
f 39 67 94
f 39 53 67
f 46 68 31
f 68 69 31
f 46 47 68
f 47 55 68
f 69 68 55
f 57 69 55
f 58 70 34
f 58 48 70
f 48 60 70
f 60 52 70
f 49 70 52
f 59 70 49
f 49 62 59
f 59 62 61
f 63 52 60
f 52 63 71
f 71 72 73
f 75 62 64
f 75 64 76
f 61 67 53
f 74 78 73
f 78 74 77
f 45 66 44
f 71 63 79
f 71 79 72
f 75 61 62
f 63 65 79
f 73 72 74
f 78 77 91
f 76 78 83
f 83 78 91
f 45 85 66
f 94 67 92
f 94 45 39
f 75 80 61
f 75 76 80
f 61 80 89
f 89 67 61
f 80 76 83
f 72 81 74
f 90 65 66
f 74 81 77
f 79 87 72
f 65 90 79
f 80 83 82
f 80 82 89
f 72 87 81
f 89 232 67
f 91 77 84
f 83 91 98
f 67 232 92
f 45 86 85
f 93 86 45
f 94 93 45
f 79 90 87
f 87 97 81
f 97 77 81
f 82 83 88
f 66 85 90
f 77 97 84
f 83 98 88
f 98 91 100
f 93 95 86
f 94 101 93
f 102 93 96
f 101 96 93
f 108 102 96
f 150 96 101
f 108 96 150
f 87 90 330
f 87 330 97
f 88 89 82
f 97 231 84
f 88 98 125
f 91 84 99
f 85 86 130
f 130 86 95
f 92 101 94
f 92 135 101
f 95 93 102
f 103 151 236
f 236 138 103
f 103 138 142
f 102 149 95
f 150 101 244
f 104 151 103
f 105 104 103
f 142 105 103
f 149 102 160
f 102 108 160
f 106 141 151
f 104 106 151
f 153 107 104
f 105 153 104
f 142 113 105
f 108 162 160
f 107 106 104
f 105 109 161
f 110 142 154
f 107 111 106
f 111 153 109
f 105 113 109
f 142 110 113
f 109 112 111
f 113 112 109
f 114 167 106
f 111 114 106
f 112 114 111
f 113 165 112
f 166 265 113
f 110 166 113
f 216 310 118
f 116 119 115
f 119 223 115
f 221 119 116
f 219 218 117
f 220 118 120
f 219 117 121
f 118 225 120
f 119 226 223
f 123 121 117
f 117 132 123
f 121 123 122
f 122 124 321
f 132 127 123
f 330 231 97
f 89 88 232
f 321 124 126
f 123 124 122
f 123 131 124
f 90 85 130
f 84 231 99
f 127 136 123
f 232 135 92
f 320 126 129
f 124 131 126
f 98 100 125
f 125 100 337
f 126 131 129
f 137 91 99
f 137 100 91
f 133 234 139
f 139 234 140
f 140 320 129
f 128 127 132
f 134 137 99
f 137 337 100
f 136 157 131
f 123 136 131
f 135 244 101
f 143 136 127
f 240 151 141
f 236 151 240
f 142 138 338
f 139 156 239
f 159 140 129
f 131 159 129
f 157 159 131
f 143 127 128
f 506 142 338
f 335 342 144
f 344 146 145
f 146 147 145
f 155 148 169
f 140 156 139
f 159 156 140
f 506 154 142
f 145 152 144
f 147 152 145
f 155 152 147
f 241 155 147
f 148 155 241
f 156 169 239
f 156 257 169
f 155 176 152
f 136 247 157
f 143 245 136
f 160 249 149
f 150 164 108
f 141 106 158
f 105 161 153
f 159 163 156
f 176 203 152
f 163 257 156
f 157 252 159
f 252 163 159
f 253 160 162
f 164 162 108
f 153 111 107
f 161 109 153
f 155 205 185
f 106 167 158
f 154 166 110
f 152 166 154
f 169 205 155
f 175 166 152
f 203 175 152
f 257 170 169
f 114 112 174
f 112 165 174
f 165 113 265
f 185 176 155
f 174 167 114
f 265 168 165
f 189 263 171
f 172 379 178
f 379 173 178
f 182 181 167
f 174 182 167
f 166 193 265
f 175 193 166
f 170 205 169
f 177 194 260
f 261 186 177
f 187 186 261
f 262 187 261
f 188 268 195
f 282 273 263
f 179 178 173
f 180 179 173
f 190 179 180
f 191 180 264
f 199 191 264
f 192 199 264
f 167 181 192
f 183 182 174
f 193 184 265
f 202 193 175
f 203 202 175
f 270 187 262
f 207 272 188
f 195 207 188
f 278 282 263
f 263 189 278
f 189 171 196
f 172 196 171
f 279 388 172
f 178 279 172
f 191 190 180
f 187 441 186
f 441 187 270
f 189 208 278
f 196 208 189
f 388 196 172
f 284 279 178
f 179 284 178
f 190 197 179
f 190 191 197
f 198 197 191
f 199 198 191
f 192 200 199
f 200 198 199
f 181 200 192
f 181 209 200
f 182 209 181
f 193 201 184
f 201 287 184
f 202 201 193
f 176 204 203
f 206 289 194
f 206 194 177
f 385 207 195
f 197 284 179
f 183 209 182
f 202 210 201
f 204 202 203
f 185 214 176
f 205 288 185
f 281 186 441
f 210 290 201
f 204 210 202
f 176 214 204
f 214 292 204
f 288 212 211
f 212 215 211
f 213 215 212
f 454 115 453
f 115 454 116
f 216 118 220
f 453 115 217
f 115 223 217
f 323 117 218
f 219 121 224
f 132 117 323
f 220 120 222
f 226 119 221
f 226 221 224
f 224 122 226
f 121 122 224
f 321 226 122
f 120 230 222
f 227 225 322
f 227 120 225
f 120 227 230
f 232 88 125
f 230 228 222
f 90 130 330
f 125 419 232
f 227 235 230
f 126 320 321
f 128 132 323
f 146 229 336
f 243 128 323
f 231 332 99
f 349 414 228
f 235 239 230
f 344 233 229
f 238 349 228
f 230 238 228
f 133 139 235
f 418 140 234
f 320 140 418
f 130 95 420
f 99 332 134
f 146 344 229
f 230 239 238
f 139 239 235
f 354 95 149
f 354 420 95
f 134 337 137
f 237 236 240
f 138 236 237
f 334 138 237
f 338 138 334
f 349 238 242
f 345 346 147
f 346 348 241
f 348 242 241
f 238 148 242
f 239 148 238
f 141 351 240
f 145 144 343
f 345 147 146
f 346 241 147
f 242 148 241
f 169 148 239
f 128 243 143
f 506 144 154
f 152 154 144
f 351 141 158
f 246 245 243
f 245 143 243
f 149 249 354
f 150 464 164
f 150 244 464
f 356 158 361
f 247 136 245
f 157 247 252
f 247 248 252
f 367 250 251
f 259 361 158
f 160 253 249
f 253 255 249
f 259 251 361
f 254 163 252
f 251 256 367
f 374 258 257
f 163 375 374
f 254 375 163
f 259 158 167
f 473 260 370
f 188 271 378
f 263 368 171
f 373 264 180
f 259 167 192
f 174 165 168
f 257 258 170
f 266 377 271
f 429 377 266
f 377 371 271
f 371 267 271
f 378 268 188
f 364 268 378
f 269 268 364
f 269 368 263
f 192 264 259
f 194 277 260
f 260 473 177
f 261 177 473
f 266 270 262
f 271 270 266
f 195 268 273
f 273 268 269
f 263 273 269
f 174 274 183
f 168 274 174
f 275 274 168
f 184 275 168
f 265 184 168
f 271 272 270
f 188 272 271
f 287 275 184
f 170 382 205
f 270 276 441
f 272 276 270
f 194 289 277
f 177 394 206
f 177 186 394
f 384 383 276
f 272 384 276
f 207 384 272
f 385 195 273
f 282 385 273
f 284 197 285
f 285 197 198
f 280 200 209
f 209 183 390
f 183 274 390
f 275 390 274
f 288 205 212
f 289 392 277
f 278 386 282
f 208 386 278
f 387 386 208
f 196 387 208
f 279 283 388
f 434 283 279
f 284 434 279
f 286 285 198
f 525 286 198
f 389 200 280
f 287 391 275
f 287 201 290
f 185 398 214
f 288 294 185
f 435 212 205
f 382 435 205
f 393 289 206
f 393 206 394
f 281 396 186
f 532 280 209
f 290 210 291
f 210 204 291
f 291 204 292
f 185 294 398
f 288 293 294
f 211 293 288
f 212 435 213
f 292 214 489
f 398 489 214
f 294 293 399
f 211 449 293
f 215 449 211
f 295 296 300
f 296 409 300
f 402 297 303
f 297 295 298
f 300 298 295
f 302 402 303
f 297 298 303
f 299 304 298
f 300 299 298
f 302 303 308
f 298 311 303
f 304 311 298
f 300 305 299
f 305 300 409
f 301 310 216
f 454 582 116
f 307 306 218
f 405 302 308
f 303 309 308
f 311 309 303
f 403 406 116
f 218 219 307
f 218 306 323
f 323 306 319
f 315 405 308
f 311 325 309
f 409 313 305
f 217 223 312
f 408 307 219
f 317 315 308
f 309 317 308
f 299 314 304
f 305 314 299
f 310 316 118
f 406 221 116
f 219 224 408
f 408 224 221
f 311 342 325
f 412 220 222
f 223 226 410
f 313 318 305
f 118 316 225
f 309 325 317
f 314 331 304
f 225 316 322
f 226 321 457
f 410 226 457
f 311 331 342
f 304 331 311
f 412 222 228
f 457 321 320
f 305 324 314
f 318 324 305
f 324 331 314
f 412 228 414
f 329 227 322
f 324 318 233
f 336 413 326
f 500 326 413
f 327 326 500
f 414 327 500
f 501 333 326
f 327 501 326
f 459 501 327
f 414 328 327
f 227 329 235
f 416 323 319
f 335 315 317
f 331 339 342
f 324 343 331
f 459 327 328
f 323 416 243
f 330 130 420
f 330 332 231
f 125 337 419
f 233 343 324
f 235 329 133
f 133 329 417
f 133 417 234
f 419 135 232
f 233 344 343
f 333 340 326
f 414 349 328
f 349 348 328
f 419 350 135
f 336 345 146
f 326 345 336
f 340 345 326
f 328 348 421
f 337 134 332
f 350 244 135
f 325 342 317
f 342 335 317
f 343 339 331
f 346 345 340
f 341 346 340
f 341 347 346
f 348 347 421
f 335 144 507
f 348 346 347
f 349 242 348
f 243 416 508
f 507 144 506
f 339 144 342
f 343 144 339
f 344 145 343
f 243 508 353
f 351 356 352
f 350 464 244
f 351 158 356
f 243 353 246
f 247 245 246
f 510 354 249
f 357 464 423
f 362 357 423
f 359 358 360
f 462 361 250
f 356 361 462
f 248 247 363
f 246 363 247
f 362 358 365
f 365 358 366
f 359 366 358
f 367 359 360
f 250 367 360
f 251 250 361
f 430 510 249
f 464 357 164
f 362 364 357
f 365 364 362
f 359 367 366
f 252 248 254
f 363 254 248
f 255 430 249
f 357 378 164
f 364 378 357
f 368 364 365
f 366 369 365
f 369 368 365
f 367 369 366
f 256 369 367
f 257 163 374
f 473 470 261
f 261 470 262
f 371 430 255
f 255 253 371
f 371 253 267
f 253 162 267
f 162 164 267
f 368 269 364
f 372 368 369
f 379 372 369
f 256 380 369
f 251 373 256
f 251 259 373
f 370 260 376
f 262 471 266
f 372 171 368
f 180 173 373
f 259 264 373
f 376 277 431
f 260 277 376
f 271 267 378
f 379 171 372
f 172 171 379
f 380 173 379
f 258 432 170
f 431 277 381
f 382 170 432
f 392 478 381
f 392 381 277
f 529 384 207
f 387 196 483
f 283 437 388
f 395 283 434
f 434 284 438
f 198 200 389
f 390 275 391
f 276 383 441
f 529 383 384
f 385 480 207
f 442 480 385
f 282 386 385
f 283 395 437
f 443 284 285
f 209 390 532
f 287 440 391
f 287 290 440
f 294 447 398
f 393 392 289
f 186 396 394
f 281 441 487
f 290 444 440
f 291 445 290
f 290 445 444
f 292 397 291
f 291 397 445
f 397 292 489
f 293 449 399
f 213 490 215
f 281 401 396
f 396 401 400
f 496 400 401
f 297 402 295
f 296 295 402
f 220 452 216
f 582 403 116
f 455 404 307
f 307 404 306
f 544 319 306
f 406 217 312
f 407 406 312
f 221 406 407
f 221 407 408
f 407 455 408
f 455 307 408
f 312 223 410
f 412 452 220
f 411 412 414
f 336 229 415
f 336 415 413
f 418 457 320
f 415 229 233
f 315 335 505
f 501 459 697
f 234 502 418
f 330 420 332
f 419 337 461
f 333 460 340
f 419 461 350
f 341 340 460
f 347 341 421
f 422 420 354
f 332 420 422
f 332 422 337
f 461 337 422
f 505 335 507
f 554 352 462
f 352 356 462
f 360 358 424
f 360 424 425
f 250 360 425
f 250 425 355
f 355 462 250
f 363 246 512
f 362 466 426
f 362 426 427
f 358 362 427
f 358 427 424
f 510 430 511
f 428 254 363
f 512 428 363
f 517 515 370
f 470 471 262
f 375 254 428
f 370 515 473
f 164 378 267
f 379 369 380
f 380 256 373
f 374 375 433
f 474 433 375
f 428 474 375
f 517 376 431
f 370 376 517
f 471 429 266
f 430 377 429
f 371 377 430
f 373 173 380
f 382 521 435
f 441 383 436
f 383 529 436
f 207 480 572
f 442 385 386
f 386 387 481
f 196 388 483
f 388 437 483
f 285 286 443
f 525 443 286
f 525 198 389
f 439 389 280
f 439 280 532
f 486 393 479
f 479 393 394
f 396 479 394
f 446 487 441
f 528 436 529
f 207 572 529
f 481 442 386
f 395 483 437
f 434 438 395
f 443 438 284
f 213 435 490
f 393 486 392
f 445 537 444
f 447 294 399
f 448 449 536
f 449 450 536
f 448 447 399
f 449 448 399
f 215 490 578
f 479 396 493
f 281 487 401
f 215 450 449
f 215 578 450
f 396 400 493
f 493 400 494
f 540 496 401
f 581 409 296
f 216 452 541
f 216 541 301
f 404 544 306
f 498 310 301
f 405 622 302
f 316 310 498
f 409 683 313
f 458 410 457
f 452 412 630
f 412 411 630
f 456 322 316
f 322 456 629
f 322 629 417
f 457 549 458
f 413 415 588
f 414 500 548
f 628 315 505
f 318 499 233
f 329 322 417
f 549 457 418
f 234 417 502
f 418 502 549
f 237 240 503
f 237 503 551
f 334 237 551
f 550 459 421
f 459 328 421
f 341 460 552
f 550 421 552
f 552 421 341
f 350 461 463
f 553 352 554
f 510 422 354
f 464 350 463
f 355 467 462
f 353 465 246
f 508 465 353
f 423 464 463
f 466 423 463
f 425 467 355
f 466 362 423
f 466 468 426
f 425 424 469
f 467 425 469
f 472 426 468
f 427 426 472
f 513 427 472
f 424 427 513
f 469 424 513
f 512 514 428
f 430 429 511
f 428 514 474
f 431 518 563
f 563 517 431
f 374 565 258
f 374 433 565
f 431 381 518
f 518 381 475
f 258 610 432
f 475 381 476
f 475 476 477
f 477 476 519
f 476 381 519
f 478 519 381
f 522 478 392
f 390 533 532
f 390 391 533
f 391 440 535
f 446 441 436
f 387 482 481
f 387 483 482
f 483 484 523
f 395 484 483
f 395 438 484
f 438 443 524
f 439 532 485
f 534 533 391
f 535 534 391
f 444 535 440
f 490 435 491
f 486 522 392
f 397 538 445
f 397 488 538
f 489 488 397
f 578 490 491
f 479 493 619
f 492 451 487
f 401 487 451
f 540 401 451
f 494 495 671
f 400 495 494
f 400 496 495
f 301 541 583
f 455 542 404
f 542 543 404
f 404 543 544
f 498 301 583
f 453 217 586
f 403 545 406
f 217 406 586
f 407 312 497
f 455 407 542
f 407 497 542
f 316 498 456
f 319 627 416
f 627 635 416
f 313 499 318
f 413 588 589
f 413 589 500
f 414 548 411
f 333 590 460
f 697 459 550
f 338 334 551
f 590 504 460
f 416 635 508
f 351 715 240
f 715 503 240
f 460 504 552
f 352 553 351
f 422 509 461
f 509 422 555
f 463 461 509
f 422 510 555
f 463 509 556
f 554 462 467
f 463 556 598
f 466 463 598
f 246 465 512
f 466 599 468
f 469 513 559
f 467 469 557
f 469 559 557
f 515 517 561
f 516 473 515
f 564 429 471
f 472 468 604
f 468 602 604
f 513 472 605
f 516 470 473
f 429 564 511
f 474 560 566
f 514 560 474
f 258 565 610
f 433 566 565
f 474 566 433
f 432 521 382
f 519 478 652
f 520 438 524
f 527 526 525
f 486 479 613
f 480 614 572
f 480 442 614
f 483 530 482
f 530 483 523
f 484 438 569
f 520 569 438
f 524 443 531
f 526 531 443
f 443 525 526
f 525 389 527
f 389 439 527
f 485 532 574
f 532 533 574
f 447 615 398
f 539 448 576
f 486 612 522
f 486 663 612
f 663 486 613
f 444 537 535
f 445 617 537
f 445 538 617
f 447 539 615
f 448 539 447
f 451 492 493
f 493 492 619
f 493 494 580
f 579 493 580
f 579 451 493
f 579 540 451
f 494 671 580
f 496 620 495
f 620 496 540
f 296 402 672
f 623 409 581
f 672 402 621
f 586 624 453
f 405 315 585
f 623 683 409
f 410 546 312
f 498 547 456
f 410 458 546
f 315 628 585
f 683 499 313
f 546 458 689
f 548 630 411
f 233 632 415
f 233 499 632
f 501 590 333
f 501 697 590
f 417 703 502
f 551 503 705
f 338 551 636
f 628 505 716
f 338 636 722
f 351 641 715
f 338 722 506
f 351 553 641
f 506 722 593
f 507 506 593
f 716 505 507
f 593 716 507
f 555 591 592
f 592 509 555
f 556 509 633
f 554 467 557
f 510 596 555
f 510 511 596
f 466 598 599
f 512 558 514
f 558 512 465
f 468 599 602
f 513 562 559
f 558 560 514
f 470 516 644
f 471 470 644
f 471 644 645
f 645 564 471
f 472 604 605
f 513 605 562
f 517 563 561
f 566 609 565
f 518 475 567
f 567 477 519
f 519 652 567
f 435 521 762
f 478 568 652
f 568 478 522
f 523 484 659
f 484 569 659
f 520 524 569
f 531 526 570
f 526 527 661
f 762 491 435
f 446 436 653
f 436 571 653
f 528 571 436
f 529 654 528
f 529 572 654
f 481 657 442
f 530 658 482
f 523 659 530
f 524 573 569
f 531 573 524
f 531 570 573
f 661 570 526
f 439 485 527
f 535 575 534
f 539 576 669
f 536 576 448
f 667 613 479
f 446 767 487
f 446 653 767
f 535 537 575
f 488 666 538
f 538 666 617
f 615 539 669
f 576 536 618
f 479 619 667
f 487 767 492
f 769 489 398
f 536 450 618
f 618 450 845
f 492 577 619
f 579 577 540
f 296 672 581
f 302 622 621
f 621 402 302
f 454 453 624
f 582 454 678
f 454 624 678
f 625 541 452
f 584 543 542
f 544 543 679
f 627 544 679
f 585 622 405
f 406 545 586
f 627 319 544
f 312 626 497
f 497 777 542
f 452 630 625
f 312 546 626
f 456 547 781
f 781 629 456
f 587 689 458
f 589 548 500
f 587 458 549
f 417 629 707
f 549 704 587
f 697 550 695
f 417 707 703
f 549 502 704
f 503 715 705
f 590 700 504
f 635 595 508
f 633 509 592
f 553 640 641
f 553 554 640
f 556 633 642
f 554 557 594
f 642 597 556
f 508 595 465
f 556 597 598
f 599 598 597
f 596 511 802
f 600 562 606
f 601 562 600
f 559 562 601
f 594 557 601
f 557 559 601
f 729 558 730
f 603 604 602
f 605 604 603
f 606 605 603
f 562 605 606
f 560 643 607
f 643 560 729
f 558 729 560
f 516 515 743
f 560 607 566
f 564 645 812
f 564 812 647
f 511 564 647
f 609 566 607
f 563 518 608
f 565 649 610
f 565 609 649
f 518 567 608
f 610 651 432
f 475 477 567
f 522 611 568
f 762 616 491
f 522 612 611
f 528 654 571
f 572 655 654
f 572 614 655
f 442 656 614
f 442 657 656
f 482 657 481
f 482 658 657
f 530 659 658
f 569 660 659
f 569 573 660
f 527 760 661
f 485 760 527
f 485 574 760
f 662 574 533
f 615 669 765
f 575 537 668
f 537 617 668
f 488 665 666
f 398 615 769
f 576 618 670
f 767 577 492
f 769 488 489
f 491 616 578
f 670 618 845
f 578 845 450
f 580 619 579
f 579 619 577
f 577 620 540
f 583 541 772
f 541 625 772
f 582 678 403
f 586 626 624
f 626 586 545
f 545 497 626
f 545 777 497
f 777 584 542
f 625 630 687
f 546 684 626
f 684 546 689
f 701 548 589
f 588 415 696
f 415 632 696
f 630 548 687
f 548 701 687
f 631 587 704
f 634 591 702
f 634 592 591
f 633 786 639
f 550 552 637
f 552 504 637
f 695 550 637
f 633 592 708
f 721 641 640
f 596 713 591
f 555 596 591
f 554 594 640
f 633 723 642
f 597 642 725
f 599 597 725
f 731 599 725
f 600 606 726
f 600 726 727
f 601 600 728
f 600 727 728
f 601 728 594
f 730 465 595
f 730 558 465
f 602 599 731
f 603 602 732
f 602 731 732
f 606 603 726
f 603 732 726
f 561 743 515
f 516 743 811
f 644 516 811
f 650 739 744
f 748 754 648
f 741 748 648
f 754 749 648
f 648 749 737
f 563 608 646
f 561 563 646
f 754 748 753
f 610 649 651
f 432 651 521
f 652 568 755
f 568 611 831
f 757 654 758
f 654 655 758
f 834 614 656
f 921 658 659
f 836 660 931
f 660 573 931
f 931 573 924
f 573 570 924
f 570 661 837
f 760 574 829
f 829 574 927
f 927 574 662
f 534 662 533
f 534 761 662
f 534 575 761
f 612 766 611
f 766 612 663
f 664 653 833
f 757 653 571
f 654 757 571
f 668 617 666
f 765 764 615
f 653 664 767
f 488 769 665
f 770 765 669
f 670 669 576
f 767 771 577
f 845 578 944
f 616 944 578
f 667 619 671
f 619 580 671
f 620 577 771
f 676 672 673
f 581 672 676
f 621 675 672
f 675 673 672
f 676 673 688
f 678 624 773
f 622 674 621
f 674 675 621
f 673 675 677
f 688 673 677
f 581 676 623
f 675 674 680
f 677 675 680
f 772 625 774
f 403 678 545
f 584 776 543
f 543 775 679
f 622 585 674
f 677 680 690
f 623 676 683
f 583 547 498
f 626 778 624
f 681 674 585
f 680 674 681
f 682 676 688
f 683 676 682
f 625 687 774
f 777 545 678
f 776 584 777
f 585 628 681
f 680 681 685
f 690 680 685
f 780 627 679
f 686 681 628
f 685 681 686
f 682 688 693
f 688 677 706
f 683 682 499
f 693 688 706
f 689 587 785
f 782 787 629
f 587 631 785
f 685 686 691
f 690 685 691
f 629 787 707
f 677 690 706
f 682 693 699
f 699 693 692
f 499 682 632
f 682 699 632
f 696 711 588
f 711 694 588
f 589 588 694
f 695 589 694
f 701 589 695
f 702 788 634
f 696 632 699
f 694 711 700
f 590 694 700
f 697 694 590
f 695 694 697
f 704 792 631
f 701 695 637
f 687 701 793
f 627 780 635
f 633 790 698
f 786 633 698
f 965 639 786
f 686 628 716
f 690 691 706
f 711 696 709
f 633 708 790
f 705 858 551
f 551 858 636
f 686 716 717
f 692 693 710
f 710 693 706
f 793 701 720
f 591 638 702
f 634 714 592
f 691 686 717
f 798 710 706
f 709 696 699
f 710 709 699
f 711 709 718
f 700 711 718
f 700 712 504
f 701 637 720
f 713 638 591
f 708 592 714
f 706 691 717
f 700 718 712
f 637 504 719
f 720 637 719
f 635 780 595
f 722 797 593
f 593 797 716
f 797 717 716
f 719 712 718
f 504 712 719
f 800 720 719
f 639 723 633
f 713 596 802
f 595 780 870
f 640 594 724
f 595 870 730
f 725 642 739
f 728 724 594
f 729 801 643
f 739 642 874
f 732 733 726
f 727 726 733
f 732 731 740
f 734 732 740
f 733 732 734
f 735 733 734
f 727 733 736
f 736 733 735
f 728 727 736
f 728 737 724
f 511 647 802
f 647 738 802
f 725 739 751
f 746 734 740
f 741 734 746
f 735 734 741
f 648 735 741
f 736 735 648
f 737 728 736
f 737 736 648
f 724 737 742
f 807 607 643
f 811 902 644
f 902 645 644
f 738 647 744
f 739 803 744
f 650 751 739
f 731 725 751
f 740 731 745
f 745 731 751
f 746 740 745
f 747 741 746
f 748 741 747
f 749 742 737
f 805 649 806
f 649 609 806
f 607 807 609
f 743 561 646
f 812 645 910
f 812 750 647
f 744 647 750
f 752 746 745
f 746 904 747
f 753 748 747
f 890 651 649
f 608 815 646
f 816 744 750
f 650 744 816
f 753 747 905
f 754 753 906
f 813 749 754
f 929 815 608
f 890 810 651
f 608 567 755
f 755 929 608
f 567 652 755
f 827 521 651
f 932 837 661
f 827 762 521
f 611 934 831
f 613 667 763
f 653 756 833
f 757 756 653
f 655 614 834
f 657 835 656
f 658 835 657
f 921 835 658
f 922 921 659
f 922 659 660
f 837 924 570
f 934 611 766
f 766 663 613
f 841 767 664
f 758 655 759
f 937 575 668
f 764 768 615
f 768 769 615
f 670 770 669
f 670 843 770
f 841 667 771
f 771 667 671
f 767 841 771
f 670 845 843
f 771 671 620
f 620 671 495
f 846 772 774
f 772 846 847
f 772 847 583
f 847 547 583
f 776 775 543
f 626 684 778
f 773 779 678
f 678 779 777
f 776 777 779
f 848 776 779
f 779 778 684
f 779 684 783
f 774 687 784
f 782 774 784
f 629 781 782
f 787 782 784
f 689 785 684
f 785 783 684
f 786 698 962
f 787 784 795
f 631 852 785
f 852 850 785
f 702 946 963
f 788 702 963
f 698 790 789
f 795 784 793
f 852 631 792
f 784 687 793
f 692 710 699
f 787 795 707
f 703 791 502
f 791 704 502
f 707 795 703
f 795 855 703
f 792 704 791
f 702 638 966
f 790 708 794
f 973 796 639
f 714 794 708
f 796 723 639
f 705 715 859
f 858 705 859
f 860 636 858
f 638 713 866
f 717 797 706
f 710 798 709
f 719 864 800
f 793 720 800
f 795 793 800
f 722 876 797
f 799 706 797
f 798 706 799
f 709 798 863
f 718 709 863
f 719 718 863
f 864 719 863
f 713 802 866
f 723 874 642
f 724 721 640
f 801 869 880
f 870 801 730
f 802 738 871
f 721 724 742
f 801 880 643
f 730 801 729
f 874 803 739
f 643 880 807
f 803 951 738
f 806 804 805
f 803 738 744
f 742 808 891
f 805 890 649
f 807 806 609
f 902 910 645
f 751 752 745
f 746 752 903
f 903 904 746
f 749 813 742
f 813 808 742
f 908 646 815
f 743 646 908
f 908 909 743
f 743 909 811
f 816 751 650
f 816 920 751
f 752 751 920
f 747 904 905
f 753 905 906
f 754 906 813
f 902 811 909
f 750 812 820
f 816 750 820
f 817 752 920
f 817 903 752
f 814 818 821
f 819 814 821
f 819 899 814
f 820 812 910
f 816 820 823
f 912 911 921
f 928 819 821
f 824 822 901
f 901 822 917
f 929 755 831
f 756 820 910
f 823 820 756
f 822 824 825
f 826 822 825
f 917 822 826
f 939 917 826
f 810 827 651
f 755 568 831
f 934 929 831
f 833 756 910
f 823 756 757
f 758 823 757
f 759 823 758
f 817 834 656
f 828 817 656
f 828 656 835
f 931 923 836
f 829 927 916
f 818 927 662
f 821 818 662
f 761 821 662
f 928 821 761
f 824 838 825
f 826 825 838
f 830 826 838
f 830 939 826
f 660 836 922
f 760 933 661
f 661 933 932
f 933 760 829
f 575 928 761
f 575 937 928
f 938 764 936
f 764 765 936
f 762 827 840
f 613 934 766
f 613 763 934
f 667 832 763
f 841 832 667
f 664 832 841
f 833 832 664
f 834 759 655
f 935 937 842
f 764 938 768
f 843 839 765
f 840 941 943
f 943 762 840
f 943 616 762
f 842 937 668
f 666 842 668
f 940 842 666
f 665 940 666
f 665 844 940
f 769 844 665
f 769 768 844
f 843 765 770
f 845 942 843
f 944 616 943
f 624 778 773
f 773 778 779
f 775 776 848
f 846 774 782
f 781 847 782
f 547 847 781
f 847 846 782
f 783 849 779
f 848 779 849
f 775 848 853
f 679 775 853
f 679 853 780
f 848 849 853
f 971 786 962
f 785 850 783
f 788 963 945
f 698 789 962
f 849 783 850
f 853 849 851
f 851 849 850
f 789 790 947
f 850 852 856
f 946 702 966
f 788 854 634
f 947 790 794
f 965 973 639
f 854 714 634
f 855 791 703
f 852 792 856
f 850 856 851
f 853 851 861
f 853 861 780
f 794 714 854
f 856 792 791
f 857 859 715
f 636 860 722
f 856 791 878
f 780 861 870
f 638 866 948
f 862 723 796
f 715 641 857
f 858 859 949
f 860 858 949
f 851 856 878
f 641 721 857
f 860 876 722
f 876 867 797
f 799 863 798
f 864 865 800
f 800 865 795
f 795 865 855
f 873 855 865
f 791 855 873
f 861 851 869
f 869 851 879
f 799 797 867
f 868 799 867
f 863 799 868
f 872 863 868
f 864 863 872
f 865 864 872
f 851 878 879
f 870 861 869
f 862 951 874
f 862 874 723
f 952 875 950
f 872 868 883
f 804 865 872
f 870 869 801
f 871 866 802
f 886 867 900
f 868 867 886
f 883 868 886
f 877 872 883
f 873 865 804
f 878 791 873
f 880 869 879
f 891 857 721
f 875 952 881
f 867 876 892
f 877 883 884
f 878 873 885
f 879 878 885
f 882 875 959
f 900 867 892
f 887 877 956
f 872 877 887
f 804 872 894
f 885 873 806
f 879 885 880
f 738 951 871
f 874 951 803
f 742 891 721
f 958 875 881
f 959 875 958
f 882 959 953
f 890 804 894
f 806 873 804
f 880 885 807
f 892 876 953
f 957 888 889
f 872 887 893
f 894 872 893
f 805 804 890
f 885 806 807
f 886 901 888
f 889 893 960
f 893 887 960
f 891 809 961
f 809 897 961
f 961 897 895
f 895 899 896
f 892 896 899
f 901 886 900
f 893 889 888
f 890 894 810
f 809 891 808
f 898 895 897
f 899 895 814
f 900 892 899
f 915 813 906
f 808 933 809
f 895 898 818
f 814 895 818
f 900 899 907
f 893 888 901
f 910 902 909
f 904 903 911
f 912 904 911
f 905 904 912
f 913 905 912
f 906 905 913
f 914 906 913
f 923 906 914
f 915 906 923
f 925 813 915
f 926 813 925
f 933 813 926
f 808 813 933
f 897 809 916
f 898 897 916
f 907 899 819
f 907 824 900
f 901 900 824
f 893 901 917
f 939 893 917
f 918 893 939
f 894 893 918
f 810 894 827
f 930 815 929
f 908 815 930
f 909 908 930
f 816 823 920
f 903 817 828
f 922 912 921
f 913 912 922
f 924 915 923
f 925 915 924
f 932 926 925
f 898 916 927
f 818 898 927
f 894 918 919
f 827 894 919
f 909 930 763
f 759 920 823
f 817 920 834
f 834 920 759
f 903 828 835
f 911 903 835
f 836 913 922
f 914 913 836
f 914 836 923
f 924 923 931
f 933 926 932
f 829 809 933
f 916 809 829
f 935 819 928
f 930 929 934
f 763 930 934
f 832 909 763
f 910 909 832
f 833 910 832
f 921 911 835
f 918 939 938
f 919 918 936
f 839 919 936
f 840 919 839
f 827 919 840
f 837 925 924
f 932 925 837
f 935 928 937
f 838 824 935
f 936 918 938
f 839 936 765
f 839 941 840
f 838 935 842
f 940 838 842
f 940 830 838
f 938 830 940
f 939 830 938
f 843 942 839
f 941 839 942
f 844 938 940
f 768 938 844
f 943 941 944
f 941 942 944
f 845 944 942
f 962 789 964
f 971 965 786
f 945 967 788
f 967 854 788
f 972 794 967
f 794 854 967
f 972 947 794
f 966 638 948
f 796 968 862
f 862 968 969
f 952 859 857
f 949 859 952
f 862 969 951
f 950 949 952
f 860 949 950
f 866 871 948
f 948 871 969
f 952 857 881
f 860 950 953
f 860 953 876
f 969 871 951
f 882 950 875
f 953 950 882
f 883 957 884
f 877 884 954
f 877 954 956
f 881 857 961
f 883 886 957
f 884 957 955
f 955 954 884
f 857 891 961
f 881 961 958
f 957 886 888
f 956 970 887
f 889 960 970
f 970 960 887
f 959 958 961
f 896 959 961
f 953 959 896
f 896 961 895
f 892 953 896
f 907 819 935
f 907 935 824
f 980 963 946
f 963 980 945
f 964 789 994
f 985 946 966
f 945 984 967
f 994 789 972
f 947 972 789
f 796 973 976
f 976 968 796
f 968 948 969
f 954 987 956
f 955 957 889
f 889 977 955
f 889 970 977
f 980 946 974
f 962 975 982
f 964 975 962
f 971 962 982
f 980 983 945
f 983 984 945
f 971 1002 965
f 993 994 972
f 993 967 984
f 972 967 993
f 986 968 976
f 971 982 979
f 974 946 985
f 975 964 994
f 1002 973 965
f 966 986 985
f 966 948 986
f 968 986 948
f 987 954 955
f 970 956 987
f 999 982 978
f 982 999 979
f 974 991 980
f 981 983 980
f 982 992 978
f 992 982 975
f 993 984 983
f 976 973 1002
f 955 977 987
f 970 987 977
f 996 1016 988
f 1016 1011 988
f 988 997 996
f 989 997 988
f 990 981 991
f 998 981 990
f 998 1000 981
f 999 1000 998
f 981 980 991
f 981 1001 983
f 1001 993 983
f 1001 992 993
f 992 975 994
f 994 993 992
f 979 1002 971
f 995 985 986
f 1009 976 1002
f 1009 986 976
f 1010 1016 996
f 1011 1018 988
f 1003 989 1012
f 1012 989 1018
f 988 1018 989
f 1003 997 989
f 990 1013 998
f 1005 990 991
f 999 998 1006
f 978 1000 999
f 999 1006 979
f 1006 1002 979
f 992 1000 978
f 974 985 1008
f 1008 985 995
f 1009 995 986
f 996 1017 1010
f 996 997 1017
f 1013 990 1004
f 1004 990 1005
f 1013 1014 998
f 998 1014 1006
f 1025 1005 1008
f 1000 1007 981
f 991 1008 1005
f 981 1007 1001
f 991 974 1008
f 1006 1015 1002
f 1000 992 1001
f 1003 1022 1017
f 1017 997 1003
f 1000 1001 1007
f 1020 1008 995
f 1009 1002 1015
f 1009 1019 995
f 1022 1003 1013
f 1003 1012 1013
f 1026 1013 1012
f 1011 1032 1018
f 1013 1004 1022
f 1013 1026 1014
f 1004 1028 1022
f 1004 1005 1028
f 1014 1023 1006
f 1028 1005 1035
f 1023 1024 1006
f 1005 1025 1035
f 1006 1024 1015
f 1008 1020 1025
f 1015 1019 1009
f 1019 1020 995
f 1016 1010 1031
f 1011 1016 1021
f 1032 1011 1021
f 1010 1017 1036
f 1014 1026 1023
f 1029 1035 1025
f 1015 1024 1030
f 1025 1020 1029
f 1030 1020 1019
f 1015 1030 1019
f 1016 1031 1021
f 1034 1017 1022
f 1034 1022 1033
f 1018 1027 1012
f 1027 1018 1032
f 1024 1023 1038
f 1020 1030 1029
f 1010 1036 1031
f 1017 1043 1036
f 1026 1012 1041
f 1026 1037 1023
f 1022 1028 1033
f 1038 1023 1037
f 1035 1042 1028
f 1024 1039 1030
f 1040 1021 1031
f 1017 1034 1043
f 1033 1037 1034
f 1034 1037 1041
f 1037 1026 1041
f 1012 1027 1041
f 1037 1033 1042
f 1038 1037 1042
f 1033 1028 1042
f 1038 1042 1039
f 1039 1042 1035
f 1038 1039 1024
f 1035 1029 1039
f 1029 1030 1039
f 1031 1036 1040
f 1021 1044 1032
f 1036 1045 1040
f 1021 1040 1046
f 1044 1021 1046
f 1036 1043 1045
f 1034 1041 1043
f 1027 1043 1041
f 1032 1044 1027
f 1045 1046 1040
f 1043 1046 1045
f 1027 1046 1043
f 1044 1046 1027

