# https://github.com/mikedh/trimesh
v -0.99081898 0.10028644 -0.01907315
v -0.98163277 0.05161371 -0.02725387
v -0.99741619 0.07467442 0.00650257
v -0.99016893 0.08685641 0.02105852
v -0.97253946 0.10012281 0.01734450
v -0.97072832 -0.02361094 -0.01616266
v -0.96929347 -0.00029263 -0.03342644
v -0.97495526 0.01915892 0.01354942
v -0.96253141 0.06106647 0.03394841
v -0.97621269 0.07439889 -0.03654438
v -0.94776738 0.08228749 -0.03921268
v -0.96891400 -0.09790033 0.01335616
v -0.97185764 -0.09329753 -0.01333560
v -0.96723634 -0.03156153 0.02274761
v -0.96052517 -0.10401072 -0.02783012
v -0.96461792 -0.08520288 -0.02989317
v -0.93113495 0.08563939 0.02873348
v -0.96212348 -0.11396489 -0.00885776
v -0.93436530 -0.10769575 -0.02495768
v -0.92085047 -0.10898188 -0.00563299
v -0.94886305 -0.10416002 0.02336328
v -0.95159236 -0.04269886 0.03560801
v -0.94827161 -0.07427544 -0.04067268
v -0.89102857 -0.09139195 0.01243852
v -0.93410885 0.09835746 -0.02040425
v -0.94028448 0.10196587 0.00590557
v -0.95343220 -0.00060320 -0.04419604
v -0.87047636 -0.00002842 0.03620585
v -0.89382415 -0.06951839 -0.04026301
v -0.88348884 -0.09040510 -0.01528864
v -0.89040444 -0.06516030 0.03118764
v -0.87765278 0.01341332 -0.04301803
v -0.89323348 0.07585893 -0.03319869
v -0.84199445 -0.05571622 0.01853943
v -0.84560735 -0.05161073 -0.03462021
v -0.85342378 -0.01032506 -0.04238445
v -0.85961205 0.00514023 -0.05527155
v -0.85327916 0.00538573 0.03710101
v -0.85701144 0.02535941 -0.04305736
v -0.85137927 0.07052962 0.01897523
v -0.84325562 0.00972305 -0.04339642
v -0.83695781 -0.06109565 -0.01886461
v -0.86204185 0.04861392 -0.04206630
v -0.85177025 0.05819249 0.03215311
v -0.85687202 0.07490420 -0.00202632
v -0.79594338 0.05475321 -0.04452932
v -0.80051358 -0.06921912 -0.01100608
v -0.79277008 -0.05956992 -0.02577946
v -0.83673530 0.06414748 -0.03402070
v -0.80646048 0.07966720 0.00707438
v -0.80119557 -0.06363233 0.01377863
v -0.81969015 -0.03959007 0.02904995
v -0.79479955 0.00484578 0.03471227
v -0.79999341 0.00036111 -0.04384571
v -0.79388586 -0.02153797 0.02484725
v -0.79214114 -0.02139420 -0.03394575
v -0.81112950 0.06115106 0.03349859
v -0.78590979 -0.05817091 0.00336067
v -0.78215813 -0.02083782 0.00702797
v -0.76580346 -0.00200347 0.02725998
v -0.71341603 0.00268140 -0.03558815
v -0.76689610 0.08315858 -0.03600300
v -0.75269771 0.09743828 -0.00371963
v -0.77122954 -0.01085313 -0.02554755
v -0.75592654 -0.01034430 0.00300044
v -0.77119608 0.06560237 0.03621106
v -0.70701091 0.01888693 -0.04474530
v -0.85505573 0.02559440 0.03571343
v -0.76655499 0.08467090 0.02607163
v -0.68359964 -0.00715900 -0.01576384
v -0.71568934 0.10490355 -0.00083966
v -0.70448085 0.02426898 0.03901108
v -0.70538768 0.08066265 0.03780340
v -0.70522235 0.06225075 -0.04480390
v -0.69063723 0.06188951 0.04950718
v -0.71476202 0.09318681 -0.04167692
v -0.69085846 0.09110091 0.04142656
v -0.68644851 0.02476818 -0.05687612
v -0.69852387 0.10294179 0.01306669
v -0.67723101 -0.00284458 0.01370146
v -0.66438475 0.11052375 -0.00901244
v -0.68421817 0.00296201 0.02950601
v -0.67604901 0.09568119 -0.05339551
v -0.67347002 0.01471249 -0.04934228
v -0.64125127 0.09767158 0.03381175
v -0.64903731 0.00713889 0.02832801
v -0.69073899 0.02863422 0.04810520
v -0.67643481 0.06900086 -0.05903996
v -0.63369440 0.01957351 -0.04740242
v -0.65816694 -0.00114912 -0.00916338
v -0.65287179 0.01283320 -0.05107812
v -0.64553298 0.06461791 -0.04196748
v -0.64054667 0.10737759 -0.01089973
v -0.61547781 0.02279770 0.04208985
v -0.65149497 0.09073268 -0.04767348
v -0.63638103 0.02673280 0.04840779
v -0.62538335 0.07848215 0.05122491
v -0.62329244 0.07351464 -0.05401078
v -0.62293759 0.10791599 -0.03072019
v -0.62771014 0.11572056 -0.02071237
v -0.64077131 0.00703313 0.00038322
v -0.61475616 0.09676849 0.04338203
v -0.61465097 0.10804367 -0.05302997
v -0.63482915 0.04303416 -0.04920317
v -0.57789121 0.11522514 -0.02521897
v -0.61960488 0.10663234 0.01932197
v -0.58393223 0.11790617 -0.01606096
v -0.61947333 0.12170381 0.00226008
v -0.57605117 0.05512870 0.04482875
v -0.54939815 0.02397475 0.03833857
v -0.57993775 0.11299063 -0.05301270
v -0.57132564 -0.00372844 -0.02254758
v -0.56934046 -0.00169552 0.01180277
v -0.57967402 0.01582713 -0.00616693
v -0.57628794 0.11572548 0.01681117
v -0.55731171 -0.00669739 0.00911928
v -0.57321994 0.02039004 -0.02688612
v -0.57486530 0.02036615 0.01423536
v -0.59603127 0.08456354 0.04777673
v -0.54228646 -0.00365479 -0.02163828
v -0.56065618 0.02769930 -0.04626061
v -0.56587948 0.13060157 -0.02194968
v -0.54724969 0.14124678 -0.03159974
v -0.51476292 0.00435799 0.01249956
v -0.53975308 0.12096212 -0.03003966
v -0.55066795 0.16367025 -0.00007392
v -0.54823916 0.13695699 -0.00038946
v -0.56105691 0.13428368 0.02096151
v -0.53188660 -0.14527138 -0.01626899
v -0.47039154 0.07772815 -0.05356239
v -0.52725594 0.16153794 -0.03628815
v -0.51899567 0.18289925 -0.02078118
v -0.52449394 -0.08359338 -0.02131100
v -0.54812952 -0.12099174 -0.00211753
v -0.55186989 0.06165899 -0.04590731
v -0.53755846 0.07948372 0.04688073
v -0.56087523 0.10064765 0.04414415
v -0.54913617 0.18116194 -0.01831517
v -0.53377197 -0.13764446 0.01564939
v -0.53762672 -0.12799576 -0.02471762
v -0.50812548 0.00626609 -0.02632345
v -0.51461505 -0.00285732 -0.01790990
v -0.53213065 0.02350201 0.01750082
v -0.53159946 0.13590523 -0.04094715
v -0.53410924 0.12158039 0.02484037
v -0.51003496 -0.07580244 -0.02562272
v -0.52236907 0.02192660 -0.03462002
v -0.48309107 0.02500199 0.03579419
v -0.44817462 0.03475789 0.04407647
v -0.55381615 0.06745338 0.05087359
v -0.49520148 0.11618906 -0.05361199
v -0.51256924 0.12120653 -0.03703226
v -0.50484456 0.12953692 -0.02822798
v -0.52659830 0.15675287 0.02016906
v -0.47494349 -0.14959851 -0.02430214
v -0.52051637 -0.06075788 -0.00508177
v -0.50190448 -0.01704727 -0.01824034
v -0.50265222 -0.00178549 0.02414954
v -0.49709557 0.03343859 -0.04578979
v -0.51466328 0.13116586 0.00267186
v -0.51076947 0.14101862 0.01022436
v -0.50425378 0.13962128 0.02136616
v -0.51163619 0.14705143 -0.01972520
v -0.52086608 0.17221847 0.01536616
v -0.51429880 0.18494049 0.01040751
v -0.51839442 -0.08146863 0.01596435
v -0.51239964 -0.00348967 -0.00139914
v -0.49611270 -0.01950749 0.01500064
v -0.49998085 0.01983636 -0.02763818
v -0.49848269 0.01896695 0.01820443
v -0.49295740 0.12586224 -0.00003233
v -0.50625750 0.14041385 -0.02892992
v -0.49450330 -0.15720951 -0.00485894
v -0.49802800 -0.00153232 -0.03783999
v -0.48216691 0.00448207 0.01810709
v -0.48779865 0.01931967 -0.03529498
v -0.47483943 0.02161558 0.01825338
v -0.46749871 0.02854614 -0.03860169
v -0.44682346 0.13042568 -0.03406787
v -0.46393943 -0.14358319 -0.01892202
v -0.46117094 -0.09650339 -0.02592275
v -0.47409930 -0.14255780 0.01607101
v -0.47576676 0.07600007 0.05044441
v -0.48182933 0.09033648 0.04613855
v -0.50063719 0.11098798 0.04585037
v -0.47772851 0.14731836 -0.00263129
v -0.47549785 0.15348373 0.01162972
v -0.46636548 -0.00025572 -0.04263013
v -0.45608123 0.02091523 -0.02670142
v -0.46071951 0.15333180 0.02142928
v -0.45896099 -0.14410719 0.00692346
v -0.45859685 -0.12915725 0.00984090
v -0.45455756 -0.00291351 -0.02646722
v -0.45338830 0.06603708 0.04475475
v -0.43163600 0.12746555 -0.05322756
v -0.45188852 0.12992966 0.02667048
v -0.45239435 0.14367295 -0.00182706
v -0.48386590 -0.01878926 -0.02657055
v -0.45391502 0.01768193 0.01725955
v -0.45654872 0.14669328 -0.02856587
v -0.46820830 0.15589207 -0.01930396
v -0.44608329 0.02552409 0.02039405
v -0.44514200 0.11848972 0.04742501
v -0.42864635 -0.06502937 -0.01026645
v -0.44058171 -0.07800053 0.01114351
v -0.45113113 -0.07917373 0.01610566
v -0.43515290 -0.01127328 0.01677647
v -0.41543709 0.04312218 -0.04654321
v -0.44230049 0.13097850 -0.01123124
v -0.37094707 0.01678059 0.01601682
v -0.41357922 -0.02827136 -0.01856025
v -0.42159157 0.00202679 -0.02441679
v -0.42213416 -0.04841936 -0.00219233
v -0.42646882 -0.03201236 -0.02427620
v -0.41789130 -0.03497398 0.01143602
v -0.41790554 -0.00173505 0.01354575
v -0.41445286 -0.00565709 -0.01613897
v -0.37768848 0.03004046 0.01902143
v -0.40323639 -0.05499160 0.00827526
v -0.38956734 0.07181860 -0.04622115
v -0.38594084 -0.05691030 -0.02200617
v -0.44263643 0.12652870 0.04418211
v -0.36433368 -0.04180120 -0.01785070
v -0.39732251 -0.04056765 0.00232517
v -0.38498223 -0.03505706 0.01019945
v -0.39264175 -0.03925907 -0.01599138
v -0.39759744 -0.00131830 0.00213406
v -0.38717068 -0.00246452 0.00969804
v -0.39069888 -0.00109719 -0.01677711
v -0.33958899 0.03048120 -0.02447700
v -0.38848311 0.06593589 0.04464589
v -0.37699471 -0.01215046 -0.01095813
v -0.36718564 0.08715708 -0.05351870
v -0.37177655 -0.05999574 -0.00183420
v -0.37001373 0.03746186 0.04334243
v -0.36697382 0.06365660 0.05109363
v -0.37369090 -0.00183590 0.00556585
v -0.40498091 0.03394383 -0.04392582
v -0.39084185 0.13569809 -0.04239286
v -0.36653009 -0.05361004 0.01399367
v -0.36240363 -0.04385103 0.00686123
v -0.35919205 0.01008797 -0.02242558
v -0.37913436 0.09086087 0.04593659
v -0.34056976 -0.04705488 -0.02117011
v -0.34448117 -0.02693822 -0.00364218
v -0.34405434 0.00730420 0.01327954
v -0.34909786 0.06691231 0.04454222
v -0.37969486 0.08270207 0.04933213
v -0.29407156 0.08876825 0.04598675
v -0.29435438 0.14685570 -0.04936202
v -0.34172032 -0.04849254 0.01221241
v -0.34034428 0.00432629 -0.02129568
v -0.29816002 0.09590197 -0.05283664
v -0.32876485 -0.03478170 0.01235351
v -0.33004372 0.03354548 -0.02819831
v -0.35464514 0.13458168 -0.05316998
v -0.36125743 0.13748906 0.04027007
v -0.32515062 -0.02797117 -0.01762925
v -0.32408519 0.02672635 0.00916197
v -0.32137618 0.03384463 -0.01762719
v -0.36311598 0.12755026 0.04647376
v -0.30320166 0.14524202 0.03628064
v -0.35844144 0.03307007 0.03639846
v -0.28709793 0.07663183 0.04503412
v -0.30358742 0.14072023 0.04532350
v -0.32593765 0.03430474 0.01624891
v -0.29512265 0.14171409 -0.05299495
v -0.27895066 0.15121896 -0.04899769
v -0.28561218 0.08301491 -0.04537485
v -0.27174161 0.14231540 0.05367714
v -0.27745697 0.04881628 0.04921565
v -0.27723269 0.08931582 0.07029215
v -0.27561830 0.09965984 -0.06092276
v -0.27963116 0.09855138 0.05157647
v -0.27857927 0.15056304 0.01757957
v -0.28850686 0.14849343 0.04604657
v -0.27241074 0.05229250 0.07247857
v -0.27518505 0.14711617 -0.06269117
v -0.25513510 0.12418074 -0.04641881
v -0.25476556 0.14515502 -0.07127944
v -0.26401490 0.14997757 -0.00843722
v -0.25663007 0.03584702 0.03453350
v -0.25754079 0.05212677 0.05440298
v -0.25192902 0.07433890 0.04734606
v -0.25949925 0.08519739 0.07178308
v -0.26174377 0.09755892 0.05374156
v -0.24689500 0.04283167 0.04393071
v -0.24850887 0.09866593 -0.05562357
v -0.25203244 0.13199879 -0.06304265
v -0.24669077 0.12806253 -0.08719426
v -0.23923613 0.15504676 -0.08202957
v -0.24304135 0.06013368 -0.07633224
v -0.23503155 0.08759905 -0.04671175
v -0.24505966 0.10304969 -0.07658014
v -0.25084475 0.04169895 -0.04567470
v -0.23422318 0.05215138 -0.05507231
v -0.23096395 0.04166771 -0.08103298
v -0.23446057 0.11076652 0.04842912
v -0.26071360 0.14903710 0.02000657
v -0.22639090 0.03700382 -0.03472477
v -0.22232637 0.04323036 -0.07405214
v -0.23127435 0.11050457 -0.08221556
v -0.21608072 0.12557471 0.04469794
v -0.16058376 0.13011728 -0.08606414
v -0.18014064 0.14652305 0.01963537
v -0.16882634 0.04062570 0.01165714
v -0.22581931 0.09046587 -0.06044402
v -0.22452026 0.12671621 -0.05385279
v -0.24198797 0.15021358 0.04557809
v -0.21371194 0.09805424 -0.06287574
v -0.18968664 0.11639497 -0.05860439
v -0.20585325 0.15703551 0.00022458
v -0.18658443 0.10617424 -0.07470946
v -0.22060136 0.12876380 -0.03673215
v -0.21387845 0.15474173 0.02810203
v -0.16271942 0.15603739 -0.04518551
v -0.16243965 0.15723476 0.00718864
v -0.18839708 0.03817171 -0.04534821
v -0.18592919 0.08171535 -0.04636079
v -0.21825971 0.10566553 0.04795903
v -0.22328016 0.12152358 -0.08689895
v -0.21754403 0.03894964 -0.01095776
v -0.16478678 0.09481542 -0.05658549
v -0.21927720 0.09203177 0.05321036
v -0.20252987 0.11683319 -0.08235704
v -0.22414992 0.11734197 -0.07505366
v -0.21612627 0.11274023 0.02871452
v -0.22166483 0.13127177 -0.06930976
v -0.17983580 0.03543373 -0.05754496
v -0.17295703 0.13168501 -0.04410253
v -0.16297359 0.15507369 0.04342055
v -0.15763577 0.03681536 -0.06112182
v -0.15139887 0.14017768 -0.06605909
v -0.15399436 0.13000667 0.04582425
v -0.15674610 0.14031353 -0.04355870
v -0.17039749 0.07212794 -0.05300578
v -0.15430385 0.11250047 0.03436979
v -0.15482362 0.12046135 -0.08492021
v -0.15509397 0.12546818 -0.07512334
v -0.15425259 0.12998180 -0.03123119
v -0.14269379 0.16186847 0.03125702
v -0.14644055 0.03965136 -0.04151864
v -0.14784231 0.05654259 -0.05312886
v -0.14377895 0.08526810 -0.04736498
v -0.14435494 0.08137167 0.04814299
v -0.14849007 0.12637816 -0.05220924
v -0.14559041 0.15638454 -0.08242565
v -0.14174707 0.15618810 -0.06543430
v -0.14482078 0.16330248 -0.04303783
v -0.14243994 0.04480379 -0.07938056
v -0.13282475 0.03650896 -0.07836080
v -0.13612654 0.03537930 -0.00617633
v -0.13924641 0.03735636 0.01964476
v -0.14123580 0.03960091 -0.10964009
v -0.13661192 0.04404065 -0.09398008
v -0.13572197 0.05581560 -0.13085851
v -0.13447258 0.03760683 -0.04468698
v -0.14509310 0.07379658 -0.12252065
v -0.14026195 0.06862459 -0.09181728
v -0.14738952 0.04485163 0.04623278
v -0.13337944 0.06686871 -0.08612320
v -0.14106869 0.10758816 -0.08152077
v -0.14254647 0.09200662 -0.05557428
v -0.12484246 0.12507077 -0.06319282
v -0.12411684 0.15964516 -0.05070793
v -0.12358363 0.07684594 -0.08815449
v -0.13644390 0.11678833 -0.08750590
v -0.11862549 0.10573675 0.05117849
v -0.12268405 0.03938583 -0.05240725
v -0.12920375 0.05367854 -0.08970111
v -0.12264606 0.07058286 -0.09233702
v -0.10743740 0.09303783 0.04517834
v -0.12722253 0.13035419 -0.08186498
v -0.12482039 0.11465617 -0.06821439
v -0.14196567 0.10382842 0.05434124
v -0.11481622 0.15313694 -0.05909527
v -0.13380604 0.13937744 0.05053974
v -0.12028108 0.04770252 -0.07011508
v -0.11417122 0.04324347 -0.04401932
v -0.12120310 0.11437884 -0.05166328
v -0.13440527 0.08397618 -0.10342440
v -0.11129934 0.12714763 -0.04270076
v -0.10617126 0.03939193 0.00780434
v -0.10388039 0.08189489 -0.04465231
v -0.11069355 0.12615533 -0.03264641
v -0.10571515 0.12523218 0.03856286
v -0.11655536 0.15724617 0.01254798
v -0.11100217 0.15772468 0.04055624
v -0.09634922 0.03412116 -0.03175809
v -0.10618882 0.05524362 0.05182393
v -0.07811001 0.03698019 -0.04642861
v -0.07866571 0.06279665 -0.12660845
v -0.09813508 0.05874056 0.06931160
v -0.11273557 0.07452213 -0.09193657
v -0.09976992 0.09190007 0.07053455
v -0.10008064 0.12041335 -0.04383962
v -0.10623561 0.03789194 0.03476727
v -0.08603791 0.07132809 -0.05734467
v -0.07288119 0.05551697 0.04741083
v -0.05925380 0.08161418 -0.12138364
v -0.09672798 0.10202336 0.05162566
v -0.09039600 0.03033401 -0.00391130
v -0.07117068 0.04375897 -0.12530018
v -0.07678799 0.04148734 -0.06240835
v -0.05465530 0.06296903 -0.12711538
v -0.08095763 0.12251952 -0.05970748
v -0.07160897 0.12707785 -0.03626871
v -0.06674428 0.02900226 -0.00239783
v -0.06914106 0.05097392 -0.09312069
v -0.07277449 0.03761775 0.03780226
v -0.07327841 0.05845892 0.06760003
v -0.07592702 0.09343530 0.07067233
v -0.06686523 0.12771262 -0.00196100
v -0.06639456 0.04437513 -0.04620210
v -0.06995611 0.04021723 0.02242542
v -0.07402489 0.08408382 -0.05954404
v -0.07332300 0.10088303 0.04492149
v -0.06899185 0.12346620 -0.04605225
v -0.06739388 0.11894112 0.03953484
v -0.05878666 0.07265423 -0.09254634
v -0.05298086 0.12878587 0.02199577
v -0.06257805 0.15399292 0.02232603
v -0.06398182 0.15305867 -0.03084213
v -0.05990687 0.04029252 -0.11023670
v -0.05401540 0.05076228 -0.09554501
v -0.05900274 0.04962642 0.03568979
v -0.06537222 0.06103290 0.03967310
v -0.05262983 0.07984119 -0.10352050
v -0.04233166 0.15672755 -0.03159904
v -0.05486874 0.16366186 -0.00587021
v -0.05267230 0.04215347 -0.00602476
v -0.05516595 0.12851778 -0.03201427
v -0.02453548 0.13486970 -0.01983495
v -0.02612217 0.14666411 0.01243991
v -0.02472075 0.14937743 -0.01530844
v -0.03219850 0.16459550 -0.00642318
v -0.04318368 0.15537337 0.02370723
v -0.05831864 0.05116450 -0.04372430
v -0.05484764 0.04198321 -0.03486675
v -0.05817968 0.12070517 -0.04336001
v 0.01323681 0.12168540 0.03628440
v 0.00820382 0.12947665 -0.02961208
v 0.00230211 0.14722219 -0.01975792
v 0.00410781 0.04421092 0.02535720
v -0.01086962 0.07514095 -0.04421160
v 0.01221366 0.07339715 0.04013515
v -0.00325255 0.08574445 0.04189682
v 0.00610690 0.10000735 -0.04468259
v 0.01323670 0.09917118 0.03965532
v 0.00910536 0.08305643 0.03551724
v 0.00998178 0.08493776 0.02606358
v -0.01094639 0.12838388 0.01947976
v 0.00914994 0.05240362 -0.04509347
v 0.00486753 0.06038226 0.03825420
v 0.00404002 0.07324085 -0.02967547
v 0.07720544 0.04714421 -0.04268114
v 0.01519591 0.04472111 -0.03431932
v 0.02762257 0.08229781 0.02641830
v 0.03641755 0.08214564 0.02712783
v 0.00784960 0.09298659 -0.02806384
v 0.04310752 0.07578193 0.02077536
v 0.04685567 0.09488797 0.01747675
v 0.04540434 0.09341411 0.03039353
v 0.04010708 0.13158923 -0.02710186
v 0.02554433 0.14765559 0.01435862
v 0.04930438 0.08244012 0.02738102
v 0.04821617 0.07098517 -0.02848208
v 0.04667233 0.10865662 0.02117062
v 0.04470302 0.14626624 -0.01751998
v 0.04766209 0.08022382 0.01689070
v 0.04470606 0.06521858 0.01951328
v 0.01045674 0.12814483 0.02644744
v 0.06096760 0.13111623 -0.00662216
v 0.08082817 0.08418044 0.02575340
v 0.03868992 0.08081029 0.03544676
v 0.08833425 0.10998013 0.01842242
v 0.05311915 0.13011411 0.01933054
v 0.07811087 0.08045252 -0.02419051
v 0.08957128 0.10492530 0.04031045
v 0.07833076 0.06629205 -0.02928306
v 0.08985739 0.07524510 0.03889891
v 0.08603218 0.09071980 0.03434816
v 0.06018762 0.10798920 -0.02909216
v 0.08794050 0.04853405 0.03020757
v 0.08650030 0.09817380 0.02447227
v 0.09838359 0.11398290 -0.01939968
v 0.09492734 0.13248412 -0.01559445
v 0.09573865 0.13098809 0.01138069
v 0.13276187 0.06757697 -0.01850867
v 0.09467946 0.05047830 0.00498381
v 0.11703748 0.08519858 0.03868997
v 0.08996546 0.10024468 -0.02063599
v 0.06217838 0.11169812 -0.04503502
v 0.10147293 0.10753529 0.00535869
v 0.11312381 0.12376247 -0.01513997
v 0.10812962 0.11599014 0.00998988
v 0.09856041 0.04726572 -0.02117335
v 0.10778592 0.05970311 -0.00019430
v 0.08882456 0.10459698 0.01480002
v 0.09816923 0.10697106 -0.01216899
v 0.11299917 0.04950407 0.01069792
v 0.07911014 0.06504868 -0.04372913
v 0.13361527 0.10881364 -0.03541512
v 0.13115677 0.10508134 0.03818375
v 0.13676751 0.12295529 0.03680761
v 0.12952661 0.05081129 0.00378322
v 0.13858649 0.05925767 -0.01421727
v 0.14879093 0.05867999 0.01160655
v 0.08911331 0.07032270 0.02000528
v 0.13093010 0.07411402 0.01811829
v 0.06691427 0.12587339 -0.04507482
v 0.13534095 0.04913747 -0.01812805
v 0.16633345 0.05098278 0.01875160
v 0.12993781 0.07244385 0.02051772
v 0.14395374 0.13343129 -0.03411689
v 0.16692673 0.13166043 0.00784538
v 0.13688190 0.06670429 0.00230088
v 0.12054408 0.08976307 0.02455256
v 0.17172694 0.10958039 0.00694487
v 0.12689573 0.13105011 0.02898457
v 0.16711308 0.07096112 -0.04499696
v 0.16055924 0.09619059 0.02741755
v 0.13257280 0.11175550 0.02058981
v 0.16263966 0.11754992 0.00551322
v 0.17115369 0.05903318 -0.00759620
v 0.16201821 0.06560157 -0.02622125
v 0.16700914 0.07741077 -0.03446611
v 0.18335652 0.09155638 -0.02289371
v 0.17130951 0.08685105 0.03795619
v 0.17870015 0.10276195 0.03925092
v 0.17640573 0.11142758 -0.01088633
v 0.17441325 0.13380277 -0.01596204
v 0.17766708 0.06636233 -0.01402409
v 0.16571871 0.08928492 0.02602838
v 0.16515376 0.11691367 -0.01559894
v 0.20175540 0.12902660 0.03490238
v 0.17586056 0.07061676 0.01103821
v 0.18124504 0.07219623 0.02034202
v 0.18144076 0.08218059 0.01614148
v 0.18026566 0.05170585 -0.01240104
v 0.17598560 0.10666585 0.02298582
v 0.17950437 0.11500720 -0.00495493
v 0.21043645 0.11536891 0.02169013
v 0.16484463 0.12670055 -0.04477632
v 0.15969576 0.04937311 -0.03346999
v 0.19947853 0.05977563 -0.01312269
v 0.19455237 0.06615594 0.00949012
v 0.20861185 0.07127247 0.01141053
v 0.22108439 0.11935168 0.03837427
v 0.20336951 0.12063247 -0.02213239
v 0.19799442 0.13181571 -0.01561271
v 0.13498314 0.05754070 -0.04594031
v 0.20005143 0.05912342 0.00481886
v 0.20980918 0.06863595 -0.02476330
v 0.20513232 0.06958476 -0.00755305
v 0.20328171 0.09967639 0.02483929
v 0.21806953 0.10513540 0.03852308
v 0.21481823 0.11758437 0.00672537
v 0.21922878 0.06190845 0.00237803
v 0.19769811 0.05355100 0.01440253
v 0.22682336 0.07589849 -0.01697400
v 0.20095984 0.09413585 0.03701356
v 0.21998740 0.05565401 -0.01541370
v 0.22350805 0.07258737 0.00922860
v 0.22223918 0.08407118 0.02268198
v 0.21896125 0.09728515 0.03003142
v 0.22280992 0.11030941 -0.03529282
v 0.24140201 0.12825531 -0.04427475
v 0.25003170 0.05648321 0.00939787
v 0.21395500 0.13306194 0.00806026
v 0.25270585 0.06338112 -0.04373131
v 0.25984726 0.05615082 -0.03780077
v 0.19955761 0.05358867 0.02719696
v 0.25479687 0.06886046 -0.02169034
v 0.24492691 0.08002277 0.03864139
v 0.17610267 0.09796695 0.01492545
v 0.24275816 0.10073424 0.02440295
v 0.21701891 0.11098213 0.00423524
v 0.26078862 0.08149763 -0.03517699
v 0.24801361 0.10007869 0.03653878
v 0.28747911 0.10425476 0.01301048
v 0.30834294 0.05743843 0.02848481
v 0.18040475 0.05969929 0.03628949
v 0.25095529 0.07460151 0.00371092
v 0.22944450 0.13624005 -0.03274816
v 0.26425130 0.13247952 0.00688222
v 0.27290560 0.13505932 0.02684271
v 0.30826285 0.05701191 0.01097721
v 0.25482416 0.06580243 0.00829616
v 0.26181394 0.07241546 -0.00584406
v 0.25877489 0.07386246 0.01977280
v 0.25264338 0.10079033 0.02646887
v 0.26103636 0.10951512 -0.03325904
v 0.27171414 0.11943403 -0.02653410
v 0.26147925 0.13239219 -0.01356876
v 0.25576380 0.05613086 -0.01969555
v 0.30648250 0.07492216 0.01969568
v 0.26633262 0.07640253 -0.04404315
v 0.25997678 0.08203116 0.01574007
v 0.27291779 0.09931012 -0.03571730
v 0.25648703 0.09166069 0.02709384
v 0.27018924 0.12126547 -0.00692687
v 0.26451436 0.11772868 0.00805000
v 0.32567131 0.13746489 -0.03578125
v 0.27574554 0.13361911 -0.00289810
v 0.27940214 0.09746518 -0.04062008
v 0.27442389 0.07192747 -0.02687755
v 0.28236560 0.11435080 -0.04454073
v 0.28123002 0.11604569 0.02105951
v 0.28535046 0.09627038 -0.03304008
v 0.29149542 0.10614764 -0.03467861
v 0.28568613 0.11344093 0.00204482
v 0.28488113 0.11323961 -0.00435433
v 0.29003657 0.13639511 -0.01361304
v 0.30522030 0.07507183 0.00755327
v 0.29278367 0.08509559 -0.04285887
v 0.29267838 0.10320483 0.02748422
v 0.30980671 0.13651789 0.01743382
v 0.30426717 0.07312037 -0.01002268
v 0.29302720 0.07039804 -0.02489860
v 0.30329693 0.08935684 0.03769042
v 0.30037562 0.09640569 0.02552779
v 0.30495989 0.10300182 -0.01877707
v 0.29529443 0.10471523 0.03722814
v 0.26136860 0.11174609 -0.01296116
v 0.30030402 0.12795095 -0.00316136
v 0.30587698 0.05730696 -0.02173678
v 0.34249388 0.06875637 0.03714393
v 0.31314051 0.07674894 -0.02771274
v 0.31199873 0.08923486 -0.01952623
v 0.33214532 0.09063564 0.01617454
v 0.30412736 0.09764139 -0.04078166
v 0.30943582 0.11834677 -0.02825452
v 0.32128303 0.13814238 -0.02506281
v 0.33745929 0.09476914 -0.03653657
v 0.30589944 0.11636566 0.00869602
v 0.31532466 0.12878349 0.00664307
v 0.31238080 0.13541047 0.01140339
v 0.32311946 0.05820611 -0.01235159
v 0.33708453 0.07032974 -0.01152372
v 0.33400999 0.10877123 -0.03675117
v 0.31992640 0.11388547 0.02002761
v 0.34709083 0.12337001 0.01053939
v 0.33808402 0.05793101 0.01526462
v 0.31585650 0.06729854 -0.04357926
v 0.32630485 0.09721466 0.03880348
v 0.33570852 0.12890567 -0.04404690
v 0.31209563 0.13110256 -0.01720416
v 0.33704813 0.07346794 0.00330825
v 0.33891577 0.09487657 0.02465465
v 0.37013575 0.08997349 0.03716604
v 0.33041880 0.11777782 0.03849962
v 0.34475565 0.12610426 -0.01576836
v 0.34663458 0.05898460 -0.03423328
v 0.35568675 0.08675183 -0.01752839
v 0.34761765 0.07589598 0.02058684
v 0.34653559 0.11193978 -0.03273828
v 0.36399613 0.11626870 -0.00993226
v 0.35788824 0.13818365 -0.01584985
v 0.35946528 0.05931981 -0.00420833
v 0.35085950 0.07125206 -0.01033019
v 0.35065400 0.06872312 0.00732665
v 0.35926793 0.09289753 -0.04431324
v 0.36183099 0.12727473 0.00222004
v 0.35720318 0.13593717 0.01324689
v 0.33622964 0.10338176 0.02645099
v 0.34605341 0.10681839 0.03516958
v 0.36436564 0.11929541 0.01657206
v 0.37461890 0.08032615 -0.02820923
v 0.35591572 0.07639868 -0.01978663
v 0.37779284 0.08722894 -0.04428074
v 0.36830656 0.13782053 -0.00193517
v 0.37814895 0.09930458 -0.03386443
v 0.35797723 0.11517227 0.00444782
v 0.38682701 0.12251134 -0.02833000
v 0.38468170 0.13990826 -0.01888696
v 0.38335933 0.13728062 -0.00820811
v 0.38360043 0.05925375 -0.01477948
v 0.37599923 0.11921897 -0.04394423
v 0.38747607 0.11830593 -0.01220712
v 0.42568992 0.10917164 0.03888609
v 0.39047706 0.11827335 0.00925909
v 0.38627985 0.13049573 0.00300269
v 0.41426373 0.10613868 -0.04459387
v 0.39235527 0.09739262 0.02531691
v 0.40154165 0.10878453 -0.03858971
v 0.40049199 0.06020793 0.01515654
v 0.38800180 0.08200508 -0.00836526
v 0.44322753 0.08148243 0.02123696
v 0.39792388 0.09005802 0.01547855
v 0.40835903 0.10171441 0.03818784
v 0.40152416 0.10007242 -0.03306520
v 0.39458022 0.11838218 -0.01048577
v 0.40437527 0.12591200 -0.01255911
v 0.40249789 0.04648139 -0.01459871
v 0.39899446 0.04553656 0.00442484
v 0.40711901 0.07856011 -0.01815075
v 0.39546436 0.07795711 0.01085898
v 0.41720995 0.11794356 0.02216092
v 0.44796518 0.14178805 -0.01176095
v 0.42681858 0.08132875 -0.02614886
v 0.40842263 0.10759780 -0.01888640
v 0.40923164 0.11815511 0.01029908
v 0.39315583 0.13801912 0.01091978
v 0.36529947 0.13777571 0.02683363
v 0.41486220 0.06258987 -0.01145099
v 0.43483693 0.06541590 0.00950474
v 0.41737549 0.07507979 -0.00573697
v 0.42338620 0.07068379 0.03661255
v 0.36941271 0.08269726 0.00521778
v 0.41227102 0.08973489 -0.01760585
v 0.42548685 0.12469149 -0.02750974
v 0.43500378 0.06553585 -0.03631075
v 0.43770415 0.09032473 -0.04380973
v 0.45589981 0.09846077 0.01669057
v 0.45963109 0.08244523 0.02030474
v 0.43618456 0.09884082 -0.03583127
v 0.40659237 0.10708124 0.01509096
v 0.44531486 0.10779320 0.02693049
v 0.44202521 0.12555464 -0.01314192
v 0.44323647 0.13331099 0.00587101
v 0.46568566 0.07961965 -0.01161847
v 0.46848658 0.07683007 0.00314178
v 0.43862695 0.07469799 -0.04353989
v 0.42843164 0.09298596 -0.02988001
v 0.46165643 0.08790219 0.01051811
v 0.43777147 0.09674574 0.03539611
v 0.43226722 0.11258157 -0.03530345
v 0.44407610 0.14401208 -0.02177886
v 0.45005523 0.14248617 0.01034745
v 0.49448681 0.14410606 0.02663311
v 0.45616994 0.10761707 0.03641331
v 0.45407209 0.12212648 0.00138194
v 0.40330184 0.13149011 0.03681233
v 0.47160130 0.06675620 0.00829708
v 0.45569322 0.08753622 -0.01315858
v 0.47806602 0.11270393 -0.02015458
v 0.44286560 0.12260510 0.01867037
v 0.43052033 0.11964744 -0.04382832
v 0.48325125 0.12306740 0.01961420
v 0.39161828 0.06154208 0.02794314
v 0.46445868 0.06596587 -0.01759802
v 0.46070399 0.12141738 -0.01216574
v 0.50017939 0.13188964 -0.02731909
v 0.48033258 0.09962280 -0.03361949
v 0.50045137 0.11931256 -0.03366502
v 0.42239671 0.13350441 -0.04419856
v 0.48477074 0.10215322 0.02528720
v 0.47928732 0.14237021 -0.01118169
v 0.48877119 0.06638678 0.01342724
v 0.49339757 0.07139073 0.00049170
v 0.51893294 0.08445379 0.01956948
v 0.47949896 0.11078345 0.02376535
v 0.47385379 0.10666225 0.03616958
v 0.48338185 0.12427300 -0.00453423
v 0.49406500 0.06682944 -0.02167922
v 0.49026114 0.08264964 -0.01150413
v 0.51096849 0.08813365 -0.00075329
v 0.52272848 0.09993835 -0.02000028
v 0.49676681 0.12674460 0.03815029
v 0.49822534 0.13228520 0.00715224
v 0.49378735 0.14337853 0.01320858
v 0.47038134 0.14521512 -0.03629495
v 0.54793112 0.14924559 -0.01421381
v 0.49130726 0.08325336 -0.01948806
v 0.48872165 0.09077263 -0.01280791
v 0.48140166 0.11636912 0.01403455
v 0.50758528 0.13650185 -0.00999126
v 0.51889209 0.06857910 0.01115344
v 0.50293663 0.07405987 -0.01084921
v 0.51595136 0.07819449 -0.00710645
v 0.50126788 0.07787025 0.00768185
v 0.51525673 0.09038910 -0.01181585
v 0.51259927 0.10796318 -0.03303030
v 0.52435241 0.09786200 0.01542562
v 0.50758020 0.09722527 0.03582841
v 0.51418024 0.10515710 0.02418048
v 0.50848009 0.12258825 0.00278920
v 0.52409456 0.06869626 -0.00904713
v 0.51685168 0.07987943 0.00122777
v 0.52268481 0.08971988 -0.01178988
v 0.50889399 0.08916775 0.00751100
v 0.51270451 0.12187534 -0.04368041
v 0.53072160 0.11208382 -0.02048376
v 0.52675615 0.13036083 -0.02777698
v 0.54816783 0.13717394 -0.04488034
v 0.63085397 0.07359673 0.02953781
v 0.50828742 0.07548792 0.03629218
v 0.51485512 0.09828140 -0.04363845
v 0.50491000 0.08705735 -0.02824445
v 0.51603580 0.10920045 0.03700301
v 0.52936699 0.11301136 -0.04372664
v 0.53608325 0.12223019 -0.01207638
v 0.52339050 0.12489228 0.02121779
v 0.54317268 0.07263988 -0.01106769
v 0.52406279 0.06759747 0.02706181
v 0.51599770 0.08496503 -0.02007461
v 0.54746101 0.08323341 -0.01604934
v 0.52686486 0.09028239 -0.01110336
v 0.55157999 0.08589023 0.03747692
v 0.53373479 0.10326772 -0.04099341
v 0.58288350 0.11039292 0.01522498
v 0.53507600 0.11395939 -0.03181932
v 0.53247325 0.10929698 0.03764793
v 0.54409330 0.12666446 -0.04434071
v 0.53458421 0.13365249 -0.00351553
v 0.52951954 0.13012003 -0.01968042
v 0.53626652 0.13884733 0.03606843
v 0.52854044 0.14607574 0.00367125
v 0.55029576 0.07112932 0.00204135
v 0.54795439 0.07250241 -0.03974025
v 0.54087824 0.09009741 0.00084530
v 0.53674028 0.08738632 -0.02790796
v 0.55030918 0.10241314 0.02697143
v 0.54975666 0.12218741 -0.03519723
v 0.54643441 0.12461281 -0.01321611
v 0.54808014 0.09039222 -0.04401391
v 0.53723217 0.08811676 0.02121219
v 0.55874801 0.10336640 0.02410930
v 0.54459843 0.09977116 -0.03771826
v 0.54291632 0.10913305 0.02720030
v 0.55201719 0.11371282 0.03590070
v 0.63182858 0.09225277 -0.02828679
v 0.56063166 0.10262612 0.03740450
v 0.55663964 0.12560308 0.03888030
v 0.55764739 0.08621643 0.00322052
v 0.62858318 0.09724511 -0.01230320
v 0.57037055 0.13356696 -0.01125458
v 0.62018610 0.12591922 -0.03384041
v 0.58633649 0.13110593 0.00672004
v 0.58236658 0.13684369 -0.00284686
v 0.59088869 0.14986727 0.01250157
v 0.57086257 0.07185202 -0.01667161
v 0.61628952 0.07174010 0.00315453
v 0.63167779 0.08180920 -0.04360808
v 0.63819755 0.09256236 0.00222329
v 0.58989174 0.10299120 0.03783167
v 0.59622315 0.11604532 0.02507577
v 0.61193878 0.07205671 -0.03577255
v 0.59696883 0.10585618 0.02571804
v 0.63403407 0.11375863 -0.02099774
v 0.55871134 0.12512959 0.00502011
v 0.60580295 0.12027999 0.01378207
v 0.57747290 0.13314448 -0.02778568
v 0.60712874 0.13144501 -0.01217634
v 0.60224063 0.14310071 -0.00162016
v 0.61379543 0.08611052 0.00006357
v 0.63139713 0.10637193 0.02616843
v 0.60147787 0.13777285 -0.02619038
v 0.61558084 0.13587079 0.00767584
v 0.63104344 0.14616759 -0.04401610
v 0.58752471 0.14874017 -0.00636641
v 0.62949745 0.07243525 -0.01695084
v 0.59233284 0.11838488 0.03800034
v 0.63918841 0.13123953 -0.04486511
v 0.61936096 0.14789216 0.00620083
v 0.62168966 0.08335064 -0.01381608
v 0.67031393 0.15523383 0.02712063
v 0.64777144 0.09632888 0.00661056
v 0.63673623 0.11480728 0.03166370
v 0.62598333 0.13005329 -0.00834583
v 0.65270930 0.13092149 0.00602030
v 0.62933991 0.13215588 0.02024769
v 0.62911248 0.15491547 -0.03452761
v 0.62361985 0.15107957 -0.00634296
v 0.64062103 0.07229098 -0.00063596
v 0.64504255 0.09071506 0.01936448
v 0.66198782 0.11649243 0.03752176
v 0.64683173 0.14569630 -0.00457665
v 0.64307794 0.08817487 -0.01182085
v 0.70291132 0.08496557 0.03643002
v 0.64134005 0.10215356 0.03817102
v 0.65969925 0.11519968 0.02431995
v 0.68152053 0.14046270 0.01537410
v 0.65109231 0.14555957 0.03722542
v 0.64942514 0.08916020 0.00132662
v 0.66936301 0.08454733 -0.00354976
v 0.64879702 0.13525567 -0.01251199
v 0.65419923 0.15176375 0.00823048
v 0.66613380 0.07297647 -0.01838457
v 0.66587755 0.13346716 -0.01069943
v 0.66799234 0.15675779 -0.01429005
v 0.68691001 0.09706421 -0.04446590
v 0.69321537 0.09711856 -0.02902675
v 0.67975263 0.09627153 -0.00452129
v 0.68489654 0.12285633 0.02741571
v 0.69525342 0.14037078 -0.00868578
v 0.68375848 0.09516102 0.02102449
v 0.70077783 0.10914186 0.03804500
v 0.70133788 0.10681339 0.01424293
v 0.69346652 0.11226152 0.02665980
v 0.69456285 0.13121052 -0.03446713
v 0.69883916 0.13497353 0.00754890
v 0.69650416 0.15863645 0.01380307
v 0.68843379 0.10200464 -0.03525055
v 0.69921908 0.12774983 0.03979244
v 0.69308466 0.12547019 0.01455398
v 0.69771208 0.14099579 -0.02790393
v 0.73871331 0.14985318 0.03806792
v 0.69834198 0.15741780 -0.00213159
v 0.68626045 0.07341445 -0.00014108
v 0.70077932 0.07481575 -0.03497900
v 0.72706129 0.07656361 0.02854192
v 0.70307520 0.10399966 -0.01596366
v 0.71918154 0.09841443 0.02235069
v 0.70272073 0.12035978 -0.03261892
v 0.69961396 0.13594428 -0.04472184
v 0.71838897 0.13615341 -0.01383596
v 0.70787799 0.06754794 0.00736837
v 0.69886206 0.09661894 -0.04558058
v 0.70303387 0.10079970 0.00196032
v 0.71703407 0.09685705 -0.01691380
v 0.70667547 0.09484710 0.01197173
v 0.72064913 0.13663064 0.02227063
v 0.70923190 0.07162438 -0.02372099
v 0.72609399 0.12086317 0.01864517
v 0.72465118 0.10238036 -0.02838471
v 0.71410057 0.12039548 -0.02140676
v 0.72485540 0.13721530 -0.02782171
v 0.74223088 0.15224647 -0.04437941
v 0.73816155 0.16221950 -0.03088640
v 0.73132460 -0.24084299 0.23067366
v 0.73622374 0.01245785 -0.02088589
v 0.71319174 0.05261918 -0.01590091
v 0.72120818 0.03465761 0.00186243
v 0.72058100 0.06377970 -0.02563202
v 0.74024673 0.15964647 0.02535703
v 0.73552413 -0.24793278 0.16801573
v 0.73093324 -0.23481598 -0.17588991
v 0.72292778 -0.23686947 0.19648865
v 0.73749366 -0.23130825 0.23281507
v 0.73428613 -0.06058764 -0.07526995
v 0.73367122 -0.05026381 0.09728377
v 0.73306296 -0.04609337 -0.09787823
v 0.73413481 -0.05723173 0.06539025
v 0.72822492 0.01928767 -0.05344175
v 0.73212041 -0.01964630 -0.04883516
v 0.73015895 -0.00576666 0.06713563
v 0.73213940 -0.01587564 0.03804911
v 0.73624770 -0.00063419 -0.07530486
v 0.73284297 0.01500878 0.01349289
v 0.72626422 0.03075287 0.04155391
v 0.73866640 0.02941367 -0.00556466
v 0.73685890 0.02559480 0.05754550
v 0.73351552 0.07756458 -0.03526622
v 0.75551133 0.11818208 0.04437772
v 0.73743078 -0.25019157 -0.19706575
v 0.73523127 -0.24619621 0.21971090
v 0.72274795 -0.23852903 -0.22324594
v 0.74208307 -0.21964659 -0.17085997
v 0.73798485 -0.22100954 -0.20745284
v 0.74252158 -0.21656122 0.19740952
v 0.74258272 -0.22074581 0.16319551
v 0.73876711 -0.15237000 0.14942011
v 0.74264536 -0.19692068 0.18034692
v 0.74312165 -0.18957206 -0.18650276
v 0.74017417 -0.15256311 0.11921662
v 0.74101536 -0.17234458 -0.13971330
v 0.73983907 -0.13232541 -0.11244313
v 0.73935994 -0.12634171 0.14005184
v 0.73949553 -0.12684350 0.10199013
v 0.73590730 -0.09605977 0.08949399
v 0.74184821 -0.08277248 -0.08301468
v 0.73747060 -0.09917753 0.12606057
v 0.73637893 -0.09282284 -0.12761728
v 0.73548957 -0.08762332 -0.09277180
v 0.74446974 -0.04559298 -0.06216486
v 0.74274869 -0.07293961 0.06935321
v 0.74432986 -0.01885458 0.03877447
v 0.74245367 0.01456201 0.01938072
v 0.72811168 0.03577412 -0.05251855
v 0.73010478 0.05969672 -0.05415311
v 0.72656153 0.06053290 0.04482977
v 0.74494798 0.07991385 0.02895293
v 0.75658445 0.09757773 0.04171830
v 0.73682461 0.16880940 0.00233042
v 0.73832337 0.23349637 -0.01117945
v 0.73862576 0.22375039 -0.01556994
v 0.73618894 0.21267661 0.00580667
v 0.77435897 -0.24253518 0.20692925
v 0.73604639 -0.24354557 -0.23711171
v 0.74862370 -0.23846823 -0.17486783
v 0.74011813 -0.23165923 -0.24274219
v 0.75242193 -0.18712960 -0.14635596
v 0.74828348 -0.21883209 -0.21399318
v 0.75178655 -0.21617826 0.15634993
v 0.74961906 -0.20272812 0.19455621
v 0.74366875 -0.17664458 0.17098454
v 0.75163809 -0.12860590 0.10337357
v 0.75147174 -0.12708134 -0.11009909
v 0.74269048 -0.10192236 -0.09349877
v 0.73629724 -0.08799393 0.11615919
v 0.75171288 -0.08668322 -0.09426334
v 0.75611007 -0.06524751 0.07702004
v 0.75141899 -0.06920579 -0.08618927
v 0.76308351 0.00120317 -0.07403768
v 0.74923467 0.01936055 -0.04276969
v 0.74971502 0.02115391 0.03643393
v 0.75408255 0.01469412 -0.07338253
v 0.75407044 0.02769587 -0.02253048
v 0.76500283 0.03357194 -0.05522357
v 0.75839558 0.15561307 -0.05523210
v 0.75588028 0.15564274 0.03711163
v 0.74774072 0.17329004 -0.02316016
v 0.77874448 0.17342194 -0.02100829
v 0.76377442 0.20832270 -0.01792449
v 0.75812065 -0.23012455 0.17704275
v 0.78410363 -0.21646329 0.20569831
v 0.76216481 -0.21922043 -0.18263249
v 0.75236381 -0.18472856 -0.19010706
v 0.77381415 -0.11254668 0.13574786
v 0.75889176 -0.16128739 -0.15025433
v 0.75855593 -0.14240222 0.13305749
v 0.73913714 -0.14546424 -0.16063804
v 0.75782033 -0.11737570 -0.12108579
v 0.75817314 -0.10599846 0.10895173
v 0.75870408 -0.09498064 0.14031810
v 0.75545586 -0.09034711 -0.14241147
v 0.75838059 -0.07181574 -0.09068591
v 0.75899498 -0.04808257 -0.06820358
v 0.75110215 -0.03649017 0.06207982
v 0.74383517 -0.07407098 -0.11845367
v 0.75044658 -0.01546823 -0.05485184
v 0.75683671 -0.00227149 0.02818108
v 0.75863532 0.00523690 -0.03051478
v 0.75216943 0.02688792 0.01645737
v 0.76421095 0.03634562 0.04787348
v 0.76354747 0.06393180 -0.05335856
v 0.76540367 0.05685708 0.04606541
v 0.76079094 0.07691793 -0.03586803
v 0.75122866 0.09011956 -0.04557558
v 0.75813726 0.11697198 -0.06182759
v 0.75078096 0.17680556 0.01401856
v 0.76187150 -0.24753700 0.17585567
v 0.77019502 -0.24080618 -0.22700542
v 0.77143720 -0.23511888 0.17050868
v 0.76558177 -0.12171169 0.09976732
v 0.77374466 -0.16541418 -0.17602486
v 0.75778617 -0.11489141 -0.14531609
v 0.76571183 -0.11244904 -0.10258468
v 0.76633657 -0.07910497 0.07246212
v 0.76416777 -0.09183721 -0.14599619
v 0.76836765 -0.08049381 -0.08056667
v 0.77324588 -0.08219405 0.11603242
v 0.76982304 -0.03391497 0.05003924
v 0.76719484 -0.04630765 -0.10285506
v 0.76420957 0.00586065 0.06472465
v 0.76302527 0.02684505 0.01912452
v 0.76394739 0.02326012 -0.02930565
v 0.76677262 0.03546697 0.00670606
v 0.76965326 0.06555313 -0.00247588
v 0.76156787 0.07390425 0.02785474
v 0.77288479 0.10742705 -0.04747328
v 0.76785242 0.13775337 0.04253588
v 0.76818108 0.23663166 -0.01685743
v 0.75102122 0.23775178 0.00918350
v 0.80235442 -0.23597404 0.21949443
v 0.77024928 -0.23560492 -0.19794223
v 0.78123801 -0.21799322 -0.16475365
v 0.76029323 -0.19616642 0.16074645
v 0.77262133 -0.18187186 -0.14326230
v 0.77109230 -0.17958985 0.13415567
v 0.76937026 -0.15638483 -0.12688129
v 0.77506891 -0.15658531 0.11871942
v 0.77680875 -0.11873071 -0.14013821
v 0.77399470 -0.07496569 0.07755402
v 0.76930863 -0.05485189 -0.06767481
v 0.77206766 -0.04399715 -0.09358058
v 0.77145846 -0.03709535 0.08858070
v 0.76789246 -0.01317917 -0.04555334
v 0.76726433 0.01248154 -0.06329686
v 0.77200562 0.21209915 -0.00663180
v 0.76670480 0.22870470 0.00895523
v 0.78032877 -0.24770196 -0.20685559
v 0.78185459 -0.17584018 -0.17607778
v 0.78185527 -0.17857364 -0.14924123
v 0.77688764 -0.11468904 -0.10395845
v 0.78017172 -0.15928875 0.12787290
v 0.77748242 -0.11807070 0.09835533
v 0.77444188 -0.08684716 -0.11978554
v 0.78015313 -0.24517051 -0.18181614
v 0.77793535 -0.24327660 0.17933213
v 0.78864289 -0.23550493 0.23387510
v 0.79737329 -0.22256963 -0.23183118
v 0.78449957 -0.21575914 -0.21206743
v 0.77831033 -0.21448709 0.15425832
v 0.78698421 -0.21649737 0.15903014
v 0.77922136 -0.16180920 0.16351600
v 0.78329581 0.07560500 -0.01153258
v 0.79076246 0.14569681 -0.04850921
v 0.79602955 -0.23268034 -0.23990659
v 0.79936131 -0.23611243 -0.17373035
v 0.79545452 -0.23887300 0.16184614
v 0.80024162 -0.22931425 0.16136033
v 0.79874794 -0.22223183 0.22401827
v 0.78754768 -0.21706522 -0.17279707
v 0.77961877 0.08988035 0.03366228
v 0.80313986 0.10877949 -0.04902103
v 0.80603206 0.13923513 0.04298020
v 0.80496061 0.16669389 0.02742971
v 0.77892908 0.17393445 0.01061446
v 0.80504027 -0.23408248 -0.21363251
v 0.80504611 0.07896346 -0.01878287
v 0.80560797 0.08356150 0.02278292
v 0.80634973 0.10596410 0.04009763
v 0.82474698 0.14081459 0.03492159
v 0.80875294 0.17265037 -0.02254734
v 0.82140847 0.10534455 0.03248596
v 0.82428614 0.10684786 -0.04002011
v 0.82180673 0.08723603 -0.01989130
v 0.82294124 0.08856174 0.01789728
v 0.82246134 0.14954359 -0.03710571
v 0.82378603 0.16615172 -0.01166294
v 0.84922033 0.17129163 0.00500701
v 0.85792750 0.14753318 0.03648738
v 0.86492311 0.08912667 -0.01775566
v 0.86059398 0.11191797 0.03713553
v 0.86584120 0.08964648 0.01205784
v 0.86163987 0.11865873 -0.04426066
v 0.86196463 0.15398714 -0.03537483
v 0.87718305 0.11995753 -0.03120607
v 0.87810720 0.10431790 0.01877608
v 0.87804017 0.13560320 0.02720104
v 0.88299775 0.14966467 -0.02108182
v 0.87460983 0.12340796 -0.00699768
v 0.87615854 0.10351170 -0.01775708
v 0.88107819 0.15643948 0.00916737
v 0.92003091 0.10822253 -0.01836233
v 0.87803391 0.13402156 -0.01256944
v 0.91551331 0.13146983 -0.02982652
v 0.87480171 0.12544053 0.00613312
v 0.90357553 0.13149776 0.00962701
v 0.87703388 0.13879473 0.00239799
v 0.91514905 0.16040458 -0.01177716
v 0.91742838 0.11393160 0.01989867
v 0.93465784 0.15532243 0.02026937
v 0.98555963 0.12428327 0.01371221
v 0.87579504 0.13976713 -0.00385748
v 0.98417108 0.10886254 0.03423130
v 0.97809265 0.15223432 0.00374918
v 0.91875671 0.10343234 0.00088036
v 0.98561370 0.11687212 -0.00041770
v 0.98731649 0.15477926 -0.04144770
v 0.93573717 0.13456689 0.02883358
v 0.97748850 0.14272132 0.01389900
v 0.98677617 0.09218753 -0.00561724
v 0.98498056 0.10031690 -0.02765571
v 0.97492202 0.11935033 -0.04062243
v 0.98633292 0.11891267 -0.01075822
v 0.98930072 0.10865193 -0.03104034
v 0.98063396 0.14454800 -0.01639854
v 0.98650587 0.13607016 0.03859356
v 0.98504682 0.16410214 0.02955517
v 0.98259851 0.18101181 -0.00509887
v 0.99063426 0.11016143 0.01672508
v 0.98695261 0.13083956 -0.01902301
v 0.98905431 0.14029111 0.02436328
v 0.98774065 0.15546122 -0.00560031
f 4 1 3
f 1 10 2
f 3 1 2
f 8 3 2
f 5 1 4
f 18 12 13
f 14 13 12
f 14 8 6
f 6 8 7
f 8 2 7
f 10 7 2
f 9 4 8
f 4 3 8
f 18 13 15
f 13 16 15
f 13 6 16
f 22 14 12
f 13 14 6
f 6 7 16
f 14 9 8
f 9 14 22
f 10 27 7
f 5 26 1
f 18 21 12
f 15 16 23
f 21 22 12
f 27 23 16
f 16 7 27
f 9 17 4
f 1 11 10
f 17 5 4
f 25 11 1
f 1 26 25
f 15 19 18
f 18 19 20
f 18 20 21
f 19 15 23
f 27 10 11
f 23 29 19
f 22 28 9
f 27 11 43
f 25 33 11
f 26 5 17
f 22 21 31
f 27 29 23
f 20 19 30
f 21 20 24
f 31 28 22
f 29 30 19
f 21 24 31
f 32 27 43
f 25 26 45
f 26 17 45
f 43 11 33
f 9 44 17
f 24 20 30
f 29 35 30
f 29 27 32
f 43 33 49
f 45 17 40
f 40 17 44
f 34 31 24
f 39 32 43
f 28 68 9
f 24 30 42
f 42 34 24
f 31 52 28
f 35 29 36
f 29 32 36
f 36 32 37
f 39 37 32
f 38 68 28
f 52 31 34
f 38 28 52
f 68 44 9
f 33 45 49
f 33 25 45
f 30 35 42
f 36 37 41
f 37 39 41
f 39 43 41
f 35 36 54
f 46 41 43
f 57 40 44
f 36 41 54
f 54 41 46
f 57 44 68
f 43 49 46
f 45 50 49
f 45 40 50
f 50 40 57
f 42 51 34
f 42 47 51
f 51 52 34
f 48 42 35
f 42 48 47
f 52 53 38
f 48 35 56
f 35 54 56
f 55 52 51
f 52 55 53
f 38 53 68
f 57 69 50
f 47 48 58
f 51 47 58
f 51 58 55
f 68 66 57
f 57 66 69
f 69 63 50
f 63 49 50
f 58 48 59
f 59 48 56
f 58 59 55
f 60 53 55
f 59 56 64
f 54 64 56
f 55 59 60
f 59 64 65
f 59 65 60
f 64 54 61
f 67 61 54
f 54 46 67
f 46 49 62
f 63 62 49
f 68 72 66
f 71 63 69
f 64 70 65
f 46 74 67
f 66 73 69
f 64 61 70
f 74 46 62
f 62 63 76
f 53 60 72
f 53 72 68
f 72 73 66
f 74 62 76
f 71 76 63
f 60 65 80
f 60 82 72
f 65 70 80
f 60 80 82
f 71 69 79
f 69 73 79
f 67 78 61
f 82 87 72
f 74 78 67
f 87 75 73
f 72 87 73
f 88 74 76
f 77 73 75
f 73 77 79
f 78 84 61
f 88 78 74
f 71 83 76
f 84 70 61
f 87 82 96
f 88 76 83
f 81 71 79
f 71 81 83
f 77 81 79
f 90 70 84
f 80 70 90
f 78 88 84
f 82 80 86
f 82 86 96
f 88 83 95
f 75 97 77
f 81 77 85
f 80 90 86
f 84 91 90
f 84 88 91
f 77 97 85
f 81 95 83
f 89 91 104
f 104 91 88
f 104 88 92
f 88 95 92
f 92 95 98
f 95 81 93
f 81 85 93
f 90 89 101
f 90 101 86
f 90 91 89
f 87 96 75
f 97 102 85
f 85 106 93
f 94 96 86
f 96 97 75
f 93 99 95
f 100 99 93
f 93 108 100
f 93 106 108
f 86 101 94
f 104 92 98
f 103 95 99
f 89 117 101
f 94 97 96
f 98 95 103
f 89 121 117
f 94 109 97
f 97 119 102
f 85 102 106
f 105 99 100
f 107 105 100
f 107 100 108
f 117 114 101
f 94 101 118
f 89 104 121
f 121 104 135
f 150 97 109
f 150 119 97
f 99 105 103
f 104 98 135
f 103 111 98
f 119 137 102
f 106 102 115
f 108 115 107
f 115 108 106
f 101 114 118
f 110 94 118
f 102 137 115
f 118 143 110
f 150 136 119
f 103 105 111
f 117 112 114
f 113 114 112
f 118 114 113
f 121 135 159
f 107 122 105
f 115 122 107
f 113 112 116
f 122 115 128
f 116 112 120
f 112 117 120
f 113 124 118
f 118 124 143
f 136 137 119
f 105 125 111
f 105 122 125
f 115 145 128
f 128 127 122
f 122 127 123
f 124 113 116
f 130 135 98
f 123 125 122
f 126 123 127
f 126 127 128
f 164 138 126
f 129 134 140
f 139 134 129
f 167 116 120
f 116 167 124
f 120 117 147
f 147 121 159
f 147 117 121
f 109 94 110
f 149 109 110
f 136 185 137
f 98 111 151
f 115 137 145
f 126 128 154
f 123 126 138
f 131 123 138
f 154 164 126
f 132 138 165
f 164 165 138
f 139 166 134
f 140 134 133
f 133 134 156
f 144 125 123
f 128 145 154
f 144 123 131
f 140 133 146
f 156 134 166
f 120 141 142
f 120 142 167
f 141 120 147
f 150 183 136
f 130 98 151
f 152 111 125
f 125 144 152
f 132 131 138
f 139 129 173
f 110 143 148
f 136 184 185
f 137 185 145
f 145 185 196
f 152 144 153
f 153 144 172
f 145 162 154
f 144 131 172
f 132 163 131
f 161 164 154
f 129 140 155
f 140 146 181
f 156 146 133
f 157 146 156
f 168 156 166
f 168 157 156
f 142 174 157
f 167 142 157
f 142 141 174
f 141 147 169
f 158 170 124
f 124 170 143
f 147 159 169
f 143 170 148
f 111 152 151
f 160 171 163
f 160 163 161
f 161 154 162
f 163 172 131
f 164 161 163
f 132 165 163
f 164 163 165
f 129 155 173
f 155 140 181
f 139 182 166
f 168 167 157
f 168 124 167
f 124 168 158
f 136 183 184
f 196 162 145
f 160 161 171
f 146 157 198
f 168 175 158
f 141 176 174
f 170 175 177
f 158 175 170
f 141 169 176
f 159 178 169
f 148 170 177
f 185 222 196
f 179 152 153
f 171 186 163
f 163 201 172
f 201 163 186
f 162 187 161
f 190 187 162
f 155 180 173
f 139 173 182
f 198 157 174
f 188 198 174
f 174 176 188
f 176 169 178
f 109 194 150
f 150 194 183
f 182 206 166
f 166 207 168
f 110 148 149
f 184 203 185
f 153 172 200
f 171 161 186
f 162 196 190
f 201 200 172
f 161 187 186
f 173 180 191
f 182 173 191
f 182 192 206
f 168 207 175
f 193 198 188
f 176 189 188
f 178 189 176
f 203 222 185
f 186 187 197
f 191 192 182
f 166 206 207
f 146 198 214
f 175 207 199
f 177 202 148
f 149 194 109
f 153 200 179
f 187 190 197
f 191 180 192
f 155 181 180
f 205 206 192
f 181 146 214
f 189 193 188
f 177 175 199
f 177 199 202
f 159 238 178
f 159 135 208
f 208 135 220
f 135 130 220
f 152 179 151
f 197 201 186
f 192 180 204
f 192 204 205
f 180 181 204
f 204 181 214
f 214 198 193
f 179 195 151
f 179 200 209
f 197 209 200
f 196 209 190
f 190 209 197
f 200 201 197
f 193 212 214
f 207 216 199
f 189 178 230
f 205 204 213
f 213 206 205
f 206 213 215
f 206 215 207
f 216 210 199
f 199 210 202
f 178 238 230
f 202 218 148
f 183 248 184
f 184 243 203
f 204 214 213
f 211 214 212
f 215 216 207
f 193 189 212
f 159 208 238
f 196 239 209
f 211 212 217
f 216 211 217
f 215 211 216
f 202 210 218
f 194 231 183
f 248 243 184
f 151 195 233
f 195 256 233
f 203 261 222
f 209 239 179
f 196 257 239
f 213 214 221
f 219 213 221
f 219 215 213
f 224 214 211
f 215 224 211
f 217 212 229
f 227 217 229
f 216 217 227
f 212 189 242
f 148 218 263
f 149 148 263
f 149 231 194
f 130 151 233
f 243 261 203
f 179 239 195
f 196 222 257
f 221 214 226
f 215 240 224
f 215 219 240
f 224 226 214
f 216 227 228
f 216 228 210
f 183 231 248
f 219 221 234
f 219 234 240
f 223 221 226
f 224 240 225
f 227 226 224
f 228 224 225
f 227 224 228
f 226 227 229
f 212 242 229
f 242 189 230
f 223 226 232
f 225 237 228
f 226 229 232
f 228 237 210
f 149 235 231
f 233 220 130
f 231 236 248
f 257 222 261
f 237 225 241
f 242 232 229
f 235 149 263
f 236 231 235
f 195 239 256
f 241 225 240
f 241 223 232
f 241 232 237
f 232 242 237
f 238 208 295
f 208 220 295
f 262 250 239
f 230 238 255
f 263 218 266
f 235 247 236
f 236 247 248
f 253 233 256
f 239 257 262
f 234 221 244
f 234 244 251
f 240 234 251
f 221 223 244
f 251 241 240
f 223 245 244
f 245 223 241
f 237 242 252
f 237 252 246
f 246 210 237
f 210 246 218
f 218 246 266
f 220 269 295
f 248 249 243
f 243 249 261
f 239 250 256
f 261 265 257
f 254 244 258
f 245 252 244
f 241 254 245
f 241 251 254
f 246 252 245
f 246 245 254
f 252 242 230
f 220 233 269
f 247 249 248
f 256 250 267
f 254 251 244
f 244 252 258
f 258 252 260
f 254 259 246
f 252 230 260
f 246 259 266
f 255 238 300
f 260 230 255
f 269 233 253
f 254 258 259
f 258 260 259
f 266 259 260
f 235 263 271
f 271 247 235
f 257 265 262
f 255 300 260
f 266 260 322
f 300 238 295
f 247 264 249
f 253 256 267
f 249 265 261
f 262 268 250
f 275 268 262
f 260 300 322
f 262 265 276
f 271 263 282
f 247 271 264
f 253 273 269
f 264 274 249
f 253 267 273
f 274 270 249
f 249 270 265
f 265 270 276
f 262 276 275
f 271 274 264
f 274 271 272
f 273 267 278
f 267 250 278
f 250 268 278
f 263 266 282
f 271 282 283
f 277 272 271
f 272 286 274
f 274 286 270
f 268 275 281
f 275 299 281
f 276 299 275
f 309 276 270
f 266 322 282
f 277 271 283
f 277 285 272
f 286 272 285
f 279 273 289
f 273 278 289
f 289 278 280
f 278 268 280
f 276 309 299
f 277 283 285
f 283 284 285
f 286 285 284
f 288 269 273
f 279 288 273
f 298 270 286
f 309 315 299
f 283 282 287
f 283 287 284
f 298 286 284
f 288 279 289
f 309 270 298
f 289 280 290
f 291 290 280
f 268 291 280
f 282 397 287
f 293 295 269
f 296 288 292
f 288 294 292
f 288 296 293
f 269 288 293
f 294 289 290
f 288 289 294
f 298 303 309
f 268 281 291
f 299 312 281
f 296 292 297
f 292 294 297
f 297 294 302
f 284 324 298
f 290 302 294
f 281 312 291
f 301 296 297
f 360 284 287
f 296 307 293
f 284 345 324
f 301 302 326
f 297 302 301
f 326 307 301
f 298 324 320
f 302 290 321
f 326 328 308
f 290 291 321
f 321 291 304
f 299 305 312
f 305 299 315
f 282 322 306
f 282 306 397
f 295 293 318
f 301 307 296
f 307 310 319
f 307 319 293
f 307 326 308
f 310 307 308
f 298 320 327
f 302 321 325
f 302 325 326
f 298 327 303
f 314 308 330
f 308 328 330
f 375 320 324
f 311 310 308
f 291 316 347
f 291 312 316
f 295 318 300
f 287 397 360
f 284 360 345
f 313 319 310
f 310 311 313
f 303 334 309
f 304 291 347
f 317 312 305
f 300 318 322
f 308 346 311
f 308 314 346
f 331 315 309
f 318 293 319
f 319 313 323
f 322 318 306
f 306 353 397
f 336 329 318
f 336 318 319
f 319 323 336
f 320 337 327
f 321 338 325
f 321 304 338
f 326 339 328
f 334 331 309
f 312 317 316
f 329 336 332
f 340 346 314
f 328 339 333
f 330 328 333
f 340 314 330
f 332 318 329
f 318 342 306
f 336 343 332
f 375 324 345
f 323 313 311
f 339 326 325
f 303 327 337
f 333 335 330
f 340 330 335
f 315 331 305
f 318 332 342
f 323 344 336
f 320 375 337
f 323 311 346
f 338 339 325
f 316 348 347
f 316 349 348
f 317 349 316
f 305 341 317
f 305 331 341
f 306 342 353
f 343 342 332
f 354 359 358
f 343 336 344
f 344 323 363
f 323 346 363
f 339 338 362
f 338 367 362
f 339 362 333
f 362 346 333
f 338 304 367
f 337 334 303
f 337 377 334
f 335 333 346
f 304 347 367
f 334 377 331
f 341 349 317
f 350 355 351
f 350 351 357
f 353 342 352
f 342 357 352
f 354 355 359
f 355 350 359
f 342 343 357
f 358 356 354
f 363 357 343
f 350 361 359
f 357 363 350
f 343 344 363
f 359 381 358
f 362 361 350
f 363 362 350
f 345 368 375
f 346 362 363
f 375 377 337
f 340 335 346
f 348 373 347
f 349 365 348
f 349 341 387
f 357 351 369
f 359 370 371
f 370 359 361
f 371 366 359
f 381 400 358
f 381 359 366
f 362 366 361
f 360 390 345
f 372 368 345
f 368 377 375
f 364 373 348
f 374 373 364
f 364 348 376
f 377 388 331
f 348 365 376
f 365 349 387
f 331 388 341
f 356 403 354
f 351 378 369
f 353 352 383
f 353 383 397
f 390 360 397
f 355 370 351
f 378 351 370
f 378 370 361
f 356 358 400
f 361 366 371
f 371 378 361
f 390 372 345
f 378 366 374
f 374 380 378
f 366 367 373
f 362 367 366
f 374 366 373
f 364 380 374
f 367 347 373
f 341 388 387
f 369 379 357
f 357 379 389
f 352 357 383
f 370 394 371
f 369 378 380
f 356 400 392
f 371 394 378
f 380 379 369
f 394 381 366
f 394 366 378
f 382 379 380
f 364 382 380
f 368 388 377
f 385 376 387
f 387 376 365
f 379 391 389
f 357 389 383
f 356 392 403
f 391 379 384
f 379 382 384
f 384 382 396
f 372 386 368
f 385 396 382
f 382 364 376
f 386 385 387
f 386 388 368
f 385 382 376
f 386 387 388
f 354 403 424
f 354 424 355
f 402 383 389
f 372 390 393
f 395 372 393
f 401 372 395
f 386 372 401
f 383 402 415
f 397 383 415
f 355 409 370
f 397 410 399
f 399 390 397
f 409 394 370
f 390 399 393
f 391 384 398
f 392 400 405
f 420 381 394
f 398 384 396
f 385 407 396
f 396 407 406
f 385 386 407
f 424 409 355
f 397 415 410
f 404 391 398
f 393 399 411
f 411 412 393
f 428 381 420
f 393 412 395
f 412 401 395
f 398 396 406
f 402 389 408
f 402 408 415
f 394 409 420
f 400 381 428
f 404 398 416
f 398 406 416
f 417 401 412
f 419 401 417
f 401 419 386
f 386 413 407
f 407 413 432
f 414 391 404
f 389 391 431
f 431 408 389
f 425 409 424
f 414 404 416
f 399 410 427
f 417 399 427
f 411 399 412
f 412 399 417
f 418 414 416
f 419 417 427
f 416 406 418
f 418 406 407
f 386 421 413
f 386 419 421
f 439 391 414
f 391 439 431
f 415 408 431
f 424 403 405
f 438 439 414
f 426 410 415
f 426 427 410
f 403 392 405
f 425 420 409
f 414 418 438
f 438 418 440
f 440 418 407
f 413 423 432
f 422 423 413
f 422 413 421
f 422 430 423
f 405 425 424
f 425 405 428
f 425 428 420
f 405 400 428
f 421 437 422
f 423 430 429
f 407 432 440
f 432 423 429
f 422 437 430
f 430 437 436
f 431 439 444
f 431 444 415
f 445 438 440
f 421 419 472
f 429 433 432
f 421 434 437
f 429 430 435
f 436 435 430
f 415 444 426
f 454 427 426
f 427 447 419
f 421 472 452
f 421 452 434
f 429 435 433
f 434 436 437
f 427 454 447
f 440 448 445
f 432 442 440
f 435 436 434
f 447 441 419
f 419 441 472
f 442 432 433
f 443 442 433
f 452 465 434
f 435 443 433
f 434 465 435
f 435 465 443
f 439 438 453
f 438 445 453
f 440 511 448
f 439 453 457
f 439 457 444
f 484 426 444
f 484 454 426
f 454 446 447
f 460 455 445
f 460 445 448
f 447 449 441
f 440 442 511
f 450 447 446
f 449 447 450
f 445 502 453
f 502 445 455
f 455 460 467
f 450 451 463
f 463 449 450
f 448 511 493
f 442 443 464
f 453 456 457
f 502 455 467
f 450 475 451
f 475 450 446
f 458 463 451
f 448 493 460
f 443 465 469
f 458 461 471
f 458 471 459
f 459 461 451
f 458 451 461
f 475 459 451
f 459 463 458
f 449 479 441
f 442 464 511
f 464 443 469
f 452 477 465
f 456 453 552
f 453 502 552
f 459 471 470
f 470 461 459
f 459 466 462
f 463 459 462
f 466 459 475
f 452 472 477
f 454 583 446
f 583 481 446
f 466 471 461
f 466 461 470
f 481 475 446
f 466 470 462
f 463 462 468
f 479 449 463
f 473 465 477
f 464 469 473
f 473 469 465
f 471 509 470
f 466 474 471
f 478 467 460
f 475 474 466
f 468 485 463
f 460 483 492
f 470 499 462
f 460 493 483
f 462 499 468
f 441 520 472
f 460 492 478
f 468 499 476
f 476 485 468
f 479 505 441
f 505 520 441
f 456 497 457
f 444 457 484
f 457 490 484
f 474 509 471
f 467 480 502
f 478 480 467
f 475 482 474
f 482 475 481
f 463 485 482
f 482 479 463
f 473 477 488
f 486 492 483
f 473 487 464
f 473 488 487
f 472 520 477
f 477 520 488
f 457 497 490
f 484 490 501
f 583 454 484
f 509 499 470
f 485 509 474
f 485 474 482
f 482 491 479
f 500 492 486
f 490 497 498
f 509 510 499
f 509 485 518
f 481 491 482
f 476 499 494
f 500 486 494
f 496 494 486
f 486 487 488
f 488 496 486
f 464 515 511
f 464 487 515
f 497 456 512
f 490 498 501
f 509 514 510
f 583 491 481
f 483 493 503
f 483 503 486
f 496 476 494
f 496 485 476
f 486 495 487
f 487 495 515
f 497 512 501
f 497 501 498
f 501 513 484
f 480 478 489
f 489 478 528
f 478 492 528
f 576 494 499
f 503 495 486
f 499 510 576
f 504 479 491
f 519 494 576
f 518 485 523
f 523 485 496
f 501 512 506
f 501 506 513
f 480 527 502
f 527 480 489
f 491 518 504
f 535 495 503
f 479 504 505
f 496 488 524
f 515 495 532
f 507 506 512
f 517 506 507
f 508 513 506
f 508 506 517
f 526 527 489
f 489 507 526
f 517 507 489
f 508 517 514
f 510 514 517
f 583 529 491
f 518 491 534
f 518 522 504
f 512 456 545
f 512 545 507
f 484 513 573
f 552 545 456
f 484 573 583
f 552 502 521
f 527 521 502
f 509 518 514
f 510 539 576
f 531 492 500
f 518 523 522
f 504 522 530
f 494 519 500
f 496 524 523
f 524 488 516
f 488 520 516
f 538 508 514
f 491 529 534
f 528 492 531
f 535 532 495
f 507 545 525
f 525 526 507
f 510 517 537
f 489 528 533
f 510 537 539
f 518 534 514
f 522 523 541
f 500 519 531
f 504 530 505
f 520 505 536
f 525 545 540
f 525 513 508
f 508 537 525
f 538 537 508
f 489 533 517
f 583 575 529
f 522 541 534
f 522 529 530
f 522 534 529
f 532 535 542
f 511 515 544
f 525 533 526
f 533 525 537
f 537 517 533
f 514 534 538
f 493 544 503
f 493 511 544
f 524 516 542
f 516 532 542
f 525 540 560
f 525 560 513
f 533 528 555
f 538 534 556
f 529 562 530
f 534 541 556
f 503 544 567
f 567 535 503
f 543 523 524
f 530 549 505
f 516 551 532
f 520 570 516
f 513 560 573
f 546 533 547
f 537 548 539
f 519 578 531
f 541 523 543
f 535 567 550
f 535 550 542
f 524 542 543
f 540 545 546
f 540 553 560
f 546 553 540
f 533 546 526
f 547 553 546
f 526 554 527
f 528 561 555
f 555 547 533
f 548 547 555
f 547 548 537
f 547 538 553
f 547 537 538
f 538 556 565
f 528 630 561
f 556 541 543
f 542 550 551
f 551 570 542
f 549 536 505
f 544 585 568
f 515 585 544
f 515 532 585
f 516 570 551
f 546 545 563
f 526 546 554
f 554 546 563
f 538 548 553
f 521 527 598
f 529 575 562
f 565 556 562
f 625 528 531
f 557 562 556
f 557 530 562
f 530 557 549
f 543 542 558
f 542 570 558
f 554 563 559
f 548 560 553
f 548 559 560
f 555 561 554
f 555 554 559
f 548 555 559
f 548 538 565
f 565 562 566
f 556 543 566
f 556 566 557
f 578 625 531
f 543 558 609
f 532 551 585
f 520 587 570
f 587 520 536
f 559 569 560
f 548 564 599
f 599 539 548
f 562 575 566
f 543 577 566
f 545 552 572
f 545 572 563
f 559 563 569
f 554 574 527
f 554 561 574
f 564 548 565
f 575 557 566
f 519 576 578
f 566 577 565
f 558 603 609
f 595 551 550
f 551 595 585
f 552 571 572
f 563 572 596
f 563 596 569
f 560 569 573
f 521 571 552
f 521 598 571
f 565 591 564
f 527 579 598
f 539 599 576
f 577 543 609
f 558 570 603
f 603 570 586
f 573 569 582
f 582 583 573
f 564 584 599
f 599 581 576
f 575 580 557
f 544 568 567
f 578 612 625
f 581 578 576
f 580 549 557
f 550 567 602
f 569 596 589
f 561 590 574
f 564 589 584
f 589 564 591
f 574 579 527
f 565 577 591
f 591 577 601
f 580 575 601
f 601 577 592
f 601 592 580
f 528 625 630
f 630 625 623
f 567 568 593
f 612 578 581
f 577 609 592
f 567 593 594
f 567 594 602
f 550 602 595
f 570 587 586
f 569 588 582
f 596 574 590
f 590 589 596
f 590 584 589
f 584 590 599
f 599 631 581
f 592 617 580
f 593 568 608
f 580 624 549
f 585 604 568
f 574 596 607
f 569 589 588
f 591 597 589
f 574 607 579
f 600 598 579
f 579 607 600
f 580 617 624
f 600 593 608
f 602 594 613
f 602 613 603
f 613 609 603
f 602 605 595
f 603 586 602
f 586 605 602
f 585 614 604
f 585 595 614
f 596 627 607
f 628 575 583
f 590 615 599
f 606 598 600
f 601 575 621
f 600 607 610
f 600 608 606
f 610 611 600
f 600 611 593
f 593 611 594
f 549 652 536
f 605 614 595
f 586 587 605
f 627 620 607
f 588 589 615
f 583 582 628
f 589 597 615
f 606 616 598
f 591 601 622
f 610 606 611
f 610 616 606
f 622 601 621
f 606 608 611
f 609 613 636
f 549 624 652
f 647 608 568
f 652 587 536
f 568 604 647
f 605 587 614
f 628 621 575
f 571 598 616
f 590 630 619
f 561 630 590
f 590 619 615
f 607 620 610
f 591 622 597
f 616 610 632
f 592 609 617
f 587 618 614
f 596 572 627
f 571 616 645
f 599 615 631
f 610 620 632
f 620 629 632
f 617 609 622
f 609 642 622
f 622 624 617
f 632 611 608
f 611 633 594
f 594 633 613
f 636 613 626
f 609 636 642
f 624 646 652
f 626 648 614
f 614 618 626
f 571 645 572
f 619 620 627
f 588 619 627
f 615 619 588
f 619 629 620
f 619 630 629
f 632 645 616
f 629 633 632
f 632 633 611
f 622 621 624
f 621 646 624
f 625 658 623
f 625 612 658
f 648 613 633
f 648 626 613
f 636 626 637
f 634 614 648
f 637 626 638
f 626 618 638
f 587 705 618
f 614 634 604
f 572 654 627
f 588 627 639
f 588 639 644
f 572 645 654
f 645 632 635
f 597 622 650
f 629 641 633
f 650 622 666
f 622 642 666
f 632 608 641
f 641 608 647
f 581 674 612
f 653 648 633
f 587 734 705
f 734 587 652
f 627 654 639
f 588 644 582
f 649 615 597
f 640 629 630
f 640 630 655
f 655 630 623
f 628 646 621
f 632 641 635
f 641 657 633
f 674 658 612
f 631 674 581
f 633 657 653
f 636 637 643
f 644 639 649
f 628 582 709
f 656 649 597
f 645 635 663
f 629 635 641
f 667 652 646
f 636 643 642
f 640 649 639
f 649 640 655
f 656 597 650
f 649 631 615
f 628 651 646
f 666 646 650
f 650 646 651
f 646 666 667
f 640 639 654
f 649 662 644
f 640 670 629
f 661 670 640
f 649 656 662
f 649 655 661
f 718 674 631
f 666 642 668
f 642 643 668
f 653 659 648
f 637 665 643
f 638 665 637
f 638 618 665
f 648 659 634
f 640 654 678
f 678 660 640
f 640 660 661
f 662 661 660
f 660 644 662
f 635 629 669
f 629 670 669
f 670 661 655
f 661 631 649
f 661 662 631
f 628 709 651
f 635 669 657
f 656 650 685
f 635 657 663
f 657 641 663
f 623 658 702
f 647 679 663
f 641 647 663
f 643 664 668
f 679 647 747
f 664 653 658
f 604 747 647
f 653 672 659
f 672 653 664
f 643 665 664
f 618 705 665
f 654 645 713
f 582 644 741
f 582 741 709
f 688 670 655
f 662 710 631
f 671 663 679
f 631 710 690
f 650 651 685
f 675 657 673
f 657 675 653
f 658 674 664
f 668 664 674
f 675 658 653
f 664 665 672
f 705 672 665
f 660 678 741
f 644 660 741
f 662 698 710
f 662 656 698
f 699 666 668
f 680 658 675
f 672 676 659
f 654 713 678
f 670 697 669
f 670 688 697
f 669 673 657
f 688 655 711
f 673 671 679
f 658 680 702
f 682 674 718
f 694 680 675
f 659 676 634
f 672 677 676
f 678 696 741
f 741 696 687
f 663 671 645
f 690 718 631
f 685 667 666
f 666 699 685
f 681 652 667
f 674 682 668
f 668 682 699
f 683 682 680
f 652 681 734
f 683 677 704
f 677 672 704
f 672 705 704
f 696 678 695
f 710 698 688
f 669 692 673
f 656 685 689
f 673 692 671
f 691 685 651
f 702 655 623
f 679 686 673
f 686 675 673
f 702 680 693
f 685 691 667
f 691 681 667
f 682 693 680
f 679 747 686
f 694 683 680
f 677 683 694
f 634 729 604
f 604 729 763
f 634 676 729
f 695 678 706
f 678 713 706
f 692 684 671
f 651 709 691
f 686 684 692
f 686 692 675
f 692 712 675
f 703 693 682
f 699 682 738
f 675 712 694
f 682 683 738
f 604 763 747
f 696 695 706
f 696 706 687
f 645 671 724
f 697 701 669
f 688 698 697
f 711 736 688
f 669 725 692
f 685 699 689
f 686 747 684
f 725 712 692
f 718 703 682
f 683 721 738
f 677 694 700
f 683 704 721
f 700 676 677
f 697 708 701
f 698 708 697
f 656 689 698
f 726 715 690
f 655 702 711
f 690 715 718
f 684 747 739
f 645 724 713
f 707 687 706
f 706 708 707
f 669 701 725
f 698 689 708
f 690 710 726
f 709 727 691
f 727 681 691
f 739 728 684
f 725 728 712
f 693 743 702
f 693 703 743
f 700 694 720
f 729 676 700
f 705 730 704
f 705 731 730
f 788 709 741
f 724 671 714
f 684 714 671
f 717 714 684
f 717 684 728
f 728 725 717
f 727 716 699
f 716 689 699
f 727 699 681
f 699 738 719
f 681 699 719
f 733 703 718
f 694 712 720
f 681 760 734
f 687 707 750
f 687 750 741
f 706 742 708
f 742 722 708
f 707 708 723
f 722 701 708
f 710 688 726
f 688 736 726
f 725 745 717
f 727 719 716
f 711 702 737
f 715 767 718
f 681 719 732
f 703 733 743
f 767 733 718
f 681 732 760
f 704 730 721
f 734 731 705
f 708 689 723
f 701 745 725
f 709 732 727
f 736 711 737
f 719 753 716
f 727 732 719
f 702 743 737
f 732 754 760
f 720 743 733
f 721 733 738
f 720 733 700
f 721 700 733
f 730 700 721
f 706 713 742
f 707 735 750
f 707 723 735
f 724 714 817
f 759 736 737
f 719 738 753
f 808 731 734
f 756 742 713
f 713 724 811
f 756 713 811
f 722 742 723
f 723 689 716
f 728 739 746
f 746 712 728
f 755 733 767
f 738 740 753
f 744 720 712
f 744 743 720
f 733 755 740
f 733 740 738
f 729 700 749
f 729 764 763
f 742 756 735
f 735 723 742
f 811 724 817
f 736 722 726
f 709 754 732
f 782 715 726
f 716 753 748
f 746 744 712
f 729 749 764
f 730 762 700
f 700 762 749
f 730 731 762
f 735 756 751
f 735 751 750
f 757 722 723
f 723 772 757
f 723 716 772
f 745 701 790
f 722 765 701
f 765 790 701
f 722 736 766
f 722 766 765
f 726 722 782
f 736 759 766
f 737 784 759
f 748 753 754
f 783 746 739
f 739 747 783
f 755 749 761
f 768 749 755
f 734 760 808
f 749 762 761
f 741 750 796
f 788 741 796
f 752 716 748
f 722 757 782
f 709 788 754
f 775 715 782
f 715 775 767
f 755 761 740
f 751 756 770
f 750 751 769
f 757 770 765
f 751 770 757
f 772 751 757
f 752 772 716
f 766 757 765
f 782 757 758
f 745 714 717
f 752 748 777
f 754 776 748
f 737 743 793
f 753 740 794
f 753 791 754
f 791 760 754
f 793 743 744
f 740 761 794
f 751 772 769
f 817 714 789
f 757 766 758
f 788 776 754
f 714 745 789
f 774 745 790
f 776 777 748
f 753 777 791
f 737 793 784
f 755 767 778
f 753 794 777
f 807 793 744
f 755 778 768
f 760 825 808
f 786 747 763
f 750 769 796
f 770 756 779
f 771 770 779
f 772 780 769
f 790 765 797
f 770 797 765
f 797 770 773
f 766 773 770
f 770 771 758
f 770 758 766
f 766 759 773
f 752 777 818
f 774 783 789
f 774 789 745
f 790 813 774
f 776 791 777
f 774 746 783
f 774 744 746
f 774 785 744
f 768 778 761
f 794 761 778
f 760 804 825
f 783 747 786
f 785 807 744
f 761 809 768
f 762 809 761
f 768 809 749
f 809 764 749
f 756 811 839
f 756 839 779
f 771 769 780
f 771 779 769
f 773 781 797
f 758 799 780
f 781 780 799
f 780 781 771
f 773 771 781
f 771 773 758
f 799 758 773
f 782 758 780
f 782 780 752
f 772 752 780
f 773 759 799
f 783 792 789
f 776 788 791
f 813 785 774
f 775 802 767
f 791 804 760
f 792 783 786
f 762 731 809
f 769 779 796
f 787 788 796
f 781 799 797
f 752 826 812
f 782 752 812
f 752 818 826
f 782 812 775
f 801 789 792
f 813 803 785
f 778 767 842
f 778 842 794
f 817 789 801
f 790 797 813
f 799 798 797
f 799 759 827
f 788 800 791
f 804 800 821
f 804 791 800
f 792 803 801
f 801 803 813
f 818 777 821
f 805 803 792
f 805 792 786
f 806 793 807
f 764 809 806
f 779 839 795
f 810 779 795
f 796 779 810
f 798 812 795
f 812 810 795
f 813 797 798
f 799 812 798
f 820 817 801
f 812 799 827
f 820 801 813
f 814 818 821
f 800 814 821
f 804 821 822
f 803 805 815
f 767 843 842
f 843 767 802
f 777 794 821
f 822 825 804
f 803 815 785
f 793 816 784
f 806 816 793
f 806 842 816
f 806 794 842
f 795 839 833
f 810 812 826
f 818 814 819
f 814 800 824
f 844 785 815
f 794 806 830
f 785 844 807
f 806 807 828
f 806 809 830
f 764 864 763
f 764 852 864
f 795 833 798
f 823 813 798
f 823 820 813
f 819 814 824
f 821 794 819
f 822 821 819
f 824 822 819
f 824 825 822
f 829 844 815
f 851 786 763
f 806 828 764
f 830 809 831
f 809 832 831
f 731 832 809
f 796 810 834
f 796 834 787
f 817 835 811
f 812 827 836
f 759 784 827
f 807 844 828
f 763 864 851
f 833 857 798
f 857 823 798
f 818 867 826
f 812 836 775
f 818 819 840
f 784 841 827
f 840 819 838
f 819 794 838
f 815 805 829
f 786 855 805
f 786 851 855
f 828 831 764
f 831 852 764
f 839 853 833
f 810 826 847
f 800 837 824
f 824 837 825
f 837 854 825
f 784 816 841
f 863 794 830
f 863 838 794
f 828 844 849
f 831 828 845
f 828 849 845
f 731 808 875
f 831 832 852
f 833 853 857
f 810 847 834
f 883 817 820
f 818 840 867
f 820 895 883
f 895 820 823
f 802 775 836
f 838 854 837
f 831 845 830
f 825 854 808
f 787 800 788
f 835 817 883
f 826 867 847
f 802 836 859
f 840 838 837
f 805 855 829
f 846 830 845
f 846 850 830
f 863 830 850
f 854 875 808
f 844 829 849
f 852 832 846
f 800 872 837
f 890 802 859
f 872 840 837
f 816 842 861
f 865 852 846
f 846 832 856
f 731 858 832
f 858 731 875
f 871 800 787
f 800 871 872
f 884 895 823
f 840 872 848
f 838 860 854
f 838 863 860
f 860 868 854
f 892 849 829
f 865 846 845
f 854 868 875
f 850 846 856
f 865 864 852
f 857 853 834
f 857 834 847
f 870 823 857
f 867 840 848
f 849 878 845
f 865 845 861
f 850 856 861
f 856 865 861
f 832 858 856
f 856 858 879
f 839 811 835
f 857 836 870
f 847 836 857
f 890 843 802
f 816 861 841
f 862 861 842
f 842 843 862
f 878 849 892
f 845 878 861
f 861 862 850
f 856 879 865
f 864 865 882
f 834 853 866
f 834 866 787
f 867 836 847
f 876 836 827
f 860 873 848
f 848 872 860
f 860 863 873
f 862 863 850
f 878 892 898
f 920 851 864
f 853 839 880
f 866 853 870
f 870 876 866
f 876 870 836
f 884 823 870
f 867 859 836
f 841 904 827
f 860 872 868
f 843 897 862
f 878 869 862
f 865 879 869
f 882 865 869
f 870 853 880
f 867 877 876
f 827 859 876
f 859 867 876
f 888 867 848
f 848 873 888
f 829 855 892
f 878 862 881
f 862 869 874
f 862 874 863
f 869 879 874
f 879 858 894
f 877 870 880
f 866 876 901
f 877 884 870
f 877 867 888
f 859 827 904
f 841 861 881
f 881 861 878
f 839 902 880
f 877 901 876
f 877 885 884
f 885 912 884
f 859 904 911
f 859 911 890
f 890 897 843
f 873 863 886
f 868 873 886
f 863 874 886
f 855 851 907
f 878 898 887
f 887 869 878
f 869 887 882
f 866 901 787
f 839 835 902
f 880 901 877
f 877 888 885
f 871 889 872
f 883 895 910
f 872 889 868
f 873 891 888
f 868 889 873
f 873 889 891
f 841 881 908
f 892 855 907
f 881 893 908
f 862 893 881
f 893 862 897
f 902 901 880
f 883 902 835
f 885 913 912
f 888 913 885
f 904 841 918
f 868 886 896
f 886 874 914
f 868 896 875
f 874 879 900
f 879 894 900
f 910 902 883
f 895 906 910
f 888 891 905
f 891 896 886
f 841 908 918
f 907 851 920
f 887 898 908
f 874 893 914
f 875 896 899
f 887 900 882
f 874 900 887
f 901 902 915
f 901 915 909
f 787 901 903
f 903 871 787
f 888 905 913
f 895 884 906
f 890 916 897
f 905 891 886
f 891 889 896
f 906 892 907
f 892 906 898
f 893 897 916
f 908 893 887
f 874 887 893
f 864 921 920
f 882 921 864
f 900 921 882
f 924 909 915
f 901 909 903
f 884 912 917
f 912 913 911
f 904 912 911
f 913 890 911
f 884 917 906
f 918 912 904
f 890 913 916
f 905 886 914
f 906 907 910
f 906 919 898
f 916 914 893
f 899 858 875
f 925 909 924
f 926 924 915
f 945 915 902
f 945 902 910
f 905 916 913
f 889 946 896
f 910 907 920
f 906 917 919
f 924 971 923
f 925 924 923
f 942 925 941
f 924 926 971
f 971 926 972
f 925 903 909
f 942 973 925
f 973 903 925
f 926 945 972
f 915 945 926
f 974 871 903
f 871 974 975
f 871 975 889
f 975 946 889
f 912 918 917
f 905 914 916
f 917 918 919
f 918 908 919
f 919 908 898
f 894 927 900
f 900 927 921
f 858 927 894
f 927 858 899
f 949 981 947
f 949 947 929
f 948 930 928
f 930 948 922
f 949 951 983
f 928 930 953
f 930 922 931
f 931 952 930
f 933 935 962
f 992 933 962
f 966 934 965
f 932 966 963
f 932 934 966
f 932 937 934
f 933 938 935
f 937 936 934
f 938 939 935
f 940 934 936
f 939 942 941
f 938 942 939
f 937 923 936
f 971 940 936
f 923 971 936
f 923 943 925
f 942 938 944
f 942 944 973
f 910 1031 945
f 1031 910 920
f 982 929 947
f 983 981 949
f 953 986 928
f 951 985 983
f 949 929 950
f 929 982 950
f 950 951 949
f 930 952 953
f 950 956 951
f 955 953 952
f 955 954 953
f 950 958 956
f 988 954 955
f 958 1014 956
f 953 954 957
f 960 954 988
f 954 960 957
f 958 965 1014
f 959 965 958
f 960 961 957
f 960 964 961
f 964 962 961
f 991 966 959
f 968 961 962
f 966 965 959
f 991 963 966
f 992 962 964
f 962 935 968
f 934 1022 965
f 932 963 967
f 935 969 968
f 937 932 967
f 969 935 939
f 933 1047 938
f 940 1022 934
f 1023 923 937
f 1023 937 967
f 969 939 970
f 944 938 1047
f 941 970 939
f 999 940 971
f 941 925 943
f 972 945 1028
f 945 1030 1028
f 974 903 973
f 946 1054 896
f 896 1054 899
f 921 976 1004
f 921 927 976
f 976 927 1033
f 978 1004 976
f 979 978 976
f 979 977 978
f 1056 977 979
f 947 981 1035
f 928 1034 948
f 1034 980 948
f 928 986 1034
f 984 950 982
f 952 931 1008
f 951 956 985
f 984 958 950
f 987 955 952
f 985 956 1010
f 988 955 987
f 957 986 953
f 989 986 957
f 959 958 984
f 961 989 957
f 1011 960 988
f 1014 1010 956
f 959 984 990
f 1039 1014 965
f 990 991 959
f 1011 964 960
f 1039 965 1018
f 993 991 990
f 1011 1017 964
f 961 968 989
f 994 989 968
f 1017 992 964
f 991 993 963
f 995 963 993
f 963 995 967
f 992 1044 933
f 968 1021 994
f 1021 968 969
f 967 995 1023
f 996 1022 940
f 996 940 999
f 1021 969 998
f 1023 997 923
f 969 970 998
f 923 997 1000
f 943 923 1000
f 943 1026 941
f 941 1026 970
f 1026 998 970
f 971 1001 999
f 971 972 1001
f 944 1027 973
f 1001 972 1028
f 1027 1029 973
f 1029 974 973
f 1030 945 1031
f 1031 920 1032
f 899 1054 1003
f 921 1004 1002
f 921 1002 920
f 1003 927 899
f 927 1003 1033
f 976 1033 979
f 1004 1006 1005
f 1033 1073 979
f 1004 978 1006
f 1006 978 1055
f 1056 979 1073
f 978 977 1055
f 977 1056 1055
f 981 983 1035
f 948 980 1057
f 922 948 1083
f 948 1057 1083
f 1034 986 1007
f 922 1083 931
f 982 1009 984
f 1095 1008 931
f 986 1060 1007
f 1008 987 952
f 988 987 1088
f 1012 984 1009
f 989 1013 986
f 1013 1060 986
f 1011 988 1088
f 1010 1014 1038
f 990 984 1012
f 1015 990 1012
f 1013 989 1016
f 1018 1042 1039
f 990 1015 993
f 1019 993 1015
f 1016 989 994
f 1019 995 993
f 1044 1069 933
f 995 1019 1020
f 995 1020 1023
f 1046 1022 996
f 1069 1047 933
f 1025 1023 1020
f 1021 998 1024
f 1023 1000 997
f 1025 1000 1023
f 1024 998 1026
f 1047 1027 944
f 1024 1026 1048
f 943 1000 1050
f 943 1050 1048
f 1048 1026 943
f 1029 1052 974
f 1032 920 1002
f 1074 947 1035
f 982 947 1058
f 982 1058 1009
f 1036 1034 1007
f 987 1008 1088
f 1061 1012 1009
f 1062 1060 1013
f 1012 1061 1063
f 1062 1013 1037
f 1015 1012 1040
f 1063 1040 1012
f 1038 1014 1039
f 1013 1016 1037
f 1019 1015 1040
f 1043 1019 1040
f 1018 965 1022
f 1037 1016 1041
f 1016 994 1041
f 992 1017 1044
f 1018 1022 1046
f 1020 1019 1043
f 1067 1020 1043
f 1067 1070 1020
f 1021 1045 1041
f 994 1021 1041
f 1045 1021 1024
f 1070 1025 1020
f 1049 1025 1070
f 1071 996 999
f 1027 1024 1048
f 1025 1049 1000
f 999 1001 1071
f 1049 1071 1001
f 1050 1000 1049
f 1028 1051 1001
f 1049 1001 1051
f 1050 1029 1048
f 1027 1048 1029
f 1028 1030 1051
f 1097 974 1052
f 1097 975 974
f 1031 1032 1053
f 1032 1002 1053
f 1002 1004 1005
f 1101 1033 1003
f 1101 1073 1033
f 1056 1073 1055
f 947 1074 1058
f 1035 983 1091
f 1082 980 1034
f 1084 983 985
f 1009 1058 1081
f 1036 1007 1086
f 1095 931 1083
f 985 1085 1084
f 1059 1009 1081
f 1007 1060 1086
f 985 1010 1085
f 1059 1061 1009
f 1086 1060 1062
f 1038 1085 1010
f 1062 1037 1064
f 1038 1039 1065
f 1063 1077 1040
f 1079 1064 1037
f 1039 1042 1065
f 1042 1080 1065
f 1077 1043 1040
f 1037 1041 1079
f 1066 1079 1041
f 1011 1044 1017
f 1080 1042 1018
f 1018 1046 1080
f 1068 1080 1046
f 1045 1066 1041
f 1045 1069 1066
f 1043 1068 1067
f 1070 1067 1068
f 1069 1045 1047
f 1068 1046 996
f 1070 1068 1071
f 1071 1068 996
f 1045 1024 1027
f 1047 1045 1027
f 1070 1071 1049
f 1049 1051 1050
f 1052 1050 1051
f 1052 1029 1050
f 1052 1051 1089
f 1030 1031 1053
f 975 1097 946
f 1053 1002 1090
f 1005 1090 1002
f 1005 1006 1072
f 1101 1072 1073
f 1006 1055 1072
f 1072 1055 1073
f 1058 1074 1081
f 1036 1082 1034
f 1036 1093 1082
f 1086 1093 1036
f 1062 1087 1086
f 1061 1059 1076
f 1075 1085 1038
f 1078 1087 1062
f 1076 1075 1065
f 1061 1076 1063
f 1062 1064 1078
f 1038 1065 1075
f 1076 1065 1077
f 1063 1076 1077
f 1064 1079 1078
f 1011 1078 1079
f 1088 1078 1011
f 1077 1065 1080
f 1011 1079 1044
f 1044 1079 1066
f 1077 1080 1068
f 1077 1068 1043
f 1044 1066 1069
f 1051 1030 1089
f 1097 1052 1089
f 1030 1053 1089
f 1101 1005 1072
f 1074 1035 1102
f 1074 1092 1081
f 1092 1059 1081
f 1091 983 1084
f 1086 1094 1093
f 1087 1094 1086
f 1096 1085 1075
f 1059 1096 1075
f 1088 1087 1078
f 1008 1087 1088
f 1059 1075 1076
f 1097 1105 946
f 946 1099 1054
f 1053 1090 1098
f 1003 1054 1100
f 1100 1101 1003
f 1093 1057 1082
f 1082 1057 980
f 1035 1091 1102
f 1074 1102 1092
f 1083 1057 1095
f 1085 1096 1084
f 1087 1095 1094
f 1008 1095 1087
f 1089 1103 1104
f 1089 1098 1103
f 1053 1098 1089
f 1089 1104 1097
f 1105 1099 946
f 1107 1090 1005
f 1101 1107 1005
f 1094 1057 1093
f 1084 1102 1091
f 1092 1102 1096
f 1092 1096 1059
f 1057 1094 1095
f 1102 1084 1096
f 1097 1104 1105
f 1099 1100 1054
f 1101 1100 1107
f 1104 1103 1111
f 1110 1103 1098
f 1105 1104 1108
f 1106 1099 1105
f 1106 1105 1108
f 1112 1090 1107
f 1111 1103 1110
f 1108 1104 1111
f 1098 1109 1110
f 1098 1090 1109
f 1090 1112 1109
f 1099 1106 1100
f 1112 1107 1113
f 1113 1107 1100
f 1113 1100 1106
f 1106 1115 1114
f 1113 1106 1114
f 1111 1117 1108
f 1117 1115 1108
f 1108 1115 1106
f 1119 1109 1112
f 1111 1110 1118
f 1110 1116 1118
f 1109 1116 1110
f 1117 1111 1118
f 1119 1116 1109
f 1120 1119 1112
f 1120 1112 1113
f 1113 1114 1120
f 1123 1117 1122
f 1115 1117 1123
f 1124 1120 1127
f 1115 1127 1114
f 1120 1114 1127
f 1122 1118 1116
f 1116 1126 1122
f 1116 1119 1126
f 1118 1122 1117
f 1119 1121 1126
f 1124 1121 1119
f 1120 1124 1119
f 1129 1138 1125
f 1131 1125 1133
f 1133 1125 1138
f 1115 1123 1127
f 1132 1131 1133
f 1122 1126 1141
f 1122 1141 1135
f 1121 1128 1126
f 1121 1124 1130
f 1126 1128 1141
f 1121 1130 1128
f 1149 1125 1131
f 1127 1134 1124
f 1135 1123 1122
f 1125 1149 1129
f 1149 1131 1132
f 1123 1144 1127
f 1129 1149 1156
f 1123 1135 1144
f 1129 1156 1151
f 1138 1129 1151
f 1144 1136 1127
f 1136 1134 1127
f 1137 1149 1132
f 1124 1134 1130
f 1154 1134 1136
f 1141 1128 1146
f 1139 1135 1141
f 1128 1130 1148
f 1133 1138 1140
f 1137 1142 1149
f 1135 1139 1144
f 1130 1134 1143
f 1138 1151 1158
f 1138 1158 1140
f 1146 1128 1147
f 1128 1148 1147
f 1148 1130 1143
f 1136 1144 1153
f 1134 1154 1143
f 1153 1154 1136
f 1137 1132 1145
f 1133 1145 1132
f 1145 1133 1140
f 1141 1146 1139
f 1139 1152 1144
f 1144 1152 1153
f 1150 1147 1148
f 1150 1148 1143
f 1137 1145 1157
f 1157 1140 1158
f 1157 1145 1140
f 1150 1146 1147
f 1146 1150 1155
f 1146 1155 1139
f 1155 1150 1142
f 1142 1150 1149
f 1137 1155 1142
f 1137 1157 1155
f 1150 1143 1156
f 1149 1150 1156
f 1139 1155 1152
f 1152 1155 1157
f 1151 1156 1158
f 1152 1157 1153
f 1158 1156 1143
f 1153 1157 1158
f 1154 1158 1143
f 1153 1158 1154

