# https://github.com/mikedh/trimesh
v -0.99552416 -0.12958126 -0.06145577
v -0.99595358 -0.13400769 0.01134044
v -0.99573016 0.00590221 -0.06097945
v -0.99665445 0.01294218 0.00713568
v -0.99730261 0.02790725 -0.04847356
v -0.99629909 -0.02562205 -0.03753560
v -0.98921189 0.01865634 -0.06594607
v -0.99465170 0.03207114 -0.00272009
v -0.99096140 -0.17797452 -0.01088564
v -0.97835369 -0.18576897 -0.04012623
v -0.99418865 -0.15725871 -0.04642198
v -0.98741521 -0.14657582 0.01778452
v -0.98687760 -0.13221887 -0.06866306
v -0.98571644 0.01312752 0.01526540
v -0.97991945 0.03683869 0.00329478
v -0.97626630 -0.18464922 -0.00287993
v -0.98604699 -0.15835569 -0.06703750
v -0.97600861 -0.12985079 0.02088379
v -0.98049807 0.04297858 -0.02004888
v -0.97681979 -0.16896347 -0.06216226
v -0.96318710 -0.12557403 -0.07082912
v -0.97421929 0.01497969 0.01885703
v -0.87112834 -0.14219842 -0.05450830
v -0.84261016 0.01594904 0.01887737
v -0.78977881 0.03101975 0.01412886
v -0.88819315 -0.16782704 -0.01038352
v -0.86334427 -0.11428456 0.01837335
v -0.97378136 0.01537920 -0.07168751
v -0.87670266 -0.12152012 -0.06785327
v -0.96618831 -0.15920140 0.01569671
v -0.88881740 -0.16727959 -0.03884305
v -0.97505222 0.03978662 -0.05316582
v -0.85799792 -0.16154160 -0.04016257
v -0.86994668 -0.16297827 -0.00490380
v -0.87356560 -0.14338918 0.00348952
v -0.82809630 -0.14603123 -0.03593729
v -0.83488614 -0.15113108 -0.01306017
v -0.74190297 -0.07274363 0.01879547
v -0.87283774 0.03746910 -0.05983427
v -0.77442611 0.01961709 -0.07020136
v -0.71589374 0.03330451 -0.06652233
v -0.80732998 0.04632816 -0.05203441
v -0.81904267 0.05104432 -0.03533960
v -0.79709729 -0.09038444 -0.07006501
v -0.77022385 -0.12392090 -0.00439819
v -0.73893516 -0.09632412 0.01060056
v -0.84224536 0.04773844 -0.00633712
v -0.78496895 -0.11799622 -0.05697070
v -0.79128106 0.04271183 0.00503017
v -0.73300196 -0.11691536 -0.03533991
v -0.60273870 0.05891476 -0.03704373
v -0.69493049 -0.07402968 -0.06653740
v -0.60198653 0.05843952 -0.01239544
v -0.62891368 -0.08645131 -0.03417921
v -0.63791421 -0.08426868 -0.00181589
v -0.63629830 -0.08175067 -0.05105644
v -0.64448096 -0.06576887 0.01474670
v -0.60642586 0.05355088 -0.05004220
v -0.63589056 -0.07164411 -0.06194178
v -0.66538202 0.04419119 -0.05972829
v -0.64561204 -0.03824086 0.01860310
v -0.57297358 -0.08272549 -0.07079996
v -0.64300889 -0.04703448 -0.06822042
v -0.60325734 0.03196378 -0.06661095
v -0.60190718 0.04695371 0.00598053
v -0.56049216 -0.09061513 0.01744393
v -0.61287193 0.01473247 -0.07004739
v -0.54361211 -0.05778111 -0.07075432
v -0.58104655 -0.07480578 0.02164563
v -0.57014610 0.01734559 0.02058125
v -0.55979519 0.04015905 -0.05498183
v -0.55489870 -0.09348195 -0.06375033
v -0.53754224 -0.09808377 -0.03569987
v -0.52719049 -0.04269767 0.01880248
v -0.52974331 -0.09249819 -0.03312564
v -0.53884339 -0.07524670 -0.06239695
v -0.54297899 -0.09411077 0.00235106
v -0.52763866 0.03359926 0.01989708
v -0.55487387 0.02865088 0.01423436
v -0.49611635 0.06206090 -0.06784662
v -0.46595388 0.08961530 -0.03718398
v -0.50479484 -0.04141391 -0.04704022
v -0.50928223 -0.00220748 -0.07208453
v -0.54950155 0.04133409 -0.00292503
v -0.50027613 0.00043174 0.02238939
v -0.55171160 0.01891504 -0.07025341
v -0.50861934 -0.04329891 -0.00226542
v -0.47933617 -0.01788208 0.00103460
v -0.47272377 -0.01370470 -0.05170514
v -0.48375551 0.05265282 0.02389286
v -0.45612141 0.08380056 -0.06832380
v -0.43235172 -0.00650891 -0.01306007
v -0.46335725 0.08916088 0.00435251
v -0.45399774 0.11537736 -0.00943948
v -0.44820032 0.00075210 0.01055699
v -0.44803413 0.09042476 -0.06029575
v -0.44148593 0.11293254 0.00850694
v -0.42988613 -0.00868630 -0.04152116
v -0.46602244 0.04094174 -0.07477040
v -0.45091403 0.11903855 -0.04018220
v -0.45705024 0.01977552 0.02256331
v -0.44346441 0.08952396 0.01051925
v -0.42186956 -0.03308663 -0.04191587
v -0.41678915 -0.00049249 0.01041362
v -0.41113005 -0.01173789 -0.04030099
v -0.41907117 -0.00889867 -0.00069456
v -0.45222684 0.00440549 -0.06427165
v -0.40390976 -0.00617858 -0.04088712
v -0.40397615 -0.01532381 -0.03462232
v -0.40773049 -0.01345481 -0.01148369
v -0.40412415 -0.00672806 -0.00832391
v -0.43999760 0.11397134 -0.05947944
v -0.40124976 -0.05057958 -0.04270040
v -0.41013200 -0.04686756 -0.00049194
v -0.36700077 -0.04246566 -0.00458993
v -0.39839154 -0.00827164 -0.00787397
v -0.45562270 0.07412797 -0.07156696
v -0.40922344 0.12246982 0.00509147
v -0.39216953 -0.03170871 -0.01298924
v -0.39351671 -0.00797693 -0.04072371
v -0.40560294 -0.03593979 -0.04355914
v -0.38930949 -0.03602313 -0.03649686
v -0.36698057 0.12370024 0.00972745
v -0.37376970 0.13236009 -0.04990972
v -0.44668395 0.12119093 -0.01601093
v -0.38523006 -0.00538007 -0.04729430
v -0.38311361 -0.01112898 -0.03693283
v -0.44801448 0.08074727 0.02294169
v -0.35499214 0.10583863 0.00886555
v -0.37481063 0.13053801 0.00212657
v -0.37166605 -0.05576617 -0.04152937
v -0.37279134 -0.05578156 -0.00282134
v -0.36572365 -0.04391206 -0.04381550
v -0.35957618 -0.03848438 -0.03446932
v -0.35095189 -0.00651934 -0.03445860
v -0.36564924 0.14167170 -0.07170901
v -0.36706927 0.14355468 0.01977366
v -0.36935161 0.13698853 0.00152464
v -0.35116412 -0.03863295 -0.00277403
v -0.37484729 -0.00646578 -0.00185774
v -0.33647085 -0.00176303 -0.05847890
v -0.36865594 0.12592498 -0.06026274
v -0.35779517 0.16458817 -0.06767962
v -0.36799030 0.15035039 -0.03892142
v -0.36554531 0.15674251 -0.00426397
v -0.33519798 -0.03742963 -0.04233326
v -0.33884874 -0.01074730 -0.04459455
v -0.34885342 -0.00766499 -0.00674923
v -0.33828978 0.01360945 -0.07157375
v -0.35314800 0.12838146 -0.07209491
v -0.35044417 0.12109004 0.01881656
v -0.34909903 0.17639324 -0.04278405
v -0.35079503 0.16622544 0.02245962
v -0.34747067 -0.02810032 -0.04287533
v -0.34168087 -0.00839791 -0.00280142
v -0.30482930 0.00309332 0.01803163
v -0.31703245 0.10282966 0.00904471
v -0.34809067 0.16172905 -0.02201993
v -0.34338887 -0.04726942 -0.00248016
v -0.32658418 0.12429767 0.02001666
v -0.32289944 -0.00895314 -0.01206928
v -0.34564961 0.08983874 0.01105813
v -0.33011586 0.16249303 -0.07509244
v -0.32920553 0.15784198 -0.01783046
v -0.33898637 0.17549338 -0.01225438
v -0.33867415 0.08212375 -0.07542222
v -0.32560115 0.12254121 -0.07106619
v -0.31538065 -0.00662618 -0.03992062
v -0.31777176 0.12333831 0.01260680
v -0.30994940 0.15410860 -0.06067158
v -0.31759697 0.16455555 -0.04516701
v -0.31821853 0.08189082 0.02753189
v -0.18442178 0.08324319 0.02350390
v -0.31123521 0.11680633 -0.05969502
v -0.30220851 -0.01577266 -0.03092534
v -0.33528187 0.02658396 0.02890135
v -0.26763202 0.11043990 0.01160432
v -0.31608195 0.15710919 -0.03092367
v -0.33779184 0.10795172 -0.06206560
v -0.31904624 0.15954155 0.01346057
v -0.27295721 0.14646651 -0.03701999
v -0.31713349 0.16517561 0.00362224
v -0.28580898 0.15450404 -0.05844221
v -0.25707344 0.13582672 -0.05329518
v -0.27426989 0.14692708 0.01063332
v -0.26722742 -0.00413101 -0.05068793
v -0.21054392 0.08905010 -0.06409275
v -0.25485056 0.11511239 0.00552768
v -0.25200940 -0.01589462 -0.03991791
v -0.25879294 -0.01444529 -0.00447954
v -0.25933207 0.12457735 -0.00360606
v -0.25898409 0.13185404 -0.06109531
v -0.26032253 0.12555840 -0.03915665
v -0.24162452 -0.01720059 -0.01282822
v -0.35537684 0.04266049 -0.07828354
v -0.32643429 0.05016333 0.03094691
v -0.23729284 -0.00211724 0.00822116
v -0.20722457 0.10980359 -0.06288824
v -0.24975840 0.09049426 0.01286872
v -0.17058732 0.13117388 -0.06092314
v -0.15806798 0.13498357 -0.05110591
v -0.17223776 0.12550543 -0.03961862
v -0.18100600 0.08880311 0.01586387
v -0.15851989 -0.01257608 -0.04544609
v -0.14886463 -0.01350100 -0.03945848
v -0.13372675 0.02741010 -0.07414274
v -0.17389774 0.08213475 0.02826134
v -0.17870894 0.09037605 0.05207766
v -0.14691475 0.11917859 0.01287905
v -0.17763723 0.11675378 0.01628586
v -0.17514376 0.12074773 0.05844701
v -0.19936908 0.12604618 -0.00066355
v -0.15943663 0.08125896 0.05611959
v -0.17783509 0.00355651 -0.06388541
v -0.15039870 0.08446533 0.08701586
v -0.14362226 0.08495818 0.07400350
v -0.12049910 0.12115189 -0.06397715
v -0.15950148 0.12391484 0.03230336
v -0.15789787 0.11951788 0.05702418
v -0.15798767 0.11847957 0.08238573
v -0.13990033 0.12452894 -0.03390928
v -0.15748347 0.08687661 0.02747695
v -0.12336791 -0.00710661 0.00469135
v -0.14066839 0.07905628 0.02738084
v -0.13801802 0.11651202 0.08213094
v -0.14404620 0.12261077 -0.00236860
v -0.11487099 0.14687678 -0.03353476
v -0.14478904 -0.01235169 -0.00292089
v -0.13220798 0.01913031 0.02500668
v -0.16802635 0.07168079 0.02636753
v -0.14013196 0.11667300 0.03101672
v -0.14192044 0.13449946 -0.06278633
v -0.12900464 0.13803797 -0.00952044
v -0.11413079 0.13459185 -0.02284521
v -0.12805692 0.12638178 0.00643392
v -0.12490612 0.14068004 0.02876169
v -0.10293123 -0.00319747 -0.02158937
v -0.12571540 -0.00535129 -0.05657044
v -0.08435547 0.00142067 -0.03665174
v -0.13351871 0.00840591 -0.06775083
v -0.05714511 0.00657937 0.00725234
v -0.08344027 0.03738405 0.02624700
v -0.07062667 0.13932791 0.03112287
v -0.06725650 0.09161218 0.03310547
v -0.06094233 0.12773752 0.02505145
v -0.06367016 0.13285695 0.01034799
v -0.00410335 0.14974410 -0.03313724
v -0.05633396 0.09181118 0.01899779
v -0.09914478 0.14323423 -0.00075507
v -0.08033080 0.00685971 -0.02017081
v -0.07643374 0.07553691 0.02650149
v -0.03047181 0.01138460 -0.05911616
v -0.00702982 0.13960701 -0.04944012
v -0.08373892 -0.00039555 -0.00451452
v -0.00799388 0.08546522 0.02274958
v -0.01532956 0.09625542 -0.06303551
v 0.00121038 0.03009186 -0.06830247
v -0.00306607 0.12061278 0.01408829
v -0.00599259 0.14683652 -0.00618469
v -0.00326431 0.00835753 -0.02902597
v 0.00005029 0.00790872 -0.01368812
v 0.00529089 0.14745820 -0.04423539
v -0.05946945 0.08143707 -0.07263532
v 0.00618430 0.09732565 0.01572734
v 0.00587491 0.13041696 0.01308864
v 0.00315952 0.10778151 -0.06503495
v 0.05938689 0.01311599 -0.04802443
v 0.00391796 0.14762639 -0.00455611
v 0.07399020 0.01989753 0.00718378
v 0.00950288 0.08589574 -0.06854562
v 0.00504443 0.13561775 -0.05904697
v 0.07628090 0.09884749 0.01631247
v 0.03620687 0.03736930 0.02115975
v 0.02158611 0.05327316 -0.07178680
v 0.11165604 0.09849469 0.01269766
v 0.08528802 0.11376097 0.01553605
v 0.19252188 0.06868473 0.01951066
v 0.16780355 0.02115619 -0.00616118
v 0.12780256 0.08411584 0.01948960
v 0.15138792 0.09917361 -0.06424779
v 0.19205178 0.02174671 -0.03684548
v 0.17637359 0.04657872 0.01813705
v 0.15169805 0.10447543 0.01564418
v 0.13700357 0.12007654 -0.06276936
v 0.12687283 0.13627707 -0.05414181
v 0.15542599 0.02312662 -0.05117515
v 0.17372182 0.07497029 -0.06753238
v 0.11598457 0.13465968 0.00584667
v 0.25035271 0.14223720 -0.04246150
v 0.11395808 0.14458520 -0.00721007
v 0.34176791 0.10997805 0.01336738
v 0.09156190 0.14812966 -0.02939524
v 0.32666026 0.03283224 -0.04163561
v 0.17927058 0.03959559 -0.06321944
v 0.25005684 0.03696198 0.00714800
v 0.26001673 0.05726196 -0.06585715
v 0.32726401 0.03270530 -0.00781490
v 0.31863800 0.03747005 -0.05068249
v 0.32623140 0.03404587 -0.02811930
v 0.35227218 0.08647308 0.01549862
v 0.36008467 0.11454151 -0.06348397
v 0.33103067 0.14459064 -0.02762842
v 0.34276530 0.02014810 -0.01294800
v 0.33720848 0.02767858 -0.04459875
v 0.36076675 0.13368462 -0.05214093
v 0.35054217 0.12688474 0.00634885
v 0.33536990 0.05956223 0.01384904
v 0.36730922 0.03685956 -0.04430458
v 0.34823435 0.09051825 -0.06480245
v 0.36057095 0.14185151 -0.04257472
v 0.35886063 0.04853872 0.00579077
v 0.35854010 0.05898283 -0.06303526
v 0.35812099 0.14256484 -0.01089656
v 0.36781212 0.02354641 -0.01332986
v 0.36250156 0.03685475 -0.00501978
v 0.36764263 0.02874837 -0.04296036
v 0.36516925 0.08329715 -0.06624552
v 0.35913821 0.11873079 0.01235492
v 0.36681664 0.14523023 -0.02993368
v 0.36412270 0.05690210 -0.06212651
v 0.38176044 0.04286261 -0.02719205
v 0.37767025 0.03830925 -0.00839164
v 0.36481479 0.06353328 0.01528288
v 0.36461571 0.10174878 0.01637653
v 0.50055015 0.13230313 -0.05253118
v 0.36351015 0.13624622 0.00145987
v 0.40153836 0.07350060 0.01583547
v 0.38131545 0.04070035 -0.04491871
v 0.38073871 0.03935089 -0.03542809
v 0.63240398 0.07186923 -0.06115223
v 0.53797535 0.07248873 0.01216862
v 0.43798182 0.14403984 -0.02103014
v 0.43927296 0.14219151 -0.01185485
v 0.56281912 0.05703947 0.00447713
v 0.60429523 0.04662980 -0.01013332
v 0.50489731 0.12312522 0.00725217
v 0.65400754 0.05189084 -0.02636573
v 0.59973880 0.05497463 -0.05259762
v 0.66141531 0.13160182 -0.00620143
v 0.58494042 0.13951677 -0.03810433
v 0.51446057 0.04846355 -0.02756456
v 0.62147039 0.11019335 -0.06146992
v 0.65856234 0.13605343 -0.01496051
v 0.65666169 0.13168968 -0.04753419
v 0.66863857 0.10696879 0.00948009
v 0.67395028 0.07463559 0.01135818
v 0.65741988 0.04821943 -0.03778828
v 0.65949458 0.04743962 -0.01290420
v 0.67553676 0.05927823 -0.05782408
v 0.67342162 0.05700149 0.00278581
v 0.67953036 0.03210065 -0.01512128
v 0.68461361 0.11229838 -0.06159300
v 0.69325016 0.03003252 -0.03760114
v 0.69583996 0.08049214 -0.06285138
v 0.68863489 0.08523517 0.00571835
v 0.67579012 0.13566866 -0.04613858
v 0.68172085 0.13968676 -0.01852409
v 0.70840241 0.05741242 -0.00357159
v 0.68479910 0.11972845 0.00434186
v 0.70576848 0.12533310 -0.00686708
v 0.69849240 0.08279834 0.01560794
v 0.71028845 0.05758672 -0.05018734
v 0.70959069 0.11698979 -0.04899244
v 0.71063649 0.08561719 0.01187792
v 0.71106923 0.07993078 -0.05360455
v 0.71853505 0.07981222 -0.00089277
v 0.71403762 0.12454107 -0.03883802
v 0.71605065 0.11930997 -0.00867598
v 0.71520915 0.09720682 -0.04321461
v 0.71254916 0.04464073 -0.02676837
v 0.77062866 0.11151782 -0.04673074
v 0.71765242 0.09863171 -0.01017554
v 0.79369036 0.05271303 -0.01164468
v 0.82029581 0.12464944 -0.02233849
v 0.79456891 0.07166896 -0.05601944
v 0.81131291 0.05622060 -0.02592287
v 0.79158759 0.04874599 -0.03621176
v 0.79606503 0.07657266 -0.00032633
v 0.79343478 0.09165637 -0.04578408
v 0.79976297 0.09255469 -0.01218247
v 0.80774056 0.09042906 -0.03824273
v 0.80126015 0.09796781 -0.04296223
v 0.86659455 0.10564443 -0.04499190
v 0.79286717 0.10974349 -0.00695928
v 0.80645552 0.07147417 -0.04588659
v 0.86885078 0.06955536 -0.04498348
v 0.87125214 0.09046779 -0.04053066
v 0.87750611 0.12435000 -0.03239630
v 0.80624052 0.07001390 -0.00809932
v 0.87737116 0.07083882 -0.00747103
v 0.87514824 0.09701394 -0.00892447
v 0.87533201 0.11457315 -0.00917589
v 0.88446274 0.10101844 0.00304228
v 0.88306923 0.09070119 -0.04970132
v 0.88253751 0.11769856 -0.05301908
v 0.88211693 0.14708832 -0.03029240
v 0.88466063 0.08237144 -0.00600300
v 0.88576804 0.16039111 -0.04621790
v 0.90177105 0.16083415 -0.02788425
v 0.88217358 0.13241717 -0.00079106
v 0.90607495 0.17027538 -0.00520057
v 0.88162540 0.15772714 -0.01463832
v 0.90908044 0.16573443 -0.02893770
v 0.94024380 0.06160931 -0.04015796
v 0.92327518 0.16423043 -0.02803255
v 0.94051662 0.05697491 -0.02674657
v 0.92840579 0.06692875 -0.00872065
v 0.94423793 0.10491954 -0.05439448
v 0.93681658 0.10130198 0.00283448
v 0.93235085 0.16159111 -0.04809933
v 0.93715325 0.11908635 0.00013012
v 0.94044662 0.15941379 -0.00952442
v 0.94318946 0.08241182 -0.00822421
v 0.94554787 0.12956269 -0.02077743
v 0.94395501 0.12724493 -0.04140574
v 0.93767206 0.14817273 -0.02346731
v 0.94148308 0.15627238 -0.03776287
v 0.94176368 0.08721494 -0.04901429
v 0.98887584 0.12091206 -0.03080032
v 0.98918135 0.09161878 -0.03341814
v 0.98957673 0.10257588 -0.01007026
f 11 1 17
f 9 2 11
f 11 6 1
f 2 6 11
f 2 4 6
f 6 3 1
f 6 5 3
f 4 5 6
f 5 7 3
f 8 5 4
f 10 11 17
f 9 11 10
f 16 12 9
f 2 9 12
f 17 1 13
f 12 14 2
f 1 3 13
f 4 2 14
f 13 3 7
f 4 14 8
f 8 14 15
f 5 32 7
f 19 32 5
f 8 19 5
f 15 19 8
f 10 16 9
f 20 10 17
f 30 12 16
f 14 12 18
f 18 22 14
f 13 7 28
f 18 12 30
f 17 13 21
f 21 13 28
f 14 22 15
f 7 32 28
f 15 47 19
f 10 20 31
f 18 30 27
f 28 32 39
f 22 25 15
f 23 31 20
f 20 17 21
f 18 24 22
f 19 43 32
f 16 10 31
f 16 31 26
f 21 29 20
f 27 24 18
f 24 25 22
f 20 29 23
f 49 47 15
f 49 15 25
f 26 30 16
f 42 39 32
f 34 35 26
f 26 35 30
f 19 47 43
f 26 31 33
f 26 33 34
f 33 31 23
f 30 35 27
f 32 43 42
f 27 38 24
f 37 34 33
f 37 35 34
f 21 28 44
f 40 28 39
f 36 33 23
f 29 21 44
f 36 23 48
f 23 29 48
f 36 37 33
f 45 35 37
f 27 35 45
f 37 36 45
f 44 28 40
f 48 50 36
f 36 50 45
f 48 29 44
f 40 39 41
f 27 45 46
f 46 38 27
f 44 40 63
f 48 44 52
f 52 44 63
f 39 60 41
f 42 60 39
f 43 47 51
f 43 51 42
f 46 45 55
f 42 58 60
f 42 51 58
f 53 47 49
f 50 48 56
f 40 67 63
f 50 54 45
f 52 56 48
f 46 57 38
f 50 56 54
f 57 46 55
f 24 70 25
f 49 65 53
f 47 53 51
f 57 61 38
f 38 61 24
f 61 70 24
f 52 63 59
f 67 40 64
f 64 40 41
f 41 60 64
f 55 45 54
f 59 56 52
f 49 25 65
f 70 65 25
f 63 62 59
f 69 61 57
f 60 58 64
f 57 55 66
f 62 56 59
f 66 69 57
f 63 67 62
f 67 64 86
f 56 62 72
f 54 66 55
f 86 64 58
f 61 69 70
f 56 72 54
f 65 70 79
f 65 79 84
f 53 65 84
f 53 71 51
f 84 71 53
f 62 67 68
f 58 71 86
f 58 51 71
f 54 72 73
f 54 73 66
f 68 67 83
f 66 73 77
f 62 68 72
f 73 72 76
f 74 69 66
f 69 85 70
f 70 78 79
f 73 76 75
f 72 68 76
f 74 85 69
f 70 85 78
f 75 77 73
f 66 77 74
f 67 86 83
f 75 87 77
f 76 82 75
f 74 77 87
f 68 82 76
f 71 80 86
f 79 78 84
f 87 75 82
f 81 80 71
f 82 68 89
f 68 83 89
f 71 84 81
f 87 82 88
f 88 85 74
f 78 93 84
f 88 74 87
f 85 90 78
f 78 90 93
f 83 86 99
f 86 80 99
f 84 93 81
f 82 89 88
f 85 101 90
f 93 90 128
f 89 83 107
f 88 95 85
f 80 91 99
f 88 92 95
f 85 95 101
f 99 91 117
f 80 81 91
f 102 93 128
f 93 100 81
f 89 92 88
f 83 99 107
f 81 96 91
f 81 100 96
f 112 96 100
f 94 93 97
f 93 94 100
f 89 107 98
f 97 93 102
f 94 125 100
f 97 125 94
f 89 98 92
f 106 95 92
f 130 125 118
f 118 125 97
f 92 103 114
f 92 98 103
f 106 92 114
f 101 95 104
f 107 99 195
f 101 176 90
f 196 90 176
f 129 97 102
f 113 114 103
f 121 98 105
f 103 98 121
f 98 107 108
f 105 98 108
f 106 104 95
f 90 196 128
f 128 172 102
f 110 106 114
f 109 121 105
f 105 110 109
f 110 105 108
f 111 110 108
f 106 110 111
f 106 111 104
f 156 101 104
f 156 176 101
f 166 99 117
f 166 195 99
f 100 125 112
f 113 103 121
f 114 115 119
f 121 109 122
f 122 109 120
f 114 119 110
f 119 116 110
f 109 110 116
f 107 126 108
f 108 126 120
f 120 109 108
f 111 108 109
f 116 111 109
f 140 104 116
f 104 111 116
f 195 149 107
f 117 91 166
f 113 131 114
f 114 132 115
f 122 120 127
f 172 162 102
f 129 123 97
f 97 123 118
f 112 124 142
f 112 125 124
f 130 124 125
f 114 131 132
f 113 121 133
f 121 122 133
f 127 119 122
f 140 119 127
f 127 120 126
f 116 119 140
f 141 126 107
f 102 162 129
f 131 113 133
f 122 134 133
f 119 115 122
f 122 115 134
f 126 141 135
f 104 140 156
f 118 123 130
f 132 139 115
f 127 126 135
f 127 135 140
f 124 136 142
f 136 124 138
f 124 130 138
f 130 123 138
f 138 123 137
f 144 143 136
f 138 144 136
f 145 144 138
f 145 138 137
f 132 131 159
f 132 159 139
f 140 135 148
f 107 149 141
f 112 142 179
f 123 151 137
f 142 136 150
f 151 153 137
f 144 145 158
f 143 144 152
f 145 137 153
f 153 165 145
f 133 146 131
f 159 131 146
f 154 146 133
f 154 133 134
f 139 134 115
f 140 148 155
f 156 140 155
f 96 112 179
f 129 151 123
f 150 179 142
f 151 160 153
f 163 136 143
f 152 144 158
f 145 165 158
f 154 134 139
f 139 159 155
f 154 135 147
f 148 135 154
f 139 148 154
f 155 148 139
f 141 147 135
f 162 157 129
f 150 167 179
f 165 152 158
f 147 146 154
f 161 155 159
f 150 136 163
f 165 153 182
f 146 161 159
f 147 161 146
f 129 157 151
f 157 169 151
f 160 151 169
f 167 150 163
f 182 164 165
f 180 182 153
f 143 152 163
f 171 165 164
f 171 152 165
f 147 141 168
f 161 147 168
f 179 167 174
f 180 160 169
f 160 180 153
f 164 178 171
f 163 152 171
f 196 172 128
f 167 170 174
f 167 163 170
f 163 171 170
f 168 175 161
f 161 156 155
f 91 187 166
f 187 91 96
f 173 162 172
f 171 183 170
f 171 178 183
f 176 229 196
f 177 180 169
f 178 181 183
f 178 164 182
f 180 185 182
f 190 161 175
f 174 170 183
f 181 178 182
f 190 156 161
f 195 166 263
f 173 199 162
f 96 179 187
f 162 199 157
f 157 177 169
f 198 174 192
f 192 174 183
f 186 175 168
f 186 168 141
f 179 174 198
f 177 185 180
f 184 192 183
f 184 183 181
f 182 185 181
f 190 175 194
f 175 189 194
f 186 189 175
f 197 156 190
f 191 193 185
f 185 193 181
f 188 191 185
f 188 185 177
f 187 179 198
f 193 184 181
f 157 199 177
f 189 186 204
f 191 212 193
f 192 184 200
f 189 205 194
f 141 214 186
f 214 141 149
f 156 229 176
f 229 242 196
f 173 203 199
f 198 192 200
f 189 204 205
f 166 187 263
f 199 188 177
f 184 201 200
f 201 184 193
f 214 204 186
f 196 230 172
f 230 173 172
f 212 191 188
f 156 197 229
f 214 149 240
f 240 149 206
f 206 149 195
f 199 203 188
f 203 210 188
f 188 210 212
f 193 212 202
f 190 223 197
f 202 201 193
f 242 230 196
f 190 194 228
f 228 223 190
f 230 207 173
f 207 203 173
f 208 203 207
f 212 210 209
f 208 210 203
f 211 210 208
f 202 212 221
f 213 208 207
f 187 198 217
f 211 208 215
f 198 200 217
f 210 218 209
f 217 200 232
f 211 218 210
f 207 222 213
f 208 213 215
f 215 220 211
f 212 209 226
f 212 226 221
f 219 218 211
f 220 219 211
f 194 205 228
f 230 222 207
f 216 215 213
f 213 222 219
f 219 222 218
f 209 218 231
f 221 201 202
f 238 205 204
f 238 204 214
f 230 224 222
f 222 231 218
f 216 213 219
f 219 225 216
f 215 225 220
f 219 220 225
f 201 227 232
f 201 232 200
f 201 221 227
f 240 238 214
f 197 223 229
f 222 224 231
f 215 216 225
f 235 226 209
f 236 209 231
f 221 226 233
f 233 226 235
f 236 235 209
f 228 205 237
f 228 237 223
f 187 217 256
f 224 244 231
f 221 233 234
f 242 251 230
f 231 244 236
f 221 234 227
f 235 234 233
f 205 239 237
f 223 241 229
f 195 263 206
f 249 234 235
f 236 249 235
f 249 227 234
f 237 254 223
f 239 205 238
f 223 254 241
f 230 251 224
f 236 244 243
f 217 232 253
f 232 227 253
f 238 252 239
f 252 238 240
f 250 237 239
f 254 237 250
f 206 257 240
f 224 251 244
f 239 252 260
f 187 256 263
f 249 236 243
f 227 247 253
f 250 261 254
f 227 249 247
f 252 267 260
f 241 269 229
f 249 243 246
f 246 243 245
f 239 260 250
f 229 269 273
f 229 273 242
f 251 248 244
f 248 245 244
f 244 245 243
f 252 240 257
f 245 248 246
f 266 217 253
f 248 258 246
f 206 263 274
f 251 255 248
f 255 264 248
f 246 259 249
f 259 246 258
f 250 260 261
f 206 274 257
f 248 264 258
f 249 259 247
f 256 217 266
f 270 263 256
f 266 270 256
f 271 266 253
f 262 271 253
f 259 265 268
f 259 258 265
f 253 247 262
f 259 268 247
f 242 273 251
f 264 255 279
f 264 265 258
f 241 254 278
f 277 279 251
f 263 270 274
f 251 279 255
f 254 261 278
f 264 272 265
f 272 276 265
f 266 271 284
f 268 292 247
f 279 272 264
f 266 284 280
f 285 271 262
f 247 292 262
f 268 290 292
f 241 278 269
f 265 276 288
f 265 288 268
f 267 252 286
f 287 270 266
f 262 289 285
f 262 292 289
f 261 260 281
f 261 281 278
f 252 257 294
f 274 270 287
f 279 275 272
f 272 275 276
f 284 271 285
f 286 252 294
f 287 266 280
f 268 288 290
f 273 282 251
f 251 282 277
f 257 274 294
f 274 287 294
f 260 267 281
f 282 273 269
f 275 283 276
f 279 283 275
f 294 287 296
f 267 286 281
f 269 295 282
f 277 300 279
f 287 280 309
f 302 292 290
f 279 300 283
f 276 306 288
f 281 286 293
f 297 269 278
f 286 294 298
f 298 293 286
f 269 297 295
f 282 295 307
f 282 307 277
f 305 285 289
f 313 290 288
f 276 291 306
f 283 291 276
f 299 278 281
f 287 309 296
f 300 291 283
f 278 299 297
f 292 302 289
f 298 294 296
f 295 297 311
f 312 298 296
f 305 284 285
f 280 284 301
f 284 305 301
f 313 288 306
f 281 293 299
f 295 311 307
f 309 280 301
f 290 313 302
f 312 296 309
f 289 302 310
f 298 304 293
f 299 293 303
f 297 299 303
f 312 304 298
f 315 311 297
f 277 307 300
f 304 303 293
f 303 315 297
f 310 305 289
f 302 313 310
f 304 316 303
f 316 304 308
f 315 303 314
f 304 312 308
f 300 307 311
f 300 318 291
f 291 318 306
f 326 313 306
f 303 316 314
f 312 309 301
f 312 320 308
f 311 323 300
f 323 324 300
f 312 301 317
f 300 324 318
f 318 326 306
f 313 319 310
f 314 322 315
f 315 322 311
f 316 322 314
f 316 308 329
f 329 308 328
f 321 316 329
f 322 316 321
f 308 320 328
f 323 327 324
f 320 312 317
f 310 325 305
f 313 333 319
f 313 326 333
f 320 338 328
f 320 317 330
f 336 318 324
f 325 301 305
f 318 336 326
f 329 341 321
f 319 333 332
f 322 321 335
f 321 341 335
f 326 339 333
f 334 311 322
f 311 334 323
f 323 334 327
f 327 331 324
f 319 340 310
f 319 332 340
f 331 327 334
f 336 339 326
f 337 335 341
f 331 345 324
f 345 336 324
f 340 325 310
f 335 334 322
f 338 320 330
f 342 301 325
f 317 301 342
f 338 347 328
f 328 347 329
f 329 347 341
f 333 343 332
f 343 333 339
f 332 343 340
f 330 317 342
f 341 347 337
f 345 331 346
f 344 342 325
f 334 346 331
f 336 345 339
f 325 340 344
f 335 350 334
f 346 334 350
f 337 348 335
f 349 347 338
f 348 350 335
f 330 349 338
f 349 330 354
f 330 342 354
f 354 342 352
f 352 342 344
f 340 343 344
f 347 351 348
f 353 351 347
f 348 337 347
f 347 349 353
f 348 351 350
f 346 355 345
f 356 352 344
f 345 359 339
f 359 357 339
f 344 357 356
f 343 357 344
f 357 343 339
f 353 349 362
f 350 351 358
f 355 359 345
f 346 350 355
f 355 350 358
f 361 355 358
f 359 355 361
f 357 359 360
f 349 354 362
f 354 352 363
f 359 361 360
f 356 363 352
f 357 367 356
f 357 360 367
f 353 362 370
f 351 353 370
f 351 370 358
f 362 354 365
f 365 354 363
f 363 369 365
f 364 372 368
f 364 360 361
f 363 356 367
f 358 366 361
f 364 361 366
f 364 366 372
f 364 368 360
f 360 368 367
f 372 384 368
f 373 358 370
f 362 365 375
f 371 369 363
f 368 384 374
f 368 374 367
f 370 362 377
f 362 375 377
f 375 365 369
f 366 378 380
f 366 380 372
f 363 367 371
f 370 377 373
f 378 358 373
f 358 378 366
f 379 375 369
f 382 379 369
f 380 384 372
f 371 382 369
f 375 376 377
f 373 377 376
f 376 375 385
f 373 376 389
f 378 373 389
f 375 379 385
f 379 381 385
f 380 378 389
f 382 381 379
f 382 371 383
f 376 385 386
f 391 392 384
f 371 388 383
f 384 392 374
f 387 386 385
f 385 381 387
f 381 382 387
f 391 384 380
f 371 374 388
f 367 374 371
f 406 376 386
f 382 383 387
f 380 389 391
f 391 389 390
f 388 374 392
f 376 390 389
f 383 394 387
f 388 395 383
f 395 394 383
f 404 406 386
f 386 387 394
f 397 391 390
f 397 393 391
f 392 391 393
f 388 392 400
f 400 392 393
f 388 398 395
f 402 388 400
f 388 396 398
f 402 396 388
f 402 400 401
f 386 394 418
f 396 399 398
f 390 376 407
f 390 407 397
f 398 399 403
f 402 401 399
f 393 411 400
f 411 401 400
f 410 398 403
f 399 401 403
f 404 386 418
f 408 418 394
f 394 395 408
f 393 409 411
f 395 398 410
f 416 402 399
f 396 402 405
f 399 396 405
f 405 416 399
f 406 407 376
f 397 409 393
f 408 395 410
f 410 403 405
f 405 403 401
f 407 413 397
f 397 413 409
f 402 416 417
f 402 417 405
f 401 412 405
f 407 406 413
f 411 412 401
f 410 405 417
f 412 416 405
f 406 404 413
f 418 413 404
f 408 410 415
f 416 414 415
f 415 410 417
f 414 416 412
f 414 412 411
f 415 417 416
f 413 421 409
f 409 421 411
f 418 420 413
f 418 408 420
f 420 421 413
f 415 419 408
f 414 419 415
f 419 414 411
f 420 408 419
f 421 419 411
f 421 420 419

