# https://github.com/mikedh/trimesh
v -0.99850782 0.02799077 -0.00512958
v -0.99259671 0.02875314 0.02083833
v -0.99487458 0.04393548 -0.00168932
v -0.98294537 0.04029724 -0.04152721
v -0.92822775 0.03512522 -0.00159347
v -0.96085946 0.02138458 -0.06512114
v -0.94982531 0.03516964 0.07063868
v -0.95359103 0.02686539 0.07356965
v -0.93353380 0.03362169 -0.09688899
v -0.90991639 0.01527119 0.11917235
v -0.93841776 0.01914916 -0.09673705
v -0.94639702 0.01981560 0.06943380
v -0.90419235 0.03165059 0.12590817
v -0.90965480 0.03220480 -0.12945909
v -0.86433837 0.01470763 -0.12648830
v -0.90571180 0.01522844 -0.13057628
v -0.87862756 0.03463322 -0.15026731
v -0.82042301 0.01127778 -0.03249606
v -0.87549122 0.02388926 -0.16452061
v -0.85694461 0.03875373 -0.17916618
v -0.83937218 0.02496159 -0.19087263
v -0.85849731 0.02242933 0.16870565
v -0.84951892 0.03965158 0.17841422
v -0.80883222 0.04664925 -0.21589702
v -0.82346000 0.03387257 -0.21315941
v -0.79138229 0.03313541 -0.23273332
v -0.79958303 0.03280753 0.22228446
v -0.78743884 0.04569508 -0.24162303
v -0.79677908 0.04404038 0.22927426
v -0.83929750 0.03041421 -0.11129076
v -0.85285886 0.03023717 0.10371835
v -0.85810577 0.01409521 0.10645375
v -0.78386871 0.05176129 0.22915247
v -0.75120304 0.05156695 0.24354855
v -0.74393824 0.05581569 0.23636892
v -0.63445144 0.02211223 -0.02416169
v -0.65349297 0.02659102 0.06792544
v -0.75263117 0.04015119 -0.25057252
v -0.75604290 0.03982238 0.24228476
v -0.80074380 0.02795067 -0.00721247
v -0.65764040 0.02775239 -0.09841654
v -0.76569250 0.05381160 -0.23820803
v -0.58821949 0.05884486 -0.23963089
v -0.57810471 0.04159029 -0.17151200
v -0.63002026 0.05693374 0.23971468
v -0.73885251 0.00934396 -0.06904854
v -0.68400162 0.01470280 0.11743843
v -0.63448048 0.04185390 -0.24988676
v -0.58152146 0.02786747 0.18031004
v -0.64345605 0.00543915 -0.00523316
v -0.70569882 0.03471365 -0.23415886
v -0.68520527 0.00746383 0.03687782
v -0.73857662 0.05096800 -0.25215337
v -0.62707364 0.05105398 0.24447962
v -0.64500956 0.04110097 0.24147282
v -0.70945793 0.05009426 0.21956190
v -0.64983660 0.02282840 0.00447367
v -0.67611817 0.05664977 0.23186282
v -0.58449455 0.05110757 -0.25290261
v -0.56616567 0.04228859 -0.24666932
v -0.61004969 0.00998157 -0.00298938
v -0.60334074 0.02065973 0.02142353
v -0.73608451 0.01404152 -0.12266706
v -0.55637708 0.00155696 -0.03429473
v -0.61549258 0.00202992 -0.02858615
v -0.59032000 0.00199862 -0.02177387
v -0.54030409 0.02075118 0.03060776
v -0.58843818 0.00136499 0.01841934
v -0.49624655 0.00343552 -0.06001573
v -0.69121607 0.05571106 -0.24776832
v -0.63831200 0.04637277 0.19050968
v -0.62898186 0.00799925 -0.07717962
v -0.55733464 0.03513451 0.00878611
v -0.50424486 0.06021402 0.24143991
v -0.51525140 -0.01738645 -0.00354057
v -0.54239230 0.02092569 -0.03907079
v -0.44253281 0.04220906 0.02426914
v -0.52299041 0.06012442 -0.24864735
v -0.52691707 -0.00834022 -0.02626206
v -0.49063505 0.02840613 -0.11786984
v -0.67291500 0.05056124 -0.22818305
v -0.58319614 0.02683324 -0.18505591
v -0.47053368 0.00227705 0.04085275
v -0.50747460 -0.01325938 0.01760689
v -0.50522899 0.04459434 0.23871803
v -0.50262543 0.05617086 0.22146495
v -0.50594166 0.01465639 -0.13307471
v -0.48857932 0.03080989 0.11885842
v -0.48138983 0.05302476 -0.25231731
v -0.50915577 0.05485957 -0.22531547
v -0.42661587 0.00189747 0.04394522
v -0.51528198 0.05150178 0.24438594
v -0.36084152 0.05838960 0.01504194
v -0.46968231 0.00122900 -0.04519869
v -0.50297396 0.02119451 0.04742372
v -0.39189079 0.00318613 -0.05786724
v -0.47285491 0.01428458 0.11941511
v -0.53311301 0.03153889 -0.02669191
v -0.45427228 -0.01632320 0.02561154
v -0.34429279 0.04989573 -0.18518705
v -0.40917796 0.00172376 -0.05160894
v -0.34690291 0.03126440 0.17476782
v -0.58160160 0.03357916 -0.00984316
v -0.41253870 0.01747393 -0.13941941
v -0.41767080 0.02071015 -0.05361483
v -0.35417873 0.02995452 0.10805073
v -0.43080753 0.03523943 -0.20227947
v -0.42865292 -0.01325834 -0.03898478
v -0.43645081 0.02533494 0.03917176
v -0.37943801 0.04665417 -0.03639869
v -0.34780108 0.06609657 -0.24718852
v -0.37611836 0.02262084 0.05078301
v -0.36567658 0.00679625 -0.08212586
v -0.40539554 0.04884168 -0.24953834
v -0.36214443 0.00692115 0.07447015
v -0.28640001 0.05115111 0.03946868
v -0.34339850 0.06600731 0.23929186
v -0.36274449 0.01176213 -0.10988665
v -0.32971182 0.01772916 -0.13872929
v -0.34435221 0.01281325 0.11129944
v -0.34744689 0.05695313 0.24401262
v -0.33607090 0.02314756 -0.06017303
v -0.32953797 0.03543697 -0.19194104
v -0.34271635 0.02971427 0.10945734
v -0.34155838 0.05949779 -0.25207090
v -0.41913240 0.06399738 0.23177595
v -0.34599856 -0.00541068 -0.09693248
v -0.34580857 -0.00592910 0.08870633
v -0.36761073 0.02726184 -0.10267602
v -0.34739901 0.04230195 0.08272813
v -0.34450668 0.05967775 0.21725577
v -0.35319896 0.06669772 -0.23978101
v -0.28592580 -0.03703461 -0.04591113
v -0.34928531 0.00247987 0.05353992
v -0.33409138 0.02576341 -0.08018555
v -0.35737894 0.02418308 0.06812075
v -0.34201267 0.04924185 -0.24668460
v -0.34764320 0.06076772 -0.22857021
v -0.37745363 0.06002435 -0.00678584
v -0.40880388 -0.02970692 -0.02161002
v -0.37160215 -0.03910621 0.00256725
v -0.32772738 0.00586734 -0.07904524
v -0.32699529 0.01191826 0.10408045
v -0.33796394 0.03288838 -0.11035167
v -0.34779275 0.04261895 -0.09002762
v -0.32350379 0.04940647 0.22588819
v -0.32899928 0.07287694 -0.23003001
v -0.34350794 0.05642507 0.20082473
v -0.32399562 0.06264364 0.23362236
v -0.33001882 0.05304309 0.15399564
v -0.33680224 0.06872165 0.22640366
v -0.35006650 -0.00174693 -0.05659636
v -0.32074850 0.03447557 0.10273813
v -0.33041307 0.05112902 -0.15063183
v -0.31563619 0.01017700 0.09343661
v -0.28394298 0.02387356 -0.06541845
v -0.32136458 0.03211781 0.16290215
v -0.31932912 0.03531105 -0.11386435
v -0.31673253 0.03358230 -0.15674002
v -0.31629527 0.05551593 -0.19233325
v -0.31376849 0.02250252 -0.10976407
v -0.31571531 0.01913909 0.10810853
v -0.32189412 0.05035786 -0.22778441
v -0.31574362 0.04381464 0.15928803
v -0.31925265 0.05702432 -0.23564544
v -0.32098093 0.06348580 0.20101594
v -0.28642019 0.05463526 -0.04253786
v -0.28682807 0.06880181 -0.00710004
v -0.32111437 0.01202512 -0.10998087
v -0.27902743 0.00415667 -0.07006011
v -0.28839875 0.02357080 0.07280822
v -0.28667873 0.06295958 0.02246354
v -0.28731838 -0.05209671 -0.01395095
v -0.28730766 -0.04768204 0.02275159
v -0.28778036 -0.02204782 0.04916156
v -0.27696683 0.00536749 0.06487818
v -0.28379159 0.02485819 0.05806657
v -0.26771414 0.01635279 -0.07216073
v -0.27188891 0.06523730 -0.04447604
v -0.27189768 0.07630979 0.00900607
v -0.26718202 -0.06965723 -0.00180339
v -0.27878502 -0.04006570 -0.05136557
v -0.27393769 -0.04840897 0.03475868
v -0.26511588 0.02190777 0.06207291
v -0.25104481 0.06476502 -0.03327262
v -0.27353591 0.05552178 0.04527725
v -0.24728259 -0.05775362 -0.00331549
v -0.27423707 -0.01126295 0.06233737
v -0.24684508 0.07912619 -0.00107598
v -0.23274303 0.02124014 -0.06870492
v -0.21702477 0.05524955 -0.04531671
v -0.23445768 0.05557194 0.03799245
v -0.21911992 0.03292411 0.06146188
v -0.21788724 0.03795226 -0.07018069
v -0.17307093 -0.05727260 0.00053204
v -0.25432661 -0.02059975 -0.06337617
v -0.17945724 -0.05413190 -0.02303141
v -0.19789396 0.03196429 -0.06137528
v -0.20153810 0.02387913 0.05898312
v -0.17531342 -0.03983347 -0.04811094
v -0.17783750 -0.04697058 0.03218775
v -0.15836265 0.00722306 -0.06773109
v -0.11104759 0.06703284 -0.02804874
v -0.16242286 -0.01569114 0.05688798
v -0.09938419 0.05219372 -0.05003977
v -0.16277023 0.06394910 0.02422057
v -0.22030141 0.07094833 0.00203194
v -0.10201194 -0.03906925 -0.05431030
v -0.15614684 0.07106618 -0.00917549
v -0.15328284 -0.01759723 -0.06383143
v -0.03587649 0.03645868 -0.06446295
v -0.05559298 0.04652914 0.04943920
v -0.05359861 -0.06215757 -0.00417333
v -0.03034962 -0.05867694 -0.02982989
v -0.09748036 -0.00065779 0.06166462
v -0.04385053 0.00762891 -0.07208840
v -0.06545250 -0.03592568 0.04944159
v -0.05071770 -0.01762361 -0.06760963
v -0.05467322 0.07315866 -0.01160962
v -0.03781548 -0.06874986 -0.00260655
v -0.03790717 -0.05439574 0.02922323
v -0.02702835 -0.03665235 -0.05935572
v -0.03307722 0.02304095 0.06137546
v -0.03788118 0.08075102 -0.00291314
v -0.03293903 -0.03993127 0.04523886
v -0.03314806 0.06018061 -0.04620070
v -0.01119555 -0.04646865 -0.04059557
v -0.01883324 0.01844796 0.05880077
v -0.03240801 0.06790450 0.02636124
v -0.01957290 -0.05315649 0.02469255
v -0.01199210 -0.01393589 -0.06454511
v -0.02219699 0.01301153 -0.06668802
v -0.01694790 0.04878288 0.04190379
v -0.01390575 0.06597201 0.01304240
v -0.01642252 -0.05833238 -0.00736794
v -0.01272391 0.04238544 -0.05210178
v -0.02992889 -0.01700895 0.05860780
v 0.10291327 -0.00889909 0.05811981
v -0.01272044 0.06208164 -0.02801602
v 0.12519353 0.01864383 -0.06235532
v 0.11009865 0.01914086 0.05680733
v 0.11126226 -0.00656880 -0.06447685
v 0.09658176 -0.05714784 0.00102038
v 0.10023993 -0.04986742 0.02697743
v 0.09980195 -0.03119960 0.04794102
v 0.12677368 0.06178184 0.01594923
v 0.18420334 0.05135783 -0.04021254
v 0.12392165 0.04951026 0.03836631
v 0.10136504 -0.05310515 -0.02562232
v 0.10772621 -0.03350804 -0.05319671
v 0.10401056 0.06240640 -0.01655403
v 0.12866186 -0.04395180 -0.04129381
v 0.23476278 0.03506061 0.05045603
v 0.28144874 0.05190551 0.03595386
v 0.40273347 0.06554867 -0.00116381
v 0.31422552 0.04158063 -0.05234585
v 0.30038297 0.01465095 0.05823766
v 0.37601296 0.00671873 -0.06668442
v 0.27445720 -0.05730267 0.01257878
v 0.31642439 -0.00363586 -0.06626143
v 0.26225303 -0.04474161 0.03642617
v 0.33700155 -0.04025856 -0.05008451
v 0.25065645 -0.03672426 0.04493934
v 0.27102396 -0.01330619 0.05796472
v 0.70066290 -0.03155373 0.05094191
v 0.39145868 0.02280147 -0.06364928
v 0.35950750 -0.05904672 -0.01075618
v 0.36049429 -0.02338663 -0.06152121
v 0.42704419 0.00465425 0.06016471
v 0.53492222 -0.04271457 0.04160756
v 0.43340025 0.04477614 0.04488554
v 0.45411258 0.06171503 -0.02740950
v 0.39882726 0.06248958 0.01880160
v 0.44682977 -0.01832158 0.05662342
v 0.68856360 0.06294742 0.01752786
v 0.51007719 -0.06037344 -0.00278529
v 0.69247695 0.06629531 -0.00310227
v 0.67624674 -0.05854970 -0.02421216
v 0.48042473 0.05240876 0.03717534
v 0.68890066 0.03103865 -0.06210114
v 0.48100027 -0.03210172 -0.05822330
v 0.56932729 -0.00163811 -0.06830272
v 0.58264973 -0.05638539 0.01921096
v 0.65912163 0.01638007 -0.06736966
v 0.45725557 -0.05328854 -0.03282205
v 0.71579174 -0.04272705 -0.05074388
v 0.52419819 0.02783615 0.05544879
v 0.69069233 0.06388380 -0.02227865
v 0.70617000 -0.03228909 -0.05961379
v 0.73940888 -0.01789445 0.05708399
v 0.70149345 -0.01963258 -0.06543778
v 0.72512117 -0.00014590 0.06010155
v 0.74368996 0.04899892 0.04182997
v 0.79933766 -0.06162431 -0.00301800
v 0.82034136 -0.00065352 0.05927839
v 0.76670777 0.02707018 0.05575551
v 0.61217777 0.04956821 -0.04831945
v 0.79926979 -0.05330927 -0.03658465
v 0.84152617 -0.01767940 -0.06695964
v 0.82361209 -0.04259971 0.04142480
v 0.83952822 0.04382004 -0.05505012
v 0.83778739 0.06547718 -0.02537760
v 0.83472733 -0.04837035 -0.04622915
v 0.83316627 -0.02173975 0.05582058
v 0.82984445 0.06652986 0.00922359
v 0.83595671 0.06032599 0.02739029
v 0.87214286 0.07353115 -0.00573185
v 0.87275115 -0.04020513 0.05735391
v 0.82387781 0.03473108 0.05182254
v 0.83520132 -0.05615051 0.02246137
v 0.83649956 0.00978132 -0.06912476
v 0.88188714 0.07246575 0.02374266
v 0.85633271 -0.06828686 -0.00090949
v 0.83991931 0.02305473 0.05810683
v 0.88366292 -0.07051338 0.03509175
v 0.88285144 -0.04121845 -0.06934951
v 0.88625272 -0.00448651 0.07317115
v 0.90849414 -0.09961390 0.00599889
v 0.89123703 0.04981111 0.06150879
v 0.88113344 0.06718851 -0.04365994
v 0.88147939 -0.06875551 -0.03912211
v 0.88172498 0.01386406 -0.08017406
v 0.91582093 -0.09935614 -0.03474135
v 0.92531030 -0.04879462 0.08982076
v 0.91448394 0.09886011 0.00776529
v 0.92030474 -0.09002577 0.04933676
v 0.91807201 0.00849859 0.09409638
v 0.92031814 0.07528886 0.06680210
v 0.91759583 -0.04650268 -0.09574620
v 0.95404598 -0.07895362 -0.07046180
v 0.95549157 0.00127960 -0.10309817
v 0.94674945 0.00524512 0.09799720
v 0.92536315 0.09203643 -0.05495697
v 0.94661983 -0.04435645 -0.09929089
v 0.94745529 0.05869068 0.08080180
v 0.95130235 0.09851285 -0.03445589
v 0.95385005 -0.07578413 0.06595352
v 0.92482162 0.04783097 -0.09523397
v 0.94268549 -0.10829508 0.00923577
v 0.97693620 -0.08034023 0.03530276
v 0.97132145 -0.03969490 0.07794817
v 0.97116108 0.00526602 0.08521852
v 0.96016640 0.09620847 0.02075713
v 0.95976305 -0.09938892 -0.03611607
v 0.98902418 0.06556375 -0.01056598
v 0.98604355 -0.04741675 -0.05777044
v 0.98936962 -0.01375276 0.05690131
v 0.98423517 -0.00280152 -0.07587648
v 0.96970596 0.04632270 -0.07946406
v 0.98904171 -0.07120199 0.00330735
v 0.99027918 0.01148233 -0.06268500
v 0.98938515 0.04369566 0.04475042
f 1 3 4
f 2 3 1
f 4 6 1
f 9 6 4
f 7 2 8
f 7 3 2
f 1 6 12
f 8 2 12
f 2 1 12
f 6 9 11
f 3 5 4
f 4 5 9
f 3 7 5
f 12 10 8
f 10 13 8
f 8 13 7
f 11 9 14
f 11 14 16
f 6 11 18
f 6 18 12
f 11 16 18
f 10 12 32
f 13 10 22
f 19 16 14
f 9 40 14
f 13 31 7
f 16 15 18
f 14 17 19
f 7 31 5
f 19 15 16
f 12 18 32
f 10 32 22
f 5 40 9
f 22 23 13
f 19 17 20
f 19 21 15
f 5 31 40
f 22 32 47
f 21 19 20
f 17 14 30
f 18 15 46
f 20 17 30
f 13 23 31
f 20 25 21
f 40 30 14
f 20 24 25
f 23 22 27
f 20 30 24
f 23 27 29
f 25 26 21
f 25 24 28
f 33 23 29
f 33 31 23
f 15 63 46
f 21 26 63
f 22 47 27
f 15 21 63
f 25 28 26
f 32 18 52
f 24 42 28
f 28 38 26
f 29 27 39
f 39 34 29
f 29 34 33
f 35 33 34
f 33 35 56
f 63 26 82
f 30 41 44
f 38 28 53
f 24 30 81
f 28 42 53
f 81 42 24
f 26 51 82
f 30 40 41
f 31 37 40
f 33 56 71
f 53 42 70
f 57 40 37
f 31 33 71
f 26 38 51
f 35 58 56
f 40 36 41
f 18 46 52
f 52 47 32
f 40 57 36
f 38 48 51
f 46 72 50
f 44 81 30
f 39 55 34
f 42 43 70
f 56 58 86
f 35 45 58
f 45 35 34
f 82 87 63
f 39 27 55
f 80 44 41
f 38 53 48
f 42 81 43
f 37 31 88
f 27 47 49
f 63 72 46
f 55 54 34
f 54 45 34
f 52 46 50
f 49 55 27
f 50 72 65
f 47 97 49
f 71 88 31
f 52 50 68
f 51 48 60
f 52 68 47
f 57 37 62
f 51 60 82
f 48 53 59
f 53 70 59
f 50 65 61
f 103 36 57
f 44 90 81
f 68 50 61
f 98 36 103
f 57 62 73
f 55 49 85
f 72 64 65
f 65 66 61
f 36 80 41
f 57 73 103
f 72 63 87
f 36 76 80
f 61 66 68
f 64 72 69
f 47 68 83
f 76 36 98
f 37 67 62
f 37 95 67
f 55 85 54
f 85 92 54
f 92 45 54
f 66 65 64
f 37 88 95
f 45 74 58
f 74 45 92
f 97 47 83
f 48 59 60
f 86 71 56
f 70 43 78
f 62 67 73
f 70 78 59
f 58 126 86
f 58 74 126
f 68 66 75
f 60 59 89
f 89 59 78
f 66 79 75
f 64 79 66
f 77 73 67
f 68 75 84
f 81 90 43
f 64 69 94
f 64 94 79
f 72 87 69
f 85 49 102
f 67 95 109
f 60 107 82
f 73 139 103
f 68 84 83
f 76 98 105
f 74 117 126
f 91 84 99
f 83 84 91
f 102 49 97
f 80 76 105
f 87 82 107
f 87 107 104
f 73 93 139
f 43 132 78
f 132 43 90
f 77 93 73
f 79 140 75
f 84 75 141
f 141 99 84
f 79 108 140
f 79 94 108
f 95 112 109
f 109 77 67
f 60 89 114
f 95 88 136
f 114 107 60
f 69 101 94
f 69 87 96
f 44 80 100
f 71 86 148
f 92 121 74
f 121 117 74
f 101 108 94
f 87 104 96
f 78 111 89
f 78 132 111
f 71 148 88
f 138 132 90
f 101 69 96
f 95 136 112
f 121 92 85
f 113 96 104
f 88 106 136
f 103 110 98
f 86 131 148
f 75 140 141
f 118 113 104
f 80 105 129
f 114 89 125
f 103 139 110
f 89 111 125
f 83 91 115
f 102 97 120
f 104 107 119
f 80 129 100
f 98 110 105
f 90 44 138
f 88 148 106
f 140 108 133
f 83 115 97
f 105 122 129
f 134 91 99
f 152 108 101
f 152 101 96
f 97 115 120
f 86 126 131
f 91 134 115
f 107 123 119
f 114 137 107
f 77 109 116
f 96 113 142
f 113 118 127
f 128 120 115
f 104 119 118
f 145 144 129
f 122 105 110
f 106 130 136
f 107 137 123
f 114 125 137
f 44 100 138
f 77 116 93
f 99 175 134
f 142 113 127
f 96 142 152
f 129 122 135
f 122 156 135
f 129 135 145
f 167 122 110
f 106 148 124
f 85 102 146
f 85 146 121
f 151 131 126
f 140 133 173
f 127 118 169
f 128 143 120
f 118 119 169
f 144 100 129
f 130 106 124
f 139 167 110
f 132 138 147
f 111 132 147
f 151 126 117
f 169 142 127
f 128 115 155
f 170 152 142
f 112 116 109
f 144 154 100
f 153 130 124
f 124 150 153
f 124 148 150
f 147 138 100
f 116 172 93
f 121 146 149
f 147 125 111
f 154 147 100
f 151 150 148
f 148 131 151
f 149 151 117
f 108 152 133
f 143 128 155
f 120 143 157
f 145 135 144
f 144 135 158
f 153 136 130
f 102 120 157
f 163 123 137
f 144 158 154
f 102 157 146
f 137 125 165
f 137 165 163
f 125 147 165
f 151 166 150
f 121 149 117
f 151 149 166
f 152 170 133
f 119 159 161
f 169 119 161
f 157 143 162
f 123 159 119
f 122 167 156
f 159 123 163
f 153 150 164
f 164 146 157
f 163 165 160
f 160 154 158
f 159 160 158
f 150 166 164
f 149 146 166
f 154 160 147
f 139 93 168
f 142 169 170
f 115 134 176
f 115 176 155
f 143 155 162
f 112 136 177
f 158 161 159
f 161 158 156
f 135 156 158
f 157 162 153
f 157 153 164
f 159 163 160
f 164 166 146
f 160 165 147
f 141 140 173
f 141 173 174
f 99 141 174
f 175 99 174
f 155 171 162
f 136 171 177
f 153 171 136
f 162 171 153
f 112 177 116
f 139 168 167
f 93 172 168
f 175 176 134
f 170 169 178
f 169 161 178
f 155 176 171
f 156 178 161
f 182 173 133
f 174 173 181
f 174 181 183
f 174 183 175
f 175 183 188
f 133 170 182
f 175 188 176
f 179 156 167
f 177 186 116
f 116 186 172
f 179 167 168
f 180 172 186
f 168 180 179
f 180 168 172
f 173 182 181
f 176 184 171
f 171 184 177
f 178 156 179
f 186 177 184
f 182 170 196
f 176 188 184
f 192 180 186
f 179 180 189
f 181 182 187
f 181 187 183
f 178 196 170
f 178 179 190
f 185 190 179
f 189 185 179
f 180 192 189
f 182 197 187
f 200 182 196
f 184 193 186
f 185 191 190
f 196 178 190
f 188 199 184
f 184 199 193
f 193 192 186
f 183 187 201
f 204 199 188
f 185 189 207
f 207 189 192
f 187 195 201
f 200 197 182
f 183 201 188
f 188 201 204
f 190 191 194
f 206 207 192
f 187 197 195
f 194 191 198
f 185 207 209
f 190 202 196
f 190 194 198
f 192 193 199
f 192 199 206
f 191 185 209
f 210 200 196
f 196 202 210
f 198 202 190
f 206 199 212
f 223 212 199
f 191 205 198
f 229 206 212
f 204 215 199
f 199 215 223
f 208 197 200
f 217 204 201
f 203 191 209
f 198 216 202
f 205 191 203
f 208 200 210
f 198 205 211
f 209 219 203
f 207 206 209
f 210 202 216
f 197 213 195
f 201 221 217
f 211 216 198
f 206 229 209
f 197 208 214
f 195 213 201
f 217 215 204
f 210 218 208
f 210 216 218
f 203 226 205
f 197 214 213
f 237 215 217
f 203 219 226
f 209 229 219
f 213 221 201
f 208 222 214
f 221 225 217
f 222 208 218
f 205 226 211
f 214 220 213
f 213 220 221
f 217 225 237
f 218 216 222
f 215 237 223
f 219 224 226
f 219 229 224
f 222 216 232
f 216 211 232
f 212 223 229
f 221 220 230
f 222 232 231
f 237 228 223
f 223 233 229
f 235 220 214
f 235 230 220
f 222 227 214
f 225 221 230
f 232 211 236
f 233 223 228
f 211 226 236
f 224 239 226
f 234 224 229
f 214 227 235
f 222 231 227
f 226 239 236
f 229 233 234
f 234 239 224
f 225 245 237
f 225 230 245
f 228 237 238
f 235 227 249
f 235 249 243
f 231 232 242
f 237 245 238
f 238 241 228
f 235 243 230
f 227 231 250
f 233 228 248
f 247 236 239
f 231 242 250
f 242 232 240
f 234 251 239
f 232 236 240
f 239 251 247
f 234 246 251
f 245 230 244
f 228 241 248
f 252 249 227
f 252 227 250
f 234 233 246
f 246 233 248
f 230 243 244
f 263 245 244
f 248 241 253
f 236 256 240
f 256 236 247
f 264 257 238
f 238 257 241
f 243 267 259
f 243 259 244
f 261 263 244
f 243 249 267
f 241 257 253
f 250 268 262
f 262 252 250
f 245 264 238
f 263 264 245
f 242 268 250
f 260 242 240
f 254 248 253
f 240 256 266
f 248 254 246
f 246 255 251
f 246 273 255
f 260 240 258
f 258 240 266
f 271 254 253
f 242 260 268
f 252 262 249
f 244 259 261
f 249 262 285
f 251 255 272
f 249 285 267
f 254 271 279
f 269 257 264
f 253 287 271
f 246 254 273
f 262 268 281
f 274 264 263
f 272 247 251
f 257 287 253
f 254 279 273
f 287 257 269
f 265 274 263
f 263 261 270
f 247 272 256
f 265 263 270
f 276 259 267
f 270 261 259
f 283 270 259
f 258 266 284
f 272 297 256
f 274 269 264
f 260 258 282
f 258 284 282
f 286 262 281
f 267 285 278
f 259 276 283
f 272 255 288
f 267 278 276
f 268 260 282
f 292 269 274
f 276 278 294
f 266 280 284
f 262 286 285
f 273 275 255
f 280 266 256
f 280 256 297
f 273 279 275
f 281 268 291
f 268 282 291
f 255 277 288
f 288 297 272
f 255 275 277
f 265 290 274
f 265 270 300
f 292 287 269
f 281 291 289
f 276 294 283
f 281 289 286
f 282 284 311
f 279 271 293
f 293 271 287
f 279 293 275
f 296 287 292
f 285 298 278
f 310 270 283
f 285 286 298
f 270 310 300
f 274 290 292
f 282 311 291
f 296 293 287
f 310 283 294
f 280 297 301
f 278 298 294
f 295 296 292
f 295 292 290
f 288 277 302
f 277 275 305
f 305 302 277
f 293 296 309
f 289 291 299
f 311 299 291
f 288 302 297
f 290 265 300
f 295 309 296
f 297 302 301
f 289 303 286
f 303 298 286
f 303 289 299
f 304 290 300
f 306 275 293
f 275 306 305
f 290 304 295
f 284 280 311
f 298 313 294
f 303 313 298
f 280 301 311
f 306 293 309
f 302 305 307
f 294 313 310
f 308 304 300
f 295 314 309
f 305 312 307
f 304 314 295
f 320 301 302
f 303 321 313
f 300 310 308
f 303 299 316
f 299 311 322
f 309 314 306
f 302 307 320
f 306 312 305
f 316 321 303
f 301 322 311
f 314 319 306
f 301 320 322
f 319 312 306
f 310 313 315
f 322 316 299
f 308 317 304
f 304 317 314
f 317 319 314
f 310 315 308
f 315 313 318
f 321 318 313
f 321 323 318
f 315 318 326
f 329 321 316
f 315 324 308
f 316 322 329
f 308 324 317
f 324 327 317
f 320 307 333
f 323 321 329
f 326 324 315
f 317 327 319
f 338 322 320
f 320 333 338
f 319 328 312
f 333 307 325
f 307 312 325
f 312 328 325
f 329 322 338
f 327 328 319
f 318 323 339
f 318 339 326
f 329 330 323
f 330 344 323
f 329 334 330
f 324 332 327
f 334 329 331
f 329 338 331
f 328 327 335
f 343 325 328
f 325 336 333
f 325 343 336
f 339 323 344
f 337 324 326
f 332 335 327
f 326 339 337
f 328 335 343
f 337 339 340
f 324 341 332
f 341 342 332
f 349 331 338
f 333 349 338
f 333 336 349
f 339 344 340
f 341 324 337
f 337 340 341
f 342 335 332
f 352 335 342
f 335 352 343
f 340 344 350
f 346 344 330
f 330 334 346
f 348 346 334
f 334 331 348
f 331 349 348
f 336 345 349
f 336 343 345
f 346 350 344
f 340 347 341
f 341 347 342
f 347 352 342
f 351 348 349
f 351 349 345
f 345 343 352
f 350 346 351
f 340 350 347
f 347 350 351
f 348 351 346
f 347 351 352
f 345 352 351

