# https://github.com/mikedh/trimesh
v -0.04596680 0.08253090 -0.40369325
v -0.04932374 0.08762140 -0.35336711
v -0.05431877 0.09788675 -0.34934739
v -0.05373353 0.09819978 -0.26352130
v -0.05292559 0.10616478 -0.50310151
v -0.04728632 0.08735350 -0.47044203
v -0.06083887 0.09471391 -0.24780505
v -0.05267744 0.09622950 -0.15508453
v -0.05265139 0.09643756 -0.04165142
v -0.05388239 0.09944613 0.00239739
v -0.05447616 0.09941880 -0.46615520
v -0.05377790 0.10729155 -0.04648120
v -0.05400739 0.12240867 -0.49571564
v -0.05445227 0.12170447 -0.43736406
v -0.05466079 0.10877404 -0.26092807
v -0.05731471 0.11105703 -0.23090229
v -0.05457748 0.11049413 -0.21526517
v -0.05312302 0.12410760 -0.04852535
v -0.05529132 0.12155467 -0.23990314
v -0.05382346 0.12239509 -0.16515449
v -0.04933745 0.12559493 0.00781035
v -0.04107438 -0.24014135 0.00381909
v -0.04586045 -0.23317019 0.05264306
v -0.04554718 -0.23260527 -0.00190565
v -0.04347934 -0.21779014 0.05165888
v -0.04442472 -0.15198542 -0.89006413
v -0.03741112 -0.16553282 -0.97247742
v -0.04243001 -0.13196128 -0.82029347
v -0.04534482 -0.15273268 -0.95850036
v -0.04809938 -0.02206222 -0.94709117
v -0.04518223 -0.09126681 -0.77031881
v -0.04223348 -0.10044769 -0.74567179
v -0.04328566 -0.06629006 -0.66857388
v -0.04598465 -0.06087457 -0.70362232
v -0.04452552 -0.05633292 -0.96920863
v -0.04625782 -0.01154700 -0.96795611
v -0.04645647 -0.01605487 -0.61481059
v -0.04713485 -0.04074751 -0.82903508
v -0.04654344 0.00292232 -0.83389515
v -0.04683186 -0.00446970 -0.54946561
v -0.04559828 0.00826263 -0.50424271
v -0.04666266 0.00229050 -0.91115115
v -0.04064565 0.00798187 -0.46365749
v -0.04692617 0.03528226 -0.42895433
v -0.04625503 0.02635895 -0.68691714
v -0.04248543 0.05488582 -0.69768107
v -0.04779914 0.05819028 -0.56622717
v -0.04685573 0.05788785 -0.41293998
v -0.04327890 0.06315067 -0.36374816
v -0.04242685 0.03219155 -0.38805836
v -0.04427879 0.05736216 0.22206711
v -0.04777875 0.06661057 0.31989006
v -0.03845443 0.05286951 0.48571110
v -0.04370992 0.07357997 -0.60285722
v -0.04694148 0.06681276 0.46613847
v -0.04875793 0.05566452 -0.52449462
v -0.05198423 0.07170851 -0.42435478
v -0.05039481 0.07868375 -0.23278975
v -0.04878918 0.06920312 0.22626038
v -0.04909881 0.07584522 0.44630143
v -0.04577254 0.08921951 -0.17198180
v -0.04926441 0.08253183 0.23315834
v -0.04940625 0.08256183 0.40414867
v -0.04987195 0.12758332 0.45987645
v -0.04531765 0.07902729 -0.49743807
v -0.04061818 0.09047246 -0.49791811
v -0.04485933 0.08059468 -0.44599295
v -0.04895302 0.08586692 -0.42221314
v -0.04760600 0.08696174 -0.26567163
v -0.05587690 0.09029424 -0.22900009
v -0.05367593 0.09493283 -0.21589923
v -0.04360329 0.09054356 -0.05503297
v -0.03881486 0.08434468 -0.01331415
v -0.04067993 0.08564814 0.00611540
v -0.04781033 0.07994041 0.19922291
v -0.04626971 0.09000241 0.26686851
v -0.04633986 0.09020806 0.34023007
v -0.04769183 0.08918844 0.40175393
v -0.03526662 0.08569279 -0.19202918
v -0.03979763 0.08880011 -0.12652149
v -0.04454234 0.09768052 0.09223019
v -0.04977785 0.11297084 0.42463353
v -0.03796738 0.10385423 -0.52156266
v -0.04711745 0.11036567 0.23199342
v -0.04520997 0.09749530 0.22840310
v -0.04588357 0.10313459 0.41234609
v -0.04544112 0.12282646 -0.51568904
v -0.03177078 0.11223261 0.08286378
v -0.04713274 0.11413813 0.29698808
v -0.04124803 0.10630885 0.38525754
v -0.04780845 0.11377462 0.40162051
v -0.04712240 0.12280698 0.07227485
v -0.04576828 0.13077023 0.18663337
v -0.04982003 0.12030787 0.24692686
v -0.05003925 0.12184959 0.38811274
v -0.04504048 0.12548811 0.47942826
v -0.04612268 0.13672058 -0.27194878
v -0.05007673 0.13118342 -0.10607484
v -0.04249453 0.13882290 -0.07608721
v -0.04989273 0.12927894 0.21195809
v -0.05005018 0.12953300 0.40140979
v -0.04527220 0.13663808 -0.48406774
v -0.04539987 0.13735806 0.41224834
v -0.03818693 0.13412221 -0.50148812
v -0.04632207 0.13753707 -0.45459059
v -0.04595553 0.13888478 -0.19935736
v -0.04566448 0.13883172 0.00693377
v -0.04536407 0.13312710 0.08853846
v -0.04527350 0.13769723 0.25122454
v -0.04557728 0.13775189 0.45518098
v -0.04357890 0.16824347 0.80823991
v -0.04481887 0.15324730 0.00238116
v -0.04543707 0.16845062 -0.11179286
v -0.04506938 0.16168919 0.07312330
v -0.04527654 0.17460276 -0.48690234
v -0.04579451 0.16780942 -0.44252845
v -0.04590267 0.16867282 -0.19287712
v -0.04512917 0.16878942 -0.09487043
v -0.04221162 0.16670871 0.85028967
v -0.04381163 0.17365240 -0.46463711
v -0.04614793 0.16817187 -0.33304753
v -0.04448551 0.17916706 -0.09770266
v -0.03475144 0.18435003 -0.34520700
v -0.04421237 0.17790783 -0.26304277
v -0.04173318 -0.22763805 0.06513089
v -0.03758869 -0.22235321 -0.01482497
v -0.03549075 -0.22128693 0.08310462
v -0.03069658 -0.20607021 -0.94731051
v -0.04077672 -0.18832191 -0.95810044
v -0.04342147 -0.22329623 -0.00095580
v -0.04123302 -0.16266083 -0.87695509
v -0.03305393 -0.17303363 -0.86346342
v -0.04093036 -0.21446759 0.07465224
v -0.04125959 -0.17430686 -0.01169553
v -0.04039501 -0.17334398 0.06710412
v -0.03669289 -0.12646068 -0.02164675
v -0.03574454 -0.14264959 -0.80575591
v -0.03500918 -0.09195814 -0.31623227
v -0.04269857 -0.15188363 -0.00101229
v -0.04186472 -0.12654257 0.05924617
v -0.04003618 -0.09246524 0.07476471
v -0.03522760 -0.11809245 -0.29749451
v -0.03487609 -0.09001566 -0.24758663
v -0.03506323 -0.05358330 -0.97924123
v -0.04142616 -0.03816145 0.05550482
v -0.04007149 -0.00596293 0.07406134
v -0.04134934 0.00210496 -0.00858095
v -0.03400094 -0.05253009 -0.60991952
v -0.03593623 -0.04333874 -0.26908231
v -0.04039980 -0.03806429 -0.59772601
v -0.04132764 -0.01423888 -0.98294704
v -0.03761276 -0.00817450 -0.51301170
v -0.03595750 -0.01117357 -0.02298066
v -0.03577890 0.00168824 -0.02386971
v -0.04254334 0.00771322 -0.96662217
v -0.03356618 0.01984826 -0.96311068
v -0.03800197 0.01676381 -0.41195534
v -0.03214404 0.05050729 -0.02419676
v -0.03966355 0.02612124 -0.88746223
v -0.04156085 0.03746761 -0.79461760
v -0.03405986 0.05642082 -0.03698626
v -0.03629851 0.04690917 -0.79855542
v -0.03494928 0.03074110 -0.36800110
v -0.03522478 0.04804938 0.19431099
v -0.04027500 0.05439746 0.29197419
v -0.04413944 0.05574742 0.47540511
v -0.03526832 0.05208050 0.38665604
v -0.04298537 0.05918625 0.41742653
v -0.04296614 0.05818074 0.46242345
v -0.03369392 0.06480942 -0.72215143
v -0.03434970 0.05202338 -0.17473054
v -0.03667197 0.07330069 -0.19830738
v -0.03913646 0.06858216 -0.17893296
v -0.03485049 0.05389890 -0.12940194
v -0.04456644 0.06530603 0.18701090
v -0.04381414 0.06833051 -0.57208763
v -0.03222125 0.07463067 -0.55460030
v -0.03835172 0.06845242 -0.22670901
v -0.03615020 0.07987155 -0.52217313
v -0.03574546 0.08465579 -0.21501586
v -0.03660628 0.08234011 -0.12149135
v -0.02931118 0.09189601 -0.59253990
v -0.04085649 0.08346881 -0.33096032
v -0.03372053 0.08397355 -0.26644131
v -0.03499192 0.08981065 -0.10062415
v -0.03624085 0.08368725 -0.05393113
v -0.03842730 0.09055747 0.07548441
v -0.03588362 0.08989469 0.09878527
v -0.03483246 0.09831701 -0.50848971
v -0.04035644 0.09398870 0.06485615
v -0.03485457 0.09618184 0.08647235
v -0.03994312 0.09944112 0.16109485
v -0.04078742 0.09812906 0.26099272
v -0.04144750 0.09813042 0.39563216
v -0.04083019 0.11380706 0.07268243
v -0.04133062 0.10613028 0.26159710
v -0.04061194 0.11281638 0.01075738
v -0.03044616 0.11194810 0.48796548
v -0.03779810 0.12858961 0.17096687
v -0.03166543 0.12766307 0.82592294
v -0.04104077 0.09926347 0.12543010
v -0.04276996 0.14352842 0.75230356
v -0.04052313 0.13192094 0.81150397
v -0.03801069 0.13353857 0.88727044
v -0.04165945 0.14257879 0.96595623
v -0.03983302 0.14932819 -0.13680748
v -0.03907457 0.18595985 0.13121555
v -0.03914970 0.17377851 0.16411013
v -0.03541974 0.13874224 0.19330752
v -0.03534237 0.14270909 0.23208367
v -0.03544963 0.14314602 0.34567390
v -0.03509152 0.14436262 0.37947021
v -0.03822721 0.14642426 0.43221540
v -0.03975918 0.14419668 0.48233703
v -0.03650646 0.13766426 0.49113675
v -0.03957899 0.14654425 0.82859410
v -0.04421361 0.14048797 0.85157030
v -0.04513524 0.14358218 -0.10468139
v -0.03610233 0.15282678 0.17812544
v -0.03655377 0.15308160 0.35461199
v -0.03377465 0.14540817 0.36198101
v -0.03653294 0.15861314 0.46162987
v -0.04202309 0.14567976 0.88286965
v -0.03945829 0.15315259 0.90048786
v -0.04047704 0.15415871 0.96944303
v -0.03823876 0.14795132 0.98493443
v -0.02534311 0.17714510 -0.00076571
v -0.04180605 0.15821182 0.01605246
v -0.03709116 0.16156542 0.19429585
v -0.03867039 0.17652821 0.48387455
v -0.03862932 0.16282229 0.49839198
v -0.03411391 0.17241012 0.82960336
v -0.04021311 0.16823497 0.88395670
v -0.04024094 0.16168951 0.90546590
v -0.04410288 0.17066805 -0.02643753
v -0.03529077 0.16445667 0.06916286
v -0.02970654 0.17936872 0.37355377
v -0.03664192 0.16390823 0.37367129
v -0.04022897 0.16748107 0.75101671
v -0.03753985 0.17317228 0.97506237
v -0.03735155 0.18458731 -0.39895795
v -0.03199115 0.17686984 0.24158012
v -0.04040114 0.16033438 0.38728299
v -0.03956785 0.16900470 0.92713776
v -0.03680512 0.18394264 -0.35356228
v -0.04236178 0.18434964 -0.03287344
v -0.02193451 0.18508913 0.00622520
v -0.04335285 0.18017746 0.09796744
v -0.02808154 0.18549551 0.80243314
v -0.03608589 0.17669252 0.85499980
v -0.03499820 0.18526562 -0.44783557
v -0.03577793 0.19480668 -0.44279703
v -0.03491904 0.19228099 -0.35337470
v -0.03627139 0.18574060 -0.20308070
v -0.03724015 0.18770394 -0.03148104
v -0.02919031 0.21252782 -0.34601847
v -0.03592997 0.21568046 -0.35854376
v -0.03644497 0.22431877 -0.39177089
v -0.03488425 0.22391298 -0.43483226
v -0.03269728 -0.23944337 0.05159565
v -0.02658012 -0.22845987 0.08422767
v -0.02098698 -0.22301675 0.08871801
v -0.02729505 -0.21780143 -0.84262594
v -0.03678637 -0.18582210 -0.90902186
v -0.02564503 -0.19503805 -0.90308061
v -0.03270039 -0.19961547 -0.84862535
v -0.02809255 -0.19475083 -0.97070241
v -0.03644513 -0.19072713 -0.84110106
v -0.03021617 -0.19710280 -0.82790858
v -0.02752120 -0.14101588 -0.78305676
v -0.03069035 -0.14073499 -0.26099262
v -0.02834715 -0.13746286 -0.23992611
v -0.02987677 -0.13278045 -0.29196538
v -0.03463694 -0.13172751 -0.25289172
v -0.03335371 -0.11858824 -0.74957231
v -0.02753096 -0.17859450 -0.02431552
v -0.03096256 -0.11583600 -0.31495650
v -0.03490359 -0.10251799 -0.71690616
v -0.02929899 -0.08111153 -0.32918984
v -0.02486159 -0.05551326 -0.32303232
v -0.03459519 -0.02611214 -0.21350266
v -0.02962112 -0.07415819 -0.20815982
v -0.03383608 -0.04841841 -0.30520596
v -0.02768525 -0.00755210 -0.48934083
v -0.02162115 0.01374842 -0.26833164
v -0.02810720 -0.00214874 -0.03524469
v -0.02802581 -0.00375598 -0.07342257
v -0.02158773 0.00990161 -0.39437887
v -0.03378840 0.00461309 -0.25677784
v -0.03227410 0.01001069 -0.16666103
v -0.03146752 0.00774225 -0.14673627
v -0.03336670 0.01091965 -0.04365947
v -0.03523600 -0.03296533 0.08197651
v -0.03022378 0.03957444 -0.14276827
v -0.03428670 0.03833716 0.46722404
v -0.01984728 0.02583894 0.47176705
v -0.03067644 0.05334208 -0.11063916
v -0.02752732 0.04597875 0.25920760
v -0.02777744 0.04846246 0.38625933
v -0.03325163 0.05094384 -0.24354263
v -0.03120307 0.05614215 -0.07592801
v -0.02541972 0.04891097 -0.83869744
v -0.03302827 0.07685619 -0.25715574
v -0.03707966 0.07513238 -0.05861329
v -0.02926233 0.06703707 0.48839500
v -0.03639221 0.08256826 -0.62638040
v -0.03506345 0.08427720 -0.33838866
v -0.03174884 0.08526420 -0.15552767
v -0.03324836 0.08077660 -0.09907804
v -0.03008077 0.08592561 -0.02959195
v -0.01651996 0.07223082 0.49643670
v -0.02556410 0.09398354 -0.60778940
v -0.04055807 0.09411659 0.48516769
v -0.02186204 0.12084874 -0.52884312
v -0.03395073 0.12508545 0.75231696
v -0.03558062 0.13037960 0.97795103
v -0.02232646 0.12923419 -0.52230986
v -0.01856740 0.12232545 0.98833910
v -0.03097564 0.13782045 0.17709698
v -0.03008358 0.13908128 0.74069927
v -0.01883881 0.13660626 -0.51416974
v -0.03383966 0.14523550 0.19349411
v -0.03580922 0.14451117 0.40913960
v -0.03412238 0.14475648 0.46453774
v -0.03096742 0.14513302 0.63733090
v -0.03253520 0.14952513 0.51455897
v -0.03244738 0.15310163 0.64714002
v -0.03324413 0.14946429 0.73938389
v -0.02794502 0.16110427 0.03002436
v -0.02396890 0.16652248 0.08223182
v -0.03223166 0.16159123 0.51570642
v -0.03175314 0.16066791 0.73537297
v -0.02884699 0.17083391 0.51507031
v -0.02781273 0.16958029 0.69498311
v -0.03022504 0.18001283 0.17815533
v -0.03535813 0.17585666 0.42458006
v -0.02786989 0.16915545 0.74034339
v -0.03517683 0.18355866 -0.47888029
v -0.02157734 0.18552569 0.17416597
v -0.02148615 0.18670600 0.37483418
v -0.03224778 0.18140913 0.38730227
v -0.02496646 0.18555179 0.88120256
v -0.02724470 0.18506092 -0.45798545
v -0.02763233 0.18553318 -0.34130578
v -0.02620392 0.18721377 -0.18039464
v -0.01657656 0.18850140 0.00052485
v -0.02189006 0.18666155 0.07814630
v -0.03208706 0.18645110 0.08854440
v -0.01140638 0.19543936 0.38999084
v -0.02888780 0.21393845 -0.45365806
v -0.02747172 0.23419859 -0.43139092
v -0.02908791 0.23561255 -0.39985432
v -0.00036806 -0.24192109 -0.01022291
v -0.01684227 -0.21900739 -0.83083484
v -0.01563440 -0.17844892 -0.82849711
v -0.02527233 -0.16939704 -0.83645568
v -0.02382048 -0.18012364 0.08775551
v -0.01818006 -0.13714339 -0.76344746
v -0.01795950 -0.13484407 -0.30315628
v -0.01866923 -0.08351423 -0.65359538
v -0.03421172 -0.08149843 -0.66921601
v -0.02331775 -0.11236470 -0.32697383
v -0.01696856 -0.13751094 -0.03351013
v -0.03037880 -0.02839748 -0.19747053
v -0.02377522 -0.00812993 -0.16848248
v -0.02084571 -0.03089575 -0.54578156
v -0.02448767 -0.01615032 -0.99541118
v -0.01124792 -0.01052870 -0.47842601
v -0.02049621 -0.01366614 -0.11289982
v -0.01787666 -0.01421019 -0.03525117
v -0.02674298 -0.00387527 -0.13262763
v -0.01905055 0.00369815 -0.10241653
v -0.02148243 0.00750064 -0.06189599
v -0.03147883 0.00764057 -0.98730024
v -0.01714613 0.02307633 -0.13757658
v -0.02032467 0.02411505 -0.05539275
v -0.02461477 -0.05809241 0.08698609
v -0.02468541 0.04173731 -0.25894125
v -0.02300577 0.04430254 -0.05687646
v -0.03352974 0.03826242 0.48442467
v -0.01844769 0.03072811 -0.94809959
v -0.01253373 0.04288183 0.17788627
v -0.00455186 0.03779648 0.19738865
v -0.03157477 0.05114275 0.46006802
v -0.02533868 0.04867339 0.48641274
v -0.03367776 0.05725264 0.17437742
v -0.01328537 0.05303001 -0.84272279
v -0.02240639 0.05426773 -0.34164768
v -0.01627603 0.06689330 -0.33424953
v -0.02470527 0.07583664 -0.70375292
v -0.02161997 0.07008777 -0.30679490
v -0.02078240 0.06619233 -0.27496834
v -0.02784231 0.08388830 0.08497974
v -0.03544835 0.09280837 0.16807424
v -0.01837785 0.08956599 -0.52058744
v -0.03200053 0.09201174 0.16283970
v -0.00644509 0.09884152 -0.61251577
v -0.02456763 0.11461369 0.80934312
v -0.01770468 0.11514195 0.75055330
v -0.01337474 0.11453065 0.97584708
v -0.02566374 0.12116117 0.89785533
v -0.02198143 0.12341303 0.49012846
v -0.01820864 0.12915546 0.51354978
v -0.02198477 0.13239953 0.62593323
v -0.03588489 0.17564196 -0.50039369
v -0.00481209 0.17157839 -0.51636467
v -0.02044171 0.17822959 0.61764738
v -0.00664747 0.18724628 -0.49718578
v -0.01819125 0.17696477 0.03348308
v -0.02940215 0.17907706 0.46125967
v -0.02536575 0.17716575 0.51063727
v -0.01345245 0.19159048 0.85153549
v -0.02219416 0.18669652 0.97450079
v -0.01285393 0.18899137 -0.35524089
v -0.02044254 0.19391818 -0.35026542
v -0.02059820 0.18731710 -0.11934119
v -0.02606488 0.18923875 0.16055565
v -0.02039574 0.18856777 0.19252649
v -0.02294500 0.18976089 0.42690886
v -0.02714656 0.18548732 0.75101468
v -0.02183960 0.19431097 0.79646215
v -0.02172657 0.19940323 0.74854968
v -0.01739185 0.19347466 -0.44424870
v -0.02479800 0.22103818 0.78221960
v -0.02106858 0.21802488 -0.36292070
v -0.02718638 0.22663922 -0.37288591
v -0.02270090 0.22574088 0.75312997
v -0.02042129 0.22996664 -0.40394504
v -0.00692982 -0.24145338 0.06087619
v -0.02084862 -0.22820809 -0.02931119
v -0.02366518 -0.23573543 -0.01816013
v -0.00366540 -0.21672416 -0.94839144
v -0.00036547 -0.21375367 -0.92089614
v 0.00378118 -0.19598632 -0.88645827
v -0.00224409 -0.20344585 -0.85051289
v -0.02452195 -0.17987588 -0.97760406
v -0.02187065 -0.18086562 -0.85303909
v -0.00815924 -0.16843666 -0.81853466
v -0.02150751 -0.08074874 -0.98194393
v -0.00726588 -0.15238119 -0.24742796
v -0.00723672 -0.13241794 -0.74787542
v -0.01451657 -0.13768196 -0.22817631
v -0.02146077 -0.10398333 -0.22965854
v -0.01055513 -0.07902313 -0.19669795
v -0.00432646 -0.02204621 -0.17335474
v -0.00514232 -0.01683272 -0.11391940
v -0.00239166 -0.01623961 -0.04656801
v -0.01473458 -0.00499325 -0.28825220
v -0.00876787 0.01831937 -0.27236288
v -0.01976095 0.00559634 -0.12919792
v -0.01079128 0.02359801 -0.97915269
v -0.00358303 0.03618745 -0.34852571
v -0.01709546 0.04593012 -0.11290867
v -0.00942019 0.04150658 0.25337942
v -0.01455285 0.04711990 -0.09697963
v -0.00472594 0.06442203 -0.28870493
v -0.01516555 0.08227311 0.08796766
v -0.00852356 0.09069630 -0.65769658
v -0.02513453 0.08956643 0.09140276
v -0.00534407 0.09845590 -0.52167955
v -0.00814426 0.09774048 0.50145487
v -0.00709567 0.10991838 0.81029980
v -0.02579698 0.11648503 0.85827815
v -0.00400655 0.11369638 0.88939890
v -0.00870893 0.13589881 -0.52065248
v -0.00698046 0.12208318 0.50086726
v -0.01167682 0.12642895 0.63373674
v -0.01741861 0.12751085 0.73467802
v -0.00617408 0.12142330 0.74329279
v -0.00715729 0.13354810 0.99030854
v -0.02731781 0.16885527 0.98950468
v 0.01732128 0.17828670 0.98877396
v -0.01178988 0.18271528 0.59931907
v -0.01201328 0.18045199 0.73444042
v -0.01881049 0.19026167 -0.39249926
v -0.01062066 0.18653561 -0.03916253
v -0.01024115 0.19135662 0.37335635
v -0.01033827 0.19136262 0.46183806
v -0.00842443 0.19184141 0.80435895
v -0.00511652 0.18810487 0.83155984
v -0.00748412 0.19059258 0.90248765
v -0.01695487 0.19479000 -0.42158021
v -0.01151032 0.20063265 -0.42753787
v -0.01752273 0.22789755 -0.42230268
v -0.01475628 0.22004008 -0.43719813
v -0.01746407 0.21643892 0.79320789
v -0.01015840 0.22722724 0.76913741
v -0.00659757 -0.22313502 -0.03209966
v -0.00393650 -0.20089680 -0.83320873
v -0.01015178 -0.19046495 -0.97878207
v -0.00486675 -0.18921923 -0.86587679
v -0.00284553 -0.14919590 -0.27568943
v 0.00639364 -0.13665196 -0.22703974
v 0.00558600 -0.13340902 -0.30904275
v -0.00805484 -0.08523413 -0.33984258
v -0.00003169 -0.07852808 -0.63569477
v -0.00418778 -0.03885187 -0.55709105
v -0.02198230 -0.04757722 -0.98594866
v -0.00529404 -0.04517021 -0.32475337
v -0.01747698 -0.05114377 -0.03238448
v 0.02134094 -0.01753152 -0.99577841
v -0.00343681 0.01021980 -0.99527585
v -0.00189171 0.00486899 -0.40488396
v 0.01209652 0.00488569 -0.12327549
v -0.01171442 0.01185633 -0.11032993
v -0.00622098 -0.00185523 0.08838256
v -0.00810209 0.05055931 -0.06900335
v -0.00915017 0.04423976 0.37842286
v -0.00774174 0.05318015 -0.26925585
v -0.00269878 0.06241219 0.49450632
v -0.02024842 0.06507914 0.16649243
v -0.00234622 0.07272246 -0.74562839
v -0.01364410 0.07911254 -0.54574212
v 0.01755846 0.09101477 -0.51794516
v 0.02515498 0.08908283 0.09058027
v -0.00172652 0.11077883 0.75223109
v -0.00400602 0.12458731 0.73231539
v -0.00323841 0.15307582 0.98629524
v -0.00393052 0.18411909 0.60311625
v -0.00395917 0.18196641 0.73421429
v -0.00352747 0.19310207 -0.44215532
v 0.00368298 0.18807110 -0.35686154
v -0.00514312 0.18454600 -0.33932477
v -0.01196776 0.18876379 0.08860128
v 0.00061158 0.18914479 0.17527943
v -0.01212072 0.19171517 0.19277460
v -0.00001147 0.19242083 0.34594551
v -0.00947948 0.18447982 0.51723050
v -0.00179213 0.20075708 -0.42904113
v -0.00792140 0.19465864 0.43081417
v -0.01118905 0.19549368 0.48897610
v -0.01199269 0.18970034 0.74101445
v -0.00097254 0.22493409 -0.42308283
v -0.00236771 0.20467690 0.79771175
v -0.00399716 0.20859429 0.74617567
v -0.00332120 0.22231434 -0.43704401
v -0.00558860 0.23007605 -0.42862497
v 0.02893360 -0.23147563 0.07258390
v 0.01029082 -0.22221362 -0.83690403
v 0.00719742 -0.21350621 -0.82708545
v 0.01131033 -0.20249334 -0.03122318
v -0.01039371 -0.20829384 -0.96785686
v -0.00102961 -0.17831501 -0.82401682
v 0.00671418 -0.16926785 -0.82181240
v 0.00979593 -0.13923400 -0.76456214
v 0.00550001 -0.10806787 -0.22709395
v -0.01503780 -0.09081174 -0.21418252
v 0.00603095 -0.07500807 -0.33713418
v 0.00268686 -0.07609625 -0.19592523
v 0.00037698 -0.10544141 -0.03467927
v -0.00645745 -0.04984706 -0.19486592
v -0.02109928 -0.00502861 -0.99725052
v -0.00993974 -0.01426301 -0.16087214
v 0.01195051 0.00834953 -0.27571137
v 0.00145095 0.01066370 -0.09995642
v -0.00967993 0.01393771 -0.37591419
v -0.00095043 0.01237398 -0.12052855
v 0.00408040 0.02652911 0.48552457
v 0.00470178 0.03728774 -0.05230655
v -0.01745223 0.03480458 0.46280874
v -0.01100618 0.04178369 -0.12916071
v -0.00740778 0.03459130 -0.10164441
v -0.00441799 0.04673637 0.46272097
v -0.00346119 0.08272223 0.16479204
v 0.00360593 0.09660817 -0.58935241
v 0.01932067 0.07847672 -0.54062907
v -0.00296022 0.11319750 0.50125887
v 0.01368966 0.11286481 0.81031272
v -0.00691901 0.11395863 0.82239777
v 0.01186490 0.12952861 0.51589934
v 0.00176326 0.12564816 0.51700117
v 0.00845144 0.12670896 0.73495494
v 0.00397738 0.18401577 0.51601785
v 0.00371611 0.18083263 0.73423936
v 0.00187493 0.18693737 -0.44810945
v 0.00496130 0.19135688 -0.43344809
v 0.00097837 0.19122530 -0.42161924
v 0.00223272 0.18694543 0.05127175
v 0.00875693 0.18935449 0.37341051
v 0.00088098 0.18714945 0.74039924
v 0.00867517 0.18995853 0.85413747
v 0.01398066 0.20220062 0.74591507
v 0.00435362 0.21798298 0.78919933
v -0.00432852 0.21690353 0.77461543
v 0.01013597 -0.21972150 -0.84823354
v 0.01628024 -0.21472776 0.08823733
v 0.01518277 -0.18501541 -0.86832043
v 0.00839934 -0.18656804 -0.85565656
v 0.01831293 -0.10457195 0.08729268
v 0.00656720 -0.10903668 -0.33246352
v 0.00709708 -0.09807479 -0.67897892
v 0.01142427 -0.08647329 -0.21080156
v 0.01692733 -0.03760387 -0.56285120
v 0.01994339 -0.06140898 -0.32688102
v 0.01065865 -0.04276357 -0.03359041
v 0.02404560 -0.04637278 -0.98486332
v 0.00920278 -0.05109877 -0.19772223
v 0.00005781 -0.02116017 -0.04021712
v 0.01756263 -0.00180454 0.08733415
v 0.00845478 -0.01590945 -0.50028789
v 0.01373638 -0.01361725 -0.11613474
v 0.02342524 0.02648183 -0.36559126
v 0.00333669 0.02362407 0.46792191
v 0.00452602 0.03272441 -0.94926310
v 0.01405275 0.04342574 -0.11614402
v 0.00871359 0.03638440 -0.09969851
v 0.02433148 0.03682093 0.46504449
v 0.00723736 0.03310902 -0.13918592
v 0.00840124 0.04342614 -0.89205878
v -0.00003837 0.03749925 -0.12499079
v -0.00367259 0.05021082 0.47306674
v 0.00970558 0.05944599 -0.27305481
v 0.00388279 0.04846605 -0.08051640
v 0.01167149 0.06791959 -0.33372594
v 0.02147810 0.07984541 -0.56418242
v 0.02725651 0.09087265 0.11806140
v 0.01063843 0.10575628 -0.53082631
v 0.00948707 0.12079856 0.49169523
v 0.00629871 0.11198158 0.84655930
v 0.02469487 0.12324664 0.75094532
v 0.01231085 0.12879023 0.73850816
v 0.01352965 0.17989253 0.51450409
v 0.01785500 0.18613939 -0.45835049
v 0.00975251 0.19262360 -0.39301418
v 0.01023895 0.19219677 -0.35214872
v 0.02613663 0.18818081 -0.05610927
v 0.00852166 0.19091011 0.20280331
v 0.01644371 0.18876388 0.39531107
v 0.01456055 0.19177130 0.42936397
v 0.00944107 0.19339733 0.48704576
v 0.02218886 0.18202489 0.81481412
v 0.02038525 0.18477722 0.87156330
v 0.00521536 0.19099852 0.97027248
v -0.00335248 0.18809706 0.98479029
v 0.01044861 0.19877756 -0.43257177
v 0.01171195 0.19946017 -0.38766982
v 0.01189529 0.20795152 -0.35076343
v 0.01068311 0.19089944 0.80191861
v 0.01314056 0.22204032 -0.37653304
v 0.01136079 0.21618737 -0.35901894
v 0.03269884 -0.23841376 0.04218220
v 0.01177647 -0.22993485 -0.02831808
v 0.02356269 -0.23206312 -0.01499678
v 0.01677156 -0.22744128 0.08565737
v 0.01799772 -0.20986292 -0.95701686
v 0.02083153 -0.20275959 -0.85075903
v 0.02560758 -0.20084377 -0.92477968
v 0.01978032 -0.20488977 -0.82782944
v 0.02517477 -0.18290777 -0.97612140
v 0.02409265 -0.19592585 -0.02134228
v 0.02021716 -0.18833111 -0.82900429
v 0.02001150 -0.15361068 -0.02833851
v 0.02213065 -0.17637652 -0.85198216
v 0.01913617 -0.17598445 -0.83852619
v 0.01954236 -0.16813706 -0.83209477
v 0.01036697 -0.07658843 -0.98275347
v 0.02133195 -0.14592797 -0.25211991
v 0.02073286 -0.13071004 -0.75900640
v 0.02049049 -0.12493284 -0.30987765
v 0.01953962 -0.09538009 -0.33185656
v 0.01974751 -0.08175753 -0.65574984
v 0.01158614 -0.11896885 -0.03364616
v 0.02557204 -0.07068790 -0.98090467
v 0.01734123 -0.07261832 -0.20334134
v 0.01801200 -0.04838006 -0.31969204
v 0.01495844 -0.02865051 -0.18765919
v 0.02586546 -0.01689569 -0.52100757
v 0.01183605 -0.01081043 -0.16438101
v 0.02149715 -0.00369917 -0.12161463
v 0.01050639 0.00950971 -0.11100519
v 0.01418334 0.00422050 -0.08920562
v 0.01855967 0.00527585 -0.06708736
v 0.01471341 0.00930653 -0.39488413
v 0.02006959 0.01267888 -0.05718704
v 0.01633717 0.01988361 -0.98179902
v 0.02698778 0.03578935 0.47558220
v 0.01382687 0.03447795 -0.26349600
v 0.02129617 0.02054052 -0.14524015
v 0.02480037 0.03180210 -0.91771406
v 0.00017386 0.03837983 0.48679338
v 0.02930017 0.05247445 -0.35053585
v 0.01983238 0.04815511 -0.13676919
v 0.01899812 0.05331635 -0.09597026
v 0.01698319 0.04461512 0.25902224
v 0.01740661 0.06414207 0.48799069
v 0.01711063 0.05592813 -0.81403953
v 0.01349907 0.06028457 -0.33905021
v 0.01481059 0.06731429 -0.27964452
v 0.01625367 0.05699532 0.16944390
v 0.01476385 0.07320732 -0.72953643
v 0.02327758 0.08275307 0.08491000
v 0.00981740 0.07524690 0.49628043
v 0.01239227 0.09475486 -0.62782159
v 0.02376919 0.09117858 0.16628360
v 0.02790879 0.09794590 -0.50909176
v 0.01592410 0.11994998 0.82178088
v 0.01187492 0.11714449 0.89074070
v 0.01102938 0.11594798 0.97656449
v 0.02458261 0.13905300 0.74242677
v 0.00974114 0.13679505 -0.51849400
v 0.01566909 0.12338088 -0.52860225
v 0.02011807 0.13635104 0.73413365
v 0.00523043 0.16075820 -0.52280159
v 0.01620666 0.17103961 -0.50738044
v 0.01242377 0.17689187 0.73464982
v 0.01731121 0.18668978 0.19083261
v 0.01939453 0.18263674 0.37331630
v 0.01282744 0.18774351 0.45718023
v 0.02259196 0.17744762 0.50255897
v 0.02955603 0.17533951 0.75236797
v 0.02158718 0.18266719 0.84094175
v 0.02690360 0.18763596 0.06043797
v 0.01448581 0.19679029 0.78967490
v 0.01411713 0.21425672 0.79244181
v 0.01860613 0.21592937 0.77547380
v 0.01780210 0.20834482 -0.45642083
v 0.01239385 0.22668230 -0.39834896
v 0.01900569 0.22416066 -0.35971100
v 0.00836255 0.22707184 0.75019188
v 0.01385718 0.22804248 0.77574036
v 0.01707780 0.23229727 -0.43594189
v 0.01950384 0.23114713 -0.38917065
v 0.02770258 -0.22245317 0.08277778
v 0.03044267 -0.20310935 -0.84207046
v 0.03694284 -0.18360607 -0.96392265
v 0.03044947 -0.17826479 -0.88121148
v 0.02304905 -0.13659360 -0.24112842
v 0.02929149 -0.11163455 -0.73565587
v 0.02830814 -0.09295568 -0.24884488
v 0.02288464 -0.09738243 -0.23665785
v 0.02821264 -0.06033509 -0.62369080
v 0.02631926 -0.05957188 -0.31499724
v 0.02775156 -0.05386212 -0.02562445
v 0.02585094 -0.04588000 -0.21260564
v 0.02534612 0.00419588 -0.26135601
v 0.02836860 -0.04253303 -0.21917753
v 0.02355873 0.00061990 -0.99492994
v 0.01641119 -0.00532215 -0.46822899
v 0.02641374 -0.00075039 -0.17889679
v 0.02588256 0.00813001 -0.15552184
v 0.02020340 -0.00381692 -0.15032440
v 0.02180818 -0.00510619 -0.05622908
v 0.02676451 0.00312592 -0.02508380
v 0.03442747 0.00883780 -0.45391676
v 0.02046505 0.00748657 -0.13675405
v 0.02580086 0.00596711 -0.05240733
v 0.02687754 0.03570079 -0.24487239
v 0.02602272 0.04788508 -0.15303993
v 0.02806532 0.04574980 0.48611678
v 0.02810681 0.04546090 -0.82994157
v 0.01696534 0.04681537 0.37649243
v 0.02447479 0.05111403 0.45929648
v 0.02776922 0.07286355 -0.25794171
v 0.02402924 0.06055437 -0.13257081
v 0.02901815 0.05868395 -0.09022224
v 0.03253163 0.05193182 -0.05122434
v 0.02819586 0.05110267 0.30525402
v 0.02718641 0.07466678 -0.34155250
v 0.04555605 0.07135609 -0.11675435
v 0.02723631 0.08157861 -0.33380931
v 0.02888425 0.08279359 -0.26539374
v 0.02619089 0.09029791 -0.59206823
v 0.03615649 0.07474485 0.48314680
v 0.02346563 0.12354723 0.97087706
v 0.02924862 0.14063634 0.49339018
v 0.02443144 0.14596614 0.51484392
v 0.02009543 0.13725105 0.56176031
v 0.01800198 0.12784473 0.98739623
v 0.02430511 0.13601870 0.17801809
v 0.02741698 0.14328539 0.20417640
v 0.02627647 0.14411992 0.34229549
v 0.02610305 0.14414242 0.37406172
v 0.03834638 0.13732627 0.43138592
v 0.02440958 0.14528116 0.73252861
v 0.02945025 0.15293155 0.21323856
v 0.02633643 0.15623800 0.51571939
v 0.02558557 0.15311645 0.73259904
v 0.02469838 0.16096017 0.63993775
v 0.02205962 0.16770743 0.73511993
v 0.02115563 0.17209867 0.51589902
v 0.02106877 0.16969725 0.63420898
v 0.02488333 0.16711248 0.74300244
v 0.02079148 0.18210166 0.17701789
v 0.02501822 0.17690681 0.23203131
v 0.03069557 0.16782180 0.82110525
v 0.02592924 0.18557481 -0.34278318
v 0.02829044 0.17982257 0.48407407
v 0.03265275 0.17172207 0.80942910
v 0.02813565 0.19236631 -0.36200104
v 0.02026105 0.18848817 -0.34573676
v 0.02171886 0.20837078 -0.34570400
v 0.02808310 0.22426268 -0.43777688
v 0.02847174 0.22429270 -0.39020665
v 0.02805170 0.21494183 -0.35722487
v 0.02247761 0.23569643 -0.41039784
v 0.03231954 -0.23993634 0.00188683
v 0.03658211 -0.22936377 -0.00695294
v 0.03414528 -0.22920382 0.06340649
v 0.03604422 -0.19304480 -0.95066069
v 0.03057673 -0.18778131 -0.83974862
v 0.03393316 -0.14958163 -0.01244113
v 0.03255550 -0.21133646 0.07468174
v 0.02860513 -0.15245082 -0.81693077
v 0.03232258 -0.17295489 0.06739473
v 0.03540596 -0.11199887 -0.75620395
v 0.02824955 -0.13303291 -0.26466919
v 0.02920942 -0.12644926 -0.02197077
v 0.03342684 -0.07336638 -0.01722978
v 0.03298193 -0.08588602 -0.68818670
v 0.02850179 -0.10552799 -0.31368522
v 0.02783748 -0.07208087 -0.22005540
v 0.02951715 -0.05569668 -0.24962630
v 0.02778766 -0.11790357 0.08285996
v 0.03721117 -0.01642412 -0.98440535
v 0.03257144 -0.06015460 0.07474219
v 0.02857468 -0.00825178 -0.25696577
v 0.03261257 -0.00452638 -0.01891594
v 0.03571631 -0.00434706 -0.00992605
v 0.03282893 -0.01411258 0.06612517
v 0.02820123 0.04443172 -0.20410387
v 0.04101457 0.00918391 -0.03168946
v 0.03576071 0.00868923 -0.01762322
v 0.02992488 0.01897787 -0.96950097
v 0.03975029 0.01346446 -0.04739591
v 0.03609329 0.05124841 -0.74485767
v 0.02136457 0.04492024 0.18672917
v 0.02719021 0.04699216 0.20276115
v 0.02876529 0.06389250 -0.73144927
v 0.03488321 0.06009851 -0.04581513
v 0.03211272 0.06213746 -0.02774353
v 0.03194749 0.03839698 0.07426476
v 0.03171011 0.06230514 0.17734992
v 0.03661721 0.05715394 0.20231712
v 0.03500798 0.06893672 -0.09154953
v 0.03485237 0.07507023 -0.24659955
v 0.03515196 0.07391462 -0.22120694
v 0.02877201 0.06604374 -0.22920836
v 0.02833514 0.06229628 -0.17907605
v 0.03275826 0.08457198 -0.02872664
v 0.02599612 0.08088180 -0.66353908
v 0.03459639 0.08267304 -0.34075359
v 0.03854804 0.09318919 0.09268985
v 0.03792308 0.06677677 0.18504837
v 0.03255577 0.09853328 0.17018913
v 0.03421870 0.09810457 0.24805981
v 0.03372384 0.09796445 0.31213600
v 0.03464588 0.09833053 0.40240297
v 0.03422787 0.11281564 0.06644478
v 0.02906819 0.10977448 0.08114018
v 0.03568825 0.09832448 0.12259403
v 0.03437010 0.10596591 0.25326326
v 0.03424349 0.10673846 0.38965119
v 0.03402097 0.11334127 0.01090211
v 0.03405996 0.13574998 0.16093627
v 0.04173006 0.11553004 0.26864480
v 0.02430479 0.09948439 0.48959096
v 0.03299436 0.13155241 0.48461240
v 0.04142193 0.12470182 -0.51343294
v 0.02812490 0.12422756 0.85669619
v 0.02828171 0.12941628 0.88893912
v 0.02925588 0.13192264 0.17567982
v 0.04106427 0.12904869 0.46937490
v 0.03207298 0.13570277 0.97705536
v 0.03559845 0.16747868 -0.49798213
v 0.03790179 0.13695753 0.22578038
v 0.02823104 0.14503758 0.39902205
v 0.02940488 0.14528310 0.42936049
v 0.03213223 0.14229666 0.48249476
v 0.03709550 0.15081897 0.80983822
v 0.03153763 0.12882563 0.81149816
v 0.03344656 0.14149169 0.82126949
v 0.03088280 0.13629950 0.83693078
v 0.03530764 0.14289936 0.89085198
v 0.03512954 0.14536418 0.94811991
v 0.03027512 0.15933988 0.17730448
v 0.03128170 0.15303001 0.38475622
v 0.02738309 0.14508224 0.46434994
v 0.03346720 0.15473045 0.93054395
v 0.02686100 0.15529154 0.98946212
v 0.03434413 0.15349348 0.02616009
v 0.02997640 0.17125287 0.19877290
v 0.02965630 0.16323594 0.23873905
v 0.03000413 0.15705336 0.36258699
v 0.03035040 0.16362679 0.41223847
v 0.02975768 0.16563891 0.46246537
v 0.03493544 0.15881652 0.48644571
v 0.03648536 0.14672449 0.75133560
v 0.03354916 0.16715966 0.84329835
v 0.03548081 0.17642519 0.10482526
v 0.02720308 0.17175782 0.36931257
v 0.03426797 0.16782112 0.88019522
v 0.02984717 0.17495620 0.96756022
v 0.03527077 0.15308304 0.97834712
v 0.02554689 0.18465836 -0.49201778
v 0.03371928 0.17401008 0.16152976
v 0.03094497 0.17209865 0.38804080
v 0.03348435 0.16825163 0.42903139
v 0.03368449 0.17957236 -0.44939206
v 0.02833340 0.18583748 -0.44368400
v 0.03106940 0.18466070 -0.40061003
v 0.03212842 0.18216684 -0.35083189
v 0.02846521 0.18678618 -0.20822900
v 0.03525587 0.18448182 -0.15635654
v 0.03203931 0.18812703 0.09498551
v 0.02542095 0.18858967 0.15968627
v 0.03892460 -0.23209977 0.03925106
v 0.03636434 -0.22028873 0.05197279
v 0.03975040 -0.15490581 -0.88490790
v 0.03634880 -0.16729843 -0.96884355
v 0.03547909 -0.10948608 0.05692255
v 0.03618921 -0.15995179 0.00619666
v 0.03742070 -0.14309941 -0.83560720
v 0.03661612 -0.05039224 -0.97546562
v 0.04083440 -0.15346062 -0.95279589
v 0.03632179 -0.06821574 0.00871313
v 0.04107451 -0.10933800 -0.84200002
v 0.04152515 -0.08094804 -0.73757470
v 0.04148044 -0.03069829 -0.97117750
v 0.04031462 -0.06311184 -0.67967179
v 0.03615979 -0.05384753 -0.63168595
v 0.04266384 -0.08742774 -0.95864980
v 0.03581035 -0.03248381 -0.58201935
v 0.04262969 -0.03238643 -0.65635455
v 0.04134954 -0.01451615 -0.57868671
v 0.03737071 -0.00793981 -0.52851316
v 0.04179572 0.01124931 -0.88275466
v 0.03853441 0.03511715 -0.80942720
v 0.04063944 0.00270524 -0.97015142
v 0.03670004 0.02281571 -0.89476333
v 0.04243709 0.03336174 -0.68365131
v 0.04438987 0.02987792 -0.54588348
v 0.04074233 0.01773891 -0.47711470
v 0.03156313 0.02359812 -0.38367263
v 0.04112941 0.03375693 -0.41797589
v 0.04054443 0.03586169 -0.74947980
v 0.04237425 0.06173300 -0.58713767
v 0.04241772 0.03999201 -0.45613040
v 0.03724281 0.04352238 -0.37019543
v 0.04126076 0.04916155 -0.04272243
v 0.03657249 0.06769211 -0.66151149
v 0.04169588 0.05688535 -0.41671223
v 0.03913516 0.05287012 -0.02246638
v 0.03617082 0.04906083 -0.01105944
v 0.03649778 0.05799117 0.27982771
v 0.03587919 0.05925716 0.45696356
v 0.03872800 0.06775086 -0.53977431
v 0.03564866 0.08498714 0.01179047
v 0.03556851 0.04241790 0.04928858
v 0.04098212 0.06646579 0.24345726
v 0.04038278 0.06691675 0.39037612
v 0.04155575 0.06987148 0.45908228
v 0.03433301 0.08336534 -0.60230170
v 0.04219999 0.08761858 -0.47157045
v 0.04125666 0.07456077 -0.44404748
v 0.04209400 0.08268051 -0.41081737
v 0.04158254 0.08439058 -0.17923438
v 0.04831086 0.07792789 -0.09785460
v 0.03811802 0.08353207 -0.01708823
v 0.03927701 0.08922166 -0.48873192
v 0.04597135 0.07993366 -0.42088423
v 0.03885638 0.08063317 -0.35714549
v 0.04890892 0.07390512 -0.24594361
v 0.03823188 0.08617192 -0.18514363
v 0.03964712 0.07361027 -0.16514441
v 0.03653093 0.07031696 -0.13669038
v 0.04268797 0.07983629 0.22879139
v 0.04253477 0.08106517 0.35580635
v 0.04533006 0.08816453 -0.34798157
v 0.04353442 0.08546523 -0.21937555
v 0.04335605 0.09069430 -0.15862288
v 0.03603072 0.08979267 -0.12843825
v 0.03939890 0.08906820 -0.09000985
v 0.03560443 0.08299154 -0.08140443
v 0.04247930 0.09007523 -0.03973277
v 0.04490484 0.09635226 0.00454737
v 0.04134679 0.09687304 0.21734107
v 0.03975737 0.08998820 0.24342339
v 0.03965049 0.09032109 0.37575741
v 0.04269649 0.08306138 0.39980026
v 0.04531128 0.09308478 -0.10631207
v 0.04218233 0.10078290 0.41890455
v 0.04193497 0.11261059 0.23083108
v 0.04225647 0.11315435 0.41437332
v 0.03939125 0.05818726 0.47254756
v 0.04236133 0.11707896 0.39511641
v 0.04558415 0.12138608 0.01139807
v 0.04280765 0.12296262 0.08208990
v 0.04057202 0.12850322 0.19153853
v 0.04308567 0.12962983 0.42649766
v 0.03491861 0.13306600 -0.49968634
v 0.04094912 0.13620240 -0.43925946
v 0.04080050 0.13723253 -0.29200292
v 0.04334069 0.13061899 -0.27781357
v 0.04178691 0.13852268 -0.20090897
v 0.03824336 0.13744393 0.38393322
v 0.04338928 0.12990766 0.37682954
v 0.03724324 0.13719891 0.46404312
v 0.03933088 0.13557967 -0.48183966
v 0.04075118 0.14466076 -0.16206110
v 0.04012463 0.14547285 -0.05117338
v 0.03788613 0.17512889 -0.48369198
v 0.04031956 0.15329640 -0.18361172
v 0.03462430 0.15318881 -0.15265774
v 0.04279044 0.17497594 0.08612136
v 0.03844645 0.14972765 0.85270496
v 0.04201682 0.16852796 -0.17247404
v 0.04165827 0.16090880 -0.16496312
v 0.04146809 0.16138206 0.02777516
v 0.04034189 0.16825790 -0.44547564
v 0.04110888 0.16807324 -0.31146659
v 0.04279998 0.16930902 0.03255843
v 0.04364959 0.15799394 0.03717300
v 0.03734726 0.17739349 -0.42091944
v 0.03820253 0.17672663 -0.33052176
v 0.03559146 0.18497502 -0.05042396
v 0.04062895 0.17705589 -0.15217752
v 0.04136523 0.17673791 0.03988380
v 0.04456461 -0.03630091 -0.83283378
v 0.04550409 -0.02880693 -0.94636852
v 0.04341711 -0.00331264 -0.84659525
v 0.04498267 0.05460915 -0.53354171
v 0.05283100 0.07528658 -0.23366424
v 0.04962054 0.07986316 -0.11989932
v 0.04438627 0.08776777 -0.26324023
v 0.04975536 0.09780966 -0.00420497
v 0.04757324 0.09885999 -0.48433099
v 0.04943356 0.09822878 -0.43124127
v 0.04948240 0.09814284 -0.25790603
v 0.04965419 0.09795486 -0.21729674
v 0.04906570 0.09825946 -0.18315369
v 0.04913852 0.09881311 -0.12765902
v 0.04094325 0.10413676 -0.51433036
v 0.04983597 0.10928120 -0.25155471
v 0.04988514 0.10643202 -0.14423896
v 0.04945721 0.09988088 -0.09110508
v 0.04923375 0.10705345 -0.49355906
v 0.04961249 0.11921751 0.00330936
v 0.04819380 0.12258230 -0.49815243
v 0.04985088 0.12022259 -0.48355811
v 0.04994928 0.12192967 -0.22656354
v 0.04962519 0.12171556 -0.02697761
v 0.04932527 0.12191552 -0.38772502
v 0.04275782 0.13398534 -0.17023099
v 0.04317692 0.13255314 -0.00070501
v 0.04338036 0.12969307 0.23663343
v 0.04332103 0.14426917 0.03296984
v 0.05982093 0.09589137 -0.24187572
v 0.05035251 0.11276264 -0.23342118
f 16 7 70
f 68 1 3
f 3 1 2
f 2 183 3
f 3 183 4
f 183 69 4
f 58 7 69
f 70 7 58
f 5 6 11
f 66 6 5
f 68 3 11
f 7 4 69
f 71 70 180
f 71 61 8
f 15 11 3
f 4 15 3
f 7 15 4
f 71 16 70
f 17 71 8
f 9 12 8
f 12 17 8
f 13 87 5
f 11 13 5
f 14 13 11
f 7 16 15
f 71 17 16
f 9 18 12
f 10 18 9
f 15 14 11
f 19 14 15
f 16 19 15
f 17 19 16
f 20 19 17
f 12 20 17
f 18 20 12
f 10 21 18
f 18 98 20
f 107 18 21
f 98 106 20
f 24 22 23
f 23 130 24
f 25 130 23
f 125 25 23
f 140 130 25
f 29 129 26
f 131 28 26
f 28 31 26
f 26 30 29
f 32 34 31
f 33 34 32
f 30 35 29
f 34 38 31
f 31 38 26
f 26 38 30
f 33 37 34
f 150 37 33
f 34 37 38
f 35 36 151
f 30 36 35
f 39 30 38
f 37 45 38
f 40 37 150
f 42 36 30
f 39 42 30
f 36 155 151
f 42 155 36
f 45 39 38
f 41 152 43
f 42 159 155
f 42 39 159
f 40 45 37
f 46 39 45
f 56 40 41
f 44 41 43
f 44 43 157
f 157 50 44
f 46 160 39
f 47 46 45
f 40 47 45
f 56 47 40
f 44 56 41
f 44 67 56
f 49 48 44
f 50 49 44
f 46 47 54
f 57 67 44
f 48 57 44
f 175 164 51
f 165 167 52
f 52 168 55
f 167 168 52
f 176 54 47
f 65 47 56
f 6 65 56
f 67 6 56
f 51 59 175
f 52 59 51
f 165 52 51
f 168 169 55
f 166 55 169
f 177 176 47
f 65 179 47
f 1 57 48
f 49 1 48
f 61 79 173
f 59 75 175
f 60 59 52
f 55 60 52
f 57 68 67
f 68 57 1
f 2 49 307
f 2 1 49
f 59 62 75
f 63 62 59
f 60 63 59
f 64 63 60
f 55 64 60
f 166 96 55
f 313 166 53
f 96 166 313
f 6 66 65
f 58 69 303
f 61 308 8
f 62 85 75
f 85 84 75
f 76 85 62
f 77 76 62
f 63 77 62
f 78 77 63
f 64 82 63
f 96 64 55
f 67 11 6
f 68 11 67
f 79 61 71
f 8 308 80
f 8 80 72
f 72 9 8
f 73 9 72
f 10 9 73
f 74 10 73
f 74 197 10
f 75 93 175
f 193 85 76
f 63 82 78
f 82 86 78
f 84 100 75
f 88 81 108
f 100 93 75
f 84 94 100
f 196 89 84
f 89 90 91
f 86 82 91
f 197 21 10
f 21 197 92
f 197 195 92
f 92 88 108
f 195 88 92
f 89 94 84
f 95 94 89
f 91 95 89
f 82 95 91
f 104 87 13
f 13 14 102
f 14 19 97
f 19 20 106
f 98 18 99
f 95 100 94
f 101 100 95
f 82 101 95
f 64 101 82
f 13 102 104
f 105 102 14
f 97 105 14
f 106 97 19
f 106 98 206
f 99 218 98
f 107 99 18
f 92 107 21
f 109 93 100
f 101 109 100
f 103 109 101
f 64 110 101
f 110 103 101
f 99 118 218
f 107 235 99
f 109 210 93
f 324 110 64
f 202 203 111
f 203 216 111
f 115 104 102
f 120 115 102
f 105 120 102
f 97 121 105
f 106 121 97
f 112 235 107
f 114 112 107
f 92 114 107
f 108 114 92
f 105 121 116
f 206 117 106
f 206 218 113
f 114 228 112
f 202 111 239
f 105 116 120
f 117 121 106
f 113 117 206
f 218 118 113
f 235 118 99
f 223 119 217
f 117 124 121
f 122 124 117
f 113 122 117
f 118 122 113
f 235 246 118
f 246 122 118
f 114 108 248
f 207 248 108
f 121 241 116
f 245 241 121
f 123 245 121
f 124 123 121
f 22 260 23
f 125 23 260
f 24 130 126
f 127 133 125
f 130 134 126
f 125 135 25
f 135 140 25
f 133 135 125
f 264 129 128
f 131 129 264
f 130 139 134
f 140 139 130
f 29 27 129
f 26 129 131
f 132 131 264
f 136 126 134
f 137 131 132
f 28 131 137
f 133 141 135
f 293 133 127
f 141 133 293
f 32 31 28
f 137 32 28
f 275 32 137
f 275 278 32
f 143 142 274
f 141 140 135
f 35 144 27
f 27 29 35
f 33 32 278
f 361 33 278
f 143 149 142
f 139 147 134
f 142 149 138
f 149 283 138
f 145 139 140
f 141 145 140
f 148 33 361
f 150 33 148
f 139 145 147
f 141 146 145
f 146 141 293
f 144 35 151
f 134 147 136
f 145 190 147
f 147 153 136
f 150 152 40
f 41 40 152
f 151 155 374
f 147 154 153
f 190 74 147
f 145 146 190
f 147 158 154
f 155 159 156
f 158 147 73
f 74 73 147
f 159 39 160
f 154 158 292
f 158 161 292
f 160 162 159
f 163 49 50
f 46 162 160
f 175 386 164
f 298 167 165
f 380 166 295
f 53 166 380
f 162 46 170
f 163 307 49
f 187 190 146
f 187 146 293
f 165 51 164
f 167 169 168
f 384 295 169
f 166 169 295
f 300 171 178
f 172 171 173
f 190 197 74
f 306 170 46
f 54 306 46
f 172 178 171
f 173 308 61
f 308 174 181
f 161 304 301
f 304 161 310
f 176 182 54
f 182 176 177
f 179 177 47
f 69 184 303
f 303 178 58
f 178 180 58
f 180 70 58
f 180 178 172
f 172 173 79
f 310 186 304
f 313 53 305
f 182 306 54
f 65 66 179
f 2 307 183
f 69 183 184
f 181 185 80
f 185 186 72
f 310 72 186
f 73 72 310
f 386 175 394
f 66 5 189
f 79 71 180
f 72 80 185
f 187 195 190
f 188 81 191
f 201 81 188
f 201 396 192
f 188 396 201
f 396 394 192
f 175 93 394
f 76 77 193
f 193 77 194
f 77 78 194
f 78 86 194
f 5 83 189
f 190 195 197
f 81 88 191
f 193 196 85
f 90 196 193
f 194 90 193
f 87 83 5
f 81 201 108
f 394 199 192
f 394 93 199
f 196 84 85
f 90 89 196
f 194 91 90
f 86 91 194
f 192 208 201
f 199 208 192
f 96 313 198
f 93 209 199
f 96 214 64
f 215 96 198
f 214 96 215
f 320 315 202
f 203 202 315
f 217 216 200
f 463 204 217
f 405 321 104
f 206 98 218
f 201 208 207
f 208 199 319
f 93 210 209
f 109 211 210
f 103 211 109
f 103 212 211
f 212 103 323
f 213 323 103
f 213 103 324
f 324 103 110
f 64 214 324
f 216 203 200
f 223 217 204
f 205 223 204
f 316 226 205
f 201 207 108
f 219 208 319
f 322 220 219
f 220 221 238
f 323 243 212
f 231 214 215
f 231 215 326
f 328 320 202
f 205 224 223
f 225 224 205
f 226 225 205
f 104 115 405
f 112 228 227
f 220 229 219
f 238 229 220
f 214 230 222
f 231 230 214
f 239 328 202
f 111 216 232
f 217 119 216
f 119 232 216
f 224 234 223
f 234 233 223
f 225 234 224
f 226 240 225
f 240 226 471
f 235 112 227
f 236 329 228
f 114 236 228
f 335 208 219
f 335 219 229
f 323 336 243
f 213 336 323
f 222 336 213
f 222 230 410
f 119 223 233
f 244 233 234
f 225 244 234
f 240 244 225
f 120 116 241
f 114 348 236
f 248 348 114
f 242 335 229
f 238 242 229
f 237 242 238
f 238 341 237
f 243 341 238
f 341 243 336
f 410 336 222
f 119 250 232
f 250 119 233
f 244 250 233
f 115 338 405
f 120 338 115
f 251 338 120
f 241 251 120
f 123 124 254
f 124 122 254
f 254 122 255
f 255 122 246
f 235 247 246
f 249 420 239
f 111 249 239
f 241 252 251
f 245 253 241
f 253 252 241
f 247 255 246
f 207 348 248
f 253 258 252
f 253 257 258
f 257 253 256
f 252 259 350
f 252 258 259
f 257 426 258
f 126 431 24
f 431 22 24
f 125 260 261
f 125 261 127
f 431 126 276
f 261 262 127
f 267 542 128
f 128 265 264
f 263 268 266
f 269 268 263
f 262 357 127
f 128 129 267
f 27 436 267
f 129 27 267
f 265 132 264
f 355 437 268
f 269 355 268
f 126 136 276
f 137 132 356
f 356 270 137
f 436 27 144
f 127 357 293
f 271 274 273
f 272 274 271
f 137 270 275
f 277 273 142
f 274 142 273
f 357 377 293
f 272 443 274
f 443 143 274
f 277 138 362
f 142 138 277
f 276 136 500
f 138 279 362
f 547 143 443
f 547 282 143
f 283 279 138
f 136 153 500
f 144 498 439
f 283 280 279
f 281 143 282
f 283 149 289
f 282 364 281
f 148 366 150
f 283 448 280
f 143 281 149
f 144 151 498
f 151 367 498
f 152 150 366
f 152 366 284
f 151 374 367
f 367 374 552
f 281 289 149
f 286 370 154
f 370 153 154
f 43 152 284
f 285 283 289
f 290 281 364
f 286 292 287
f 292 286 154
f 157 43 284
f 284 288 157
f 290 171 281
f 291 290 365
f 292 373 287
f 155 156 374
f 157 288 50
f 163 50 288
f 289 300 378
f 281 300 289
f 159 302 156
f 281 171 300
f 291 294 290
f 294 171 290
f 376 292 379
f 292 161 379
f 393 293 377
f 295 296 380
f 162 302 159
f 300 303 378
f 294 174 171
f 297 174 294
f 165 164 298
f 167 298 299
f 299 384 169
f 302 162 170
f 163 388 307
f 161 301 379
f 169 167 299
f 385 305 53
f 300 178 303
f 173 171 174
f 173 174 308
f 181 174 309
f 297 309 174
f 301 304 297
f 293 393 187
f 170 390 302
f 390 170 306
f 304 309 297
f 158 310 161
f 307 391 183
f 183 392 184
f 391 392 183
f 181 80 308
f 186 309 304
f 73 310 158
f 511 386 394
f 305 311 313
f 306 312 390
f 306 182 312
f 66 395 179
f 79 180 172
f 309 185 181
f 186 185 309
f 66 189 395
f 393 88 195
f 187 393 195
f 191 393 459
f 191 88 393
f 459 188 191
f 314 83 87
f 401 400 316
f 317 314 87
f 203 315 398
f 203 398 200
f 463 217 200
f 104 317 87
f 321 317 104
f 319 199 209
f 404 320 328
f 205 204 401
f 316 205 401
f 209 322 319
f 209 210 322
f 210 211 322
f 322 211 221
f 221 211 212
f 404 328 325
f 316 318 226
f 322 219 319
f 221 220 322
f 212 238 221
f 243 238 212
f 213 324 222
f 214 222 324
f 327 326 325
f 328 327 325
f 318 471 226
f 331 231 326
f 327 331 326
f 332 331 327
f 328 332 327
f 331 333 231
f 334 333 331
f 332 334 331
f 328 337 332
f 236 348 330
f 230 231 411
f 333 411 231
f 407 333 334
f 337 334 332
f 239 337 328
f 250 244 342
f 342 244 240
f 338 408 405
f 251 343 338
f 227 247 235
f 208 417 207
f 208 339 417
f 335 339 208
f 419 341 336
f 419 336 410
f 239 420 337
f 232 249 111
f 240 413 342
f 471 413 240
f 343 408 338
f 415 123 344
f 415 253 123
f 253 245 123
f 254 344 123
f 254 345 344
f 255 345 254
f 255 416 345
f 255 346 416
f 247 346 255
f 251 252 343
f 252 350 343
f 256 253 415
f 257 256 426
f 259 351 350
f 259 258 352
f 351 259 352
f 426 352 258
f 431 353 22
f 22 353 260
f 260 429 261
f 431 276 430
f 432 128 542
f 266 435 263
f 263 354 269
f 490 542 267
f 490 267 436
f 266 268 437
f 265 491 132
f 356 132 437
f 355 356 437
f 363 430 276
f 356 358 270
f 359 492 273
f 440 271 492
f 492 271 273
f 440 272 271
f 144 439 436
f 270 358 275
f 362 359 277
f 359 273 277
f 442 443 272
f 278 275 358
f 278 358 360
f 278 360 361
f 276 500 363
f 279 495 362
f 361 360 148
f 148 360 366
f 500 153 370
f 366 368 284
f 283 285 448
f 290 364 365
f 365 553 371
f 553 369 371
f 287 371 369
f 286 287 369
f 370 286 369
f 371 291 365
f 450 371 505
f 372 505 371
f 372 371 287
f 284 368 288
f 291 450 375
f 291 371 450
f 373 372 287
f 376 373 292
f 163 288 556
f 374 156 451
f 289 378 285
f 156 381 451
f 302 381 156
f 163 556 452
f 375 561 294
f 375 294 291
f 377 457 393
f 295 560 296
f 163 452 388
f 294 561 297
f 383 454 298
f 295 384 560
f 380 385 53
f 302 387 381
f 297 561 453
f 453 455 297
f 382 164 386
f 383 164 382
f 298 164 383
f 299 298 454
f 299 454 508
f 299 508 384
f 385 680 611
f 388 389 307
f 378 303 392
f 455 301 297
f 379 301 507
f 305 385 611
f 307 389 391
f 179 513 177
f 303 184 392
f 179 395 513
f 312 182 397
f 460 395 189
f 460 189 83
f 313 461 198
f 315 399 398
f 200 398 569
f 215 198 402
f 404 467 320
f 467 468 320
f 468 469 320
f 320 469 399
f 320 399 315
f 401 204 463
f 400 318 316
f 215 402 403
f 215 403 326
f 325 326 403
f 404 325 403
f 318 470 471
f 329 236 330
f 406 321 405
f 329 409 228
f 409 329 330
f 411 333 407
f 409 247 227
f 247 409 347
f 330 347 409
f 348 347 330
f 242 237 418
f 335 242 418
f 237 341 340
f 474 407 334
f 337 474 334
f 420 532 337
f 232 250 412
f 250 342 412
f 471 634 413
f 415 344 414
f 414 344 523
f 348 524 347
f 207 524 348
f 207 417 524
f 418 339 335
f 237 340 418
f 341 349 340
f 419 349 341
f 478 419 410
f 230 478 410
f 531 478 230
f 411 531 230
f 422 420 249
f 480 249 232
f 422 532 420
f 421 422 249
f 343 350 423
f 475 482 425
f 415 475 425
f 421 424 422
f 424 421 486
f 350 485 423
f 428 482 484
f 425 482 428
f 256 415 425
f 424 427 422
f 426 425 428
f 256 425 426
f 350 351 485
f 351 484 485
f 351 428 484
f 426 428 352
f 352 428 351
f 263 435 585
f 265 128 433
f 434 265 433
f 437 435 266
f 269 489 355
f 491 265 434
f 437 132 491
f 488 430 363
f 356 355 438
f 356 438 358
f 490 436 439
f 272 440 442
f 360 358 441
f 444 282 547
f 357 506 377
f 495 279 280
f 439 498 656
f 495 280 499
f 444 551 282
f 360 496 497
f 282 551 364
f 360 497 366
f 499 280 448
f 445 364 551
f 370 598 500
f 445 365 364
f 365 445 553
f 553 446 369
f 369 446 447
f 370 369 447
f 598 370 447
f 374 502 552
f 448 285 449
f 372 373 672
f 374 451 502
f 562 557 505
f 453 557 562
f 610 557 453
f 285 378 449
f 449 378 509
f 375 608 561
f 376 379 559
f 377 506 457
f 296 558 380
f 558 680 380
f 560 384 563
f 380 680 385
f 455 613 301
f 392 509 378
f 613 507 301
f 511 382 386
f 389 456 391
f 456 509 392
f 611 510 305
f 510 311 305
f 390 512 302
f 302 512 387
f 392 391 456
f 390 458 512
f 511 394 564
f 312 458 390
f 565 182 177
f 393 457 459
f 394 396 564
f 311 461 313
f 312 397 458
f 83 617 460
f 314 617 83
f 198 461 567
f 398 516 462
f 462 569 398
f 567 402 198
f 402 567 466
f 398 399 516
f 200 569 619
f 619 463 200
f 463 464 401
f 400 401 464
f 314 317 465
f 403 402 466
f 321 465 317
f 404 403 467
f 470 518 471
f 405 408 406
f 228 409 227
f 337 532 474
f 528 531 411
f 407 528 411
f 407 473 528
f 407 474 473
f 532 580 474
f 232 412 480
f 472 634 471
f 343 623 408
f 423 575 343
f 343 575 623
f 415 414 475
f 346 476 416
f 247 524 346
f 347 524 247
f 417 905 524
f 339 525 417
f 418 526 339
f 340 526 418
f 340 477 526
f 340 349 477
f 419 478 530
f 421 249 479
f 249 480 479
f 342 481 412
f 413 481 342
f 479 486 421
f 484 482 483
f 422 427 532
f 532 427 535
f 485 484 537
f 427 487 535
f 424 487 427
f 486 487 424
f 260 353 429
f 430 488 642
f 430 642 431
f 642 353 431
f 644 261 429
f 644 262 261
f 354 263 539
f 263 585 539
f 433 128 432
f 354 540 269
f 269 540 489
f 435 437 491
f 489 543 355
f 438 355 543
f 358 438 441
f 359 494 492
f 362 494 359
f 442 493 443
f 590 494 362
f 495 590 362
f 547 443 546
f 360 441 591
f 591 496 360
f 363 500 550
f 550 500 595
f 548 495 499
f 444 549 551
f 498 367 501
f 499 448 554
f 367 552 501
f 288 368 503
f 372 672 671
f 556 288 503
f 505 557 504
f 505 504 450
f 555 505 372
f 555 372 671
f 562 505 555
f 560 603 296
f 296 603 558
f 381 604 451
f 387 604 381
f 561 610 453
f 455 453 562
f 455 562 613
f 384 508 563
f 565 177 513
f 395 514 513
f 459 457 515
f 182 565 397
f 395 460 514
f 463 619 464
f 701 617 314
f 399 469 516
f 314 465 701
f 403 466 571
f 467 403 571
f 467 571 517
f 468 467 517
f 468 517 469
f 321 703 465
f 703 321 406
f 473 519 528
f 474 519 473
f 474 520 519
f 520 474 580
f 423 521 575
f 482 475 577
f 414 522 475
f 345 523 344
f 476 626 416
f 346 578 476
f 524 578 346
f 417 525 905
f 526 525 339
f 526 627 525
f 526 477 527
f 413 633 481
f 413 634 633
f 482 577 483
f 577 529 483
f 527 627 526
f 419 530 349
f 423 485 521
f 521 485 536
f 529 533 483
f 534 486 479
f 483 533 484
f 584 535 487
f 584 487 486
f 534 584 486
f 485 537 536
f 533 537 484
f 538 644 429
f 354 539 540
f 262 644 586
f 432 542 645
f 588 435 491
f 488 363 541
f 586 589 262
f 434 587 491
f 544 438 543
f 490 439 656
f 441 438 544
f 541 363 550
f 262 589 357
f 441 544 545
f 442 440 493
f 357 589 506
f 441 545 591
f 493 546 443
f 444 592 549
f 444 547 592
f 549 597 551
f 500 598 595
f 497 600 366
f 600 368 366
f 368 600 503
f 552 502 737
f 554 448 449
f 503 673 556
f 670 504 557
f 450 745 375
f 449 677 554
f 449 509 677
f 562 555 606
f 606 613 562
f 382 826 383
f 387 609 604
f 687 388 452
f 379 507 559
f 512 609 387
f 612 677 509
f 511 689 382
f 388 687 389
f 389 614 456
f 509 456 612
f 510 692 311
f 458 690 512
f 311 692 461
f 458 693 690
f 513 514 566
f 458 397 693
f 396 188 616
f 694 564 396
f 462 516 568
f 466 567 618
f 400 464 698
f 400 698 318
f 571 466 570
f 466 618 570
f 517 571 572
f 517 572 469
f 465 703 700
f 518 472 471
f 519 573 528
f 519 574 573
f 520 574 519
f 574 520 580
f 521 576 575
f 475 522 577
f 414 523 522
f 345 902 523
f 345 416 902
f 476 578 626
f 524 904 578
f 524 905 904
f 477 579 527
f 628 530 629
f 530 708 629
f 530 478 708
f 630 708 478
f 630 528 573
f 630 531 528
f 479 480 638
f 412 581 480
f 480 581 711
f 481 581 412
f 481 633 581
f 576 521 529
f 576 529 577
f 477 349 579
f 530 628 349
f 531 630 478
f 580 532 582
f 479 638 534
f 529 536 533
f 521 536 529
f 532 535 582
f 584 534 583
f 535 584 719
f 536 537 533
f 538 429 641
f 642 488 541
f 432 645 433
f 540 648 489
f 542 490 649
f 489 648 543
f 648 651 543
f 588 491 587
f 649 490 656
f 541 550 662
f 440 492 657
f 440 657 493
f 590 495 660
f 592 547 546
f 660 495 548
f 589 599 506
f 549 592 664
f 662 550 595
f 594 548 499
f 549 664 597
f 656 498 596
f 497 496 593
f 666 551 597
f 498 501 596
f 593 600 497
f 499 665 594
f 554 665 499
f 445 551 666
f 445 666 668
f 553 445 668
f 553 668 601
f 446 553 601
f 446 601 447
f 501 552 737
f 503 600 738
f 503 738 673
f 450 504 745
f 670 555 671
f 674 672 373
f 675 502 451
f 556 673 602
f 375 745 608
f 674 373 376
f 675 451 604
f 602 452 556
f 670 557 605
f 605 606 670
f 670 606 555
f 557 610 605
f 603 560 607
f 454 383 684
f 560 563 607
f 561 608 610
f 507 756 559
f 506 599 457
f 599 691 457
f 689 826 382
f 454 684 508
f 508 684 751
f 563 508 751
f 563 751 752
f 752 607 563
f 512 686 609
f 756 507 613
f 611 685 510
f 614 389 687
f 688 456 614
f 612 456 688
f 512 690 686
f 510 685 692
f 615 513 566
f 511 564 689
f 689 564 694
f 565 513 615
f 457 691 515
f 188 459 616
f 397 565 693
f 514 460 695
f 396 616 694
f 567 461 856
f 617 695 460
f 567 856 618
f 568 569 462
f 696 569 568
f 516 469 620
f 569 696 619
f 464 619 697
f 464 697 698
f 768 318 698
f 469 572 621
f 621 620 469
f 768 470 318
f 701 465 700
f 571 570 767
f 768 879 470
f 470 879 518
f 879 472 518
f 703 406 704
f 406 408 704
f 630 573 709
f 709 573 622
f 574 622 573
f 574 705 622
f 574 580 705
f 408 623 894
f 635 623 575
f 575 576 635
f 576 577 624
f 577 522 624
f 624 522 625
f 523 790 522
f 522 790 625
f 786 790 523
f 416 626 902
f 525 783 905
f 525 706 783
f 627 706 525
f 527 579 627
f 579 349 628
f 480 631 638
f 480 711 631
f 581 633 632
f 624 636 576
f 636 635 576
f 625 636 624
f 637 636 625
f 534 638 714
f 640 639 636
f 640 636 637
f 582 535 719
f 534 714 583
f 721 716 635
f 635 636 717
f 720 583 714
f 717 721 635
f 584 720 719
f 720 584 583
f 429 353 641
f 353 796 641
f 643 353 642
f 585 435 646
f 540 539 648
f 433 645 647
f 647 434 433
f 542 649 645
f 642 541 650
f 435 588 646
f 588 587 653
f 651 800 654
f 651 654 543
f 544 654 655
f 544 543 654
f 545 544 655
f 541 662 652
f 658 545 655
f 657 492 494
f 727 657 806
f 493 657 727
f 657 494 659
f 545 658 591
f 494 590 659
f 546 493 727
f 652 662 807
f 730 546 727
f 591 658 661
f 590 660 659
f 496 591 661
f 548 594 660
f 592 546 730
f 661 593 496
f 595 733 662
f 656 596 663
f 734 597 664
f 743 733 595
f 666 597 734
f 598 743 595
f 600 593 667
f 738 600 667
f 668 666 740
f 601 742 447
f 447 742 598
f 601 668 741
f 669 601 741
f 742 601 669
f 504 670 669
f 669 670 671
f 737 502 675
f 745 678 608
f 674 376 559
f 675 604 823
f 604 679 823
f 609 679 604
f 676 603 607
f 603 676 558
f 682 608 678
f 609 686 679
f 681 452 602
f 677 612 753
f 610 608 682
f 682 605 610
f 606 605 683
f 683 613 606
f 684 383 827
f 680 685 611
f 680 749 685
f 681 687 452
f 756 613 755
f 690 693 840
f 762 565 615
f 459 515 616
f 856 692 763
f 692 856 461
f 565 762 693
f 620 568 516
f 697 619 859
f 698 697 764
f 767 572 571
f 702 621 572
f 621 699 620
f 699 621 702
f 704 700 703
f 780 622 781
f 622 705 781
f 781 705 779
f 705 580 782
f 779 705 782
f 408 894 704
f 783 706 881
f 780 709 622
f 782 580 710
f 632 633 892
f 892 633 472
f 523 902 786
f 578 712 626
f 904 712 578
f 707 706 627
f 579 707 627
f 579 628 707
f 708 630 787
f 710 580 582
f 710 582 713
f 713 638 788
f 631 788 638
f 472 633 634
f 623 635 716
f 791 625 790
f 637 625 791
f 715 713 582
f 714 713 715
f 713 714 638
f 636 639 717
f 640 637 718
f 718 637 791
f 715 582 719
f 639 640 718
f 720 715 719
f 714 715 720
f 639 722 717
f 718 722 639
f 717 795 721
f 722 795 717
f 796 353 643
f 644 538 723
f 643 642 650
f 723 586 644
f 585 646 724
f 585 724 539
f 539 724 648
f 647 645 799
f 651 724 800
f 648 724 651
f 723 813 586
f 434 647 726
f 724 646 800
f 645 649 725
f 587 434 726
f 800 646 588
f 541 652 650
f 726 653 587
f 653 800 588
f 653 654 800
f 654 653 655
f 586 813 589
f 803 655 653
f 807 650 652
f 658 655 803
f 728 658 803
f 659 806 657
f 810 806 659
f 730 727 729
f 649 656 663
f 728 661 658
f 659 660 810
f 661 728 809
f 807 662 733
f 810 660 594
f 730 729 811
f 730 811 592
f 661 809 731
f 810 594 732
f 592 811 664
f 732 594 665
f 664 811 734
f 593 661 731
f 593 731 922
f 735 732 665
f 593 922 667
f 666 734 736
f 736 739 666
f 599 813 815
f 599 589 813
f 666 739 740
f 831 599 815
f 738 667 744
f 665 554 735
f 740 741 668
f 742 743 598
f 673 738 744
f 745 741 740
f 504 669 745
f 669 741 745
f 671 742 669
f 672 742 671
f 746 742 672
f 743 742 746
f 745 740 678
f 746 674 824
f 672 674 746
f 691 599 831
f 737 675 823
f 673 744 933
f 602 673 933
f 747 735 554
f 816 735 747
f 740 739 748
f 554 677 747
f 748 739 820
f 678 740 748
f 676 749 558
f 678 748 682
f 749 680 558
f 686 750 679
f 747 677 753
f 827 383 826
f 684 827 757
f 751 684 757
f 750 686 828
f 754 748 838
f 682 748 754
f 682 754 605
f 605 754 683
f 613 683 755
f 832 826 689
f 752 751 757
f 686 690 828
f 758 687 681
f 612 688 753
f 683 754 759
f 755 683 759
f 690 840 828
f 687 758 614
f 760 688 614
f 832 689 694
f 763 692 685
f 763 685 749
f 614 758 760
f 761 688 760
f 753 688 761
f 693 952 840
f 952 693 762
f 515 842 616
f 849 691 848
f 849 515 691
f 695 617 1032
f 620 870 568
f 859 860 697
f 860 764 697
f 857 618 856
f 696 870 871
f 696 568 870
f 696 872 619
f 871 872 696
f 619 872 859
f 698 764 863
f 863 768 698
f 700 990 701
f 701 990 858
f 765 618 857
f 868 765 857
f 618 765 570
f 570 766 767
f 767 702 572
f 570 765 766
f 702 767 774
f 774 767 766
f 699 702 774
f 768 863 879
f 990 700 864
f 770 769 775
f 771 770 775
f 883 771 775
f 765 776 766
f 777 766 776
f 774 766 777
f 777 887 699
f 777 699 774
f 700 704 864
f 777 776 778
f 779 777 778
f 782 777 779
f 890 707 896
f 776 886 709
f 776 709 780
f 778 776 780
f 781 778 780
f 779 778 781
f 864 704 894
f 875 783 881
f 706 784 881
f 707 784 706
f 890 784 707
f 628 896 707
f 884 896 628
f 628 629 884
f 629 897 884
f 885 897 708
f 708 787 885
f 711 785 631
f 623 898 894
f 899 898 623
f 789 790 786
f 708 897 629
f 709 787 630
f 788 710 713
f 632 711 581
f 716 899 623
f 789 794 790
f 791 790 794
f 716 721 792
f 793 718 794
f 791 794 718
f 795 722 793
f 718 793 722
f 795 792 721
f 797 796 643
f 798 538 641
f 643 650 797
f 538 798 802
f 538 802 723
f 797 650 801
f 798 907 804
f 802 798 804
f 723 802 813
f 645 725 799
f 726 647 799
f 725 649 909
f 912 726 908
f 726 912 653
f 803 653 912
f 801 650 807
f 805 803 912
f 803 805 728
f 806 729 727
f 802 804 815
f 813 802 815
f 649 663 909
f 801 807 808
f 913 909 663
f 809 728 805
f 729 806 812
f 807 733 808
f 804 910 819
f 815 804 819
f 920 731 809
f 812 806 810
f 811 729 812
f 732 816 810
f 736 811 812
f 811 736 734
f 663 596 913
f 812 810 816
f 808 733 817
f 920 922 731
f 732 735 816
f 596 501 814
f 596 814 913
f 808 817 818
f 667 922 925
f 736 812 739
f 812 820 739
f 733 743 817
f 815 819 831
f 501 737 814
f 737 928 814
f 667 925 744
f 948 819 910
f 817 743 822
f 822 818 817
f 737 823 928
f 812 816 820
f 824 821 746
f 821 743 746
f 743 821 822
f 928 823 929
f 747 820 816
f 929 823 679
f 674 559 824
f 824 559 756
f 929 679 750
f 933 938 602
f 927 929 750
f 927 750 825
f 602 938 681
f 820 838 748
f 831 819 948
f 607 752 984
f 984 676 607
f 984 749 676
f 825 750 828
f 753 837 747
f 820 747 837
f 838 820 837
f 755 829 756
f 832 833 826
f 833 827 826
f 757 827 833
f 944 757 833
f 757 944 945
f 752 757 945
f 984 752 945
f 763 749 984
f 940 825 828
f 838 965 754
f 754 965 759
f 755 759 834
f 829 755 834
f 840 940 828
f 762 615 946
f 615 566 946
f 835 837 753
f 836 837 835
f 838 837 963
f 965 838 964
f 830 829 839
f 831 948 848
f 832 694 843
f 840 952 940
f 514 946 566
f 946 514 959
f 758 961 841
f 758 681 961
f 758 841 760
f 841 761 760
f 835 753 761
f 963 837 836
f 973 829 834
f 831 848 691
f 1024 761 841
f 848 948 947
f 843 694 844
f 514 695 959
f 849 842 515
f 616 842 850
f 850 844 616
f 616 844 694
f 845 977 976
f 848 947 853
f 988 843 844
f 845 982 851
f 846 845 851
f 852 846 851
f 847 846 852
f 701 1032 617
f 844 850 854
f 988 844 861
f 855 851 982
f 852 851 855
f 858 1032 701
f 861 844 854
f 857 856 763
f 861 854 769
f 857 862 868
f 620 699 887
f 870 620 887
f 872 1005 859
f 860 859 873
f 863 860 873
f 764 860 863
f 854 875 769
f 861 769 770
f 865 861 770
f 771 865 770
f 771 995 865
f 772 995 771
f 995 772 866
f 995 866 773
f 866 867 773
f 867 877 773
f 877 997 773
f 877 868 997
f 874 863 873
f 893 863 874
f 863 893 879
f 1003 880 1000
f 1000 880 1046
f 875 775 769
f 771 876 772
f 883 876 771
f 866 772 876
f 884 866 876
f 884 867 866
f 897 867 884
f 877 867 885
f 867 897 885
f 886 868 877
f 765 868 886
f 765 886 776
f 888 872 871
f 1005 891 873
f 873 891 878
f 874 873 878
f 893 874 878
f 880 1003 1007
f 854 850 895
f 895 850 889
f 875 854 895
f 775 875 881
f 882 775 881
f 883 775 882
f 876 883 890
f 896 876 890
f 884 876 896
f 886 877 885
f 777 782 887
f 888 871 785
f 883 882 890
f 787 886 885
f 887 782 710
f 888 785 711
f 888 891 1005
f 892 878 891
f 893 878 892
f 1001 864 894
f 875 895 783
f 882 881 784
f 890 882 784
f 886 787 709
f 891 888 632
f 632 888 711
f 893 892 472
f 879 893 472
f 894 898 1001
f 1013 899 900
f 900 901 1014
f 1013 900 1014
f 901 902 903
f 902 626 903
f 895 889 904
f 905 895 904
f 783 895 905
f 785 788 631
f 892 891 632
f 900 899 789
f 901 900 789
f 786 901 789
f 902 901 786
f 712 1015 626
f 899 716 792
f 789 899 792
f 789 792 793
f 789 793 794
f 793 792 795
f 797 906 796
f 796 906 641
f 641 906 798
f 907 906 797
f 798 906 907
f 797 801 911
f 907 797 911
f 725 909 914
f 799 725 914
f 726 799 908
f 907 910 804
f 908 799 914
f 907 911 910
f 921 909 913
f 914 909 921
f 916 908 914
f 912 908 916
f 916 914 921
f 805 912 917
f 911 801 915
f 801 808 915
f 910 911 915
f 912 916 917
f 921 913 918
f 805 917 919
f 809 805 919
f 917 916 1018
f 920 809 919
f 919 917 923
f 923 917 1018
f 920 919 924
f 924 919 923
f 913 814 918
f 922 920 924
f 808 818 915
f 910 915 818
f 928 918 814
f 928 1019 918
f 931 924 923
f 925 922 924
f 910 818 948
f 931 923 930
f 926 928 929
f 927 1020 926
f 1020 927 935
f 1018 1020 935
f 925 924 932
f 932 924 931
f 744 925 932
f 930 1018 935
f 937 932 931
f 934 744 932
f 934 933 744
f 818 822 943
f 948 818 943
f 926 929 927
f 825 935 927
f 934 932 937
f 933 934 938
f 824 756 939
f 821 824 942
f 942 824 939
f 822 821 942
f 936 931 930
f 822 942 943
f 940 930 935
f 936 930 940
f 934 937 941
f 938 934 941
f 825 940 935
f 941 937 954
f 756 829 939
f 830 939 829
f 942 939 830
f 954 937 953
f 938 941 961
f 938 961 681
f 942 830 958
f 943 942 958
f 832 843 833
f 949 833 843
f 944 833 949
f 950 944 949
f 945 944 950
f 951 945 950
f 984 945 951
f 952 936 940
f 946 936 762
f 959 1021 946
f 937 959 953
f 960 955 941
f 961 941 955
f 836 835 1022
f 835 962 1022
f 956 964 838
f 830 839 958
f 948 943 947
f 949 843 966
f 967 949 966
f 950 949 967
f 979 950 967
f 951 950 979
f 762 936 952
f 962 835 761
f 836 1022 969
f 838 963 956
f 964 956 970
f 971 965 964
f 1023 759 965
f 972 834 957
f 834 972 973
f 839 829 973
f 947 943 958
f 966 843 976
f 1027 960 954
f 968 841 961
f 841 968 1024
f 962 761 1024
f 969 1029 963
f 969 963 836
f 971 964 970
f 1023 965 971
f 1023 971 980
f 980 972 957
f 839 973 974
f 974 958 839
f 947 958 975
f 977 966 976
f 967 966 977
f 978 967 977
f 979 967 978
f 981 951 979
f 959 695 1026
f 1026 953 959
f 971 970 980
f 973 972 974
f 846 977 845
f 978 977 846
f 847 978 846
f 979 978 847
f 981 979 847
f 695 1032 1026
f 947 975 853
f 975 1037 853
f 976 982 845
f 847 852 983
f 981 847 983
f 850 842 987
f 976 843 988
f 982 976 988
f 855 985 852
f 985 983 852
f 989 981 983
f 951 981 989
f 862 951 989
f 984 951 862
f 763 984 862
f 853 1037 986
f 848 853 986
f 849 848 987
f 849 987 842
f 989 983 985
f 763 862 857
f 990 1038 858
f 1038 990 998
f 1045 982 988
f 855 982 1045
f 992 994 993
f 993 994 1043
f 889 987 1004
f 865 988 861
f 1045 988 865
f 865 995 1045
f 995 985 996
f 989 995 773
f 862 989 997
f 997 989 773
f 862 997 868
f 998 990 864
f 1043 994 999
f 1000 1043 999
f 1044 1043 1000
f 1046 1044 1000
f 850 987 889
f 887 869 870
f 870 869 871
f 859 1005 873
f 998 864 1001
f 1009 998 1001
f 991 998 1009
f 994 992 1010
f 999 994 1002
f 1003 999 1002
f 1003 1000 999
f 880 1012 1046
f 872 888 1005
f 1010 991 1009
f 992 991 1010
f 1006 994 1010
f 1002 994 1006
f 1007 1002 1006
f 1003 1002 1007
f 1007 1008 880
f 880 1008 1012
f 871 869 785
f 1011 1007 1006
f 1008 1007 1011
f 1012 1008 1011
f 869 887 710
f 788 869 710
f 785 869 788
f 1009 1001 898
f 1013 1009 898
f 1010 1009 1014
f 1014 1009 1013
f 1006 1010 1014
f 1016 1006 1014
f 1011 1006 1016
f 1017 1011 1016
f 1012 1011 1017
f 1004 1012 1017
f 1013 898 899
f 903 1014 901
f 1016 1014 903
f 1017 1016 1015
f 1004 1017 904
f 889 1004 904
f 626 1016 903
f 1015 1016 626
f 1017 1015 712
f 904 1017 712
f 921 1019 916
f 1019 1018 916
f 921 918 1019
f 1020 1019 926
f 1020 1018 1019
f 1018 930 923
f 926 1019 928
f 1021 931 936
f 937 931 1021
f 1021 936 946
f 937 1021 959
f 954 960 941
f 759 957 834
f 1023 957 759
f 953 1027 954
f 1027 955 960
f 955 968 961
f 1024 1028 962
f 957 1023 980
f 958 1025 975
f 1027 953 1026
f 968 955 1027
f 1024 968 1027
f 1028 1024 1027
f 1029 1030 963
f 963 1030 956
f 970 956 1030
f 970 1030 1031
f 970 1031 980
f 1035 980 1031
f 980 1035 972
f 1035 1025 972
f 972 1025 974
f 974 1025 958
f 1032 1036 1026
f 1039 1026 1036
f 1027 1026 1039
f 1042 1027 1039
f 1034 1029 1048
f 1030 1029 1034
f 1031 1030 1034
f 1035 1031 1034
f 1037 1025 1035
f 1036 1032 858
f 1028 1027 1042
f 1033 1028 1042
f 1040 1033 1042
f 1034 1048 1040
f 1035 1034 1041
f 1037 1035 1041
f 975 1025 1037
f 1036 858 1038
f 1039 1036 1038
f 1048 1033 1040
f 1034 1040 1041
f 986 987 848
f 1039 1038 998
f 1042 1039 991
f 1040 1042 993
f 1041 1040 1043
f 1044 1041 1043
f 1037 1041 1044
f 986 1037 1044
f 1045 996 855
f 855 996 985
f 991 1039 998
f 992 1042 991
f 993 1042 992
f 1043 1040 993
f 1046 986 1044
f 987 986 1046
f 995 996 1045
f 989 985 995
f 1004 987 1046
f 1004 1046 1012
f 962 1028 1047
f 962 1047 1022
f 969 1022 1047
f 969 1047 1029
f 1028 1033 1047
f 1048 1047 1033
f 1029 1047 1048

