# https://github.com/mikedh/trimesh
v -0.59327152 -0.08704277 0.02064158
v -0.57755745 -0.06954262 0.04829629
v -0.58195452 -0.05863323 -0.03468496
v -0.58044702 0.00090311 0.03957893
v -0.59466931 -0.01089559 -0.00834559
v -0.57824054 -0.00600467 -0.04917594
v -0.58046348 -0.08950838 -0.00195918
v -0.57484398 -0.05777007 -0.05677110
v -0.55582181 -0.14047678 0.01818538
v -0.55228795 -0.02093593 -0.06069649
v -0.55975465 0.07418398 -0.04401794
v -0.56690032 0.08351831 0.00931446
v -0.56938044 -0.07723333 0.07002557
v -0.55841448 -0.04508753 -0.00734799
v -0.55001743 -0.02426767 0.07376754
v -0.56016771 0.06118233 -0.03037554
v -0.54187663 -0.10423498 -0.03572860
v -0.54479592 -0.12558859 0.05207898
v -0.54657192 -0.10455985 0.03567596
v -0.54179489 -0.11833133 0.00437015
v -0.54986553 -0.05164787 0.03117833
v -0.53537613 0.04963805 -0.06369793
v -0.52593122 0.17129324 -0.01223814
v -0.54575884 -0.07598610 -0.02653681
v -0.52113014 -0.09106074 -0.05462991
v -0.52898918 0.02589362 0.06436033
v -0.52442266 -0.03195779 0.04881209
v -0.53445963 0.05937641 -0.07880058
v -0.52005435 -0.11164911 0.05440107
v -0.53287004 -0.12225958 0.07221746
v -0.53273858 -0.06466755 0.05499671
v -0.55379851 0.07362010 0.01157717
v -0.48079236 0.03417564 -0.06268828
v -0.51344444 -0.00025556 0.06737484
v -0.50270181 -0.06753999 0.08138370
v -0.50485708 0.06828924 0.05375502
v -0.51442230 0.08428470 0.06042116
v -0.50090903 0.12383481 -0.08905275
v -0.50091693 0.18003439 -0.07137974
v -0.48009067 -0.07885495 0.06785571
v -0.49980446 -0.01148025 0.04472383
v -0.46632061 -0.01512529 0.05475013
v -0.48362344 -0.00888584 0.08509196
v -0.46680276 0.04942778 0.04387339
v -0.49269858 0.03686840 -0.05115825
v -0.46052895 0.11459894 -0.08113457
v -0.47400237 0.03373407 -0.00501702
v -0.45948000 0.29612184 -0.05517799
v -0.49177661 0.23268769 -0.00837292
v -0.45657353 0.03017526 -0.01054079
v -0.44148254 0.03926296 0.02706310
v -0.48301343 0.13874547 0.05203285
v -0.45574443 0.05765911 0.06027000
v -0.46480798 0.15425086 -0.09849380
v -0.46075968 0.26040162 -0.10456250
v -0.41719181 0.20190738 0.04293740
v -0.41847447 0.21372981 -0.12961319
v -0.43375385 0.32918553 -0.01876215
v -0.43597823 0.09448306 -0.06487059
v -0.39111224 0.21747201 0.02606243
v -0.43081089 0.33287748 -0.06094550
v -0.33762945 0.20284227 0.01922701
v -0.38059392 0.26322062 -0.14353341
v -0.42344196 0.08540364 -0.01185386
v -0.39618453 0.34999423 -0.11722509
v -0.42062597 0.09958985 0.02812886
v -0.34812010 0.30953525 -0.13395026
v -0.34003693 -0.99394861 0.13215923
v -0.38685109 0.30616204 0.02239531
v -0.35841646 0.34883239 0.01460780
v -0.34006746 -0.99779702 0.02550721
v -0.35192859 -0.94680537 0.09598874
v -0.34077718 0.47792075 -0.02720384
v -0.28290565 -0.97771618 0.19944325
v -0.34221455 0.19904439 -0.11040196
v -0.31503130 0.19854472 -0.04588433
v -0.31624589 0.25389054 -0.10358335
v -0.35240309 0.41725928 -0.12573388
v -0.30954727 -0.99422529 -0.02058141
v -0.31759205 -0.91048733 0.15142395
v -0.30945506 -0.31004749 -0.10286132
v -0.32854360 -0.28458730 0.01108068
v -0.30346783 0.24047272 -0.04363089
v -0.35163586 0.46245464 -0.07591636
v -0.31180042 -0.92246644 0.01001848
v -0.29411519 -0.89335420 0.06948561
v -0.28154236 -0.15480530 -0.03034852
v -0.25215164 0.37720872 -0.14068606
v -0.29116804 -0.97734669 -0.06152109
v -0.29461020 -0.89801160 -0.11052354
v -0.29085419 -0.36796287 -0.07957957
v -0.31428685 0.26946361 0.01772601
v -0.29486746 0.39858337 -0.15281941
v -0.30000129 -0.94882845 0.19627595
v -0.29282438 -0.82913741 -0.04456406
v -0.28247404 -0.84715223 -0.08861280
v -0.29268113 -0.78631657 -0.04904664
v -0.29104780 -0.78531250 -0.09028666
v -0.27409680 -0.72578774 -0.02585014
v -0.28413191 0.48574960 0.02940642
v -0.27329629 0.58436488 -0.00350800
v -0.28415103 -0.72675425 -0.09222366
v -0.28755254 -0.51730281 -0.05210401
v -0.26320689 -0.35742329 0.07766825
v -0.27946066 -0.35942273 0.02713086
v -0.28638203 -0.93683782 -0.11500951
v -0.27937247 -0.90695528 0.18109619
v -0.27690299 -0.83879244 -0.00667535
v -0.26288630 -0.60499752 -0.00867580
v -0.28785317 -0.58308257 -0.06938212
v -0.26282690 -0.42980556 -0.02365972
v -0.28816052 -0.40640189 0.01534920
v -0.29659813 -0.99772005 -0.08709880
v -0.26435057 -0.79314134 -0.13792936
v -0.27296740 -0.78313262 -0.00780466
v -0.26382105 -0.76213607 -0.14315194
v -0.23718957 -0.38893253 -0.14655597
v -0.25085017 -0.29818934 0.11732857
v -0.24123153 0.51586939 -0.15807798
v -0.27477717 0.59793317 -0.07361334
v -0.25530070 -0.72967270 -0.13883931
v -0.24735414 -0.50181325 0.02495534
v -0.26547475 -0.42522301 -0.04134813
v -0.23651738 -0.25763120 0.12347905
v -0.26282227 -0.11389717 0.04999270
v -0.26089990 -0.01461707 -0.02112101
v -0.26949558 0.30535631 -0.10517958
v -0.23235182 0.53407760 0.05177770
v -0.26280013 0.57591753 -0.12591943
v -0.19023771 -0.97898674 -0.01421203
v -0.25234977 -0.90283779 -0.15192148
v -0.24366806 -0.01642858 -0.03020605
v -0.25319462 -0.01622899 0.05080037
v -0.24594856 -0.01508057 -0.07615146
v -0.21512588 0.46176750 -0.14851469
v -0.23751624 -0.92255950 0.18441388
v -0.23652842 -0.78369531 0.01377963
v -0.23444238 -0.44504643 0.02974181
v -0.23787689 -0.43001797 0.05417602
v -0.23180453 -0.08929228 -0.09269762
v -0.23941493 -0.02782432 0.05713712
v -0.26497087 0.33771389 0.03172411
v -0.22957369 0.61934834 -0.07023229
v -0.18287602 -0.99906028 0.05772663
v -0.25685523 -0.88242334 0.07787496
v -0.23908950 -0.83639582 0.01767918
v -0.25501123 -0.58318273 -0.13966042
v -0.24574690 -0.49201119 -0.13836533
v -0.23262646 -0.41996340 -0.11817100
v -0.21580444 -0.01720479 0.08539768
v -0.22007176 0.44846217 0.05125796
v -0.22938852 0.60326217 -0.00138455
v -0.20803940 -0.99168528 0.15641799
v -0.20212335 -0.59956759 0.01464045
v -0.20891811 0.16233098 -0.02670809
v -0.23258817 0.07840868 0.02427375
v -0.22605921 0.22214209 0.05556162
v -0.22373231 0.35656901 -0.02271092
v -0.21043682 0.64309779 -0.05903296
v -0.22475511 -0.99817620 -0.16144116
v -0.24576337 -0.84948380 -0.14207519
v -0.21941333 -0.25557404 0.13669837
v -0.21996253 0.25101520 0.00465667
v -0.22112952 0.26399836 -0.03837629
v -0.21988121 0.27398211 0.04588101
v -0.19521964 -0.94473022 0.12449514
v -0.19039209 -0.79026955 0.00348979
v -0.20399130 -0.73468600 -0.15318517
v -0.22237701 -0.72744699 0.00463963
v -0.20106536 0.16150456 0.01413928
v -0.22947849 0.15407439 0.05601198
v -0.22306795 0.17667404 0.00588035
v -0.19794037 0.17112747 -0.05469761
v -0.19323223 0.26708013 0.02307487
v -0.22160541 0.17831950 -0.04478359
v -0.20885195 0.38179528 0.06513825
v -0.20509725 0.43804119 -0.13900533
v -0.22426930 0.61384627 -0.13072842
v -0.18288141 0.63377337 -0.00133801
v -0.22716796 -0.89320067 0.08314243
v -0.19625596 -0.83751389 0.00595333
v -0.14954243 -0.35929813 -0.18506804
v -0.20209300 -0.18254310 0.13556272
v -0.19649094 0.18067081 0.02637704
v -0.21900665 0.36485791 -0.06089343
v -0.18737743 -0.99745756 -0.01997419
v -0.20183881 -0.78266381 -0.15516078
v -0.20738789 -0.79435895 -0.15168304
v -0.19113411 -0.58070961 -0.16122722
v -0.17961332 -0.51199511 0.03924783
v -0.23389869 -0.30955233 -0.17131326
v -0.18786224 0.08433664 0.07204501
v -0.19718513 0.20624369 0.10239982
v -0.21500699 0.48632802 0.07158496
v -0.18681404 0.59377752 0.01466210
v -0.22150458 0.61888816 0.00427435
v -0.18548666 0.82773241 -0.06819802
v -0.19542358 -0.90865234 0.03087024
v -0.23614923 -0.30243341 0.13738914
v -0.15863105 -0.07695957 -0.16180908
v -0.21292927 -0.02064737 -0.13137183
v -0.21481518 -0.01742425 -0.10060511
v -0.17893665 0.14663556 0.06405915
v -0.18939643 0.26310282 -0.06621737
v -0.19896478 0.27224983 0.00037253
v -0.15461932 0.37244046 0.10748526
v -0.17812788 0.63365416 -0.14411317
v -0.20070528 0.84025873 -0.02971725
v -0.19282316 -0.91175935 -0.15892139
v -0.17725906 -0.85511983 -0.12391029
v -0.17430932 -0.50657942 -0.16430431
v -0.17665946 -0.08047309 0.13241394
v -0.17226606 -0.03517307 0.11351122
v -0.15293176 -0.01953758 -0.17467179
v -0.17465915 0.16448724 -0.10576143
v -0.18243063 0.26389007 -0.10786856
v -0.18880448 0.27631949 -0.05387513
v -0.22579800 0.27325097 0.05967170
v -0.17722603 0.55397004 -0.16575097
v -0.18037462 0.59114098 -0.15010246
v -0.18159581 0.54612958 0.05565499
v -0.18095501 0.60591939 0.02018975
v -0.18704814 0.82510951 0.06662245
v -0.12967817 0.84430289 0.05239753
v -0.18826106 0.84036291 0.07133972
v -0.17065565 -0.99661996 -0.04266795
v -0.16579595 -0.85385372 -0.05905495
v -0.16624529 -0.79531237 -0.12198489
v -0.16146589 -0.66656248 -0.01290931
v -0.16341466 -0.44914403 0.04616669
v -0.19307008 -0.40942239 0.10437637
v -0.18154962 -0.01584389 -0.13292751
v -0.13592069 0.06004474 -0.16264274
v -0.16351932 0.40393178 0.11215748
v -0.17152070 0.50567837 0.08385367
v -0.16724663 0.47677016 -0.16517184
v -0.17408782 0.53472694 0.08601186
v -0.15827339 -0.99584386 -0.13281597
v -0.12186368 -0.56571552 -0.01431022
v -0.15334918 -0.43883251 0.08454352
v -0.17479509 0.27477443 0.05592007
v -0.16673035 0.32465789 -0.12264154
v -0.16087264 0.38454740 0.12542170
v -0.15734963 0.37526187 -0.15018726
v -0.16223417 0.47857948 -0.17893355
v -0.16680333 0.47768269 0.11847126
v -0.13849470 0.84490169 -0.03978122
v -0.17131101 0.84247196 -0.10329081
v -0.14809856 -0.92553602 -0.09582533
v -0.14956824 -0.76674789 -0.03921356
v -0.16157349 -0.73845740 -0.12444500
v -0.16635186 -0.73388573 -0.02102539
v -0.15600946 -0.42862660 -0.14344697
v -0.14679913 -0.02239704 -0.16773931
v -0.14412875 0.27715312 -0.12591596
v -0.14948772 0.32928218 -0.15018938
v -0.14022391 0.27770478 0.09674834
v -0.15336222 0.36299423 -0.16150170
v -0.15286495 -0.40606001 -0.16774966
v -0.14683475 -0.00403080 -0.16105721
v -0.13296716 0.01268201 -0.16183944
v -0.16992699 0.09597540 0.09180405
v -0.14811345 0.15149260 -0.12819462
v -0.14113027 0.27052644 -0.14938439
v -0.15299156 -0.79190302 -0.07675203
v -0.13398639 -0.02740470 -0.16782215
v -0.15914431 -0.01321062 -0.14752075
v -0.14603177 0.18522113 -0.14768345
v -0.14119803 0.27296197 0.11898365
v -0.16603109 0.55317314 -0.17457597
v -0.12539241 0.65033776 -0.00511954
v -0.14939431 0.83882243 0.13523193
v -0.13686307 -0.62640690 -0.12686809
v -0.16600057 -0.02746927 0.12347877
v -0.12326286 0.14374655 0.12022125
v -0.12347794 0.25623328 0.12806491
v -0.15674236 0.26023776 0.14484613
v -0.15060927 -0.73196124 -0.07683898
v -0.11171609 -0.45314428 0.00368813
v -0.14604045 -0.40825183 0.11548739
v -0.12506995 -0.03762490 0.14051884
v -0.15297373 0.15224543 0.14273666
v -0.12760513 0.14267848 0.14857372
v -0.11751318 0.20120206 0.15503778
v -0.12992387 0.25581573 0.15259250
v -0.10974155 0.20983485 0.16770200
v -0.09190877 0.29384211 -0.15929958
v -0.16027103 0.34149129 0.12240002
v -0.11344604 0.65555731 -0.14885609
v -0.10692610 0.63490199 0.00577739
v -0.12545364 0.79897399 -0.03535203
v -0.14653433 0.83116782 -0.12763099
v -0.10488647 0.84410729 -0.10420544
v -0.10197306 0.86553238 0.11095466
v -0.14789106 0.86738718 0.02775433
v -0.11428521 -0.39767729 -0.16848712
v -0.12248844 0.17706309 -0.13779019
v -0.09768706 0.34912744 0.14410284
v -0.10731599 0.38426012 0.14372888
v -0.10964802 0.50939810 0.11466555
v -0.10294274 0.84167725 0.10904016
v -0.08377556 0.83303672 -0.17564823
v -0.10193386 0.84779597 -0.16737839
v -0.11569042 -0.55203260 -0.13227429
v -0.10403560 -0.43074086 -0.11726439
v -0.12352987 0.26694168 0.15963965
v -0.11498574 0.55750199 0.08412424
v -0.10469319 0.66624996 -0.05537752
v -0.11694998 0.84246877 0.16147421
v -0.09408328 0.96246901 0.04173261
v -0.10082070 -0.56358363 -0.07156120
v -0.10787383 -0.40791576 -0.15822823
v -0.09871990 -0.35051715 0.12687804
v -0.09975130 -0.02250337 -0.17701876
v -0.09820881 0.33589199 -0.16862179
v -0.09922523 0.36435508 -0.17631101
v -0.08923511 0.37521846 0.13054982
v -0.10221484 0.44237427 0.13590443
v -0.09899962 0.47123660 -0.19266400
v -0.08787499 0.48282924 0.12535675
v -0.10254474 0.56031120 -0.18615263
v -0.09859730 0.55822718 0.07276296
v -0.10530729 0.76334744 -0.01077203
v -0.10816084 0.80582473 -0.08247039
v -0.10684487 0.82868310 0.16087521
v -0.09089130 -0.44297517 -0.05284332
v -0.09562693 -0.43839206 0.03431907
v -0.09020031 -0.40733653 0.08600637
v -0.11628801 -0.22240776 -0.18188497
v -0.11109148 -0.01670216 -0.19067250
v -0.11590143 0.10032911 0.13472826
v -0.09224410 0.13624659 0.12494946
v -0.06912166 0.16899661 -0.15292557
v -0.11273148 0.27300716 0.12728621
v -0.08888033 0.46307441 -0.18903566
v -0.09011660 0.55196485 -0.18189934
v -0.04848642 0.84681868 -0.14168350
v -0.11824675 0.94193075 -0.01595585
v -0.09278782 0.05318610 0.14389012
v -0.07836549 0.27738472 -0.14750872
v -0.08169220 0.29546839 0.14252187
v -0.08846806 0.34692795 -0.16080834
v -0.09771240 0.50509234 0.10185449
v -0.08165942 0.68011296 -0.10235905
v -0.08261987 0.71049179 -0.03664824
v -0.06795117 0.72614652 -0.06193135
v -0.07452381 0.82959168 0.18178626
v -0.03105395 0.86613519 0.15145507
v -0.11396221 0.86844836 -0.09625463
v -0.10794939 0.92091046 -0.07567230
v -0.08108248 -0.40360400 0.07902196
v -0.08618559 -0.33330622 0.12702067
v -0.12341828 -0.04473246 0.12773396
v -0.04834762 0.66509106 -0.14696117
v -0.07268694 0.69409563 0.00470888
v -0.09201220 0.78774490 0.11608499
v -0.15310271 -0.13770242 0.13452228
v -0.06359919 -0.04849504 0.15818297
v -0.06826366 0.27185267 0.12761765
v -0.05255005 -0.02369432 0.13733328
v -0.09073852 -0.02045568 0.13547826
v -0.07960434 0.00813180 -0.17730826
v -0.06047163 0.55474662 0.08617005
v -0.07335772 0.62643470 0.02576422
v -0.02829116 0.66972579 0.04430220
v -0.08800170 0.72523014 0.06428601
v -0.04957176 0.80211687 -0.13398316
v -0.03318912 -0.37510710 -0.05204396
v -0.01196879 -0.02915566 -0.19176130
v -0.03612037 0.13687940 0.14004856
v -0.01503269 0.86728111 -0.15008115
v -0.07370356 -0.42959573 -0.04622457
v -0.05470271 -0.36343588 -0.14357728
v -0.04594249 -0.08324311 0.14357016
v -0.05169376 0.14677241 0.17714968
v -0.05285316 0.20469452 0.18187769
v -0.05748890 0.41618532 0.14017812
v -0.03968217 0.48759905 0.11872637
v -0.02526798 0.66865538 0.10293738
v -0.05100615 0.77009994 0.14281929
v -0.02401997 0.84258184 0.20126802
v -0.07949019 0.91630147 0.11275613
v -0.02467715 -0.11433081 -0.14965542
v -0.06058739 -0.28648370 0.10633309
v -0.06881691 -0.20486105 0.13563068
v -0.09777252 -0.09976253 -0.17805823
v -0.02200228 -0.04774930 0.16524314
v -0.00384059 0.00896547 0.14553962
v -0.03631797 0.27129890 0.14046098
v -0.04788101 0.26686413 0.18464875
v -0.00870950 0.35841747 -0.17427814
v -0.02594418 0.54228153 0.09356955
v -0.00783045 0.72593399 -0.11445177
v -0.02774599 -0.30384770 0.01763011
v -0.06995986 0.26306986 -0.16160504
v 0.00013531 0.31555763 0.14199771
v -0.03334421 0.60283318 0.05464326
v -0.00420737 0.76961966 0.15686146
v -0.03860304 -0.37114773 -0.00495758
v -0.00542408 -0.11614870 -0.03779302
v -0.00005650 0.05580790 -0.18237211
v -0.02887708 0.17604128 0.14652624
v -0.02626814 0.25551175 0.15379531
v -0.00108982 0.34543468 0.15158860
v 0.00669948 0.57489550 0.07730333
v 0.00136412 0.67617720 0.12141189
v -0.01531888 0.73614418 -0.10011488
v -0.05126639 0.84087215 0.14258929
v -0.04452265 0.95415786 -0.09645666
v -0.00403437 -0.08991798 0.08490913
v 0.02667498 0.13717860 0.14388933
v -0.00643666 0.18398383 0.15442012
v 0.02026646 0.53340533 0.09803704
v -0.00212096 0.60867792 0.05947833
v 0.03602303 0.83013291 0.19141572
v -0.01163628 -0.10280899 0.11142012
v -0.00779849 -0.05916412 0.13825438
v -0.01030195 0.14997801 0.15140841
v -0.01547822 0.38151203 0.13907106
v -0.00226603 0.56700137 -0.18178875
v -0.00281134 0.59354456 0.07406195
v -0.00311682 0.66241568 0.04181653
v -0.03640417 0.98873225 -0.03088383
v -0.00423703 -0.11420803 0.04053297
v 0.00365196 -0.09838190 0.11424448
v -0.00176743 -0.02267440 -0.20144671
v -0.00258707 0.00251889 0.15841738
v -0.00526600 0.02788945 -0.17283985
v -0.00301488 0.45464988 0.14054875
v 0.08244740 0.55348039 -0.18141947
v -0.00177596 0.54581061 0.10125572
v -0.00446224 0.84769722 -0.19254991
v -0.03941518 0.89781998 -0.13322131
v 0.01435384 -0.25306097 0.03664284
v 0.01448367 -0.16644549 0.10027402
v -0.00363439 -0.06908023 -0.16062317
v -0.01357183 -0.02197662 -0.16117218
v 0.00194910 -0.00132750 0.13861781
v -0.00264269 0.01709423 0.15901461
v -0.00922857 0.27959438 -0.15374196
v 0.00911702 0.66168004 -0.14964944
v 0.00848071 0.93932526 -0.11766866
v 0.02770695 -0.36901518 -0.01130646
v 0.02047687 -0.05359236 0.16390548
v -0.01479133 0.16996495 -0.15478778
v 0.02079238 0.25993095 0.14882890
v -0.00243711 0.27965911 0.15215907
v 0.02462250 0.67108339 0.04125979
v 0.02601896 -0.37724405 -0.05210241
v 0.01208365 -0.21960098 -0.04565879
v 0.01759321 -0.11033634 -0.15338035
v 0.02595399 -0.07777383 0.14010012
v 0.02393574 0.17840892 0.14583395
v 0.03457858 0.26539173 0.18201876
v 0.02249097 0.26798157 0.13609979
v 0.02078584 0.83290164 -0.18827329
v 0.03213861 0.97165519 0.07374530
v -0.02836874 0.98639237 0.05792310
v 0.06816645 -0.02706581 -0.19433976
v 0.03057849 -0.00157452 0.14522329
v 0.05577236 -0.04600857 0.16254931
v 0.08186636 0.54891745 0.08420735
v 0.04875908 0.73317691 -0.08168576
v 0.04370183 0.84529740 -0.13956211
v 0.07943673 0.86865702 -0.12009691
v 0.07212508 0.86637028 0.13283140
v 0.04504573 0.14728875 0.17793435
v -0.06951845 0.18572849 -0.16204950
v 0.04097800 0.21235354 0.18236548
v 0.05745517 0.26667915 0.17913632
v 0.02230178 0.35217103 0.13844260
v 0.09304477 0.50789651 0.09985777
v 0.06039602 0.68060309 -0.12028912
v 0.06549869 0.84798839 -0.17877818
v 0.01583021 0.93634503 0.12252058
v 0.02796516 0.98022597 -0.05827158
v 0.05744032 0.00921346 -0.17586079
v 0.06071452 0.19075244 0.17693941
v 0.04652944 0.43580050 0.13564257
v 0.03218458 0.48447752 0.12097852
v 0.09564303 0.65756936 -0.14508549
v 0.04551443 0.80288319 -0.13027892
v 0.03148604 0.84210587 0.14901152
v 0.06591386 -0.01734290 -0.18215861
v 0.07262350 -0.01490878 -0.17576284
v 0.07707448 0.18514788 -0.15591393
v 0.06114413 0.27440728 0.12478760
v 0.04421411 0.60714454 0.04844145
v 0.06884178 0.71644013 -0.05598064
v 0.04197659 0.75762572 0.13955620
v 0.07547101 0.97478052 -0.00329762
v 0.06405675 0.28288473 -0.14845440
v 0.07955929 0.46637548 -0.18812306
v 0.05572130 0.68813097 0.01595345
v 0.06435865 0.70298171 0.07376072
v 0.09483009 0.80947256 -0.09898365
v 0.08743157 0.83264869 -0.16693791
v 0.08668271 0.82917854 0.16878585
v 0.07954984 -0.33736487 0.12739711
v 0.08154712 0.13775377 -0.15718992
v 0.12199323 0.22348321 0.15789207
v 0.08087375 0.28945673 -0.16053649
v 0.07345513 0.70238930 -0.02037388
v 0.10580835 0.94071127 0.03734417
v 0.06595562 -0.43043497 -0.04794999
v 0.04863045 -0.36492207 -0.14593598
v 0.07143933 -0.04541551 0.14562764
v 0.08484842 0.26516489 -0.15391809
v 0.07794869 0.65027146 -0.00407582
v 0.08438148 0.67060645 -0.06433100
v 0.06976648 0.75318808 -0.07297570
v 0.06036884 0.92556834 -0.10792016
v 0.11491940 0.92637502 -0.04361648
v 0.08348781 -0.44388272 -0.05304337
v 0.08619239 -0.43795699 0.03243006
v 0.05899100 -0.19913076 0.13573352
v 0.07431350 -0.04583193 -0.17392627
v 0.07092290 0.27151622 0.13359801
v 0.08102376 0.35268871 -0.16266734
v 0.08930725 0.33604660 -0.17014524
v 0.08875669 0.40228875 0.12873768
v 0.11073082 0.79437266 -0.03252561
v 0.10735132 0.84110857 0.09866355
v 0.07645264 -0.40387637 0.08410691
v 0.06956323 -0.07659510 0.14225009
v 0.10651873 -0.04054832 0.14438736
v 0.04855188 -0.01138722 0.13769815
v 0.09751592 -0.01931964 -0.17650217
v 0.09089827 0.38464373 -0.18085068
v 0.10051425 0.62894588 0.01472989
v 0.08960253 0.63709190 -0.15680943
v 0.09871984 0.65228522 -0.02050395
v 0.09894452 -0.44676977 0.00423372
v 0.09703004 -0.42839582 -0.11748841
v 0.09819440 -0.03964593 0.13196562
v 0.08815381 0.08684706 0.13674984
v 0.14183121 0.35496650 -0.16172768
v 0.10080314 0.42289415 0.13943194
v 0.09253780 0.55900535 -0.18694435
v 0.09915597 0.76169980 -0.00571539
v 0.09254931 0.76803350 0.09106534
v 0.08957333 0.84394211 0.17658042
v 0.09366042 0.91778316 0.08618188
v 0.08285325 -0.38994133 -0.15423010
v 0.10201562 0.13465909 0.13028302
v 0.12435967 0.27194447 0.12317563
v 0.07975071 0.30919611 0.14209392
v 0.13887558 0.31668117 -0.14893095
v 0.12849042 0.84708523 -0.01787032
v 0.09347410 -0.56700587 -0.07062511
v 0.13111797 -0.63142106 -0.12641897
v 0.10638857 -0.54814023 -0.13275314
v 0.12965939 -0.22757759 0.13215886
v 0.09498963 -0.11041999 -0.17738541
v 0.11878957 0.14385498 0.15106555
v 0.11574959 0.14882847 0.12141143
v 0.09796152 0.48453519 0.12721822
v 0.08975183 0.47303343 -0.19263211
v 0.10587930 0.53269909 0.10119641
v 0.11079162 0.66873399 -0.07521161
v 0.11435776 0.84478711 -0.08685334
v 0.13456489 0.86737119 -0.04328216
v 0.13279583 -0.40871860 -0.16603623
v 0.10497039 -0.02231935 -0.18844889
v 0.12253026 -0.02839377 -0.16886545
v 0.10611184 0.18379888 -0.14326428
v 0.14885387 0.27024045 0.14397361
v 0.12265715 0.26800044 0.14884119
v 0.15510204 0.35996015 0.12365115
v 0.09416703 0.36995575 0.14486441
v 0.15521537 0.64116825 -0.00169244
v 0.14573636 0.00815663 -0.16658261
v 0.14654583 0.15157743 0.14216207
v 0.13728863 0.19005469 -0.15240874
v 0.13419563 0.27624182 0.09645973
v 0.13131211 0.27637631 -0.12736396
v 0.16734316 0.63497070 -0.14553963
v 0.17127194 0.82481969 0.09362475
v 0.13493098 0.86674153 0.03937105
v 0.14197135 -0.73891060 -0.07658684
v 0.15271155 -0.73537317 -0.02878321
v 0.16184934 -0.44986388 0.04996531
v 0.14943791 -0.36302875 -0.18441079
v 0.14078688 -0.01935334 -0.16332634
v 0.13357002 0.02134843 -0.16803254
v 0.11732953 0.27054153 -0.15049991
v 0.14605908 0.33910853 0.10294132
v 0.15013834 0.34932216 -0.14114156
v 0.15324258 0.45121074 -0.17784483
v 0.12735143 0.84379793 -0.14578012
v 0.14050431 -0.91465171 -0.09903417
v 0.14601746 -0.79363981 -0.05153255
v 0.15928159 -0.79322189 -0.12468665
v 0.15349710 -0.74042658 -0.12556701
v 0.11954503 -0.57882636 -0.01616432
v 0.14448754 -0.43231484 0.09930543
v 0.16601007 -0.12760356 -0.16347065
v 0.14595354 -0.01055536 -0.14882778
v 0.15035273 -0.01901851 -0.17183515
v 0.14325629 0.14567156 -0.12849919
v 0.16589155 0.15991817 -0.11094779
v 0.15706468 0.45388444 -0.16506430
v 0.15819411 0.45403161 0.12106836
v 0.14299624 -0.99736732 -0.09093827
v 0.16646480 -0.91869233 -0.14683265
v 0.15779649 -0.84916228 -0.07203005
v 0.14703163 -0.42977998 -0.14390259
v 0.12509541 -0.38005661 0.12518432
v 0.13130354 0.10033696 0.11831012
v 0.16628401 0.82833435 -0.08745971
v 0.16906003 -0.85443204 -0.12322925
v 0.17667616 -0.74260975 0.00396250
v 0.16719209 -0.50630508 -0.16422780
v 0.23196323 -0.39361439 -0.14391984
v 0.15046228 -0.03160470 0.12827196
v 0.17319057 0.14769552 0.07036960
v 0.18817080 0.20368651 0.10306915
v 0.15417640 0.28038586 -0.10651903
v 0.17436099 0.27378326 0.04496575
v 0.16444508 0.48929025 0.11290851
v 0.16034954 0.48572762 0.09440392
v 0.16862521 0.52072636 0.07022636
v 0.16739501 0.52553488 0.09218696
v 0.16039675 0.56063908 -0.17039122
v 0.16518941 0.83879997 0.10571868
v 0.18117431 -0.97517856 -0.01265454
v 0.18737125 -0.83608104 0.00527343
v 0.15698480 -0.03962400 0.11805885
v 0.16203936 -0.02491018 -0.15721645
v 0.17150547 -0.01694588 -0.13776437
v 0.10985487 0.08426239 0.12712555
v 0.17062259 0.26770235 -0.12033499
v 0.18360345 0.27509537 -0.05133667
v 0.20313575 0.46404346 -0.14787353
v 0.17328784 0.57517820 0.03070522
v 0.17118489 0.58566210 0.03994191
v 0.17189892 0.62229038 0.00212254
v 0.18185950 -0.98974192 0.02367640
v 0.18407216 -0.99761466 0.04883499
v 0.17811459 -0.99490468 0.09254029
v 0.18639880 -0.93143413 0.08386540
v 0.18247804 0.09629036 0.07236681
v 0.18214512 0.15286714 0.03205055
v 0.19794529 0.42947997 -0.13444612
v 0.21056886 0.49427474 0.06629055
v 0.17462432 0.84245425 -0.08264820
v 0.17610421 -0.99678322 -0.15465749
v 0.21770462 -0.99608306 0.15314428
v 0.19542018 -0.95102795 0.14746780
v 0.24004603 -0.49995452 0.02461656
v 0.19057520 -0.02562315 -0.11697305
v 0.19559545 -0.01884163 0.09409449
v 0.18289002 0.08687795 0.06645543
v 0.19104455 0.16750602 0.02729291
v 0.19037782 0.16942837 -0.05617318
v 0.18339775 0.25994702 0.02303080
v 0.19838963 0.27040282 0.03524343
v 0.14983318 0.39238177 0.11697360
v 0.18873188 0.82605535 -0.01677148
v 0.19356723 0.83967561 -0.00253372
v 0.18832424 -0.90943719 0.03624585
v 0.18122959 -0.58081954 -0.16097558
v 0.18313516 -0.58710458 0.01726493
v 0.16826048 -0.09143686 0.13327274
v 0.20436651 -0.02125912 -0.13140003
v 0.18499702 0.09281988 -0.11210352
v 0.19775541 0.16290301 -0.03351070
v 0.20777729 0.25897403 0.01018350
v 0.19386260 0.27139310 0.00844419
v 0.21273616 0.61850949 0.00149920
v 0.18583748 -0.99748421 -0.02347837
v 0.19908360 -0.92382195 -0.16054885
v 0.21756216 -0.10294029 -0.10891722
v 0.22201008 -0.02482915 -0.07782284
v 0.22349159 0.04653804 -0.06691591
v 0.19485925 0.16282479 0.00922469
v 0.21558526 0.17546576 0.01005704
v 0.21173573 0.34708005 0.00118082
v 0.20206550 0.37965184 0.06080944
v 0.21194189 0.44620138 0.05066818
v 0.21083802 -0.98473247 0.17557154
v 0.21374484 -0.89504175 0.07854635
v 0.20932008 -0.85173620 -0.14497371
v 0.19941954 -0.79317097 -0.15254533
v 0.18212135 -0.78986461 0.00301913
v 0.19475058 -0.73941618 -0.15563708
v 0.20133644 -0.41506919 0.09264806
v 0.23367622 -0.01514082 -0.08283182
v 0.21905992 0.17544826 -0.04455767
v 0.22015940 0.15434866 0.05601683
v 0.22128581 0.27108852 0.05822901
v 0.20848295 0.37201549 -0.06900554
v 0.21811938 0.35573555 -0.02240516
v 0.22077745 0.60332780 -0.00052244
v 0.21393594 -0.72547151 0.00172550
v 0.22933662 -0.30126418 0.13776246
v 0.21616148 0.26393785 -0.04451003
v 0.21730446 0.61003845 -0.13172940
v 0.22152547 0.61937405 -0.07439348
v 0.20499817 0.64120870 -0.05684966
v 0.23037824 -0.83612050 0.01821837
v 0.22385234 -0.78666932 0.01458106
v 0.24909379 -0.56939572 -0.13830884
v 0.22487870 -0.42043708 -0.11725386
v 0.22987705 -0.44339486 0.02700246
v 0.22598024 -0.31141417 -0.17090715
v 0.24949654 -0.00422947 0.04154117
v 0.25564676 -0.01427847 0.00358696
v 0.22989202 0.52017763 -0.15913653
v 0.23059531 -0.91981946 0.17986880
v 0.23393699 -0.02172003 0.05284887
v 0.24020401 0.34245241 -0.11297388
v 0.21584593 0.37206489 -0.00962154
v 0.27302246 -0.35872765 0.02674385
v 0.23717080 -0.02045680 -0.03393759
v 0.25643964 0.33937065 0.03014139
v 0.24737723 0.40401259 -0.15201592
v 0.22405659 0.53766502 0.05021630
v 0.24730481 -0.98102309 -0.04684721
v 0.21397014 -0.98090250 -0.02987698
v 0.22417964 -0.73672352 0.01245863
v 0.24752177 -0.73124943 -0.14183343
v 0.25379104 -0.58667156 -0.00510586
v 0.24012558 -0.49330650 -0.13748025
v 0.28006388 -0.40629030 0.01533641
v 0.24853985 -0.01455366 -0.05010305
v 0.27438772 0.50115270 0.02747530
v 0.30349673 -0.99476029 -0.01992750
v 0.24352288 -0.90764908 -0.15273927
v 0.25557568 -0.83135360 -0.13590035
v 0.25314128 -0.79007974 -0.14051967
v 0.25704302 -0.99754415 -0.14812559
v 0.28665750 -0.97655328 -0.05976952
v 0.28338307 -0.97556317 0.19981345
v 0.28653006 -0.90551134 0.17685427
v 0.26750014 -0.80096601 -0.00459429
v 0.26800941 -0.77640779 -0.01022636
v 0.25608423 -0.72260059 -0.01913126
v 0.27295705 0.29337008 -0.10642749
v 0.26676245 0.59670383 -0.07208832
v 0.28632975 -0.99712209 -0.07179313
v 0.27366706 -0.84814445 -0.09653966
v 0.28354498 -0.78597321 -0.09191191
v 0.27309916 -0.72080177 -0.08757086
v 0.27946705 -0.56908417 -0.06326881
v 0.26136288 -0.42501962 -0.03334749
v 0.30244634 -0.32561007 -0.08475384
v 0.26031175 -0.12939485 0.04888305
v 0.29571015 0.24448947 -0.04411008
v 0.25597758 0.57453523 -0.12517697
v 0.28444998 -0.89925454 -0.11031903
v 0.28548271 -0.82885417 -0.04378598
v 0.28744776 -0.77305394 -0.04738075
v 0.28216000 -0.73371071 -0.04831471
v 0.28161392 -0.38365768 -0.06591111
v 0.26925232 -0.14198240 -0.03005825
v 0.26977677 -0.88314840 0.07684951
v 0.27075195 -0.84181877 -0.00591388
v 0.28189890 -0.78782884 -0.04801663
v 0.28955376 0.28634677 0.01742214
v 0.30925368 0.26805358 -0.10959276
v 0.26938080 0.57873272 -0.00302511
v 0.30276874 -0.92070967 0.01270480
v 0.31100940 0.26347047 0.01679904
v 0.33452105 0.43168620 -0.12828725
v 0.32148981 -0.28446659 0.01033114
v 0.30020396 -0.30685711 -0.09940939
v 0.33087090 0.35818064 0.01719831
v 0.32626651 0.23274159 -0.11334608
v 0.34214738 -0.99684027 0.08522283
v 0.33693084 -0.92894318 0.09193608
v 0.30983402 0.19881766 -0.04785052
v 0.33276179 0.19653179 0.01633955
v 0.33303031 -0.99816048 0.03359241
v 0.32831047 0.20476841 -0.10518796
v 0.28163111 0.40285828 -0.15413077
v 0.32770933 -0.97573198 0.16408228
v 0.34340386 -0.95551701 0.07066017
v 0.37519297 0.25263313 0.02201835
v 0.36013802 0.17107570 -0.09632735
v 0.37252484 0.41880919 -0.07557055
v 0.33782858 0.20297878 -0.11212336
v 0.37476530 0.25927926 -0.14399384
v 0.34426616 0.31037932 -0.13548470
v 0.33914134 0.46562865 -0.02708785
v 0.38940980 0.19383782 0.02664717
v 0.39349816 0.27734537 0.02861762
v 0.39965241 0.37240684 -0.01848983
v 0.39274856 0.12484391 0.01921325
v 0.42368184 0.33131365 -0.05996689
v 0.41364935 0.18981899 0.04418720
v 0.44439494 0.27438316 -0.10673071
v 0.40130992 0.32968946 -0.11627055
v 0.43922916 0.30902430 -0.01722424
v 0.42795531 0.09834404 -0.06900610
v 0.36742239 0.31865476 0.01998460
v 0.42146150 0.07325481 0.01992723
v 0.43367112 0.17466223 -0.11231434
v 0.44993492 0.06271435 0.05996093
v 0.45501483 0.03144899 -0.02997417
v 0.43820510 0.03760534 0.02077149
v 0.45956462 0.04069191 0.00654298
v 0.47477390 0.03935733 -0.06795181
v 0.44918488 0.30139975 -0.05368894
v 0.47467660 -0.06620355 0.05322231
v 0.46734679 -0.06551566 0.08004247
v 0.46296649 -0.00001348 0.04628328
v 0.46019461 0.04486496 0.04073657
v 0.48301567 0.14678927 -0.08945177
v 0.49501031 -0.07033262 0.07644545
v 0.47929127 0.06024209 0.05590765
v 0.47134819 -0.01188212 0.08423760
v 0.48045819 0.15939167 0.03908342
v 0.48946234 0.19132447 -0.07354887
v 0.49370463 -0.00228432 0.07960138
v 0.51950182 0.07527390 0.04297912
v 0.49636549 -0.01624950 0.04708676
v 0.50381464 0.08401883 0.06184545
v 0.51419770 -0.00031716 0.06460252
v 0.47914162 0.03643507 -0.04394826
v 0.51851576 -0.12068100 0.06998528
v 0.54066776 -0.04337158 0.02400711
v 0.52394162 -0.04267188 0.06157614
v 0.52913195 0.05616821 -0.07412294
v 0.52973306 -0.10875018 -0.02991020
v 0.51796177 -0.11977312 0.04594860
v 0.50789212 0.19139578 -0.01178189
v 0.53881591 -0.13508419 0.02402143
v 0.53651949 -0.10677062 0.00460612
v 0.52037731 -0.10151414 -0.05737889
v 0.53919476 -0.03049404 -0.04049425
v 0.55083236 -0.01694601 0.07068045
v 0.55672920 0.07331950 -0.03610539
v 0.55292459 -0.11347004 -0.00561635
v 0.56166000 -0.02643656 -0.06261077
v 0.56237323 -0.07918319 0.06476028
v 0.54808175 0.05991160 -0.04259138
v 0.55678217 0.08530240 0.01251388
v 0.57577527 -0.10621264 0.01342941
v 0.54402118 -0.10582997 0.03982843
v 0.58034678 -0.08354583 0.03759455
v 0.58120232 -0.02829724 -0.03670424
v 0.55195064 0.06763784 -0.00001681
v 0.58417977 -0.07815495 -0.02181358
v 0.58742053 -0.01427264 0.02978883
v 0.58626052 -0.01268168 -0.00019841
f 3 7 5
f 7 1 5
f 1 2 4
f 4 5 1
f 3 6 8
f 5 6 3
f 6 5 16
f 32 16 5
f 4 32 5
f 1 9 2
f 7 20 1
f 7 3 17
f 4 2 13
f 8 6 10
f 1 20 9
f 3 8 17
f 4 13 15
f 17 20 7
f 9 19 2
f 2 18 13
f 19 18 2
f 30 13 18
f 8 25 17
f 25 8 10
f 10 6 22
f 4 15 26
f 6 16 22
f 28 16 11
f 22 16 28
f 16 12 11
f 32 12 16
f 9 20 19
f 24 14 20
f 19 20 21
f 14 21 20
f 4 26 32
f 23 11 12
f 20 17 24
f 30 15 13
f 24 17 25
f 10 24 25
f 24 10 14
f 12 37 49
f 23 12 49
f 21 31 19
f 27 31 21
f 31 27 15
f 26 15 27
f 10 22 45
f 45 22 28
f 12 32 37
f 28 11 39
f 39 11 23
f 29 30 18
f 19 29 18
f 29 19 31
f 30 29 31
f 15 30 31
f 27 21 41
f 41 21 14
f 32 26 36
f 39 38 28
f 27 34 26
f 28 33 45
f 32 36 37
f 27 41 34
f 10 45 14
f 33 28 46
f 37 52 49
f 41 40 34
f 40 35 34
f 41 14 47
f 45 47 14
f 26 34 36
f 49 48 23
f 35 43 34
f 42 41 47
f 43 36 34
f 36 53 37
f 46 28 38
f 38 39 54
f 40 41 42
f 40 43 35
f 36 43 44
f 37 53 52
f 39 23 55
f 42 43 40
f 43 42 44
f 33 50 45
f 44 53 36
f 54 46 38
f 55 23 48
f 58 48 49
f 47 44 42
f 45 50 47
f 59 33 46
f 59 50 33
f 44 47 50
f 44 51 53
f 44 50 51
f 57 54 39
f 39 55 57
f 49 52 58
f 53 56 52
f 51 50 64
f 59 64 50
f 51 66 53
f 46 54 57
f 55 48 61
f 48 58 61
f 51 64 66
f 53 66 56
f 46 57 75
f 69 52 56
f 52 69 58
f 59 46 75
f 69 70 58
f 66 60 56
f 65 55 61
f 66 62 60
f 57 55 63
f 65 63 55
f 63 75 57
f 70 73 58
f 56 60 69
f 65 61 84
f 58 73 61
f 73 84 61
f 66 64 62
f 62 92 60
f 67 63 65
f 65 84 78
f 59 76 64
f 76 59 75
f 92 69 60
f 93 67 65
f 76 62 64
f 67 75 63
f 68 72 71
f 65 78 93
f 129 78 84
f 68 94 72
f 72 85 71
f 75 67 77
f 73 70 100
f 94 68 74
f 72 86 85
f 80 72 94
f 80 86 72
f 76 83 62
f 76 75 77
f 83 92 62
f 142 70 69
f 120 84 73
f 79 71 85
f 82 81 91
f 87 81 82
f 83 76 77
f 67 88 77
f 71 79 144
f 85 89 79
f 125 87 82
f 92 142 69
f 67 93 88
f 70 142 100
f 84 120 129
f 89 85 106
f 85 90 106
f 83 77 127
f 89 106 113
f 94 107 80
f 80 107 145
f 108 85 86
f 85 108 90
f 97 96 95
f 115 97 95
f 96 97 98
f 99 102 98
f 97 99 98
f 105 91 112
f 117 91 81
f 82 91 105
f 124 82 118
f 125 82 124
f 83 127 158
f 158 92 83
f 78 129 119
f 86 80 145
f 90 96 161
f 108 96 90
f 108 95 96
f 96 114 161
f 108 115 95
f 96 98 114
f 99 97 115
f 112 91 123
f 82 105 118
f 127 77 88
f 119 93 78
f 73 100 101
f 73 101 120
f 107 94 136
f 90 161 131
f 98 102 116
f 102 110 121
f 99 110 102
f 122 103 110
f 111 123 103
f 123 91 149
f 112 139 104
f 104 105 112
f 158 142 92
f 113 186 89
f 160 113 106
f 106 90 131
f 116 114 98
f 116 102 121
f 109 110 99
f 110 147 121
f 111 103 122
f 123 111 112
f 91 117 149
f 104 118 105
f 117 81 191
f 81 87 140
f 100 128 101
f 71 144 68
f 131 160 106
f 79 89 130
f 130 144 79
f 136 94 74
f 86 145 108
f 115 108 146
f 115 137 99
f 110 109 122
f 110 103 147
f 148 103 149
f 123 149 103
f 111 139 112
f 140 191 81
f 125 132 87
f 133 156 126
f 88 93 135
f 186 130 89
f 180 145 107
f 146 108 145
f 114 116 187
f 137 169 99
f 109 99 169
f 147 103 148
f 118 104 199
f 132 125 141
f 126 134 132
f 158 127 185
f 177 88 135
f 93 119 135
f 152 120 101
f 107 136 180
f 137 115 146
f 116 121 168
f 138 111 122
f 139 111 138
f 139 199 104
f 118 199 124
f 87 132 140
f 141 126 132
f 133 126 141
f 156 155 126
f 134 126 155
f 177 127 88
f 158 151 142
f 151 100 142
f 100 194 128
f 101 128 152
f 120 143 129
f 68 144 153
f 68 153 74
f 136 74 153
f 160 131 209
f 146 145 181
f 114 188 161
f 168 121 147
f 162 124 199
f 133 192 156
f 155 173 134
f 152 143 120
f 145 180 181
f 131 161 209
f 146 181 137
f 114 187 188
f 169 154 109
f 147 148 211
f 154 122 109
f 231 199 139
f 124 183 125
f 132 202 140
f 202 134 201
f 133 141 150
f 134 202 132
f 201 134 173
f 133 150 192
f 172 163 175
f 163 164 175
f 218 165 157
f 177 185 127
f 151 194 100
f 119 129 178
f 178 129 143
f 143 159 178
f 196 159 143
f 152 196 143
f 166 180 136
f 168 187 116
f 189 147 211
f 117 191 182
f 183 124 162
f 125 212 141
f 141 212 213
f 141 213 150
f 155 172 175
f 157 171 193
f 157 184 171
f 172 174 163
f 157 193 218
f 185 205 158
f 153 166 136
f 181 167 137
f 189 168 147
f 122 190 138
f 191 140 200
f 201 232 202
f 156 170 155
f 172 155 170
f 173 155 175
f 172 170 184
f 184 157 165
f 164 204 175
f 163 205 164
f 205 185 217
f 158 205 176
f 158 176 151
f 219 119 178
f 195 179 152
f 152 179 196
f 179 159 196
f 166 198 180
f 180 198 181
f 161 188 210
f 167 169 137
f 169 229 154
f 154 190 122
f 149 253 148
f 202 200 140
f 156 192 203
f 156 203 170
f 173 175 204
f 172 184 174
f 204 164 217
f 165 174 184
f 218 193 277
f 163 174 205
f 164 205 217
f 185 177 242
f 236 177 135
f 113 160 186
f 153 144 166
f 238 160 209
f 209 161 210
f 167 252 169
f 251 168 189
f 231 139 138
f 162 357 183
f 212 125 183
f 202 232 200
f 274 150 213
f 215 201 173
f 203 171 170
f 165 241 174
f 217 185 242
f 128 194 221
f 119 219 135
f 195 152 128
f 159 207 178
f 197 223 208
f 223 225 208
f 226 130 186
f 198 130 226
f 144 130 166
f 166 130 198
f 252 229 169
f 182 259 117
f 329 182 191
f 203 192 262
f 184 170 171
f 215 173 204
f 205 241 176
f 176 241 206
f 194 235 221
f 135 219 236
f 219 178 220
f 195 128 221
f 207 220 178
f 195 222 179
f 208 248 197
f 249 198 226
f 198 227 181
f 167 181 227
f 228 210 188
f 229 239 154
f 211 148 253
f 230 138 190
f 230 240 138
f 149 259 253
f 259 149 117
f 232 201 267
f 150 274 192
f 262 331 203
f 204 216 215
f 193 171 282
f 204 217 216
f 174 241 205
f 218 269 165
f 165 269 241
f 176 234 151
f 194 151 234
f 235 237 221
f 237 222 221
f 195 221 222
f 224 223 197
f 208 225 295
f 186 160 226
f 167 227 250
f 188 187 228
f 251 228 187
f 187 168 251
f 167 250 252
f 251 189 273
f 239 190 154
f 199 313 162
f 183 357 212
f 267 200 232
f 214 267 201
f 233 214 201
f 263 233 201
f 215 263 201
f 171 203 282
f 282 277 193
f 216 264 215
f 255 216 217
f 241 257 206
f 206 234 176
f 177 236 244
f 194 234 235
f 237 235 246
f 236 219 270
f 219 220 270
f 207 270 220
f 290 179 222
f 197 247 224
f 226 160 238
f 238 209 249
f 249 227 198
f 249 209 210
f 249 210 227
f 210 228 227
f 228 265 227
f 265 250 227
f 231 138 240
f 199 231 280
f 162 313 357
f 200 329 191
f 267 214 254
f 331 275 203
f 269 257 241
f 217 242 255
f 177 244 242
f 236 245 258
f 243 246 234
f 234 246 235
f 236 270 245
f 222 237 307
f 289 207 159
f 248 292 197
f 223 272 225
f 295 349 208
f 226 238 249
f 353 213 212
f 353 274 213
f 215 268 263
f 215 264 268
f 216 255 264
f 277 269 218
f 257 288 206
f 242 244 256
f 244 258 256
f 288 243 206
f 243 234 206
f 244 236 258
f 237 246 307
f 290 271 179
f 179 271 159
f 349 248 208
f 251 265 228
f 265 251 278
f 265 278 250
f 252 250 278
f 273 189 304
f 304 189 211
f 280 231 240
f 353 281 274
f 260 267 254
f 261 260 254
f 261 330 214
f 261 267 233
f 260 233 267
f 233 260 214
f 261 214 260
f 233 330 261
f 192 274 262
f 203 275 282
f 288 257 269
f 255 242 256
f 307 246 300
f 251 273 278
f 252 278 229
f 305 211 253
f 279 230 190
f 253 259 312
f 267 266 200
f 214 266 254
f 254 266 261
f 266 267 261
f 255 256 264
f 264 256 287
f 258 315 256
f 245 319 258
f 245 270 319
f 270 207 321
f 325 272 223
f 293 197 292
f 292 248 303
f 197 293 247
f 338 350 295
f 312 259 296
f 259 182 296
f 280 313 199
f 329 200 386
f 214 330 266
f 263 268 297
f 282 276 277
f 277 276 269
f 269 276 334
f 287 256 315
f 258 319 316
f 290 222 307
f 159 271 308
f 309 272 325
f 272 294 225
f 295 350 349
f 311 278 273
f 279 190 239
f 305 304 211
f 230 327 240
f 305 253 312
f 280 240 328
f 313 385 357
f 200 266 386
f 339 262 274
f 282 275 276
f 285 276 283
f 285 283 284
f 284 286 285
f 306 276 285
f 269 341 288
f 288 341 298
f 316 315 258
f 243 318 246
f 318 300 246
f 319 270 321
f 207 289 321
f 289 159 308
f 291 224 247
f 325 223 301
f 223 224 301
f 294 295 225
f 338 295 310
f 229 278 239
f 239 278 311
f 386 266 314
f 266 330 314
f 274 281 339
f 276 275 283
f 285 286 306
f 334 276 306
f 264 287 340
f 341 269 334
f 243 288 298
f 243 298 299
f 318 243 299
f 308 271 290
f 291 247 324
f 292 302 337
f 303 302 292
f 349 303 248
f 294 382 295
f 310 295 382
f 273 304 311
f 279 239 311
f 311 304 305
f 230 279 327
f 240 327 328
f 182 329 296
f 374 353 212
f 353 361 281
f 233 263 333
f 268 264 395
f 291 323 224
f 247 293 324
f 292 337 293
f 309 294 272
f 326 311 305
f 311 326 279
f 327 279 326
f 280 328 313
f 313 352 385
f 357 374 212
f 233 333 330
f 339 331 262
f 331 332 275
f 283 275 332
f 268 395 468
f 264 340 395
f 318 299 317
f 300 318 320
f 320 343 300
f 300 343 307
f 307 343 322
f 322 290 307
f 308 344 289
f 355 224 323
f 366 224 355
f 291 324 323
f 323 324 346
f 224 356 301
f 348 294 309
f 327 326 372
f 339 332 331
f 283 376 284
f 268 468 297
f 287 315 342
f 316 342 315
f 335 342 316
f 299 298 317
f 316 319 335
f 336 335 319
f 321 336 319
f 343 363 322
f 290 364 308
f 345 344 308
f 355 345 308
f 355 323 345
f 356 224 366
f 293 367 324
f 309 325 347
f 328 327 351
f 352 328 351
f 328 352 313
f 358 281 361
f 314 362 437
f 333 401 330
f 297 333 263
f 283 375 376
f 286 376 306
f 359 341 334
f 342 340 287
f 341 359 317
f 341 317 298
f 377 320 318
f 336 321 354
f 289 354 321
f 355 308 364
f 323 346 345
f 346 324 367
f 347 325 301
f 305 372 326
f 351 372 399
f 372 351 327
f 305 312 373
f 312 296 373
f 399 384 351
f 351 384 352
f 353 360 361
f 281 358 339
f 370 332 339
f 376 286 284
f 334 306 359
f 359 377 317
f 317 377 318
f 320 378 343
f 322 364 290
f 322 363 364
f 344 354 289
f 367 293 337
f 347 381 309
f 381 348 309
f 382 294 348
f 350 433 349
f 382 458 310
f 338 409 350
f 373 296 329
f 352 384 385
f 353 374 360
f 369 314 330
f 468 333 297
f 306 376 390
f 306 390 359
f 340 342 391
f 335 391 342
f 378 363 343
f 346 344 345
f 356 408 301
f 349 371 303
f 433 371 349
f 423 409 338
f 338 310 423
f 372 305 368
f 305 373 368
f 329 386 383
f 385 374 357
f 314 437 386
f 330 426 369
f 283 332 370
f 283 370 375
f 359 390 389
f 336 354 420
f 365 355 364
f 365 379 366
f 365 366 355
f 356 366 379
f 379 380 356
f 356 380 408
f 301 408 347
f 433 350 409
f 383 373 329
f 362 428 437
f 339 439 370
f 359 389 377
f 377 378 320
f 378 392 363
f 365 364 397
f 344 393 354
f 303 371 432
f 399 372 368
f 374 417 360
f 387 358 388
f 369 362 314
f 358 361 388
f 362 369 428
f 358 387 339
f 377 419 378
f 364 363 397
f 346 407 344
f 344 407 393
f 346 367 407
f 423 310 458
f 373 400 368
f 383 400 373
f 360 438 388
f 361 360 388
f 333 445 401
f 370 376 375
f 402 376 370
f 402 403 390
f 402 390 376
f 395 340 440
f 389 396 377
f 380 398 408
f 347 408 483
f 381 347 415
f 302 303 432
f 399 368 394
f 368 400 394
f 399 394 384
f 384 394 416
f 416 385 384
f 383 386 436
f 417 374 416
f 386 437 436
f 417 438 360
f 387 439 339
f 418 402 370
f 403 402 412
f 389 390 403
f 340 391 440
f 396 419 377
f 363 392 405
f 405 397 363
f 379 406 380
f 347 483 415
f 475 458 382
f 385 416 374
f 330 401 426
f 439 418 370
f 389 447 396
f 396 404 419
f 419 429 378
f 392 378 413
f 335 336 420
f 354 441 420
f 354 393 441
f 382 348 475
f 409 423 442
f 424 394 400
f 416 394 410
f 417 452 438
f 387 388 439
f 403 447 389
f 392 413 431
f 392 431 405
f 405 421 397
f 397 421 414
f 397 414 365
f 379 365 422
f 406 398 380
f 398 483 408
f 302 432 456
f 302 456 337
f 423 476 442
f 394 424 410
f 400 383 436
f 410 417 416
f 388 427 439
f 439 411 418
f 418 453 402
f 402 453 412
f 395 440 492
f 479 429 419
f 414 422 365
f 442 433 409
f 434 400 450
f 424 400 434
f 424 434 410
f 425 410 435
f 400 436 451
f 417 410 425
f 417 425 452
f 437 428 477
f 395 492 508
f 335 420 430
f 378 480 413
f 466 475 348
f 457 458 475
f 434 450 443
f 450 400 451
f 435 410 434
f 444 427 460
f 427 388 460
f 477 428 369
f 411 453 418
f 468 395 486
f 404 471 419
f 471 479 419
f 480 378 429
f 405 431 413
f 421 405 414
f 379 422 448
f 367 337 482
f 381 466 348
f 433 442 371
f 425 435 516
f 452 527 438
f 427 461 439
f 369 484 477
f 438 460 388
f 333 468 445
f 453 446 412
f 412 446 403
f 403 446 447
f 447 446 455
f 396 471 404
f 479 480 429
f 462 405 413
f 420 441 531
f 448 422 414
f 406 379 495
f 398 406 490
f 407 482 463
f 407 367 482
f 449 443 450
f 425 516 452
f 436 437 517
f 426 459 369
f 459 484 369
f 444 461 427
f 527 460 438
f 454 455 446
f 455 396 447
f 414 488 448
f 379 448 495
f 407 463 393
f 482 337 464
f 466 381 542
f 423 491 476
f 458 491 423
f 434 443 435
f 450 451 506
f 436 554 451
f 517 437 477
f 500 426 401
f 439 461 411
f 411 469 453
f 445 468 486
f 446 453 469
f 454 446 469
f 391 335 493
f 335 430 493
f 414 405 488
f 473 441 393
f 473 393 463
f 483 398 490
f 456 432 474
f 464 337 456
f 381 415 542
f 432 371 474
f 371 465 474
f 371 442 512
f 476 512 442
f 443 449 505
f 450 506 449
f 436 517 554
f 469 411 467
f 500 445 486
f 454 469 470
f 454 470 455
f 455 487 396
f 472 413 480
f 462 413 472
f 405 462 488
f 531 430 420
f 481 441 473
f 448 494 495
f 490 406 495
f 371 512 465
f 458 457 491
f 452 525 527
f 517 477 485
f 459 426 500
f 467 478 469
f 486 395 508
f 487 455 518
f 455 470 518
f 481 531 441
f 482 511 463
f 482 496 511
f 443 505 515
f 435 443 524
f 516 525 452
f 507 444 460
f 411 461 536
f 401 445 500
f 469 478 470
f 487 471 396
f 492 440 519
f 440 391 519
f 471 521 479
f 448 488 494
f 489 463 511
f 464 456 497
f 456 474 497
f 475 466 543
f 475 543 457
f 491 457 504
f 524 443 515
f 449 506 544
f 499 435 524
f 499 516 435
f 461 444 507
f 527 507 460
f 467 411 555
f 478 501 470
f 487 521 471
f 479 521 538
f 509 494 488
f 494 503 495
f 495 541 490
f 523 490 541
f 483 490 523
f 482 464 496
f 415 498 542
f 512 476 513
f 505 449 544
f 535 527 525
f 411 536 545
f 508 492 502
f 518 547 487
f 391 493 519
f 557 472 480
f 463 510 473
f 511 503 489
f 496 464 561
f 415 483 498
f 464 497 561
f 543 504 457
f 476 491 513
f 514 515 505
f 544 506 583
f 485 564 517
f 485 459 564
f 459 485 484
f 502 492 520
f 519 520 492
f 547 521 487
f 493 529 519
f 479 538 480
f 538 557 480
f 494 509 503
f 509 510 503
f 503 510 489
f 463 489 510
f 495 503 540
f 540 511 522
f 483 523 498
f 515 514 533
f 514 505 534
f 505 544 534
f 524 608 499
f 506 451 583
f 507 526 461
f 517 564 484
f 517 484 528
f 484 564 477
f 484 485 528
f 528 485 477
f 459 500 564
f 411 545 555
f 500 486 566
f 467 555 478
f 470 568 518
f 570 521 547
f 519 529 520
f 529 493 558
f 493 430 558
f 539 558 430
f 531 539 430
f 462 509 488
f 509 462 530
f 509 530 532
f 510 509 532
f 560 473 510
f 511 540 503
f 474 590 497
f 514 534 550
f 515 596 524
f 516 553 525
f 554 517 565
f 526 527 535
f 526 507 527
f 517 528 565
f 564 528 477
f 536 461 526
f 486 508 586
f 518 568 546
f 586 508 502
f 548 502 520
f 538 521 570
f 462 472 559
f 530 462 559
f 481 473 560
f 510 532 560
f 541 495 540
f 496 522 511
f 465 590 474
f 513 465 512
f 595 514 550
f 534 552 550
f 595 533 514
f 608 553 499
f 516 499 553
f 554 583 451
f 528 564 565
f 526 631 536
f 486 586 566
f 501 568 470
f 520 529 537
f 557 559 472
f 577 539 531
f 541 540 549
f 498 523 578
f 551 550 552
f 552 534 613
f 608 524 596
f 525 628 535
f 526 615 631
f 609 545 536
f 609 536 631
f 555 501 478
f 548 586 502
f 547 518 546
f 557 538 603
f 624 539 577
f 540 522 549
f 541 549 523
f 578 542 498
f 562 465 513
f 580 595 550
f 533 595 582
f 613 534 607
f 533 582 596
f 533 596 515
f 563 544 583
f 553 664 525
f 535 628 615
f 526 535 615
f 556 555 545
f 555 556 501
f 568 556 546
f 501 556 568
f 547 569 570
f 529 558 589
f 557 620 559
f 559 623 636
f 531 481 577
f 549 496 561
f 522 496 549
f 625 542 578
f 579 543 466
f 504 513 491
f 551 580 550
f 607 544 563
f 534 544 607
f 564 500 585
f 600 585 500
f 556 545 609
f 574 566 586
f 548 576 586
f 520 537 548
f 558 539 624
f 636 530 559
f 637 571 530
f 532 530 571
f 532 571 700
f 700 560 532
f 579 504 543
f 595 580 581
f 552 662 551
f 554 565 597
f 664 628 525
f 565 584 585
f 500 566 600
f 574 600 566
f 573 567 546
f 556 573 546
f 587 546 575
f 603 620 557
f 636 637 530
f 481 560 577
f 561 497 610
f 465 646 590
f 465 562 646
f 625 579 466
f 542 625 466
f 562 513 579
f 579 513 504
f 580 594 593
f 593 592 580
f 581 580 592
f 594 580 551
f 595 663 582
f 552 613 662
f 608 696 553
f 565 599 629
f 564 599 565
f 565 629 584
f 565 585 598
f 564 585 599
f 598 572 584
f 599 584 572
f 584 599 585
f 572 598 585
f 598 584 630
f 600 574 601
f 586 632 574
f 632 586 576
f 546 567 575
f 548 588 576
f 588 548 537
f 547 546 569
f 537 529 589
f 538 570 569
f 589 558 624
f 497 590 610
f 578 523 549
f 606 611 591
f 583 554 706
f 597 565 598
f 616 556 609
f 556 616 573
f 601 574 632
f 546 587 569
f 658 569 587
f 602 588 537
f 537 589 602
f 569 658 538
f 658 603 538
f 646 610 590
f 610 659 561
f 659 549 561
f 647 604 605
f 604 591 605
f 592 606 627
f 606 592 593
f 592 685 581
f 581 685 612
f 663 595 581
f 614 607 563
f 614 563 583
f 665 629 599
f 584 629 630
f 599 572 665
f 585 666 572
f 585 600 666
f 631 653 609
f 573 617 567
f 632 576 618
f 575 567 619
f 576 588 618
f 658 587 679
f 588 602 644
f 658 621 603
f 623 559 620
f 602 589 624
f 560 700 577
f 659 578 549
f 562 660 646
f 626 591 604
f 626 661 591
f 605 591 611
f 661 606 591
f 606 593 611
f 704 607 614
f 596 687 608
f 554 597 706
f 615 652 631
f 609 653 642
f 609 642 616
f 692 633 618
f 619 587 575
f 618 588 644
f 658 645 621
f 621 620 603
f 620 621 623
f 621 622 623
f 634 602 624
f 579 660 562
f 671 626 604
f 606 661 627
f 593 684 611
f 627 685 592
f 593 594 686
f 630 651 598
f 600 601 666
f 642 643 616
f 632 618 633
f 680 645 658
f 621 645 622
f 622 635 623
f 623 635 636
f 636 635 637
f 638 639 640
f 640 641 638
f 649 641 640
f 661 626 638
f 641 661 638
f 605 611 683
f 661 682 627
f 593 686 684
f 594 551 662
f 704 613 607
f 696 664 553
f 597 598 673
f 615 628 652
f 665 572 666
f 655 601 632
f 617 691 567
f 692 618 644
f 587 619 679
f 644 602 634
f 624 577 698
f 659 610 646
f 625 660 579
f 640 639 648
f 648 681 640
f 671 720 626
f 626 720 638
f 681 649 640
f 647 605 672
f 672 605 683
f 683 611 684
f 612 695 581
f 581 695 663
f 662 613 724
f 650 705 582
f 724 613 704
f 687 696 608
f 598 651 673
f 630 629 665
f 665 651 630
f 653 631 652
f 675 666 655
f 653 643 642
f 666 601 655
f 676 643 653
f 573 616 690
f 654 643 676
f 654 676 656
f 654 656 657
f 633 655 632
f 656 619 657
f 680 658 679
f 634 624 709
f 622 718 635
f 709 624 698
f 670 571 637
f 571 670 700
f 646 660 659
f 578 659 660
f 625 578 660
f 604 647 732
f 604 732 671
f 641 649 682
f 685 721 612
f 594 662 686
f 706 597 673
f 664 711 628
f 673 651 674
f 666 675 665
f 616 643 690
f 667 655 689
f 676 677 656
f 656 668 669
f 655 633 697
f 567 691 619
f 656 669 619
f 669 678 619
f 669 633 692
f 678 669 692
f 679 619 678
f 645 718 622
f 635 718 694
f 635 694 637
f 638 720 639
f 647 672 732
f 661 641 682
f 685 627 702
f 721 695 612
f 596 582 687
f 664 748 711
f 674 651 665
f 628 711 652
f 707 676 653
f 667 675 655
f 643 654 690
f 676 667 689
f 676 689 677
f 573 690 617
f 677 668 656
f 691 690 654
f 657 691 654
f 689 655 697
f 669 697 633
f 669 668 697
f 657 619 691
f 694 670 637
f 577 700 698
f 639 770 648
f 649 681 710
f 701 702 627
f 685 702 721
f 662 703 686
f 738 663 695
f 663 650 582
f 582 705 687
f 614 583 706
f 688 674 665
f 707 667 676
f 691 617 690
f 678 692 693
f 678 693 713
f 679 678 713
f 679 713 680
f 644 634 717
f 710 682 649
f 672 683 729
f 701 627 682
f 686 722 684
f 663 738 723
f 723 650 663
f 707 652 711
f 665 675 688
f 653 652 707
f 689 697 677
f 677 697 668
f 712 693 692
f 644 712 692
f 680 713 716
f 709 717 634
f 700 699 698
f 694 699 670
f 699 700 670
f 741 719 671
f 719 720 671
f 682 710 757
f 701 682 757
f 684 722 731
f 703 722 686
f 662 724 703
f 696 748 664
f 726 688 675
f 726 675 667
f 726 667 708
f 707 708 667
f 694 718 762
f 671 732 741
f 720 728 639
f 732 672 729
f 681 734 710
f 735 757 710
f 683 684 731
f 721 702 737
f 687 705 725
f 674 715 673
f 674 688 726
f 715 674 726
f 708 715 726
f 644 717 712
f 680 716 727
f 750 709 698
f 750 698 699
f 681 648 734
f 742 729 683
f 683 730 742
f 683 731 730
f 701 736 702
f 746 724 704
f 696 687 725
f 614 706 747
f 766 748 696
f 767 673 756
f 756 673 715
f 711 756 715
f 711 715 708
f 716 713 693
f 712 717 739
f 717 709 776
f 727 645 680
f 718 645 727
f 699 740 750
f 699 694 762
f 720 719 728
f 729 742 751
f 701 757 758
f 737 702 736
f 738 695 721
f 703 744 722
f 723 745 650
f 696 725 714
f 767 706 673
f 748 756 711
f 708 707 711
f 768 727 716
f 718 727 762
f 740 699 762
f 733 728 719
f 701 758 736
f 737 738 721
f 738 744 723
f 650 746 705
f 746 704 755
f 705 746 725
f 704 614 755
f 712 749 693
f 639 774 770
f 733 719 741
f 729 751 732
f 734 735 710
f 731 743 730
f 736 759 737
f 731 722 743
f 744 738 754
f 723 744 745
f 724 745 703
f 650 745 746
f 755 614 747
f 766 696 714
f 749 712 739
f 693 749 760
f 716 693 760
f 717 761 739
f 758 742 752
f 758 752 736
f 743 742 730
f 722 744 743
f 738 737 754
f 745 744 703
f 745 724 746
f 725 746 755
f 725 755 714
f 728 774 639
f 741 732 751
f 733 741 751
f 752 742 759
f 759 742 743
f 752 759 736
f 759 743 753
f 753 737 759
f 743 744 754
f 753 743 754
f 753 754 737
f 755 747 714
f 747 706 767
f 717 776 761
f 776 709 765
f 735 734 777
f 763 751 758
f 758 751 742
f 756 766 767
f 756 748 766
f 796 768 716
f 765 709 750
f 763 728 733
f 763 733 751
f 757 763 758
f 757 735 771
f 714 747 766
f 772 764 749
f 749 764 760
f 760 796 716
f 648 777 734
f 778 728 763
f 763 757 771
f 766 747 767
f 772 749 775
f 769 749 761
f 749 739 761
f 648 770 777
f 778 763 771
f 773 764 772
f 769 775 749
f 768 785 727
f 762 727 785
f 774 728 778
f 777 771 735
f 784 761 776
f 785 740 762
f 778 771 777
f 775 769 782
f 783 769 784
f 769 761 784
f 760 764 779
f 740 765 750
f 778 770 774
f 773 786 764
f 781 765 740
f 777 770 778
f 780 772 775
f 795 772 780
f 775 782 780
f 786 779 764
f 779 796 760
f 784 776 793
f 768 796 785
f 776 765 793
f 781 793 765
f 740 785 781
f 789 786 773
f 798 780 782
f 769 783 782
f 785 796 788
f 793 783 784
f 785 788 781
f 780 798 795
f 779 786 791
f 787 779 791
f 779 787 796
f 790 793 781
f 782 783 798
f 790 781 788
f 789 791 786
f 772 789 773
f 783 793 792
f 794 790 788
f 795 797 772
f 797 789 772
f 789 797 791
f 791 813 787
f 787 794 796
f 793 790 792
f 796 794 788
f 799 791 797
f 792 798 783
f 787 813 794
f 801 797 800
f 800 797 795
f 790 804 792
f 794 804 790
f 799 797 801
f 800 802 801
f 808 801 802
f 795 803 800
f 798 792 814
f 814 792 804
f 807 812 808
f 801 808 799
f 799 808 811
f 799 818 791
f 795 798 809
f 791 818 813
f 806 807 805
f 812 807 806
f 807 808 802
f 811 808 812
f 802 800 820
f 811 818 799
f 809 798 814
f 805 810 806
f 810 815 806
f 806 815 812
f 805 807 817
f 820 822 802
f 822 807 802
f 820 800 803
f 813 827 794
f 827 804 794
f 817 810 805
f 812 815 811
f 817 807 822
f 818 811 816
f 803 795 809
f 827 814 804
f 811 815 819
f 816 811 819
f 810 817 815
f 815 817 819
f 824 820 803
f 822 823 817
f 823 819 817
f 831 822 820
f 816 819 832
f 824 803 809
f 809 814 833
f 818 838 813
f 833 814 827
f 831 830 825
f 821 823 826
f 831 820 835
f 820 824 835
f 809 833 824
f 838 827 813
f 828 840 829
f 821 826 840
f 840 826 823
f 821 836 823
f 823 822 840
f 823 832 819
f 837 835 824
f 824 833 837
f 818 816 838
f 838 833 827
f 829 834 828
f 829 825 834
f 840 836 821
f 825 830 842
f 829 831 825
f 840 822 829
f 831 835 830
f 839 828 834
f 841 840 828
f 836 832 823
f 822 831 829
f 843 838 816
f 828 839 841
f 834 825 844
f 825 842 844
f 842 830 835
f 832 845 816
f 833 843 837
f 838 843 833
f 836 840 841
f 842 835 837
f 842 837 843
f 845 843 816
f 845 836 841
f 846 834 844
f 846 839 834
f 832 836 845
f 841 839 845
f 846 845 839
f 846 844 842
f 843 845 846
f 846 842 843

